  0
SECTION
  2
HEADER
  9
$ACADVER
  1
AC1014
  9
$HANDSEED
  5
FFFF
  9
$INSUNITS
 70
     4
  9
$MEASUREMENT
 70
     1
  0
ENDSEC
  0
SECTION
  2
TABLES
  0
TABLE
  2
VPORT
  5
8
330
0
100
AcDbSymbolTable
 70
     4
  0
VPORT
  5
2E
330
8
100
AcDbSymbolTableRecord
100
AcDbViewportTableRecord
  2
*ACTIVE
 70
     0
 10
0.0
 20
0.0
 11
1.0
 21
1.0
 12
210.0
 22
148.5
 13
0.0
 23
0.0
 14
10.0
 24
10.0
 15
10.0
 25
10.0
 16
0.0
 26
0.0
 36
1.0
 17
0.0
 27
0.0
 37
0.0
 40
341.0
 41
1.24
 42
50.0
 43
0.0
 44
0.0
 50
0.0
 51
0.0
 71
     0
 72
   100
 73
     1
 74
     3
 75
     0
 76
     0
 77
     0
 78
     0
  0
ENDTAB
  0
TABLE
  2
LTYPE
  5
5
330
0
100
AcDbSymbolTable
 70
     1
  0
LTYPE
  5
14
330
5
100
AcDbSymbolTableRecord
100
AcDbLinetypeTableRecord
  2
BYBLOCK
 70
     0
  3

 72
    65
 73
     0
 40
0.0
  0
LTYPE
  5
15
330
5
100
AcDbSymbolTableRecord
100
AcDbLinetypeTableRecord
  2
BYLAYER
 70
     0
  3

 72
    65
 73
     0
 40
0.0
  0
LTYPE
  5
16
330
5
100
AcDbSymbolTableRecord
100
AcDbLinetypeTableRecord
  2
CONTINUOUS
 70
     0
  3
Solid line
 72
    65
 73
     0
 40
0.0
  0
ENDTAB
  0
TABLE
  2
LAYER
  5
2
100
AcDbSymbolTable
 70
1
  0
LAYER
  5
50
100
AcDbSymbolTableRecord
100
AcDbLayerTableRecord
  2
0
 70
0
  6
CONTINUOUS
  0
ENDTAB
  0
TABLE
  2
STYLE
  5
3
330
0
100
AcDbSymbolTable
 70
     1
  0
STYLE
  5
11
330
3
100
AcDbSymbolTableRecord
100
AcDbTextStyleTableRecord
  2
STANDARD
 70
     0
 40
0.0
 41
1.0
 50
0.0
 71
     0
 42
2.5
  3
txt
  4

  0
ENDTAB
  0
TABLE
  2
VIEW
  5
6
330
0
100
AcDbSymbolTable
 70
     0
  0
ENDTAB
  0
TABLE
  2
UCS
  5
7
330
0
100
AcDbSymbolTable
 70
     0
  0
ENDTAB
  0
TABLE
  2
APPID
  5
9
330
0
100
AcDbSymbolTable
 70
     2
  0
APPID
  5
12
330
9
100
AcDbSymbolTableRecord
100
AcDbRegAppTableRecord
  2
ACAD
 70
     0
  0
ENDTAB
  0
TABLE
  2
DIMSTYLE
  5
A
330
0
100
AcDbSymbolTable
 70
     1
  0
DIMSTYLE
105
27
330
A
100
AcDbSymbolTableRecord
100
AcDbDimStyleTableRecord
  2
ISO-25
 70
     0
  3

  4

  5

  6

  7

 40
1.0
 41
2.5
 42
0.625
 43
3.75
 44
1.25
 45
0.0
 46
0.0
 47
0.0
 48
0.0
140
2.5
141
2.5
142
0.0
143
0.03937007874016
144
1.0
145
0.0
146
1.0
147
0.625
 71
     0
 72
     0
 73
     0
 74
     0
 75
     0
 76
     0
 77
     1
 78
     8
170
     0
171
     3
172
     1
173
     0
174
     0
175
     0
176
     0
177
     0
178
     0
270
     2
271
     2
272
     2
273
     2
274
     3
340
11
275
     0
280
     0
281
     0
282
     0
283
     0
284
     8
285
     0
286
     0
287
     3
288
     0
  0
ENDTAB
  0
TABLE
  2
BLOCK_RECORD
  5
1
330
0
100
AcDbSymbolTable
 70
     1
  0
BLOCK_RECORD
  5
1F
330
1
100
AcDbSymbolTableRecord
100
AcDbBlockTableRecord
  2
*MODEL_SPACE
  0
BLOCK_RECORD
  5
1B
330
1
100
AcDbSymbolTableRecord
100
AcDbBlockTableRecord
  2
*PAPER_SPACE
  0
ENDTAB
  0
ENDSEC
  0
SECTION
  2
BLOCKS
  0
BLOCK
  5
20
330
1F
100
AcDbEntity
  8
0
100
AcDbBlockBegin
  2
*MODEL_SPACE
 70
     0
 10
0.0
 20
0.0
 30
0.0
  3
*MODEL_SPACE
  1

  0
ENDBLK
  5
21
330
1F
100
AcDbEntity
  8
0
100
AcDbBlockEnd
  0
BLOCK
  5
1C
330
1B
100
AcDbEntity
 67
     1
  8
0
100
AcDbBlockBegin
  2
*PAPER_SPACE
  1

  0
ENDBLK
  5
1D
330
1B
100
AcDbEntity
 67
     1
  8
0
100
AcDbBlockEnd
  0
ENDSEC
  0
SECTION
  2
ENTITIES
  0
LWPOLYLINE
  5
100
100
AcDbEntity
  8
0
 62
7
100
AcDbPolyline
 90
3
 70
0
 10
54.251700
 20
238.308500
 30
0.0
 10
53.816600
 20
238.502200
 30
0.0
 10
54.223400
 20
239.415700
 30
0.0
  0
LWPOLYLINE
  5
101
100
AcDbEntity
  8
0
 62
7
100
AcDbPolyline
 90
2
 70
0
 10
54.769200
 20
238.651400
 30
0.0
 10
55.073700
 20
238.515900
 30
0.0
  0
LWPOLYLINE
  5
102
100
AcDbEntity
  8
0
 62
7
100
AcDbPolyline
 90
4
 70
0
 10
54.991200
 20
237.979200
 30
0.0
 10
54.556200
 20
238.172900
 30
0.0
 10
54.962900
 20
239.086500
 30
0.0
 10
55.397900
 20
238.892800
 30
0.0
  0
LWPOLYLINE
  5
103
100
AcDbEntity
  8
0
 62
7
100
AcDbPolyline
 90
2
 70
0
 10
55.900300
 20
238.147900
 30
0.0
 10
55.595800
 20
238.283400
 30
0.0
  0
LWPOLYLINE
  5
104
100
AcDbEntity
  8
0
 62
7
100
AcDbPolyline
 90
3
 70
0
 10
55.382700
 20
237.804900
 30
0.0
 10
55.789400
 20
238.718500
 30
0.0
 10
56.224500
 20
238.524800
 30
0.0
  0
LWPOLYLINE
  5
105
100
AcDbEntity
  8
0
 62
7
100
AcDbPolyline
 90
2
 70
0
 10
56.442000
 20
238.427900
 30
0.0
 10
56.964000
 20
238.195500
 30
0.0
  0
LWPOLYLINE
  5
106
100
AcDbEntity
  8
0
 62
7
100
AcDbPolyline
 90
2
 70
0
 10
56.296300
 20
237.398200
 30
0.0
 10
56.703000
 20
238.311700
 30
0.0
  0
LWPOLYLINE
  5
107
100
AcDbEntity
  8
0
 62
7
100
AcDbPolyline
 90
3
 70
0
 10
281.113500
 20
204.103300
 30
0.0
 10
280.678500
 20
203.909700
 30
0.0
 10
280.271800
 20
204.823200
 30
0.0
  0
LWPOLYLINE
  5
108
100
AcDbEntity
  8
0
 62
7
100
AcDbPolyline
 90
20
 70
0
 10
281.355200
 20
204.263100
 30
0.0
 10
281.505100
 20
204.277700
 30
0.0
 10
281.722600
 20
204.374500
 30
0.0
 10
281.790200
 20
204.456700
 30
0.0
 10
281.814300
 20
204.519600
 30
0.0
 10
281.819100
 20
204.626000
 30
0.0
 10
281.780400
 20
204.713000
 30
0.0
 10
281.698100
 20
204.780600
 30
0.0
 10
281.635300
 20
204.804800
 30
0.0
 10
281.528900
 20
204.809500
 30
0.0
 10
281.335500
 20
204.775500
 30
0.0
 10
281.229100
 20
204.780300
 30
0.0
 10
281.166300
 20
204.804400
 30
0.0
 10
281.084000
 20
204.872100
 30
0.0
 10
281.045300
 20
204.959100
 30
0.0
 10
281.050100
 20
205.065500
 30
0.0
 10
281.074200
 20
205.128300
 30
0.0
 10
281.141800
 20
205.210600
 30
0.0
 10
281.359300
 20
205.307400
 30
0.0
 10
281.509200
 20
205.322000
 30
0.0
  0
LWPOLYLINE
  5
109
100
AcDbEntity
  8
0
 62
7
100
AcDbPolyline
 90
10
 70
0
 10
113.575300
 20
169.250900
 30
0.0
 10
114.051200
 20
168.596000
 30
0.0
 10
114.145700
 20
168.546900
 30
0.0
 10
114.212200
 20
168.536400
 30
0.0
 10
114.317200
 20
168.553800
 30
0.0
 10
114.471300
 20
168.665800
 30
0.0
 10
114.520400
 20
168.760300
 30
0.0
 10
114.530900
 20
168.826800
 30
0.0
 10
114.513500
 20
168.931800
 30
0.0
 10
114.037600
 20
169.586800
 30
0.0
  0
LWPOLYLINE
  5
10a
100
AcDbEntity
  8
0
 62
7
100
AcDbPolyline
 90
11
 70
0
 10
115.010700
 20
169.057600
 30
0.0
 10
114.422900
 20
169.866700
 30
0.0
 10
114.731100
 20
170.090600
 30
0.0
 10
114.836100
 20
170.108000
 30
0.0
 10
114.902600
 20
170.097500
 30
0.0
 10
114.997100
 20
170.048400
 30
0.0
 10
115.081100
 20
169.932900
 30
0.0
 10
115.098600
 20
169.827800
 30
0.0
 10
115.088000
 20
169.761300
 30
0.0
 10
115.039000
 20
169.666800
 30
0.0
 10
114.730800
 20
169.442900
 30
0.0
  0
LWPOLYLINE
  5
10b
100
AcDbEntity
  8
0
 62
7
100
AcDbPolyline
 90
11
 70
0
 10
115.865800
 20
170.797200
 30
0.0
 10
115.876300
 20
170.863800
 30
0.0
 10
115.925300
 20
170.958300
 30
0.0
 10
116.118000
 20
171.098200
 30
0.0
 10
116.223000
 20
171.115700
 30
0.0
 10
116.289500
 20
171.105100
 30
0.0
 10
116.384000
 20
171.056100
 30
0.0
 10
116.440000
 20
170.979000
 30
0.0
 10
116.485500
 20
170.835500
 30
0.0
 10
116.359000
 20
170.037300
 30
0.0
 10
116.859900
 20
170.401200
 30
0.0
  0
LWPOLYLINE
  5
10c
100
AcDbEntity
  8
0
 62
7
100
AcDbPolyline
 90
2
 70
0
 10
265.363500
 20
238.353300
 30
0.0
 10
264.865300
 20
238.652800
 30
0.0
  0
LWPOLYLINE
  5
10d
100
AcDbEntity
  8
0
 62
7
100
AcDbPolyline
 90
11
 70
0
 10
264.841500
 20
238.120900
 30
0.0
 10
264.434800
 20
239.034500
 30
0.0
 10
264.782800
 20
239.189400
 30
0.0
 10
264.889200
 20
239.184600
 30
0.0
 10
264.952000
 20
239.160500
 30
0.0
 10
265.034300
 20
239.092900
 30
0.0
 10
265.092400
 20
238.962400
 30
0.0
 10
265.087600
 20
238.856000
 30
0.0
 10
265.063500
 20
238.793100
 30
0.0
 10
264.995800
 20
238.710900
 30
0.0
 10
264.647800
 20
238.555900
 30
0.0
  0
LWPOLYLINE
  5
10e
100
AcDbEntity
  8
0
 62
7
100
AcDbPolyline
 90
20
 70
0
 10
265.692200
 20
238.551800
 30
0.0
 10
265.842100
 20
238.566400
 30
0.0
 10
266.059600
 20
238.663200
 30
0.0
 10
266.127200
 20
238.745500
 30
0.0
 10
266.151300
 20
238.808300
 30
0.0
 10
266.156100
 20
238.914700
 30
0.0
 10
266.117400
 20
239.001700
 30
0.0
 10
266.035100
 20
239.069400
 30
0.0
 10
265.972300
 20
239.093500
 30
0.0
 10
265.865900
 20
239.098300
 30
0.0
 10
265.672500
 20
239.064300
 30
0.0
 10
265.566100
 20
239.069000
 30
0.0
 10
265.503300
 20
239.093200
 30
0.0
 10
265.421000
 20
239.160800
 30
0.0
 10
265.382300
 20
239.247800
 30
0.0
 10
265.387100
 20
239.354200
 30
0.0
 10
265.411200
 20
239.417100
 30
0.0
 10
265.478800
 20
239.499300
 30
0.0
 10
265.696300
 20
239.596100
 30
0.0
 10
265.846200
 20
239.610700
 30
0.0
  0
LWPOLYLINE
  5
10f
100
AcDbEntity
  8
0
 62
7
100
AcDbPolyline
 90
2
 70
0
 10
335.700500
 20
267.142100
 30
0.0
 10
335.202300
 20
267.441500
 30
0.0
  0
LWPOLYLINE
  5
110
100
AcDbEntity
  8
0
 62
7
100
AcDbPolyline
 90
11
 70
0
 10
335.178500
 20
266.909700
 30
0.0
 10
334.771800
 20
267.823200
 30
0.0
 10
335.119800
 20
267.978100
 30
0.0
 10
335.226200
 20
267.973400
 30
0.0
 10
335.289000
 20
267.949200
 30
0.0
 10
335.371300
 20
267.881600
 30
0.0
 10
335.429400
 20
267.751100
 30
0.0
 10
335.424600
 20
267.644700
 30
0.0
 10
335.400500
 20
267.581900
 30
0.0
 10
335.332900
 20
267.499600
 30
0.0
 10
334.984800
 20
267.344700
 30
0.0
  0
LWPOLYLINE
  5
111
100
AcDbEntity
  8
0
 62
7
100
AcDbPolyline
 90
2
 70
0
 10
335.554800
 20
268.171800
 30
0.0
 10
336.076800
 20
268.404300
 30
0.0
  0
LWPOLYLINE
  5
112
100
AcDbEntity
  8
0
 62
7
100
AcDbPolyline
 90
2
 70
0
 10
336.222600
 20
267.374500
 30
0.0
 10
335.815800
 20
268.288000
 30
0.0
  0
LWPOLYLINE
  5
113
100
AcDbEntity
  8
0
 62
7
100
AcDbPolyline
 90
10
 70
0
 10
268.005500
 20
171.018600
 30
0.0
 10
267.529700
 20
170.363700
 30
0.0
 10
267.512200
 20
170.258600
 30
0.0
 10
267.522800
 20
170.192100
 30
0.0
 10
267.571800
 20
170.097600
 30
0.0
 10
267.725900
 20
169.985600
 30
0.0
 10
267.831000
 20
169.968200
 30
0.0
 10
267.897500
 20
169.978700
 30
0.0
 10
267.992000
 20
170.027800
 30
0.0
 10
268.467800
 20
170.682700
 30
0.0
  0
LWPOLYLINE
  5
114
100
AcDbEntity
  8
0
 62
7
100
AcDbPolyline
 90
11
 70
0
 10
268.265300
 20
169.593800
 30
0.0
 10
268.853100
 20
170.402800
 30
0.0
 10
269.161300
 20
170.178900
 30
0.0
 10
269.210300
 20
170.084400
 30
0.0
 10
269.220800
 20
170.017900
 30
0.0
 10
269.203400
 20
169.912800
 30
0.0
 10
269.119400
 20
169.797300
 30
0.0
 10
269.024900
 20
169.748200
 30
0.0
 10
268.958400
 20
169.737700
 30
0.0
 10
268.853400
 20
169.755100
 30
0.0
 10
268.545200
 20
169.979000
 30
0.0
  0
LWPOLYLINE
  5
115
100
AcDbEntity
  8
0
 62
7
100
AcDbPolyline
 90
14
 70
0
 10
270.201400
 20
169.423200
 30
0.0
 10
270.702200
 20
169.059300
 30
0.0
 10
270.208600
 20
168.947000
 30
0.0
 10
270.324200
 20
168.863100
 30
0.0
 10
270.373300
 20
168.768600
 30
0.0
 10
270.383800
 20
168.702000
 30
0.0
 10
270.366400
 20
168.597000
 30
0.0
 10
270.226400
 20
168.404400
 30
0.0
 10
270.131900
 20
168.355300
 30
0.0
 10
270.065400
 20
168.344800
 30
0.0
 10
269.960400
 20
168.362200
 30
0.0
 10
269.729200
 20
168.530200
 30
0.0
 10
269.680100
 20
168.624700
 30
0.0
 10
269.669600
 20
168.691200
 30
0.0
  0
LWPOLYLINE
  5
116
100
AcDbEntity
  8
0
 62
7
100
AcDbPolyline
 90
16
 70
1
 10
170.116400
 20
261.432400
 30
0.0
 10
170.306800
 20
261.432400
 30
0.0
 10
170.402100
 20
261.384800
 30
0.0
 10
170.497300
 20
261.289500
 30
0.0
 10
170.544900
 20
261.099000
 30
0.0
 10
170.544900
 20
260.765700
 30
0.0
 10
170.497300
 20
260.575200
 30
0.0
 10
170.402100
 20
260.480000
 30
0.0
 10
170.306800
 20
260.432400
 30
0.0
 10
170.116400
 20
260.432400
 30
0.0
 10
170.021100
 20
260.480000
 30
0.0
 10
169.925900
 20
260.575200
 30
0.0
 10
169.878300
 20
260.765700
 30
0.0
 10
169.878300
 20
261.099000
 30
0.0
 10
169.925900
 20
261.289500
 30
0.0
 10
170.021100
 20
261.384800
 30
0.0
  0
LWPOLYLINE
  5
117
100
AcDbEntity
  8
0
 62
7
100
AcDbPolyline
 90
2
 70
0
 10
170.830700
 20
261.432400
 30
0.0
 10
171.402100
 20
261.432400
 30
0.0
  0
LWPOLYLINE
  5
118
100
AcDbEntity
  8
0
 62
7
100
AcDbPolyline
 90
2
 70
0
 10
171.116400
 20
260.432400
 30
0.0
 10
171.116400
 20
261.432400
 30
0.0
  0
LWPOLYLINE
  5
119
100
AcDbEntity
  8
0
 62
7
100
AcDbPolyline
 90
2
 70
0
 10
171.735400
 20
260.432400
 30
0.0
 10
171.735400
 20
261.432400
 30
0.0
  0
LWPOLYLINE
  5
11a
100
AcDbEntity
  8
0
 62
7
100
AcDbPolyline
 90
2
 70
0
 10
171.735400
 20
260.956200
 30
0.0
 10
172.306800
 20
260.956200
 30
0.0
  0
LWPOLYLINE
  5
11b
100
AcDbEntity
  8
0
 62
7
100
AcDbPolyline
 90
2
 70
0
 10
172.306800
 20
260.432400
 30
0.0
 10
172.306800
 20
261.432400
 30
0.0
  0
LWPOLYLINE
  5
11c
100
AcDbEntity
  8
0
 62
7
100
AcDbPolyline
 90
2
 70
0
 10
172.783000
 20
260.956200
 30
0.0
 10
173.116400
 20
260.956200
 30
0.0
  0
LWPOLYLINE
  5
11d
100
AcDbEntity
  8
0
 62
7
100
AcDbPolyline
 90
4
 70
0
 10
173.259200
 20
260.432400
 30
0.0
 10
172.783000
 20
260.432400
 30
0.0
 10
172.783000
 20
261.432400
 30
0.0
 10
173.259200
 20
261.432400
 30
0.0
  0
LWPOLYLINE
  5
11e
100
AcDbEntity
  8
0
 62
7
100
AcDbPolyline
 90
2
 70
0
 10
174.259200
 20
260.432400
 30
0.0
 10
173.925900
 20
260.908600
 30
0.0
  0
LWPOLYLINE
  5
11f
100
AcDbEntity
  8
0
 62
7
100
AcDbPolyline
 90
11
 70
0
 10
173.687800
 20
260.432400
 30
0.0
 10
173.687800
 20
261.432400
 30
0.0
 10
174.068700
 20
261.432400
 30
0.0
 10
174.164000
 20
261.384800
 30
0.0
 10
174.211600
 20
261.337100
 30
0.0
 10
174.259200
 20
261.241900
 30
0.0
 10
174.259200
 20
261.099000
 30
0.0
 10
174.211600
 20
261.003800
 30
0.0
 10
174.164000
 20
260.956200
 30
0.0
 10
174.068700
 20
260.908600
 30
0.0
 10
173.687800
 20
260.908600
 30
0.0
  0
LWPOLYLINE
  5
120
100
AcDbEntity
  8
0
 62
7
100
AcDbPolyline
 90
3
 70
0
 10
351.700500
 20
232.892100
 30
0.0
 10
351.265500
 20
232.698400
 30
0.0
 10
350.858800
 20
233.611900
 30
0.0
  0
LWPOLYLINE
  5
121
100
AcDbEntity
  8
0
 62
7
100
AcDbPolyline
 90
2
 70
0
 10
351.467800
 20
233.883100
 30
0.0
 10
351.989800
 20
234.115500
 30
0.0
  0
LWPOLYLINE
  5
122
100
AcDbEntity
  8
0
 62
7
100
AcDbPolyline
 90
2
 70
0
 10
352.135600
 20
233.085800
 30
0.0
 10
351.728800
 20
233.999300
 30
0.0
  0
LWPOLYLINE
  5
123
100
AcDbEntity
  8
0
 62
7
100
AcDbPolyline
 90
10
 70
0
 10
88.777600
 20
268.502900
 30
0.0
 10
88.448300
 20
267.763300
 30
0.0
 10
88.453100
 20
267.657000
 30
0.0
 10
88.477200
 20
267.594100
 30
0.0
 10
88.544900
 20
267.511900
 30
0.0
 10
88.718900
 20
267.434400
 30
0.0
 10
88.825300
 20
267.439200
 30
0.0
 10
88.888100
 20
267.463300
 30
0.0
 10
88.970400
 20
267.530900
 30
0.0
 10
89.299600
 20
268.270500
 30
0.0
  0
LWPOLYLINE
  5
124
100
AcDbEntity
  8
0
 62
7
100
AcDbPolyline
 90
11
 70
0
 10
89.327900
 20
267.163200
 30
0.0
 10
89.734700
 20
268.076800
 30
0.0
 10
90.082700
 20
267.921800
 30
0.0
 10
90.150300
 20
267.839600
 30
0.0
 10
90.174400
 20
267.776700
 30
0.0
 10
90.179200
 20
267.670300
 30
0.0
 10
90.121100
 20
267.539800
 30
0.0
 10
90.038900
 20
267.472200
 30
0.0
 10
89.976000
 20
267.448100
 30
0.0
 10
89.869600
 20
267.443300
 30
0.0
 10
89.521600
 20
267.598300
 30
0.0
  0
LWPOLYLINE
  5
125
100
AcDbEntity
  8
0
 62
7
100
AcDbPolyline
 90
2
 70
0
 10
91.416000
 20
266.233500
 30
0.0
 10
90.894000
 20
266.466000
 30
0.0
  0
LWPOLYLINE
  5
126
100
AcDbEntity
  8
0
 62
7
100
AcDbPolyline
 90
5
 70
0
 10
91.155000
 20
266.349800
 30
0.0
 10
91.561700
 20
267.263300
 30
0.0
 10
91.416600
 20
267.171500
 30
0.0
 10
91.290900
 20
267.123300
 30
0.0
 10
91.184500
 20
267.118500
 30
0.0
  0
LWPOLYLINE
  5
127
100
AcDbEntity
  8
0
 62
7
100
AcDbPolyline
 90
20
 70
0
 10
134.342600
 20
260.480000
 30
0.0
 10
134.485400
 20
260.432400
 30
0.0
 10
134.723500
 20
260.432400
 30
0.0
 10
134.818700
 20
260.480000
 30
0.0
 10
134.866400
 20
260.527600
 30
0.0
 10
134.914000
 20
260.622900
 30
0.0
 10
134.914000
 20
260.718100
 30
0.0
 10
134.866400
 20
260.813300
 30
0.0
 10
134.818700
 20
260.861000
 30
0.0
 10
134.723500
 20
260.908600
 30
0.0
 10
134.533000
 20
260.956200
 30
0.0
 10
134.437800
 20
261.003800
 30
0.0
 10
134.390200
 20
261.051400
 30
0.0
 10
134.342600
 20
261.146700
 30
0.0
 10
134.342600
 20
261.241900
 30
0.0
 10
134.390200
 20
261.337100
 30
0.0
 10
134.437800
 20
261.384800
 30
0.0
 10
134.533000
 20
261.432400
 30
0.0
 10
134.771100
 20
261.432400
 30
0.0
 10
134.914000
 20
261.384800
 30
0.0
  0
LWPOLYLINE
  5
128
100
AcDbEntity
  8
0
 62
7
100
AcDbPolyline
 90
2
 70
0
 10
135.199700
 20
261.432400
 30
0.0
 10
135.771100
 20
261.432400
 30
0.0
  0
LWPOLYLINE
  5
129
100
AcDbEntity
  8
0
 62
7
100
AcDbPolyline
 90
2
 70
0
 10
135.485400
 20
260.432400
 30
0.0
 10
135.485400
 20
261.432400
 30
0.0
  0
LWPOLYLINE
  5
12a
100
AcDbEntity
  8
0
 62
7
100
AcDbPolyline
 90
2
 70
0
 10
136.056800
 20
260.718100
 30
0.0
 10
136.533000
 20
260.718100
 30
0.0
  0
LWPOLYLINE
  5
12b
100
AcDbEntity
  8
0
 62
7
100
AcDbPolyline
 90
3
 70
0
 10
135.961600
 20
260.432400
 30
0.0
 10
136.294900
 20
261.432400
 30
0.0
 10
136.628300
 20
260.432400
 30
0.0
  0
LWPOLYLINE
  5
12c
100
AcDbEntity
  8
0
 62
7
100
AcDbPolyline
 90
2
 70
0
 10
137.533000
 20
260.432400
 30
0.0
 10
137.199700
 20
260.908600
 30
0.0
  0
LWPOLYLINE
  5
12d
100
AcDbEntity
  8
0
 62
7
100
AcDbPolyline
 90
11
 70
0
 10
136.961600
 20
260.432400
 30
0.0
 10
136.961600
 20
261.432400
 30
0.0
 10
137.342600
 20
261.432400
 30
0.0
 10
137.437800
 20
261.384800
 30
0.0
 10
137.485400
 20
261.337100
 30
0.0
 10
137.533000
 20
261.241900
 30
0.0
 10
137.533000
 20
261.099000
 30
0.0
 10
137.485400
 20
261.003800
 30
0.0
 10
137.437800
 20
260.956200
 30
0.0
 10
137.342600
 20
260.908600
 30
0.0
 10
136.961600
 20
260.908600
 30
0.0
  0
LWPOLYLINE
  5
12e
100
AcDbEntity
  8
0
 62
7
100
AcDbPolyline
 90
2
 70
0
 10
137.818700
 20
261.432400
 30
0.0
 10
138.390200
 20
261.432400
 30
0.0
  0
LWPOLYLINE
  5
12f
100
AcDbEntity
  8
0
 62
7
100
AcDbPolyline
 90
2
 70
0
 10
138.104500
 20
260.432400
 30
0.0
 10
138.104500
 20
261.432400
 30
0.0
  0
LWPOLYLINE
  5
130
100
AcDbEntity
  8
0
 62
7
100
AcDbPolyline
 90
2
 70
0
 10
298.072100
 20
258.856100
 30
0.0
 10
298.265800
 20
258.421100
 30
0.0
  0
LWPOLYLINE
  5
131
100
AcDbEntity
  8
0
 62
7
100
AcDbPolyline
 90
3
 70
0
 10
297.554500
 20
259.199100
 30
0.0
 10
298.072100
 20
258.856100
 30
0.0
 10
298.163600
 20
259.470300
 30
0.0
  0
LWPOLYLINE
  5
132
100
AcDbEntity
  8
0
 62
7
100
AcDbPolyline
 90
2
 70
0
 10
316.591800
 20
263.843700
 30
0.0
 10
316.093600
 20
264.143100
 30
0.0
  0
LWPOLYLINE
  5
133
100
AcDbEntity
  8
0
 62
7
100
AcDbPolyline
 90
11
 70
0
 10
316.069800
 20
263.611200
 30
0.0
 10
315.663000
 20
264.524800
 30
0.0
 10
316.011000
 20
264.679700
 30
0.0
 10
316.117400
 20
264.675000
 30
0.0
 10
316.180300
 20
264.650800
 30
0.0
 10
316.262500
 20
264.583200
 30
0.0
 10
316.320600
 20
264.452700
 30
0.0
 10
316.315900
 20
264.346300
 30
0.0
 10
316.291700
 20
264.283400
 30
0.0
 10
316.224100
 20
264.201200
 30
0.0
 10
315.876100
 20
264.046300
 30
0.0
  0
LWPOLYLINE
  5
134
100
AcDbEntity
  8
0
 62
7
100
AcDbPolyline
 90
19
 70
0
 10
317.074800
 20
264.632100
 30
0.0
 10
317.224600
 20
264.646700
 30
0.0
 10
317.287500
 20
264.622500
 30
0.0
 10
317.369800
 20
264.554900
 30
0.0
 10
317.427900
 20
264.424400
 30
0.0
 10
317.423100
 20
264.318000
 30
0.0
 10
317.399000
 20
264.255200
 30
0.0
 10
317.331300
 20
264.172900
 30
0.0
 10
316.983300
 20
264.018000
 30
0.0
 10
316.576600
 20
264.931500
 30
0.0
 10
316.881100
 20
265.067100
 30
0.0
 10
316.987500
 20
265.062300
 30
0.0
 10
317.050300
 20
265.038200
 30
0.0
 10
317.132600
 20
264.970600
 30
0.0
 10
317.171300
 20
264.883600
 30
0.0
 10
317.166500
 20
264.777200
 30
0.0
 10
317.142400
 20
264.714300
 30
0.0
 10
317.074800
 20
264.632100
 30
0.0
 10
316.770300
 20
264.496500
 30
0.0
  0
LWPOLYLINE
  5
135
100
AcDbEntity
  8
0
 62
7
100
AcDbPolyline
 90
12
 70
1
 10
71.903400
 20
233.186200
 30
0.0
 10
72.310100
 20
234.099700
 30
0.0
 10
72.527600
 20
234.002900
 30
0.0
 10
72.638700
 20
233.901300
 30
0.0
 10
72.687000
 20
233.775500
 30
0.0
 10
72.691800
 20
233.669200
 30
0.0
 10
72.657800
 20
233.475800
 30
0.0
 10
72.599700
 20
233.345300
 30
0.0
 10
72.478700
 20
233.190600
 30
0.0
 10
72.396500
 20
233.123000
 30
0.0
 10
72.270700
 20
233.074700
 30
0.0
 10
72.120900
 20
233.089300
 30
0.0
  0
LWPOLYLINE
  5
136
100
AcDbEntity
  8
0
 62
7
100
AcDbPolyline
 90
16
 70
1
 10
73.397700
 20
233.615500
 30
0.0
 10
73.571700
 20
233.538000
 30
0.0
 10
73.639300
 20
233.455800
 30
0.0
 10
73.687600
 20
233.330100
 30
0.0
 10
73.653600
 20
233.136700
 30
0.0
 10
73.518000
 20
232.832200
 30
0.0
 10
73.397000
 20
232.677500
 30
0.0
 10
73.271300
 20
232.629300
 30
0.0
 10
73.164900
 20
232.624500
 30
0.0
 10
72.990900
 20
232.702000
 30
0.0
 10
72.923300
 20
232.784200
 30
0.0
 10
72.875000
 20
232.909900
 30
0.0
 10
72.909000
 20
233.103300
 30
0.0
 10
73.044600
 20
233.407800
 30
0.0
 10
73.165500
 20
233.562500
 30
0.0
 10
73.291300
 20
233.610700
 30
0.0
  0
LWPOLYLINE
  5
137
100
AcDbEntity
  8
0
 62
7
100
AcDbPolyline
 90
5
 70
0
 10
74.093700
 20
233.305600
 30
0.0
 10
73.904500
 20
232.295200
 30
0.0
 10
74.369000
 20
232.870300
 30
0.0
 10
74.252500
 20
232.140300
 30
0.0
 10
74.876700
 20
232.957000
 30
0.0
  0
LWPOLYLINE
  5
138
100
AcDbEntity
  8
0
 62
7
100
AcDbPolyline
 90
4
 70
0
 10
74.818000
 20
231.888500
 30
0.0
 10
75.224700
 20
232.802000
 30
0.0
 10
75.340000
 20
231.656100
 30
0.0
 10
75.746800
 20
232.569600
 30
0.0
  0
LWPOLYLINE
  5
139
100
AcDbEntity
  8
0
 62
7
100
AcDbPolyline
 90
3
 70
0
 10
332.341800
 20
229.343700
 30
0.0
 10
331.906800
 20
229.150000
 30
0.0
 10
331.500000
 20
230.063500
 30
0.0
  0
LWPOLYLINE
  5
13a
100
AcDbEntity
  8
0
 62
7
100
AcDbPolyline
 90
19
 70
0
 10
332.737800
 20
230.093300
 30
0.0
 10
332.887600
 20
230.107900
 30
0.0
 10
332.950500
 20
230.083800
 30
0.0
 10
333.032800
 20
230.016200
 30
0.0
 10
333.090900
 20
229.885700
 30
0.0
 10
333.086100
 20
229.779300
 30
0.0
 10
333.062000
 20
229.716400
 30
0.0
 10
332.994300
 20
229.634200
 30
0.0
 10
332.646300
 20
229.479200
 30
0.0
 10
332.239600
 20
230.392800
 30
0.0
 10
332.544100
 20
230.528400
 30
0.0
 10
332.650500
 20
230.523600
 30
0.0
 10
332.713300
 20
230.499500
 30
0.0
 10
332.795600
 20
230.431800
 30
0.0
 10
332.834300
 20
230.344800
 30
0.0
 10
332.829500
 20
230.238400
 30
0.0
 10
332.805400
 20
230.175600
 30
0.0
 10
332.737800
 20
230.093300
 30
0.0
 10
332.433300
 20
229.957800
 30
0.0
  0
LWPOLYLINE
  5
13b
100
AcDbEntity
  8
0
 62
7
100
AcDbPolyline
 90
2
 70
0
 10
297.432100
 20
214.085300
 30
0.0
 10
297.867100
 20
214.279000
 30
0.0
  0
LWPOLYLINE
  5
13c
100
AcDbEntity
  8
0
 62
7
100
AcDbPolyline
 90
3
 70
0
 10
297.461300
 20
213.785500
 30
0.0
 10
297.359100
 20
214.834700
 30
0.0
 10
298.070300
 20
214.056700
 30
0.0
  0
LWPOLYLINE
  5
13d
100
AcDbEntity
  8
0
 62
7
100
AcDbPolyline
 90
17
 70
0
 10
158.866400
 20
261.384800
 30
0.0
 10
158.771100
 20
261.432400
 30
0.0
 10
158.628300
 20
261.432400
 30
0.0
 10
158.485400
 20
261.384800
 30
0.0
 10
158.390200
 20
261.289500
 30
0.0
 10
158.342600
 20
261.194300
 30
0.0
 10
158.294900
 20
261.003800
 30
0.0
 10
158.294900
 20
260.861000
 30
0.0
 10
158.342600
 20
260.670500
 30
0.0
 10
158.390200
 20
260.575200
 30
0.0
 10
158.485400
 20
260.480000
 30
0.0
 10
158.628300
 20
260.432400
 30
0.0
 10
158.723500
 20
260.432400
 30
0.0
 10
158.866400
 20
260.480000
 30
0.0
 10
158.914000
 20
260.527600
 30
0.0
 10
158.914000
 20
260.861000
 30
0.0
 10
158.723500
 20
260.861000
 30
0.0
  0
LWPOLYLINE
  5
13e
100
AcDbEntity
  8
0
 62
7
100
AcDbPolyline
 90
10
 70
0
 10
159.342600
 20
261.432400
 30
0.0
 10
159.342600
 20
260.622900
 30
0.0
 10
159.390200
 20
260.527600
 30
0.0
 10
159.437800
 20
260.480000
 30
0.0
 10
159.533000
 20
260.432400
 30
0.0
 10
159.723500
 20
260.432400
 30
0.0
 10
159.818700
 20
260.480000
 30
0.0
 10
159.866400
 20
260.527600
 30
0.0
 10
159.914000
 20
260.622900
 30
0.0
 10
159.914000
 20
261.432400
 30
0.0
  0
LWPOLYLINE
  5
13f
100
AcDbEntity
  8
0
 62
7
100
AcDbPolyline
 90
2
 70
0
 10
160.390200
 20
260.432400
 30
0.0
 10
160.390200
 20
261.432400
 30
0.0
  0
LWPOLYLINE
  5
140
100
AcDbEntity
  8
0
 62
7
100
AcDbPolyline
 90
12
 70
1
 10
160.866400
 20
260.432400
 30
0.0
 10
160.866400
 20
261.432400
 30
0.0
 10
161.104500
 20
261.432400
 30
0.0
 10
161.247300
 20
261.384800
 30
0.0
 10
161.342600
 20
261.289500
 30
0.0
 10
161.390200
 20
261.194300
 30
0.0
 10
161.437800
 20
261.003800
 30
0.0
 10
161.437800
 20
260.861000
 30
0.0
 10
161.390200
 20
260.670500
 30
0.0
 10
161.342600
 20
260.575200
 30
0.0
 10
161.247300
 20
260.480000
 30
0.0
 10
161.104500
 20
260.432400
 30
0.0
  0
LWPOLYLINE
  5
141
100
AcDbEntity
  8
0
 62
7
100
AcDbPolyline
 90
2
 70
0
 10
161.866400
 20
260.956200
 30
0.0
 10
162.199700
 20
260.956200
 30
0.0
  0
LWPOLYLINE
  5
142
100
AcDbEntity
  8
0
 62
7
100
AcDbPolyline
 90
4
 70
0
 10
162.342600
 20
260.432400
 30
0.0
 10
161.866400
 20
260.432400
 30
0.0
 10
161.866400
 20
261.432400
 30
0.0
 10
162.342600
 20
261.432400
 30
0.0
  0
LWPOLYLINE
  5
143
100
AcDbEntity
  8
0
 62
7
100
AcDbPolyline
 90
19
 70
0
 10
314.118000
 20
224.178700
 30
0.0
 10
314.267900
 20
224.193300
 30
0.0
 10
314.330700
 20
224.169200
 30
0.0
 10
314.413000
 20
224.101500
 30
0.0
 10
314.471100
 20
223.971000
 30
0.0
 10
314.466300
 20
223.864700
 30
0.0
 10
314.442200
 20
223.801800
 30
0.0
 10
314.374600
 20
223.719500
 30
0.0
 10
314.026500
 20
223.564600
 30
0.0
 10
313.619800
 20
224.478100
 30
0.0
 10
313.924300
 20
224.613700
 30
0.0
 10
314.030700
 20
224.609000
 30
0.0
 10
314.093600
 20
224.584800
 30
0.0
 10
314.175800
 20
224.517200
 30
0.0
 10
314.214500
 20
224.430200
 30
0.0
 10
314.209800
 20
224.323800
 30
0.0
 10
314.185600
 20
224.260900
 30
0.0
 10
314.118000
 20
224.178700
 30
0.0
 10
313.813500
 20
224.043100
 30
0.0
  0
LWPOLYLINE
  5
144
100
AcDbEntity
  8
0
 62
7
100
AcDbPolyline
 90
19
 70
0
 10
146.961600
 20
260.956200
 30
0.0
 10
147.104500
 20
260.908600
 30
0.0
 10
147.152100
 20
260.861000
 30
0.0
 10
147.199700
 20
260.765700
 30
0.0
 10
147.199700
 20
260.622900
 30
0.0
 10
147.152100
 20
260.527600
 30
0.0
 10
147.104500
 20
260.480000
 30
0.0
 10
147.009200
 20
260.432400
 30
0.0
 10
146.628300
 20
260.432400
 30
0.0
 10
146.628300
 20
261.432400
 30
0.0
 10
146.961600
 20
261.432400
 30
0.0
 10
147.056800
 20
261.384800
 30
0.0
 10
147.104500
 20
261.337100
 30
0.0
 10
147.152100
 20
261.241900
 30
0.0
 10
147.152100
 20
261.146700
 30
0.0
 10
147.104500
 20
261.051400
 30
0.0
 10
147.056800
 20
261.003800
 30
0.0
 10
146.961600
 20
260.956200
 30
0.0
 10
146.628300
 20
260.956200
 30
0.0
  0
LWPOLYLINE
  5
145
100
AcDbEntity
  8
0
 62
7
100
AcDbPolyline
 90
2
 70
0
 10
147.580700
 20
260.718100
 30
0.0
 10
148.056800
 20
260.718100
 30
0.0
  0
LWPOLYLINE
  5
146
100
AcDbEntity
  8
0
 62
7
100
AcDbPolyline
 90
3
 70
0
 10
147.485400
 20
260.432400
 30
0.0
 10
147.818700
 20
261.432400
 30
0.0
 10
148.152100
 20
260.432400
 30
0.0
  0
LWPOLYLINE
  5
147
100
AcDbEntity
  8
0
 62
7
100
AcDbPolyline
 90
16
 70
0
 10
149.056800
 20
260.527600
 30
0.0
 10
149.009200
 20
260.480000
 30
0.0
 10
148.866400
 20
260.432400
 30
0.0
 10
148.771100
 20
260.432400
 30
0.0
 10
148.628300
 20
260.480000
 30
0.0
 10
148.533000
 20
260.575200
 30
0.0
 10
148.485400
 20
260.670500
 30
0.0
 10
148.437800
 20
260.861000
 30
0.0
 10
148.437800
 20
261.003800
 30
0.0
 10
148.485400
 20
261.194300
 30
0.0
 10
148.533000
 20
261.289500
 30
0.0
 10
148.628300
 20
261.384800
 30
0.0
 10
148.771100
 20
261.432400
 30
0.0
 10
148.866400
 20
261.432400
 30
0.0
 10
149.009200
 20
261.384800
 30
0.0
 10
149.056800
 20
261.337100
 30
0.0
  0
LWPOLYLINE
  5
148
100
AcDbEntity
  8
0
 62
7
100
AcDbPolyline
 90
2
 70
0
 10
149.485400
 20
260.432400
 30
0.0
 10
149.485400
 20
261.432400
 30
0.0
  0
LWPOLYLINE
  5
149
100
AcDbEntity
  8
0
 62
7
100
AcDbPolyline
 90
2
 70
0
 10
150.056800
 20
260.432400
 30
0.0
 10
149.628300
 20
261.003800
 30
0.0
  0
LWPOLYLINE
  5
14a
100
AcDbEntity
  8
0
 62
7
100
AcDbPolyline
 90
2
 70
0
 10
150.056800
 20
261.432400
 30
0.0
 10
149.485400
 20
260.861000
 30
0.0
  0
LWPOLYLINE
  5
14b
100
AcDbEntity
  8
0
 62
7
100
AcDbPolyline
 90
2
 70
0
 10
281.304500
 20
249.199100
 30
0.0
 10
282.320300
 20
248.556700
 30
0.0
  0
LWPOLYLINE
  5
14c
100
AcDbEntity
  8
0
 62
7
100
AcDbPolyline
 90
2
 70
0
 10
281.913600
 20
249.470300
 30
0.0
 10
281.711300
 20
248.285500
 30
0.0
  0
LWPOLYLINE
  5
14d
100
AcDbEntity
  8
0
 62
7
100
AcDbPolyline
 90
2
 70
0
 10
88.951400
 20
223.051700
 30
0.0
 10
88.840600
 20
223.622300
 30
0.0
  0
LWPOLYLINE
  5
14e
100
AcDbEntity
  8
0
 62
7
100
AcDbPolyline
 90
11
 70
0
 10
88.429400
 20
223.284100
 30
0.0
 10
88.836100
 20
224.197700
 30
0.0
 10
89.184100
 20
224.042700
 30
0.0
 10
89.251800
 20
223.960500
 30
0.0
 10
89.275900
 20
223.897600
 30
0.0
 10
89.280700
 20
223.791300
 30
0.0
 10
89.222500
 20
223.660800
 30
0.0
 10
89.140300
 20
223.593100
 30
0.0
 10
89.077400
 20
223.569000
 30
0.0
 10
88.971100
 20
223.564200
 30
0.0
 10
88.623000
 20
223.719200
 30
0.0
  0
LWPOLYLINE
  5
14f
100
AcDbEntity
  8
0
 62
7
100
AcDbPolyline
 90
2
 70
0
 10
89.342900
 20
222.877400
 30
0.0
 10
89.749600
 20
223.791000
 30
0.0
  0
LWPOLYLINE
  5
150
100
AcDbEntity
  8
0
 62
7
100
AcDbPolyline
 90
17
 70
0
 10
90.643800
 20
223.340700
 30
0.0
 10
90.576200
 20
223.423000
 30
0.0
 10
90.445700
 20
223.481100
 30
0.0
 10
90.295800
 20
223.495700
 30
0.0
 10
90.170100
 20
223.447400
 30
0.0
 10
90.087800
 20
223.379800
 30
0.0
 10
89.966800
 20
223.225100
 30
0.0
 10
89.908700
 20
223.094600
 30
0.0
 10
89.874800
 20
222.901200
 30
0.0
 10
89.879500
 20
222.794900
 30
0.0
 10
89.927800
 20
222.669100
 30
0.0
 10
90.038900
 20
222.567500
 30
0.0
 10
90.125900
 20
222.528800
 30
0.0
 10
90.275800
 20
222.514200
 30
0.0
 10
90.338700
 20
222.538300
 30
0.0
 10
90.474300
 20
222.842800
 30
0.0
 10
90.300300
 20
222.920300
 30
0.0
  0
LWPOLYLINE
  5
151
100
AcDbEntity
  8
0
 62
7
100
AcDbPolyline
 90
2
 70
0
 10
90.691500
 20
222.277000
 30
0.0
 10
91.098200
 20
223.190500
 30
0.0
  0
LWPOLYLINE
  5
152
100
AcDbEntity
  8
0
 62
7
100
AcDbPolyline
 90
2
 70
0
 10
90.904500
 20
222.755500
 30
0.0
 10
91.426600
 20
222.523100
 30
0.0
  0
LWPOLYLINE
  5
153
100
AcDbEntity
  8
0
 62
7
100
AcDbPolyline
 90
2
 70
0
 10
91.213500
 20
222.044600
 30
0.0
 10
91.620200
 20
222.958100
 30
0.0
  0
LWPOLYLINE
  5
154
100
AcDbEntity
  8
0
 62
7
100
AcDbPolyline
 90
2
 70
0
 10
91.924800
 20
222.822500
 30
0.0
 10
92.446800
 20
222.590100
 30
0.0
  0
LWPOLYLINE
  5
155
100
AcDbEntity
  8
0
 62
7
100
AcDbPolyline
 90
2
 70
0
 10
91.779000
 20
221.792800
 30
0.0
 10
92.185800
 20
222.706300
 30
0.0
  0
LWPOLYLINE
  5
156
100
AcDbEntity
  8
0
 62
7
100
AcDbPolyline
 90
2
 70
0
 10
301.038900
 20
235.797300
 30
0.0
 10
300.632200
 20
236.710800
 30
0.0
  0
LWPOLYLINE
  5
157
100
AcDbEntity
  8
0
 62
7
100
AcDbPolyline
 90
2
 70
0
 10
306.326500
 20
223.921200
 30
0.0
 10
305.919800
 20
224.834800
 30
0.0
  0
LWPOLYLINE
  5
158
100
AcDbEntity
  8
0
 62
7
100
AcDbPolyline
 90
2
 70
0
 10
306.326500
 20
223.921200
 30
0.0
 10
307.240100
 20
224.327900
 30
0.0
  0
LWPOLYLINE
  5
159
100
AcDbEntity
  8
0
 62
7
100
AcDbPolyline
 90
2
 70
0
 10
301.545700
 20
237.117600
 30
0.0
 10
300.632200
 20
236.710800
 30
0.0
  0
LWPOLYLINE
  5
15a
100
AcDbEntity
  8
0
 62
7
100
AcDbPolyline
 90
2
 70
0
 10
318.202600
 20
229.208800
 30
0.0
 10
319.116100
 20
229.615500
 30
0.0
  0
LWPOLYLINE
  5
15b
100
AcDbEntity
  8
0
 62
7
100
AcDbPolyline
 90
2
 70
0
 10
313.421800
 20
242.405200
 30
0.0
 10
312.508300
 20
241.998400
 30
0.0
  0
LWPOLYLINE
  5
15c
100
AcDbEntity
  8
0
 62
7
100
AcDbPolyline
 90
2
 70
0
 10
313.421800
 20
242.405200
 30
0.0
 10
313.828600
 20
241.491600
 30
0.0
  0
LWPOLYLINE
  5
15d
100
AcDbEntity
  8
0
 62
7
100
AcDbPolyline
 90
3
 70
0
 10
318.709400
 20
230.529100
 30
0.0
 10
319.116100
 20
229.615500
 30
0.0
 10
318.202600
 20
229.208800
 30
0.0
  0
LWPOLYLINE
  5
15e
100
AcDbEntity
  8
0
 62
7
100
AcDbPolyline
 90
2
 70
0
 10
272.631800
 20
186.798700
 30
0.0
 10
273.219600
 20
187.607700
 30
0.0
  0
LWPOLYLINE
  5
15f
100
AcDbEntity
  8
0
 62
7
100
AcDbPolyline
 90
2
 70
0
 10
264.990600
 20
176.281500
 30
0.0
 10
265.578400
 20
177.090500
 30
0.0
  0
LWPOLYLINE
  5
160
100
AcDbEntity
  8
0
 62
7
100
AcDbPolyline
 90
2
 70
0
 10
264.990600
 20
176.281500
 30
0.0
 10
265.799600
 20
175.693700
 30
0.0
  0
LWPOLYLINE
  5
161
100
AcDbEntity
  8
0
 62
7
100
AcDbPolyline
 90
2
 70
0
 10
274.028600
 20
187.019900
 30
0.0
 10
273.219600
 20
187.607700
 30
0.0
  0
LWPOLYLINE
  5
162
100
AcDbEntity
  8
0
 62
7
100
AcDbPolyline
 90
2
 70
0
 10
275.507900
 20
168.640300
 30
0.0
 10
276.316900
 20
168.052500
 30
0.0
  0
LWPOLYLINE
  5
163
100
AcDbEntity
  8
0
 62
7
100
AcDbPolyline
 90
2
 70
0
 10
284.545900
 20
179.378700
 30
0.0
 10
283.736800
 20
179.966500
 30
0.0
  0
LWPOLYLINE
  5
164
100
AcDbEntity
  8
0
 62
7
100
AcDbPolyline
 90
2
 70
0
 10
284.545900
 20
179.378700
 30
0.0
 10
283.958100
 20
178.569700
 30
0.0
  0
LWPOLYLINE
  5
165
100
AcDbEntity
  8
0
 62
7
100
AcDbPolyline
 90
3
 70
0
 10
276.904700
 20
168.861500
 30
0.0
 10
276.316900
 20
168.052500
 30
0.0
 10
275.507900
 20
168.640300
 30
0.0
  0
LWPOLYLINE
  5
166
100
AcDbEntity
  8
0
 62
7
100
AcDbPolyline
 90
2
 70
0
 10
276.830500
 20
243.334200
 30
0.0
 10
276.423700
 20
244.247700
 30
0.0
  0
LWPOLYLINE
  5
167
100
AcDbEntity
  8
0
 62
7
100
AcDbPolyline
 90
2
 70
0
 10
282.118000
 20
231.458100
 30
0.0
 10
281.711300
 20
232.371600
 30
0.0
  0
LWPOLYLINE
  5
168
100
AcDbEntity
  8
0
 62
7
100
AcDbPolyline
 90
2
 70
0
 10
282.118000
 20
231.458100
 30
0.0
 10
283.031600
 20
231.864800
 30
0.0
  0
LWPOLYLINE
  5
169
100
AcDbEntity
  8
0
 62
7
100
AcDbPolyline
 90
2
 70
0
 10
277.337300
 20
244.654500
 30
0.0
 10
276.423700
 20
244.247700
 30
0.0
  0
LWPOLYLINE
  5
16a
100
AcDbEntity
  8
0
 62
7
100
AcDbPolyline
 90
2
 70
0
 10
293.994100
 20
236.745700
 30
0.0
 10
294.907700
 20
237.152400
 30
0.0
  0
LWPOLYLINE
  5
16b
100
AcDbEntity
  8
0
 62
7
100
AcDbPolyline
 90
2
 70
0
 10
289.213400
 20
249.942000
 30
0.0
 10
288.299800
 20
249.535300
 30
0.0
  0
LWPOLYLINE
  5
16c
100
AcDbEntity
  8
0
 62
7
100
AcDbPolyline
 90
2
 70
0
 10
289.213400
 20
249.942000
 30
0.0
 10
289.620100
 20
249.028500
 30
0.0
  0
LWPOLYLINE
  5
16d
100
AcDbEntity
  8
0
 62
7
100
AcDbPolyline
 90
3
 70
0
 10
294.500900
 20
238.065900
 30
0.0
 10
294.907700
 20
237.152400
 30
0.0
 10
293.994100
 20
236.745700
 30
0.0
  0
LWPOLYLINE
  5
16e
100
AcDbEntity
  8
0
 62
7
100
AcDbPolyline
 90
2
 70
0
 10
100.041900
 20
178.569700
 30
0.0
 10
99.454100
 20
179.378700
 30
0.0
  0
LWPOLYLINE
  5
16f
100
AcDbEntity
  8
0
 62
7
100
AcDbPolyline
 90
2
 70
0
 10
107.683100
 20
168.052500
 30
0.0
 10
107.095300
 20
168.861500
 30
0.0
  0
LWPOLYLINE
  5
170
100
AcDbEntity
  8
0
 62
7
100
AcDbPolyline
 90
2
 70
0
 10
107.683100
 20
168.052500
 30
0.0
 10
108.492100
 20
168.640300
 30
0.0
  0
LWPOLYLINE
  5
171
100
AcDbEntity
  8
0
 62
7
100
AcDbPolyline
 90
2
 70
0
 10
100.263200
 20
179.966500
 30
0.0
 10
99.454100
 20
179.378700
 30
0.0
  0
LWPOLYLINE
  5
172
100
AcDbEntity
  8
0
 62
7
100
AcDbPolyline
 90
2
 70
0
 10
118.200400
 20
175.693700
 30
0.0
 10
119.009400
 20
176.281500
 30
0.0
  0
LWPOLYLINE
  5
173
100
AcDbEntity
  8
0
 62
7
100
AcDbPolyline
 90
2
 70
0
 10
110.780400
 20
187.607700
 30
0.0
 10
109.971400
 20
187.019900
 30
0.0
  0
LWPOLYLINE
  5
174
100
AcDbEntity
  8
0
 62
7
100
AcDbPolyline
 90
2
 70
0
 10
110.780400
 20
187.607700
 30
0.0
 10
111.368200
 20
186.798700
 30
0.0
  0
LWPOLYLINE
  5
175
100
AcDbEntity
  8
0
 62
7
100
AcDbPolyline
 90
3
 70
0
 10
118.421600
 20
177.090500
 30
0.0
 10
119.009400
 20
176.281500
 30
0.0
 10
118.200400
 20
175.693700
 30
0.0
  0
LWPOLYLINE
  5
176
100
AcDbEntity
  8
0
 62
7
100
AcDbPolyline
 90
2
 70
0
 10
338.673800
 20
244.940500
 30
0.0
 10
338.267000
 20
245.854000
 30
0.0
  0
LWPOLYLINE
  5
177
100
AcDbEntity
  8
0
 62
7
100
AcDbPolyline
 90
2
 70
0
 10
343.961300
 20
233.064400
 30
0.0
 10
343.554600
 20
233.977900
 30
0.0
  0
LWPOLYLINE
  5
178
100
AcDbEntity
  8
0
 62
7
100
AcDbPolyline
 90
2
 70
0
 10
343.961300
 20
233.064400
 30
0.0
 10
344.874900
 20
233.471100
 30
0.0
  0
LWPOLYLINE
  5
179
100
AcDbEntity
  8
0
 62
7
100
AcDbPolyline
 90
2
 70
0
 10
339.180600
 20
246.260800
 30
0.0
 10
338.267000
 20
245.854000
 30
0.0
  0
LWPOLYLINE
  5
17a
100
AcDbEntity
  8
0
 62
7
100
AcDbPolyline
 90
2
 70
0
 10
355.837400
 20
238.352000
 30
0.0
 10
356.751000
 20
238.758700
 30
0.0
  0
LWPOLYLINE
  5
17b
100
AcDbEntity
  8
0
 62
7
100
AcDbPolyline
 90
2
 70
0
 10
351.056700
 20
251.548300
 30
0.0
 10
350.143100
 20
251.141600
 30
0.0
  0
LWPOLYLINE
  5
17c
100
AcDbEntity
  8
0
 62
7
100
AcDbPolyline
 90
2
 70
0
 10
351.056700
 20
251.548300
 30
0.0
 10
351.463400
 20
250.634800
 30
0.0
  0
LWPOLYLINE
  5
17d
100
AcDbEntity
  8
0
 62
7
100
AcDbPolyline
 90
3
 70
0
 10
356.344200
 20
239.672200
 30
0.0
 10
356.751000
 20
238.758700
 30
0.0
 10
355.837400
 20
238.352000
 30
0.0
  0
LWPOLYLINE
  5
17e
100
AcDbEntity
  8
0
 62
7
100
AcDbPolyline
 90
2
 70
0
 10
55.674000
 20
255.766100
 30
0.0
 10
56.080800
 20
256.679600
 30
0.0
  0
LWPOLYLINE
  5
17f
100
AcDbEntity
  8
0
 62
7
100
AcDbPolyline
 90
2
 70
0
 10
50.386400
 20
243.890000
 30
0.0
 10
50.793200
 20
244.803500
 30
0.0
  0
LWPOLYLINE
  5
180
100
AcDbEntity
  8
0
 62
7
100
AcDbPolyline
 90
2
 70
0
 10
50.386400
 20
243.890000
 30
0.0
 10
51.300000
 20
243.483300
 30
0.0
  0
LWPOLYLINE
  5
181
100
AcDbEntity
  8
0
 62
7
100
AcDbPolyline
 90
2
 70
0
 10
56.994300
 20
256.272900
 30
0.0
 10
56.080800
 20
256.679600
 30
0.0
  0
LWPOLYLINE
  5
182
100
AcDbEntity
  8
0
 62
7
100
AcDbPolyline
 90
2
 70
0
 10
62.262500
 20
238.602400
 30
0.0
 10
63.176100
 20
238.195700
 30
0.0
  0
LWPOLYLINE
  5
183
100
AcDbEntity
  8
0
 62
7
100
AcDbPolyline
 90
2
 70
0
 10
68.870400
 20
250.985300
 30
0.0
 10
67.956800
 20
251.392100
 30
0.0
  0
LWPOLYLINE
  5
184
100
AcDbEntity
  8
0
 62
7
100
AcDbPolyline
 90
2
 70
0
 10
68.870400
 20
250.985300
 30
0.0
 10
68.463700
 20
250.071800
 30
0.0
  0
LWPOLYLINE
  5
185
100
AcDbEntity
  8
0
 62
7
100
AcDbPolyline
 90
3
 70
0
 10
63.582800
 20
239.109200
 30
0.0
 10
63.176100
 20
238.195700
 30
0.0
 10
62.262500
 20
238.602400
 30
0.0
  0
LWPOLYLINE
  5
186
100
AcDbEntity
  8
0
 62
7
100
AcDbPolyline
 90
2
 70
0
 10
268.118700
 20
216.065000
 30
0.0
 10
267.711900
 20
216.978500
 30
0.0
  0
LWPOLYLINE
  5
187
100
AcDbEntity
  8
0
 62
7
100
AcDbPolyline
 90
2
 70
0
 10
273.406300
 20
204.188900
 30
0.0
 10
272.999500
 20
205.102400
 30
0.0
  0
LWPOLYLINE
  5
188
100
AcDbEntity
  8
0
 62
7
100
AcDbPolyline
 90
2
 70
0
 10
273.406300
 20
204.188900
 30
0.0
 10
274.319800
 20
204.595600
 30
0.0
  0
LWPOLYLINE
  5
189
100
AcDbEntity
  8
0
 62
7
100
AcDbPolyline
 90
2
 70
0
 10
268.625500
 20
217.385300
 30
0.0
 10
267.711900
 20
216.978500
 30
0.0
  0
LWPOLYLINE
  5
18a
100
AcDbEntity
  8
0
 62
7
100
AcDbPolyline
 90
2
 70
0
 10
285.282300
 20
209.476500
 30
0.0
 10
286.195900
 20
209.883200
 30
0.0
  0
LWPOLYLINE
  5
18b
100
AcDbEntity
  8
0
 62
7
100
AcDbPolyline
 90
2
 70
0
 10
280.501600
 20
222.672800
 30
0.0
 10
279.588000
 20
222.266100
 30
0.0
  0
LWPOLYLINE
  5
18c
100
AcDbEntity
  8
0
 62
7
100
AcDbPolyline
 90
2
 70
0
 10
280.501600
 20
222.672800
 30
0.0
 10
280.908300
 20
221.759300
 30
0.0
  0
LWPOLYLINE
  5
18d
100
AcDbEntity
  8
0
 62
7
100
AcDbPolyline
 90
3
 70
0
 10
285.789200
 20
210.796700
 30
0.0
 10
286.195900
 20
209.883200
 30
0.0
 10
285.282300
 20
209.476500
 30
0.0
  0
LWPOLYLINE
  5
18e
100
AcDbEntity
  8
0
 62
7
100
AcDbPolyline
 90
2
 70
0
 10
311.636600
 20
258.830800
 30
0.0
 10
311.229800
 20
259.744400
 30
0.0
  0
LWPOLYLINE
  5
18f
100
AcDbEntity
  8
0
 62
7
100
AcDbPolyline
 90
2
 70
0
 10
316.924100
 20
246.954800
 30
0.0
 10
316.517400
 20
247.868300
 30
0.0
  0
LWPOLYLINE
  5
190
100
AcDbEntity
  8
0
 62
7
100
AcDbPolyline
 90
2
 70
0
 10
316.924100
 20
246.954800
 30
0.0
 10
317.837700
 20
247.361500
 30
0.0
  0
LWPOLYLINE
  5
191
100
AcDbEntity
  8
0
 62
7
100
AcDbPolyline
 90
2
 70
0
 10
312.143400
 20
260.151100
 30
0.0
 10
311.229800
 20
259.744400
 30
0.0
  0
LWPOLYLINE
  5
192
100
AcDbEntity
  8
0
 62
7
100
AcDbPolyline
 90
2
 70
0
 10
328.800200
 20
252.242300
 30
0.0
 10
329.713800
 20
252.649100
 30
0.0
  0
LWPOLYLINE
  5
193
100
AcDbEntity
  8
0
 62
7
100
AcDbPolyline
 90
2
 70
0
 10
324.019500
 20
265.438700
 30
0.0
 10
323.105900
 20
265.032000
 30
0.0
  0
LWPOLYLINE
  5
194
100
AcDbEntity
  8
0
 62
7
100
AcDbPolyline
 90
2
 70
0
 10
324.019500
 20
265.438700
 30
0.0
 10
324.426200
 20
264.525200
 30
0.0
  0
LWPOLYLINE
  5
195
100
AcDbEntity
  8
0
 62
7
100
AcDbPolyline
 90
3
 70
0
 10
329.307000
 20
253.562600
 30
0.0
 10
329.713800
 20
252.649100
 30
0.0
 10
328.800200
 20
252.242300
 30
0.0
  0
LWPOLYLINE
  5
196
100
AcDbEntity
  8
0
 62
7
100
AcDbPolyline
 90
2
 70
0
 10
330.925400
 20
262.343500
 30
0.0
 10
330.518700
 20
263.257100
 30
0.0
  0
LWPOLYLINE
  5
197
100
AcDbEntity
  8
0
 62
7
100
AcDbPolyline
 90
2
 70
0
 10
336.213000
 20
250.467400
 30
0.0
 10
335.806300
 20
251.381000
 30
0.0
  0
LWPOLYLINE
  5
198
100
AcDbEntity
  8
0
 62
7
100
AcDbPolyline
 90
2
 70
0
 10
336.213000
 20
250.467400
 30
0.0
 10
337.126600
 20
250.874200
 30
0.0
  0
LWPOLYLINE
  5
199
100
AcDbEntity
  8
0
 62
7
100
AcDbPolyline
 90
2
 70
0
 10
331.432200
 20
263.663800
 30
0.0
 10
330.518700
 20
263.257100
 30
0.0
  0
LWPOLYLINE
  5
19a
100
AcDbEntity
  8
0
 62
7
100
AcDbPolyline
 90
2
 70
0
 10
348.089100
 20
255.755000
 30
0.0
 10
349.002600
 20
256.161700
 30
0.0
  0
LWPOLYLINE
  5
19b
100
AcDbEntity
  8
0
 62
7
100
AcDbPolyline
 90
2
 70
0
 10
343.308300
 20
268.951400
 30
0.0
 10
342.394800
 20
268.544600
 30
0.0
  0
LWPOLYLINE
  5
19c
100
AcDbEntity
  8
0
 62
7
100
AcDbPolyline
 90
2
 70
0
 10
343.308300
 20
268.951400
 30
0.0
 10
343.715100
 20
268.037800
 30
0.0
  0
LWPOLYLINE
  5
19d
100
AcDbEntity
  8
0
 62
7
100
AcDbPolyline
 90
3
 70
0
 10
348.595900
 20
257.075300
 30
0.0
 10
349.002600
 20
256.161700
 30
0.0
 10
348.089100
 20
255.755000
 30
0.0
  0
LWPOLYLINE
  5
19e
100
AcDbEntity
  8
0
 62
7
100
AcDbPolyline
 90
2
 70
0
 10
90.480100
 20
240.269400
 30
0.0
 10
90.886800
 20
241.183000
 30
0.0
  0
LWPOLYLINE
  5
19f
100
AcDbEntity
  8
0
 62
7
100
AcDbPolyline
 90
2
 70
0
 10
85.192500
 20
228.393300
 30
0.0
 10
85.599300
 20
229.306900
 30
0.0
  0
LWPOLYLINE
  5
1a0
100
AcDbEntity
  8
0
 62
7
100
AcDbPolyline
 90
2
 70
0
 10
85.192500
 20
228.393300
 30
0.0
 10
86.106100
 20
227.986600
 30
0.0
  0
LWPOLYLINE
  5
1a1
100
AcDbEntity
  8
0
 62
7
100
AcDbPolyline
 90
2
 70
0
 10
91.800400
 20
240.776200
 30
0.0
 10
90.886800
 20
241.183000
 30
0.0
  0
LWPOLYLINE
  5
1a2
100
AcDbEntity
  8
0
 62
7
100
AcDbPolyline
 90
2
 70
0
 10
97.068600
 20
223.105700
 30
0.0
 10
97.982200
 20
222.699000
 30
0.0
  0
LWPOLYLINE
  5
1a3
100
AcDbEntity
  8
0
 62
7
100
AcDbPolyline
 90
2
 70
0
 10
103.676500
 20
235.488600
 30
0.0
 10
102.762900
 20
235.895400
 30
0.0
  0
LWPOLYLINE
  5
1a4
100
AcDbEntity
  8
0
 62
7
100
AcDbPolyline
 90
2
 70
0
 10
103.676500
 20
235.488600
 30
0.0
 10
103.269700
 20
234.575100
 30
0.0
  0
LWPOLYLINE
  5
1a5
100
AcDbEntity
  8
0
 62
7
100
AcDbPolyline
 90
3
 70
0
 10
98.388900
 20
223.612600
 30
0.0
 10
97.982200
 20
222.699000
 30
0.0
 10
97.068600
 20
223.105700
 30
0.0
  0
LWPOLYLINE
  5
1a6
100
AcDbEntity
  8
0
 62
7
100
AcDbPolyline
 90
2
 70
0
 10
319.384900
 20
241.427800
 30
0.0
 10
318.978200
 20
242.341300
 30
0.0
  0
LWPOLYLINE
  5
1a7
100
AcDbEntity
  8
0
 62
7
100
AcDbPolyline
 90
2
 70
0
 10
324.672500
 20
229.551700
 30
0.0
 10
324.265700
 20
230.465300
 30
0.0
  0
LWPOLYLINE
  5
1a8
100
AcDbEntity
  8
0
 62
7
100
AcDbPolyline
 90
2
 70
0
 10
324.672500
 20
229.551700
 30
0.0
 10
325.586000
 20
229.958400
 30
0.0
  0
LWPOLYLINE
  5
1a9
100
AcDbEntity
  8
0
 62
7
100
AcDbPolyline
 90
2
 70
0
 10
319.891700
 20
242.748100
 30
0.0
 10
318.978200
 20
242.341300
 30
0.0
  0
LWPOLYLINE
  5
1aa
100
AcDbEntity
  8
0
 62
7
100
AcDbPolyline
 90
2
 70
0
 10
336.548600
 20
234.839300
 30
0.0
 10
337.462100
 20
235.246000
 30
0.0
  0
LWPOLYLINE
  5
1ab
100
AcDbEntity
  8
0
 62
7
100
AcDbPolyline
 90
2
 70
0
 10
331.767800
 20
248.035700
 30
0.0
 10
330.854200
 20
247.628900
 30
0.0
  0
LWPOLYLINE
  5
1ac
100
AcDbEntity
  8
0
 62
7
100
AcDbPolyline
 90
2
 70
0
 10
331.767800
 20
248.035700
 30
0.0
 10
332.174500
 20
247.122100
 30
0.0
  0
LWPOLYLINE
  5
1ad
100
AcDbEntity
  8
0
 62
7
100
AcDbPolyline
 90
3
 70
0
 10
337.055400
 20
236.159600
 30
0.0
 10
337.462100
 20
235.246000
 30
0.0
 10
336.548600
 20
234.839300
 30
0.0
  0
LWPOLYLINE
  5
1ae
100
AcDbEntity
  8
0
 62
7
100
AcDbPolyline
 90
2
 70
0
 10
74.045600
 20
250.193100
 30
0.0
 10
74.452300
 20
251.106700
 30
0.0
  0
LWPOLYLINE
  5
1af
100
AcDbEntity
  8
0
 62
7
100
AcDbPolyline
 90
2
 70
0
 10
68.758000
 20
238.317000
 30
0.0
 10
69.164800
 20
239.230600
 30
0.0
  0
LWPOLYLINE
  5
1b0
100
AcDbEntity
  8
0
 62
7
100
AcDbPolyline
 90
2
 70
0
 10
68.758000
 20
238.317000
 30
0.0
 10
69.671600
 20
237.910300
 30
0.0
  0
LWPOLYLINE
  5
1b1
100
AcDbEntity
  8
0
 62
7
100
AcDbPolyline
 90
2
 70
0
 10
75.365900
 20
250.699900
 30
0.0
 10
74.452300
 20
251.106700
 30
0.0
  0
LWPOLYLINE
  5
1b2
100
AcDbEntity
  8
0
 62
7
100
AcDbPolyline
 90
2
 70
0
 10
80.634100
 20
233.029500
 30
0.0
 10
81.547700
 20
232.622700
 30
0.0
  0
LWPOLYLINE
  5
1b3
100
AcDbEntity
  8
0
 62
7
100
AcDbPolyline
 90
2
 70
0
 10
87.242000
 20
245.412400
 30
0.0
 10
86.328400
 20
245.819100
 30
0.0
  0
LWPOLYLINE
  5
1b4
100
AcDbEntity
  8
0
 62
7
100
AcDbPolyline
 90
2
 70
0
 10
87.242000
 20
245.412400
 30
0.0
 10
86.835200
 20
244.498800
 30
0.0
  0
LWPOLYLINE
  5
1b5
100
AcDbEntity
  8
0
 62
7
100
AcDbPolyline
 90
3
 70
0
 10
81.954400
 20
233.536300
 30
0.0
 10
81.547700
 20
232.622700
 30
0.0
 10
80.634100
 20
233.029500
 30
0.0
  0
LWPOLYLINE
  5
1b6
100
AcDbEntity
  8
0
 62
7
100
AcDbPolyline
 90
2
 70
0
 10
284.578800
 20
225.931100
 30
0.0
 10
284.172100
 20
226.844700
 30
0.0
  0
LWPOLYLINE
  5
1b7
100
AcDbEntity
  8
0
 62
7
100
AcDbPolyline
 90
2
 70
0
 10
289.866400
 20
214.055000
 30
0.0
 10
289.459600
 20
214.968600
 30
0.0
  0
LWPOLYLINE
  5
1b8
100
AcDbEntity
  8
0
 62
7
100
AcDbPolyline
 90
2
 70
0
 10
289.866400
 20
214.055000
 30
0.0
 10
290.779900
 20
214.461800
 30
0.0
  0
LWPOLYLINE
  5
1b9
100
AcDbEntity
  8
0
 62
7
100
AcDbPolyline
 90
2
 70
0
 10
285.085600
 20
227.251400
 30
0.0
 10
284.172100
 20
226.844700
 30
0.0
  0
LWPOLYLINE
  5
1ba
100
AcDbEntity
  8
0
 62
7
100
AcDbPolyline
 90
2
 70
0
 10
301.742500
 20
219.342600
 30
0.0
 10
302.656000
 20
219.749400
 30
0.0
  0
LWPOLYLINE
  5
1bb
100
AcDbEntity
  8
0
 62
7
100
AcDbPolyline
 90
2
 70
0
 10
296.961700
 20
232.539000
 30
0.0
 10
296.048200
 20
232.132300
 30
0.0
  0
LWPOLYLINE
  5
1bc
100
AcDbEntity
  8
0
 62
7
100
AcDbPolyline
 90
2
 70
0
 10
296.961700
 20
232.539000
 30
0.0
 10
297.368400
 20
231.625400
 30
0.0
  0
LWPOLYLINE
  5
1bd
100
AcDbEntity
  8
0
 62
7
100
AcDbPolyline
 90
3
 70
0
 10
302.249300
 20
220.662900
 30
0.0
 10
302.656000
 20
219.749400
 30
0.0
 10
301.742500
 20
219.342600
 30
0.0
  0
LWPOLYLINE
  5
1be
100
AcDbEntity
  8
0
 62
7
100
AcDbPolyline
 90
2
 70
0
 10
168.581200
 20
266.558500
 30
0.0
 10
168.581200
 20
265.058500
 30
0.0
  0
LWPOLYLINE
  5
1bf
100
AcDbEntity
  8
0
 62
7
100
AcDbPolyline
 90
2
 70
0
 10
169.831200
 20
262.558400
 30
0.0
 10
174.331200
 20
262.558400
 30
0.0
  0
LWPOLYLINE
  5
1c0
100
AcDbEntity
  8
0
 62
7
100
AcDbPolyline
 90
2
 70
0
 10
174.331200
 20
269.058500
 30
0.0
 10
169.831200
 20
269.058500
 30
0.0
  0
LWPOLYLINE
  5
1c1
100
AcDbEntity
  8
0
 62
7
100
AcDbPolyline
 90
2
 70
0
 10
175.581200
 20
265.058500
 30
0.0
 10
175.581200
 20
266.558500
 30
0.0
  0
LWPOLYLINE
  5
1c2
100
AcDbEntity
  8
0
 62
7
100
AcDbPolyline
 90
2
 70
0
 10
260.370300
 20
233.468000
 30
0.0
 10
259.963600
 20
234.381600
 30
0.0
  0
LWPOLYLINE
  5
1c3
100
AcDbEntity
  8
0
 62
7
100
AcDbPolyline
 90
2
 70
0
 10
265.657900
 20
221.591900
 30
0.0
 10
265.251200
 20
222.505500
 30
0.0
  0
LWPOLYLINE
  5
1c4
100
AcDbEntity
  8
0
 62
7
100
AcDbPolyline
 90
2
 70
0
 10
265.657900
 20
221.591900
 30
0.0
 10
266.571500
 20
221.998700
 30
0.0
  0
LWPOLYLINE
  5
1c5
100
AcDbEntity
  8
0
 62
7
100
AcDbPolyline
 90
2
 70
0
 10
260.877200
 20
234.788300
 30
0.0
 10
259.963600
 20
234.381600
 30
0.0
  0
LWPOLYLINE
  5
1c6
100
AcDbEntity
  8
0
 62
7
100
AcDbPolyline
 90
2
 70
0
 10
277.534000
 20
226.879500
 30
0.0
 10
278.447600
 20
227.286200
 30
0.0
  0
LWPOLYLINE
  5
1c7
100
AcDbEntity
  8
0
 62
7
100
AcDbPolyline
 90
2
 70
0
 10
272.753200
 20
240.075900
 30
0.0
 10
271.839700
 20
239.669100
 30
0.0
  0
LWPOLYLINE
  5
1c8
100
AcDbEntity
  8
0
 62
7
100
AcDbPolyline
 90
2
 70
0
 10
272.753200
 20
240.075900
 30
0.0
 10
273.160000
 20
239.162300
 30
0.0
  0
LWPOLYLINE
  5
1c9
100
AcDbEntity
  8
0
 62
7
100
AcDbPolyline
 90
3
 70
0
 10
278.040800
 20
228.199800
 30
0.0
 10
278.447600
 20
227.286200
 30
0.0
 10
277.534000
 20
226.879500
 30
0.0
  0
LWPOLYLINE
  5
1ca
100
AcDbEntity
  8
0
 62
7
100
AcDbPolyline
 90
2
 70
0
 10
293.290600
 20
253.200300
 30
0.0
 10
292.883900
 20
254.113900
 30
0.0
  0
LWPOLYLINE
  5
1cb
100
AcDbEntity
  8
0
 62
7
100
AcDbPolyline
 90
2
 70
0
 10
298.578200
 20
241.324200
 30
0.0
 10
298.171400
 20
242.237800
 30
0.0
  0
LWPOLYLINE
  5
1cc
100
AcDbEntity
  8
0
 62
7
100
AcDbPolyline
 90
2
 70
0
 10
298.578200
 20
241.324200
 30
0.0
 10
299.491700
 20
241.731000
 30
0.0
  0
LWPOLYLINE
  5
1cd
100
AcDbEntity
  8
0
 62
7
100
AcDbPolyline
 90
2
 70
0
 10
293.797400
 20
254.520600
 30
0.0
 10
292.883900
 20
254.113900
 30
0.0
  0
LWPOLYLINE
  5
1ce
100
AcDbEntity
  8
0
 62
7
100
AcDbPolyline
 90
2
 70
0
 10
310.454300
 20
246.611800
 30
0.0
 10
311.367800
 20
247.018600
 30
0.0
  0
LWPOLYLINE
  5
1cf
100
AcDbEntity
  8
0
 62
7
100
AcDbPolyline
 90
2
 70
0
 10
305.673500
 20
259.808200
 30
0.0
 10
304.760000
 20
259.401500
 30
0.0
  0
LWPOLYLINE
  5
1d0
100
AcDbEntity
  8
0
 62
7
100
AcDbPolyline
 90
2
 70
0
 10
305.673500
 20
259.808200
 30
0.0
 10
306.080200
 20
258.894700
 30
0.0
  0
LWPOLYLINE
  5
1d1
100
AcDbEntity
  8
0
 62
7
100
AcDbPolyline
 90
3
 70
0
 10
310.961100
 20
247.932100
 30
0.0
 10
311.367800
 20
247.018600
 30
0.0
 10
310.454300
 20
246.611800
 30
0.0
  0
LWPOLYLINE
  5
1d2
100
AcDbEntity
  8
0
 62
7
100
AcDbPolyline
 90
2
 70
0
 10
82.096500
 20
267.458300
 30
0.0
 10
82.503200
 20
268.371800
 30
0.0
  0
LWPOLYLINE
  5
1d3
100
AcDbEntity
  8
0
 62
7
100
AcDbPolyline
 90
2
 70
0
 10
76.808900
 20
255.582200
 30
0.0
 10
77.215600
 20
256.495700
 30
0.0
  0
LWPOLYLINE
  5
1d4
100
AcDbEntity
  8
0
 62
7
100
AcDbPolyline
 90
2
 70
0
 10
76.808900
 20
255.582200
 30
0.0
 10
77.722400
 20
255.175500
 30
0.0
  0
LWPOLYLINE
  5
1d5
100
AcDbEntity
  8
0
 62
7
100
AcDbPolyline
 90
2
 70
0
 10
83.416800
 20
267.965100
 30
0.0
 10
82.503200
 20
268.371800
 30
0.0
  0
LWPOLYLINE
  5
1d6
100
AcDbEntity
  8
0
 62
7
100
AcDbPolyline
 90
2
 70
0
 10
88.685000
 20
250.294600
 30
0.0
 10
89.598500
 20
249.887900
 30
0.0
  0
LWPOLYLINE
  5
1d7
100
AcDbEntity
  8
0
 62
7
100
AcDbPolyline
 90
2
 70
0
 10
95.292900
 20
262.677500
 30
0.0
 10
94.379300
 20
263.084300
 30
0.0
  0
LWPOLYLINE
  5
1d8
100
AcDbEntity
  8
0
 62
7
100
AcDbPolyline
 90
2
 70
0
 10
95.292900
 20
262.677500
 30
0.0
 10
94.886100
 20
261.764000
 30
0.0
  0
LWPOLYLINE
  5
1d9
100
AcDbEntity
  8
0
 62
7
100
AcDbPolyline
 90
3
 70
0
 10
90.005300
 20
250.801400
 30
0.0
 10
89.598500
 20
249.887900
 30
0.0
 10
88.685000
 20
250.294600
 30
0.0
  0
LWPOLYLINE
  5
1da
100
AcDbEntity
  8
0
 62
7
100
AcDbPolyline
 90
2
 70
0
 10
132.862500
 20
266.558500
 30
0.0
 10
132.862500
 20
265.058500
 30
0.0
  0
LWPOLYLINE
  5
1db
100
AcDbEntity
  8
0
 62
7
100
AcDbPolyline
 90
2
 70
0
 10
134.112500
 20
262.558400
 30
0.0
 10
138.612500
 20
262.558400
 30
0.0
  0
LWPOLYLINE
  5
1dc
100
AcDbEntity
  8
0
 62
7
100
AcDbPolyline
 90
2
 70
0
 10
138.612500
 20
269.058500
 30
0.0
 10
134.112500
 20
269.058500
 30
0.0
  0
LWPOLYLINE
  5
1dd
100
AcDbEntity
  8
0
 62
7
100
AcDbPolyline
 90
2
 70
0
 10
139.862500
 20
265.058500
 30
0.0
 10
139.862500
 20
266.558500
 30
0.0
  0
LWPOLYLINE
  5
1de
100
AcDbEntity
  8
0
 62
7
100
AcDbPolyline
 90
2
 70
0
 10
156.675000
 20
266.558500
 30
0.0
 10
156.675000
 20
265.058500
 30
0.0
  0
LWPOLYLINE
  5
1df
100
AcDbEntity
  8
0
 62
7
100
AcDbPolyline
 90
2
 70
0
 10
157.925000
 20
262.558400
 30
0.0
 10
162.425000
 20
262.558400
 30
0.0
  0
LWPOLYLINE
  5
1e0
100
AcDbEntity
  8
0
 62
7
100
AcDbPolyline
 90
2
 70
0
 10
162.425000
 20
269.058500
 30
0.0
 10
157.925000
 20
269.058500
 30
0.0
  0
LWPOLYLINE
  5
1e1
100
AcDbEntity
  8
0
 62
7
100
AcDbPolyline
 90
2
 70
0
 10
163.675000
 20
265.058500
 30
0.0
 10
163.675000
 20
266.558500
 30
0.0
  0
LWPOLYLINE
  5
1e2
100
AcDbEntity
  8
0
 62
7
100
AcDbPolyline
 90
2
 70
0
 10
144.768700
 20
266.558500
 30
0.0
 10
144.768700
 20
265.058500
 30
0.0
  0
LWPOLYLINE
  5
1e3
100
AcDbEntity
  8
0
 62
7
100
AcDbPolyline
 90
2
 70
0
 10
146.018700
 20
262.558400
 30
0.0
 10
150.518700
 20
262.558400
 30
0.0
  0
LWPOLYLINE
  5
1e4
100
AcDbEntity
  8
0
 62
7
100
AcDbPolyline
 90
2
 70
0
 10
150.518700
 20
269.058500
 30
0.0
 10
146.018700
 20
269.058500
 30
0.0
  0
SPLINE
  5
1e5
100
AcDbEntity
  8
0
 62
7
100
AcDbSpline
 70
8
 71
3
 72
8
 73
4
 74
0
 40
0
 40
0
 40
0
 40
0
 40
1
 40
1
 40
1
 40
1
 10
27.000000
 20
171.452200
 30
0.0
 10
25.604605
 20
171.452200
 30
0.0
 10
24.346610
 20
170.611634
 30
0.0
 10
23.812616
 20
169.322458
 30
0.0
  0
SPLINE
  5
1e6
100
AcDbEntity
  8
0
 62
7
100
AcDbSpline
 70
8
 71
3
 72
8
 73
4
 74
0
 40
0
 40
0
 40
0
 40
0
 40
1
 40
1
 40
1
 40
1
 10
23.812616
 20
169.322458
 30
0.0
 10
23.278621
 20
168.033281
 30
0.0
 10
23.573789
 20
166.549375
 30
0.0
 10
24.560482
 20
165.562682
 30
0.0
  0
SPLINE
  5
1e7
100
AcDbEntity
  8
0
 62
7
100
AcDbSpline
 70
8
 71
3
 72
8
 73
4
 74
0
 40
0
 40
0
 40
0
 40
0
 40
1
 40
1
 40
1
 40
1
 10
24.560482
 20
165.562682
 30
0.0
 10
25.547175
 20
164.575989
 30
0.0
 10
27.031081
 20
164.280821
 30
0.0
 10
28.320258
 20
164.814816
 30
0.0
  0
SPLINE
  5
1e8
100
AcDbEntity
  8
0
 62
7
100
AcDbSpline
 70
8
 71
3
 72
8
 73
4
 74
0
 40
0
 40
0
 40
0
 40
0
 40
1
 40
1
 40
1
 40
1
 10
28.320258
 20
164.814816
 30
0.0
 10
29.609434
 20
165.348810
 30
0.0
 10
30.450000
 20
166.606805
 30
0.0
 10
30.450000
 20
168.002200
 30
0.0
  0
SPLINE
  5
1e9
100
AcDbEntity
  8
0
 62
7
100
AcDbSpline
 70
8
 71
3
 72
8
 73
4
 74
0
 40
0
 40
0
 40
0
 40
0
 40
1
 40
1
 40
1
 40
1
 10
30.450000
 20
168.002200
 30
0.0
 10
30.450000
 20
169.907582
 30
0.0
 10
28.905382
 20
171.452200
 30
0.0
 10
27.000000
 20
171.452200
 30
0.0
  0
LWPOLYLINE
  5
1ea
100
AcDbEntity
  8
0
 62
7
100
AcDbPolyline
 90
2
 70
0
 10
151.768700
 20
265.058500
 30
0.0
 10
151.768700
 20
266.558500
 30
0.0
  0
SPLINE
  5
1eb
100
AcDbEntity
  8
0
 62
7
100
AcDbSpline
 70
8
 71
3
 72
8
 73
4
 74
0
 40
0
 40
0
 40
0
 40
0
 40
1
 40
1
 40
1
 40
1
 10
192.000000
 20
222.452200
 30
0.0
 10
190.604605
 20
222.452200
 30
0.0
 10
189.346610
 20
221.611634
 30
0.0
 10
188.812616
 20
220.322458
 30
0.0
  0
SPLINE
  5
1ec
100
AcDbEntity
  8
0
 62
7
100
AcDbSpline
 70
8
 71
3
 72
8
 73
4
 74
0
 40
0
 40
0
 40
0
 40
0
 40
1
 40
1
 40
1
 40
1
 10
188.812616
 20
220.322458
 30
0.0
 10
188.278621
 20
219.033281
 30
0.0
 10
188.573789
 20
217.549375
 30
0.0
 10
189.560482
 20
216.562682
 30
0.0
  0
SPLINE
  5
1ed
100
AcDbEntity
  8
0
 62
7
100
AcDbSpline
 70
8
 71
3
 72
8
 73
4
 74
0
 40
0
 40
0
 40
0
 40
0
 40
1
 40
1
 40
1
 40
1
 10
189.560482
 20
216.562682
 30
0.0
 10
190.547175
 20
215.575989
 30
0.0
 10
192.031081
 20
215.280821
 30
0.0
 10
193.320258
 20
215.814816
 30
0.0
  0
SPLINE
  5
1ee
100
AcDbEntity
  8
0
 62
7
100
AcDbSpline
 70
8
 71
3
 72
8
 73
4
 74
0
 40
0
 40
0
 40
0
 40
0
 40
1
 40
1
 40
1
 40
1
 10
193.320258
 20
215.814816
 30
0.0
 10
194.609434
 20
216.348810
 30
0.0
 10
195.450000
 20
217.606805
 30
0.0
 10
195.450000
 20
219.002200
 30
0.0
  0
SPLINE
  5
1ef
100
AcDbEntity
  8
0
 62
7
100
AcDbSpline
 70
8
 71
3
 72
8
 73
4
 74
0
 40
0
 40
0
 40
0
 40
0
 40
1
 40
1
 40
1
 40
1
 10
195.450000
 20
219.002200
 30
0.0
 10
195.450000
 20
219.917197
 30
0.0
 10
195.086519
 20
220.794718
 30
0.0
 10
194.439518
 20
221.441718
 30
0.0
  0
SPLINE
  5
1f0
100
AcDbEntity
  8
0
 62
7
100
AcDbSpline
 70
8
 71
3
 72
8
 73
4
 74
0
 40
0
 40
0
 40
0
 40
0
 40
1
 40
1
 40
1
 40
1
 10
194.439518
 20
221.441718
 30
0.0
 10
193.792518
 20
222.088719
 30
0.0
 10
192.914997
 20
222.452200
 30
0.0
 10
192.000000
 20
222.452200
 30
0.0
  0
LWPOLYLINE
  5
1f1
100
AcDbEntity
  8
0
 62
7
100
AcDbPolyline
 90
1
 70
1
 10
27.000000
 20
171.452200
 30
0.0
  0
LWPOLYLINE
  5
1f2
100
AcDbEntity
  8
0
 62
7
100
AcDbPolyline
 90
1
 70
1
 10
192.000000
 20
222.452200
 30
0.0
  0
LWPOLYLINE
  5
1f3
100
AcDbEntity
  8
0
 62
7
100
AcDbPolyline
 90
2
 70
0
 10
167.331200
 20
269.558500
 30
0.0
 10
167.581200
 20
269.558500
 30
0.0
  0
LWPOLYLINE
  5
1f4
100
AcDbEntity
  8
0
 62
7
100
AcDbPolyline
 90
2
 70
0
 10
167.331200
 20
269.308500
 30
0.0
 10
167.331200
 20
269.558500
 30
0.0
  0
LWPOLYLINE
  5
1f5
100
AcDbEntity
  8
0
 62
7
100
AcDbPolyline
 90
2
 70
0
 10
167.331200
 20
262.308400
 30
0.0
 10
167.331200
 20
269.308500
 30
0.0
  0
LWPOLYLINE
  5
1f6
100
AcDbEntity
  8
0
 62
7
100
AcDbPolyline
 90
3
 70
0
 10
167.331200
 20
262.308400
 30
0.0
 10
167.331200
 20
262.058400
 30
0.0
 10
167.581200
 20
262.058400
 30
0.0
  0
LWPOLYLINE
  5
1f7
100
AcDbEntity
  8
0
 62
7
100
AcDbPolyline
 90
3
 70
0
 10
167.581200
 20
269.558500
 30
0.0
 10
176.581200
 20
269.558500
 30
0.0
 10
176.831200
 20
269.558500
 30
0.0
  0
LWPOLYLINE
  5
1f8
100
AcDbEntity
  8
0
 62
7
100
AcDbPolyline
 90
2
 70
0
 10
176.581200
 20
262.058400
 30
0.0
 10
167.581200
 20
262.058400
 30
0.0
  0
LWPOLYLINE
  5
1f9
100
AcDbEntity
  8
0
 62
7
100
AcDbPolyline
 90
2
 70
0
 10
176.581200
 20
262.058400
 30
0.0
 10
176.831200
 20
262.058400
 30
0.0
  0
LWPOLYLINE
  5
1fa
100
AcDbEntity
  8
0
 62
7
100
AcDbPolyline
 90
3
 70
0
 10
176.831200
 20
269.558500
 30
0.0
 10
176.831200
 20
269.308500
 30
0.0
 10
176.831200
 20
262.308400
 30
0.0
  0
SPLINE
  5
1fb
100
AcDbEntity
  8
0
 62
7
100
AcDbSpline
 70
8
 71
3
 72
8
 73
4
 74
0
 40
0
 40
0
 40
0
 40
0
 40
1
 40
1
 40
1
 40
1
 10
27.000000
 20
273.452200
 30
0.0
 10
25.604605
 20
273.452200
 30
0.0
 10
24.346610
 20
272.611634
 30
0.0
 10
23.812616
 20
271.322458
 30
0.0
  0
SPLINE
  5
1fc
100
AcDbEntity
  8
0
 62
7
100
AcDbSpline
 70
8
 71
3
 72
8
 73
4
 74
0
 40
0
 40
0
 40
0
 40
0
 40
1
 40
1
 40
1
 40
1
 10
23.812616
 20
271.322458
 30
0.0
 10
23.278621
 20
270.033281
 30
0.0
 10
23.573789
 20
268.549375
 30
0.0
 10
24.560482
 20
267.562682
 30
0.0
  0
SPLINE
  5
1fd
100
AcDbEntity
  8
0
 62
7
100
AcDbSpline
 70
8
 71
3
 72
8
 73
4
 74
0
 40
0
 40
0
 40
0
 40
0
 40
1
 40
1
 40
1
 40
1
 10
24.560482
 20
267.562682
 30
0.0
 10
25.547175
 20
266.575989
 30
0.0
 10
27.031081
 20
266.280821
 30
0.0
 10
28.320258
 20
266.814816
 30
0.0
  0
SPLINE
  5
1fe
100
AcDbEntity
  8
0
 62
7
100
AcDbSpline
 70
8
 71
3
 72
8
 73
4
 74
0
 40
0
 40
0
 40
0
 40
0
 40
1
 40
1
 40
1
 40
1
 10
28.320258
 20
266.814816
 30
0.0
 10
29.609434
 20
267.348810
 30
0.0
 10
30.450000
 20
268.606805
 30
0.0
 10
30.450000
 20
270.002200
 30
0.0
  0
SPLINE
  5
1ff
100
AcDbEntity
  8
0
 62
7
100
AcDbSpline
 70
8
 71
3
 72
8
 73
4
 74
0
 40
0
 40
0
 40
0
 40
0
 40
1
 40
1
 40
1
 40
1
 10
30.450000
 20
270.002200
 30
0.0
 10
30.450000
 20
271.907582
 30
0.0
 10
28.905382
 20
273.452200
 30
0.0
 10
27.000000
 20
273.452200
 30
0.0
  0
LWPOLYLINE
  5
200
100
AcDbEntity
  8
0
 62
7
100
AcDbPolyline
 90
2
 70
0
 10
176.831200
 20
262.058400
 30
0.0
 10
176.831200
 20
262.308400
 30
0.0
  0
SPLINE
  5
201
100
AcDbEntity
  8
0
 62
7
100
AcDbSpline
 70
8
 71
3
 72
8
 73
4
 74
0
 40
0
 40
0
 40
0
 40
0
 40
1
 40
1
 40
1
 40
1
 10
357.000000
 20
273.452200
 30
0.0
 10
355.604605
 20
273.452200
 30
0.0
 10
354.346610
 20
272.611634
 30
0.0
 10
353.812616
 20
271.322458
 30
0.0
  0
SPLINE
  5
202
100
AcDbEntity
  8
0
 62
7
100
AcDbSpline
 70
8
 71
3
 72
8
 73
4
 74
0
 40
0
 40
0
 40
0
 40
0
 40
1
 40
1
 40
1
 40
1
 10
353.812616
 20
271.322458
 30
0.0
 10
353.278621
 20
270.033281
 30
0.0
 10
353.573789
 20
268.549375
 30
0.0
 10
354.560482
 20
267.562682
 30
0.0
  0
SPLINE
  5
203
100
AcDbEntity
  8
0
 62
7
100
AcDbSpline
 70
8
 71
3
 72
8
 73
4
 74
0
 40
0
 40
0
 40
0
 40
0
 40
1
 40
1
 40
1
 40
1
 10
354.560482
 20
267.562682
 30
0.0
 10
355.547175
 20
266.575989
 30
0.0
 10
357.031081
 20
266.280821
 30
0.0
 10
358.320258
 20
266.814816
 30
0.0
  0
SPLINE
  5
204
100
AcDbEntity
  8
0
 62
7
100
AcDbSpline
 70
8
 71
3
 72
8
 73
4
 74
0
 40
0
 40
0
 40
0
 40
0
 40
1
 40
1
 40
1
 40
1
 10
358.320258
 20
266.814816
 30
0.0
 10
359.609434
 20
267.348810
 30
0.0
 10
360.450000
 20
268.606805
 30
0.0
 10
360.450000
 20
270.002200
 30
0.0
  0
SPLINE
  5
205
100
AcDbEntity
  8
0
 62
7
100
AcDbSpline
 70
8
 71
3
 72
8
 73
4
 74
0
 40
0
 40
0
 40
0
 40
0
 40
1
 40
1
 40
1
 40
1
 10
360.450000
 20
270.002200
 30
0.0
 10
360.450000
 20
270.917197
 30
0.0
 10
360.086519
 20
271.794718
 30
0.0
 10
359.439518
 20
272.441718
 30
0.0
  0
SPLINE
  5
206
100
AcDbEntity
  8
0
 62
7
100
AcDbSpline
 70
8
 71
3
 72
8
 73
4
 74
0
 40
0
 40
0
 40
0
 40
0
 40
1
 40
1
 40
1
 40
1
 10
359.439518
 20
272.441718
 30
0.0
 10
358.792518
 20
273.088719
 30
0.0
 10
357.914997
 20
273.452200
 30
0.0
 10
357.000000
 20
273.452200
 30
0.0
  0
LWPOLYLINE
  5
207
100
AcDbEntity
  8
0
 62
7
100
AcDbPolyline
 90
1
 70
1
 10
27.000000
 20
273.452200
 30
0.0
  0
SPLINE
  5
208
100
AcDbEntity
  8
0
 62
7
100
AcDbSpline
 70
8
 71
3
 72
8
 73
4
 74
0
 40
0
 40
0
 40
0
 40
0
 40
1
 40
1
 40
1
 40
1
 10
357.000000
 20
171.452200
 30
0.0
 10
355.604605
 20
171.452200
 30
0.0
 10
354.346610
 20
170.611634
 30
0.0
 10
353.812616
 20
169.322458
 30
0.0
  0
SPLINE
  5
209
100
AcDbEntity
  8
0
 62
7
100
AcDbSpline
 70
8
 71
3
 72
8
 73
4
 74
0
 40
0
 40
0
 40
0
 40
0
 40
1
 40
1
 40
1
 40
1
 10
353.812616
 20
169.322458
 30
0.0
 10
353.278621
 20
168.033281
 30
0.0
 10
353.573789
 20
166.549375
 30
0.0
 10
354.560482
 20
165.562682
 30
0.0
  0
SPLINE
  5
20a
100
AcDbEntity
  8
0
 62
7
100
AcDbSpline
 70
8
 71
3
 72
8
 73
4
 74
0
 40
0
 40
0
 40
0
 40
0
 40
1
 40
1
 40
1
 40
1
 10
354.560482
 20
165.562682
 30
0.0
 10
355.547175
 20
164.575989
 30
0.0
 10
357.031081
 20
164.280821
 30
0.0
 10
358.320258
 20
164.814816
 30
0.0
  0
SPLINE
  5
20b
100
AcDbEntity
  8
0
 62
7
100
AcDbSpline
 70
8
 71
3
 72
8
 73
4
 74
0
 40
0
 40
0
 40
0
 40
0
 40
1
 40
1
 40
1
 40
1
 10
358.320258
 20
164.814816
 30
0.0
 10
359.609434
 20
165.348810
 30
0.0
 10
360.450000
 20
166.606805
 30
0.0
 10
360.450000
 20
168.002200
 30
0.0
  0
SPLINE
  5
20c
100
AcDbEntity
  8
0
 62
7
100
AcDbSpline
 70
8
 71
3
 72
8
 73
4
 74
0
 40
0
 40
0
 40
0
 40
0
 40
1
 40
1
 40
1
 40
1
 10
360.450000
 20
168.002200
 30
0.0
 10
360.450000
 20
168.917197
 30
0.0
 10
360.086519
 20
169.794718
 30
0.0
 10
359.439518
 20
170.441718
 30
0.0
  0
SPLINE
  5
20d
100
AcDbEntity
  8
0
 62
7
100
AcDbSpline
 70
8
 71
3
 72
8
 73
4
 74
0
 40
0
 40
0
 40
0
 40
0
 40
1
 40
1
 40
1
 40
1
 10
359.439518
 20
170.441718
 30
0.0
 10
358.792518
 20
171.088719
 30
0.0
 10
357.914997
 20
171.452200
 30
0.0
 10
357.000000
 20
171.452200
 30
0.0
  0
LWPOLYLINE
  5
20e
100
AcDbEntity
  8
0
 62
7
100
AcDbPolyline
 90
1
 70
1
 10
357.000000
 20
273.452200
 30
0.0
  0
LWPOLYLINE
  5
20f
100
AcDbEntity
  8
0
 62
7
100
AcDbPolyline
 90
1
 70
1
 10
357.000000
 20
171.452200
 30
0.0
  0
LWPOLYLINE
  5
210
100
AcDbEntity
  8
0
 62
7
100
AcDbPolyline
 90
2
 70
0
 10
131.612500
 20
269.558500
 30
0.0
 10
131.862500
 20
269.558500
 30
0.0
  0
LWPOLYLINE
  5
211
100
AcDbEntity
  8
0
 62
7
100
AcDbPolyline
 90
2
 70
0
 10
131.612500
 20
269.308500
 30
0.0
 10
131.612500
 20
269.558500
 30
0.0
  0
LWPOLYLINE
  5
212
100
AcDbEntity
  8
0
 62
7
100
AcDbPolyline
 90
2
 70
0
 10
131.612500
 20
262.308400
 30
0.0
 10
131.612500
 20
269.308500
 30
0.0
  0
LWPOLYLINE
  5
213
100
AcDbEntity
  8
0
 62
7
100
AcDbPolyline
 90
3
 70
0
 10
131.612500
 20
262.308400
 30
0.0
 10
131.612500
 20
262.058400
 30
0.0
 10
131.862500
 20
262.058400
 30
0.0
  0
LWPOLYLINE
  5
214
100
AcDbEntity
  8
0
 62
7
100
AcDbPolyline
 90
3
 70
0
 10
131.862500
 20
269.558500
 30
0.0
 10
140.862500
 20
269.558500
 30
0.0
 10
141.112500
 20
269.558500
 30
0.0
  0
LWPOLYLINE
  5
215
100
AcDbEntity
  8
0
 62
7
100
AcDbPolyline
 90
2
 70
0
 10
140.862500
 20
262.058400
 30
0.0
 10
131.862500
 20
262.058400
 30
0.0
  0
LWPOLYLINE
  5
216
100
AcDbEntity
  8
0
 62
7
100
AcDbPolyline
 90
2
 70
0
 10
140.862500
 20
262.058400
 30
0.0
 10
141.112500
 20
262.058400
 30
0.0
  0
LWPOLYLINE
  5
217
100
AcDbEntity
  8
0
 62
7
100
AcDbPolyline
 90
3
 70
0
 10
141.112500
 20
269.558500
 30
0.0
 10
141.112500
 20
269.308500
 30
0.0
 10
141.112500
 20
262.308400
 30
0.0
  0
LWPOLYLINE
  5
218
100
AcDbEntity
  8
0
 62
7
100
AcDbPolyline
 90
2
 70
0
 10
141.112500
 20
262.058400
 30
0.0
 10
141.112500
 20
262.308400
 30
0.0
  0
LWPOLYLINE
  5
219
100
AcDbEntity
  8
0
 62
7
100
AcDbPolyline
 90
2
 70
0
 10
155.425000
 20
269.558500
 30
0.0
 10
155.675000
 20
269.558500
 30
0.0
  0
LWPOLYLINE
  5
21a
100
AcDbEntity
  8
0
 62
7
100
AcDbPolyline
 90
2
 70
0
 10
155.425000
 20
269.308500
 30
0.0
 10
155.425000
 20
269.558500
 30
0.0
  0
LWPOLYLINE
  5
21b
100
AcDbEntity
  8
0
 62
7
100
AcDbPolyline
 90
2
 70
0
 10
155.425000
 20
262.308400
 30
0.0
 10
155.425000
 20
269.308500
 30
0.0
  0
LWPOLYLINE
  5
21c
100
AcDbEntity
  8
0
 62
7
100
AcDbPolyline
 90
3
 70
0
 10
155.425000
 20
262.308400
 30
0.0
 10
155.425000
 20
262.058400
 30
0.0
 10
155.675000
 20
262.058400
 30
0.0
  0
LWPOLYLINE
  5
21d
100
AcDbEntity
  8
0
 62
7
100
AcDbPolyline
 90
3
 70
0
 10
155.675000
 20
269.558500
 30
0.0
 10
164.675000
 20
269.558500
 30
0.0
 10
164.925000
 20
269.558500
 30
0.0
  0
LWPOLYLINE
  5
21e
100
AcDbEntity
  8
0
 62
7
100
AcDbPolyline
 90
2
 70
0
 10
164.675000
 20
262.058400
 30
0.0
 10
155.675000
 20
262.058400
 30
0.0
  0
LWPOLYLINE
  5
21f
100
AcDbEntity
  8
0
 62
7
100
AcDbPolyline
 90
2
 70
0
 10
164.675000
 20
262.058400
 30
0.0
 10
164.925000
 20
262.058400
 30
0.0
  0
LWPOLYLINE
  5
220
100
AcDbEntity
  8
0
 62
7
100
AcDbPolyline
 90
3
 70
0
 10
164.925000
 20
269.558500
 30
0.0
 10
164.925000
 20
269.308500
 30
0.0
 10
164.925000
 20
262.308400
 30
0.0
  0
LWPOLYLINE
  5
221
100
AcDbEntity
  8
0
 62
7
100
AcDbPolyline
 90
2
 70
0
 10
164.925000
 20
262.058400
 30
0.0
 10
164.925000
 20
262.308400
 30
0.0
  0
LWPOLYLINE
  5
222
100
AcDbEntity
  8
0
 62
7
100
AcDbPolyline
 90
2
 70
0
 10
143.518700
 20
269.558500
 30
0.0
 10
143.768700
 20
269.558500
 30
0.0
  0
LWPOLYLINE
  5
223
100
AcDbEntity
  8
0
 62
7
100
AcDbPolyline
 90
2
 70
0
 10
143.518700
 20
269.308500
 30
0.0
 10
143.518700
 20
269.558500
 30
0.0
  0
LWPOLYLINE
  5
224
100
AcDbEntity
  8
0
 62
7
100
AcDbPolyline
 90
2
 70
0
 10
143.518700
 20
262.308400
 30
0.0
 10
143.518700
 20
269.308500
 30
0.0
  0
LWPOLYLINE
  5
225
100
AcDbEntity
  8
0
 62
7
100
AcDbPolyline
 90
3
 70
0
 10
143.518700
 20
262.308400
 30
0.0
 10
143.518700
 20
262.058400
 30
0.0
 10
143.768700
 20
262.058400
 30
0.0
  0
LWPOLYLINE
  5
226
100
AcDbEntity
  8
0
 62
7
100
AcDbPolyline
 90
3
 70
0
 10
143.768700
 20
269.558500
 30
0.0
 10
152.768700
 20
269.558500
 30
0.0
 10
153.018700
 20
269.558500
 30
0.0
  0
LWPOLYLINE
  5
227
100
AcDbEntity
  8
0
 62
7
100
AcDbPolyline
 90
2
 70
0
 10
152.768700
 20
262.058400
 30
0.0
 10
143.768700
 20
262.058400
 30
0.0
  0
LWPOLYLINE
  5
228
100
AcDbEntity
  8
0
 62
7
100
AcDbPolyline
 90
2
 70
0
 10
152.768700
 20
262.058400
 30
0.0
 10
153.018700
 20
262.058400
 30
0.0
  0
LWPOLYLINE
  5
229
100
AcDbEntity
  8
0
 62
7
100
AcDbPolyline
 90
3
 70
0
 10
153.018700
 20
269.558500
 30
0.0
 10
153.018700
 20
269.308500
 30
0.0
 10
153.018700
 20
262.308400
 30
0.0
  0
LWPOLYLINE
  5
22a
100
AcDbEntity
  8
0
 62
7
100
AcDbPolyline
 90
2
 70
0
 10
153.018700
 20
262.058400
 30
0.0
 10
153.018700
 20
262.308400
 30
0.0
  0
SPLINE
  5
22b
100
AcDbEntity
  8
0
 62
7
100
AcDbSpline
 70
8
 71
3
 72
8
 73
4
 74
0
 40
0
 40
0
 40
0
 40
0
 40
1
 40
1
 40
1
 40
1
 10
22.000000
 20
168.002200
 30
0.0
 10
22.000000
 20
166.676118
 30
0.0
 10
22.526784
 20
165.404348
 30
0.0
 10
23.464466
 20
164.466666
 30
0.0
  0
SPLINE
  5
22c
100
AcDbEntity
  8
0
 62
7
100
AcDbSpline
 70
8
 71
3
 72
8
 73
4
 74
0
 40
0
 40
0
 40
0
 40
0
 40
1
 40
1
 40
1
 40
1
 10
23.464466
 20
164.466666
 30
0.0
 10
24.402148
 20
163.528984
 30
0.0
 10
25.673918
 20
163.002200
 30
0.0
 10
27.000000
 20
163.002200
 30
0.0
  0
SPLINE
  5
22d
100
AcDbEntity
  8
0
 62
7
100
AcDbSpline
 70
8
 71
3
 72
8
 73
4
 74
0
 40
0
 40
0
 40
0
 40
0
 40
1
 40
1
 40
1
 40
1
 10
357.000000
 20
163.002200
 30
0.0
 10
358.326082
 20
163.002200
 30
0.0
 10
359.597852
 20
163.528984
 30
0.0
 10
360.535534
 20
164.466666
 30
0.0
  0
SPLINE
  5
22e
100
AcDbEntity
  8
0
 62
7
100
AcDbSpline
 70
8
 71
3
 72
8
 73
4
 74
0
 40
0
 40
0
 40
0
 40
0
 40
1
 40
1
 40
1
 40
1
 10
360.535534
 20
164.466666
 30
0.0
 10
361.473216
 20
165.404348
 30
0.0
 10
362.000000
 20
166.676118
 30
0.0
 10
362.000000
 20
168.002200
 30
0.0
  0
LWPOLYLINE
  5
22f
100
AcDbEntity
  8
0
 62
7
100
AcDbPolyline
 90
3
 70
0
 10
357.000000
 20
275.002200
 30
0.0
 10
199.000000
 20
275.002200
 30
0.0
 10
198.500000
 20
275.002200
 30
0.0
  0
LWPOLYLINE
  5
230
100
AcDbEntity
  8
0
 62
7
100
AcDbPolyline
 90
2
 70
0
 10
185.000000
 20
275.002200
 30
0.0
 10
27.000000
 20
275.002200
 30
0.0
  0
SPLINE
  5
231
100
AcDbEntity
  8
0
 62
7
100
AcDbSpline
 70
8
 71
3
 72
8
 73
4
 74
0
 40
0
 40
0
 40
0
 40
0
 40
1
 40
1
 40
1
 40
1
 10
27.000000
 20
275.002200
 30
0.0
 10
25.673918
 20
275.002200
 30
0.0
 10
24.402148
 20
274.475416
 30
0.0
 10
23.464466
 20
273.537734
 30
0.0
  0
SPLINE
  5
232
100
AcDbEntity
  8
0
 62
7
100
AcDbSpline
 70
8
 71
3
 72
8
 73
4
 74
0
 40
0
 40
0
 40
0
 40
0
 40
1
 40
1
 40
1
 40
1
 10
23.464466
 20
273.537734
 30
0.0
 10
22.526784
 20
272.600052
 30
0.0
 10
22.000000
 20
271.328282
 30
0.0
 10
22.000000
 20
270.002200
 30
0.0
  0
LWPOLYLINE
  5
233
100
AcDbEntity
  8
0
 62
7
100
AcDbPolyline
 90
2
 70
0
 10
362.000000
 20
168.002200
 30
0.0
 10
362.000000
 20
270.002200
 30
0.0
  0
SPLINE
  5
234
100
AcDbEntity
  8
0
 62
7
100
AcDbSpline
 70
8
 71
3
 72
8
 73
4
 74
0
 40
0
 40
0
 40
0
 40
0
 40
1
 40
1
 40
1
 40
1
 10
362.000000
 20
270.002200
 30
0.0
 10
362.000000
 20
271.328282
 30
0.0
 10
361.473216
 20
272.600052
 30
0.0
 10
360.535534
 20
273.537734
 30
0.0
  0
SPLINE
  5
235
100
AcDbEntity
  8
0
 62
7
100
AcDbSpline
 70
8
 71
3
 72
8
 73
4
 74
0
 40
0
 40
0
 40
0
 40
0
 40
1
 40
1
 40
1
 40
1
 10
360.535534
 20
273.537734
 30
0.0
 10
359.597852
 20
274.475416
 30
0.0
 10
358.326082
 20
275.002200
 30
0.0
 10
357.000000
 20
275.002200
 30
0.0
  0
LWPOLYLINE
  5
236
100
AcDbEntity
  8
0
 62
7
100
AcDbPolyline
 90
2
 70
0
 10
186.000000
 20
274.252200
 30
0.0
 10
186.000000
 20
274.502200
 30
0.0
  0
LWPOLYLINE
  5
237
100
AcDbEntity
  8
0
 62
7
100
AcDbPolyline
 90
2
 70
0
 10
27.000000
 20
163.002200
 30
0.0
 10
357.000000
 20
163.002200
 30
0.0
  0
SPLINE
  5
238
100
AcDbEntity
  8
0
 62
7
100
AcDbSpline
 70
8
 71
3
 72
8
 73
4
 74
0
 40
0
 40
0
 40
0
 40
0
 40
1
 40
1
 40
1
 40
1
 10
198.500000
 20
275.002200
 30
0.0
 10
198.367392
 20
275.002200
 30
0.0
 10
198.240215
 20
274.949522
 30
0.0
 10
198.146447
 20
274.855753
 30
0.0
  0
SPLINE
  5
239
100
AcDbEntity
  8
0
 62
7
100
AcDbSpline
 70
8
 71
3
 72
8
 73
4
 74
0
 40
0
 40
0
 40
0
 40
0
 40
1
 40
1
 40
1
 40
1
 10
198.146447
 20
274.855753
 30
0.0
 10
198.052678
 20
274.761985
 30
0.0
 10
198.000000
 20
274.634808
 30
0.0
 10
198.000000
 20
274.502200
 30
0.0
  0
SPLINE
  5
23a
100
AcDbEntity
  8
0
 62
7
100
AcDbSpline
 70
8
 71
3
 72
8
 73
4
 74
0
 40
0
 40
0
 40
0
 40
0
 40
1
 40
1
 40
1
 40
1
 10
186.000000
 20
274.502200
 30
0.0
 10
186.000000
 20
274.634808
 30
0.0
 10
185.947322
 20
274.761985
 30
0.0
 10
185.853553
 20
274.855753
 30
0.0
  0
SPLINE
  5
23b
100
AcDbEntity
  8
0
 62
7
100
AcDbSpline
 70
8
 71
3
 72
8
 73
4
 74
0
 40
0
 40
0
 40
0
 40
0
 40
1
 40
1
 40
1
 40
1
 10
185.853553
 20
274.855753
 30
0.0
 10
185.759785
 20
274.949522
 30
0.0
 10
185.632608
 20
275.002200
 30
0.0
 10
185.500000
 20
275.002200
 30
0.0
  0
LWPOLYLINE
  5
23c
100
AcDbEntity
  8
0
 62
7
100
AcDbPolyline
 90
2
 70
0
 10
22.000000
 20
270.002200
 30
0.0
 10
22.000000
 20
168.002200
 30
0.0
  0
LWPOLYLINE
  5
23d
100
AcDbEntity
  8
0
 62
7
100
AcDbPolyline
 90
2
 70
0
 10
198.000000
 20
274.252200
 30
0.0
 10
198.000000
 20
274.502200
 30
0.0
  0
LWPOLYLINE
  5
23e
100
AcDbEntity
  8
0
 62
7
100
AcDbPolyline
 90
2
 70
0
 10
185.500000
 20
275.002200
 30
0.0
 10
185.000000
 20
275.002200
 30
0.0
  0
LWPOLYLINE
  5
23f
100
AcDbEntity
  8
0
 62
7
100
AcDbPolyline
 90
4
 70
0
 10
186.000000
 20
274.252200
 30
0.0
 10
186.000000
 20
253.252200
 30
0.0
 10
198.000000
 20
253.252200
 30
0.0
 10
198.000000
 20
274.252200
 30
0.0
  0
ENDSEC
  0
SECTION
  2
OBJECTS
  0
DICTIONARY
  5
C
330
0
100
AcDbDictionary
  3
ACAD_GROUP
350
D
  3
ACAD_MLINESTYLE
350
17
  0
DICTIONARY
  5
D
330
C
100
AcDbDictionary
  0
DICTIONARY
  5
1A
330
C
100
AcDbDictionary
  0
DICTIONARY
  5
17
330
C
100
AcDbDictionary
  3
STANDARD
350
18
  0
DICTIONARY
  5
19
330
C
100
AcDbDictionary
  0
ENDSEC
  0
EOF
