0
SECTION
2
HEADER
9
$INSUNITS
70
4
9
$ACADVER
1
AC1014
9
$HANDSEED
5
FFFF
0
ENDSEC
0
SECTION
2
TABLES
0
TABLE
2
VPORT
5
8
100
AcDbSymbolTable
0
ENDTAB
0
TABLE
2
LTYPE
5
5
100
AcDbSymbolTable
0
LTYPE
5
14
100
AcDbSymbolTableRecord
100
AcDbLinetypeTableRecord
2
BYBLOCK
70
0
0
LTYPE
5
15
100
AcDbSymbolTableRecord
100
AcDbLinetypeTableRecord
2
BYLAYER
70
0
0
ENDTAB
0
TABLE
2
LAYER
5
2
100
AcDbSymbolTable
70
2
0
LAYER
5
50
100
AcDbSymbolTableRecord
100
AcDbLayerTableRecord
2
0
70
0
6
CONTINUOUS
0
ENDTAB
0
TABLE
2
STYLE
5
3
100
AcDbSymbolTable
70
1
0
STYLE
5
11
100
AcDbSymbolTableRecord
100
AcDbTextStyleTableRecord
2
STANDARD
70
0
0
ENDTAB
0
TABLE
2
VIEW
5
6
100
AcDbSymbolTable
70
0
0
ENDTAB
0
TABLE
2
UCS
5
7
100
AcDbSymbolTable
70
0
0
ENDTAB
0
TABLE
2
APPID
5
9
100
AcDbSymbolTable
70
2
0
APPID
5
12
100
AcDbSymbolTableRecord
100
AcDbRegAppTableRecord
2
ACAD
70
0
0
ENDTAB
0
TABLE
2
DIMSTYLE
5
A
100
AcDbSymbolTable
70
1
0
ENDTAB
0
TABLE
2
BLOCK_RECORD
5
1
100
AcDbSymbolTable
70
1
0
BLOCK_RECORD
5
1F
100
AcDbSymbolTableRecord
100
AcDbBlockTableRecord
2
*MODEL_SPACE
0
BLOCK_RECORD
5
1B
100
AcDbSymbolTableRecord
100
AcDbBlockTableRecord
2
*PAPER_SPACE
0
ENDTAB
0
ENDSEC
0
SECTION
2
BLOCKS
0
BLOCK
5
20
100
AcDbEntity
100
AcDbBlockBegin
2
*MODEL_SPACE
0
ENDBLK
5
21
100
AcDbEntity
100
AcDbBlockEnd
0
BLOCK
5
1C
100
AcDbEntity
100
AcDbBlockBegin
2
*PAPER_SPACE
0
ENDBLK
5
1D
100
AcDbEntity
100
AcDbBlockEnd
0
ENDSEC
0
SECTION
2
ENTITIES
0
LINE
5
100
100
AcDbEntity
8
0
100
AcDbLine
10
5
20
0.0021999999999877673
30
0
11
315.00000000000006
21
0.0021999999999877673
31
0
0
LWPOLYLINE
5
101
100
AcDbEntity
8
0
100
AcDbPolyline
90
48
70
1
43
0.0
10
111.76870000000001
20
115.55849999999998
10
120.7687
20
115.55849999999998
10
121.01870000000002
20
115.55849999999998
10
123.42500000000001
20
115.55849999999998
10
123.67500000000004
20
115.55849999999998
10
132.67500000000001
20
115.55849999999998
10
132.92500000000004
20
115.55849999999998
10
135.3312
20
115.55849999999998
10
135.58120000000002
20
115.55849999999998
10
144.58120000000002
20
115.55849999999998
10
144.8312
20
115.55849999999998
42
-0.41421356237310542
10
145.8312
20
114.55849999999998
10
145.8312
20
114.3085
10
145.8312
20
107.30840000000001
10
145.8312
20
107.05840000000002
42
-0.41421356237310542
10
144.8312
20
106.05840000000002
10
144.58120000000002
20
106.05840000000002
10
135.58120000000002
20
106.05840000000002
10
135.3312
20
106.05840000000002
10
132.92500000000004
20
106.05840000000002
10
132.67500000000001
20
106.05840000000002
10
123.67500000000004
20
106.05840000000002
10
123.42500000000001
20
106.05840000000002
10
121.01870000000002
20
106.05840000000002
10
120.7687
20
106.05840000000002
10
111.76870000000001
20
106.05840000000002
10
111.5187
20
106.05840000000002
10
109.11250000000003
20
106.05840000000002
10
108.86250000000001
20
106.05840000000002
10
99.862500000000011
20
106.05840000000002
10
99.61250000000004
20
106.05840000000002
10
97.206500000000034
20
106.05840000000002
10
96.956500000000005
20
106.05840000000002
10
87.95650000000002
20
106.05840000000002
10
87.706500000000005
20
106.05840000000002
42
-0.41421356237310542
10
86.706500000000005
20
107.05840000000002
10
86.706500000000005
20
107.30840000000001
10
86.706500000000005
20
114.3085
10
86.706500000000005
20
114.55849999999998
42
-0.41421356237310542
10
87.706500000000005
20
115.55849999999998
10
87.95650000000002
20
115.55849999999998
10
96.956500000000005
20
115.55849999999998
10
97.206500000000034
20
115.55849999999998
10
99.61250000000004
20
115.55849999999998
10
99.862500000000011
20
115.55849999999998
10
108.86250000000001
20
115.55849999999998
10
109.11250000000003
20
115.55849999999998
10
111.5187
20
115.55849999999998
0
SPLINE
5
102
100
AcDbEntity
8
0
100
AcDbSpline
70
0
71
3
72
8
73
4
74
0
42
0.000000001
43
0.0000000001
44
0.0000000001
40
0
40
0
40
0
40
0
40
1
40
1
40
1
40
1
10
315.00000000000006
20
0.0021999999999877673
30
0
10
316.32608200000004
20
0.0021999999999877673
30
0
10
317.59785199999999
20
0.52898400000001899
30
0
10
318.53553399999998
20
1.4666660000000142
30
0
0
SPLINE
5
103
100
AcDbEntity
8
0
100
AcDbSpline
70
0
71
3
72
8
73
4
74
0
42
0.000000001
43
0.0000000001
44
0.0000000001
40
0
40
0
40
0
40
0
40
1
40
1
40
1
40
1
10
318.53553399999998
20
1.4666660000000142
30
0
10
319.47321600000004
20
2.4043480000000095
30
0
10
320
20
3.676118000000006
30
0
10
320
20
5.0021999999999878
30
0
0
LINE
5
104
100
AcDbEntity
8
0
100
AcDbLine
10
149.99999671610846
20
118.99999675883248
30
0
11
150.0000004748299
21
95.252199841723382
31
0
0
ARC
5
105
100
AcDbEntity
8
0
100
AcDbCircle
10
150.99999671610843
20
118.99999691710912
30
0
40
1.0000000000000056
210
0
220
0
230
1
100
AcDbArc
50
90.000013316954153
51
180.00000903549096
0
LINE
5
106
100
AcDbEntity
8
0
100
AcDbLine
10
320
20
116.50220000000003
30
0
11
320
21
5.0021999999999878
31
0
0
SPLINE
5
107
100
AcDbEntity
8
0
100
AcDbSpline
70
0
71
3
72
8
73
4
74
0
42
0.000000001
43
0.0000000001
44
0.0000000001
40
0
40
0
40
0
40
0
40
1
40
1
40
1
40
1
10
1.4644659999999954
20
1.4666660000000142
30
0
10
2.4021479999999951
20
0.52898400000001899
30
0
10
3.6739180000000005
20
0.0021999999999877673
30
0
10
5
20
0.0021999999999877673
30
0
0
SPLINE
5
108
100
AcDbEntity
8
0
100
AcDbSpline
70
0
71
3
72
8
73
4
74
0
42
0.000000001
43
0.0000000001
44
0.0000000001
40
0
40
0
40
0
40
0
40
1
40
1
40
1
40
1
10
1.4644659999999954
20
120.03773400000001
30
0
10
0.52678400000000014
20
119.10005200000002
30
0
10
0
20
117.82828200000003
30
0
10
0
20
116.50220000000003
30
0
0
SPLINE
5
109
100
AcDbEntity
8
0
100
AcDbSpline
70
0
71
3
72
8
73
4
74
0
42
0.000000001
43
0.0000000001
44
0.0000000001
40
0
40
0
40
0
40
0
40
1
40
1
40
1
40
1
10
0
20
5.0021999999999878
30
0
10
0
20
3.676118000000006
30
0
10
0.52678400000000014
20
2.4043480000000095
30
0
10
1.4644659999999954
20
1.4666660000000142
30
0
0
LINE
5
110
100
AcDbEntity
8
0
100
AcDbLine
10
170.00000235985397
20
119.00001872297983
30
0
11
169.9999996587803
21
95.252199886260115
31
0
0
ARC
5
111
100
AcDbEntity
8
0
100
AcDbCircle
10
168.99999965878035
20
95.252199999999974
30
0
40
0.99999999999996092
210
0
220
0
230
1
100
AcDbArc
50
270
51
359.99999349785367
0
ARC
5
112
100
AcDbEntity
8
0
100
AcDbCircle
10
151.0000004748299
20
95.252200000000016
30
0
40
0.99999999999999112
210
0
220
0
230
1
100
AcDbArc
50
180.00000903549096
51
270
0
ARC
5
113
100
AcDbEntity
8
0
100
AcDbCircle
10
169.00000235985399
20
119.00001883671969
30
0
40
0.99999999999998523
210
0
220
0
230
1
100
AcDbArc
50
-6.502146353055605e-06
51
90.000013318260173
0
LINE
5
114
100
AcDbEntity
8
0
100
AcDbLine
10
151.0000004748299
20
94.25220000000003
30
0
11
168.99999965878035
21
94.252200000000016
31
0
0
SPLINE
5
115
100
AcDbEntity
8
0
100
AcDbSpline
70
0
71
3
72
8
73
4
74
0
42
0.000000001
43
0.0000000001
44
0.0000000001
40
0
40
0
40
0
40
0
40
1
40
1
40
1
40
1
10
320
20
116.50220000000003
30
0
10
320
20
117.82828200000003
30
0
10
319.47321600000004
20
119.10005200000002
30
0
10
318.53553399999998
20
120.03773400000001
30
0
0
SPLINE
5
116
100
AcDbEntity
8
0
100
AcDbSpline
70
0
71
3
72
8
73
4
74
0
42
0.000000001
43
0.0000000001
44
0.0000000001
40
0
40
0
40
0
40
0
40
1
40
1
40
1
40
1
10
5
20
121.50220000000003
30
0
10
3.6739180000000005
20
121.50220000000003
30
0
10
2.4021479999999951
20
120.97541600000001
30
0
10
1.4644659999999954
20
120.03773400000001
30
0
0
SPLINE
5
117
100
AcDbEntity
8
0
100
AcDbSpline
70
0
71
3
72
8
73
4
74
0
42
0.000000001
43
0.0000000001
44
0.0000000001
40
0
40
0
40
0
40
0
40
1
40
1
40
1
40
1
10
318.53553399999998
20
120.03773400000001
30
0
10
317.59785199999999
20
120.97541600000001
30
0
10
316.32608200000004
20
121.50220000000003
30
0
10
315.00000000000006
20
121.50220000000003
30
0
0
LINE
5
118
100
AcDbEntity
8
0
100
AcDbLine
10
0
20
116.50220000000003
30
0
11
0
21
5.0021999999999878
31
0
0
LINE
5
119
100
AcDbEntity
8
0
100
AcDbLine
10
155.00000230967999
20
120.50000117926182
30
0
11
155.00000230967999
21
121.00220000000002
31
0
0
LINE
5
120
100
AcDbEntity
8
0
100
AcDbLine
10
165.0000024586916
20
120.5000145745757
30
0
11
165.0000024586916
21
121.00220000000002
31
0
0
LINE
5
121
100
AcDbEntity
8
0
100
AcDbLine
10
4.9999999999999911
20
121.50220000000003
30
0
11
154.50000230967993
21
121.50220000000003
31
0
0
LINE
5
122
100
AcDbEntity
8
0
100
AcDbLine
10
165.5000024586916
20
121.50220000000003
30
0
11
315.00000000000006
21
121.50220000000003
31
0
0
LINE
5
123
100
AcDbEntity
8
0
100
AcDbLine
10
150.99999648368373
20
119.9999969171091
30
0
11
154.50000291855787
21
120.0000011792622
31
0
0
LINE
5
124
100
AcDbEntity
8
0
100
AcDbLine
10
165.50000306756945
20
120.00001457457606
30
0
11
169.0000021274065
21
120.00001883672019
31
0
0
ARC
5
125
100
AcDbEntity
8
0
100
AcDbCircle
10
154.50000230967999
20
120.50000117926182
30
0
40
0.49999999999998707
210
-0
220
0
230
1
100
AcDbArc
50
-89.999930227734112
51
0
0
ARC
5
126
100
AcDbEntity
8
0
100
AcDbCircle
10
154.50000230967993
20
121.00219999999999
30
0
40
0.50000000000004263
210
0
220
-0
230
1
100
AcDbArc
50
0
51
90
0
ARC
5
127
100
AcDbEntity
8
0
100
AcDbCircle
10
165.50000245869168
20
120.50001457457576
30
0
40
0.50000000000007816
210
0
220
0
230
1
100
AcDbArc
50
180
51
270.00006977225286
0
ARC
5
128
100
AcDbEntity
8
0
100
AcDbCircle
10
165.5000024586916
20
121.00220000000002
30
0
40
0.50000000000000711
210
0
220
-0
230
1
100
AcDbArc
50
90
51
180
0
LWPOLYLINE
5
129
100
AcDbEntity
8
0
100
AcDbPolyline
90
24
70
1
43
0.0
10
78.262645686505493
20
90.435767814836339
10
78.107582345259743
20
90.087489848113933
42
0.41421356237310669
10
78.614391159826567
20
88.767207747395545
10
94.190336871938669
20
81.83234991555473
42
-0.41421356237309503
10
94.697145686505479
20
80.512067814836314
10
87.985990975750781
20
65.438567539120754
42
-0.41421356237310086
10
86.665708875032394
20
64.931758724553944
10
70.678663128061316
20
72.049650084445304
42
-0.41421356237310325
10
70.171854313494521
20
73.369932185163705
10
70.326917654740242
20
73.718210151886083
42
0.41421356237311485
10
69.820108840173447
20
75.03849225260447
10
54.655245388854269
20
81.790324469918815
42
0.41421356237311829
10
53.334963288135881
20
81.283515655352005
10
53.179890975750801
20
80.935217539120728
42
-0.41421356237311141
10
51.859608875032407
20
80.428408724553933
10
35.872563128061337
20
87.546300084445278
42
-0.41421356237310308
10
35.365754313494534
20
88.866582185163665
10
42.076909024249225
20
103.94008246087921
42
-0.41421356237308682
10
43.397191124967634
20
104.44689127544605
10
58.973154611145731
20
97.512025530081203
42
0.41421356237309975
10
60.293436711864139
20
98.018834344647999
10
60.448509024249219
20
98.367132460879247
42
-0.41421356237307999
10
61.768791124967635
20
98.873941275446072
10
77.755836871938683
20
91.756049915554712
42
-0.41421356237310564
0
LWPOLYLINE
5
130
100
AcDbEntity
8
0
100
AcDbPolyline
90
8
70
1
43
0.0
10
110.96447039339239
20
24.257910893223553
10
93.232509060655829
20
4.5645727246189951
42
-0.41421356237309354
10
91.820233628819608
20
4.4905585055004726
10
79.558343825726169
20
15.53121367494021
42
-0.41421356237310425
10
79.484329606607645
20
16.943489106776461
10
97.216290939344191
20
36.63682727538103
42
-0.41421356237309698
10
98.628566371180455
20
36.710841494499562
10
110.89045617427385
20
25.670186325059802
42
-0.41421356237308771
0
LWPOLYLINE
5
131
100
AcDbEntity
8
0
100
AcDbPolyline
90
8
70
1
43
0.0
10
240.44170617427392
20
15.531213674940201
10
228.17981637118052
20
4.4905585055004558
42
-0.41421356237309104
10
226.76754093934423
20
4.5645727246189969
10
209.03557960660771
20
24.257910893223578
42
-0.41421356237311069
10
209.10959382572622
20
25.670186325059831
10
221.37148362881959
20
36.71084149449954
42
-0.41421356237308066
10
222.78375906065583
20
36.636827275381016
10
240.51572039339243
20
16.94348910677645
42
-0.4142135623731098
0
LWPOLYLINE
5
132
100
AcDbEntity
8
0
100
AcDbPolyline
90
46
70
1
43
0.0
10
238.1959985341486
20
98.389781335077998
10
238.06655431349455
20
98.68051781483635
42
-0.41421356237307183
10
238.57336312806137
20
100.00079991555472
10
254.56040887503246
20
107.11869127544605
42
-0.4142135623731209
10
255.88069097575078
20
106.61188246087926
10
256.01013589580936
20
106.32114441023276
42
0.41421356237307183
10
257.33041799652779
20
105.81433559566594
10
272.90635887503242
20
112.74919127544604
42
-0.41421356237309975
10
274.2266409757508
20
112.24238246087923
10
276.86492870208957
20
106.31669120738235
42
0.41421356237311141
10
278.18521080280794
20
105.80988239281552
10
293.76115887503249
20
112.74474127544606
42
-0.41421356237310453
10
295.08144097575087
20
112.23793246087925
10
301.79259816327635
20
97.164426622245401
10
302.42304345251733
20
95.748376897970573
10
309.13419568650551
20
80.674882185163668
42
-0.41421356237306706
10
308.62738687193871
20
79.354600084445238
10
292.64034112496756
20
72.236708724553935
42
-0.4142135623730937
10
291.32005902424919
20
72.743517539120745
10
288.68175271928982
20
78.669250520882755
42
0.4142135623730776
10
287.36147061857145
20
79.176059335449594
10
271.78554112496761
20
72.241208724553928
42
-0.41421356237311013
10
270.46525902424924
20
72.748017539120738
10
270.33581410419072
20
73.038755589767206
42
0.41421356237310325
10
269.01553200347229
20
73.545564404334044
10
253.85066855215319
20
66.793732187019799
42
0.41421356237305096
10
253.3438597375864
20
65.473450086301384
10
253.47329568650559
20
65.182732185163687
10
254.10374059372617
20
63.766733318919584
10
260.81489568650551
20
48.693232185163708
42
-0.41421356237310325
10
260.30808687193871
20
47.3729500844453
10
244.32104112496762
20
40.255058724553976
42
-0.4142135623730776
10
243.00075902424922
20
40.761867539120765
10
236.28960431349455
20
55.835367814836339
10
235.65915940627391
20
57.251366681080441
10
232.58281253207471
20
64.160954889816139
42
0.4142135623730589
10
231.26253043135637
20
64.667763704382878
10
215.68659112496763
20
57.732908724553972
42
-0.4142135623730776
10
214.36630902424923
20
58.239717539120761
10
207.65515431349456
20
73.313217814836335
42
-0.41421356237307527
10
208.16196312806139
20
74.633499915554722
10
223.73794283274776
20
81.56837288186469
42
0.41421356237306234
10
224.24475164731456
20
82.888654982583063
10
221.60645431349457
20
88.814367814836345
42
-0.41421356237306489
10
222.11326312806136
20
90.134649915554746
10
237.68918971958175
20
97.06949923435964
42
0.41421356237309026
0
CIRCLE
5
133
100
AcDbEntity
8
0
100
AcDbCircle
10
5
20
115.00220000000002
30
0
40
2.75
210
0
220
0
230
1
0
CIRCLE
5
134
100
AcDbEntity
8
0
100
AcDbCircle
10
5
20
5.0021999999999878
30
0
40
2.75
210
0
220
0
230
1
0
CIRCLE
5
135
100
AcDbEntity
8
0
100
AcDbCircle
10
160.00000000000003
20
5.0021999999999878
30
0
40
2.7499999999999858
210
0
220
0
230
1
0
CIRCLE
5
136
100
AcDbEntity
8
0
100
AcDbCircle
10
315.00000000000006
20
5.0021999999999878
30
0
40
2.7499999999999858
210
0
220
0
230
1
0
CIRCLE
5
137
100
AcDbEntity
8
0
100
AcDbCircle
10
315.00000000000006
20
115.00220000000002
30
0
40
2.7499999999999858
210
0
220
0
230
1
0
CIRCLE
5
138
100
AcDbEntity
8
0
100
AcDbCircle
10
175.00000000000003
20
115.00220000000002
30
0
40
2.7499999999999858
210
0
220
0
230
1
0
ENDSEC
0
SECTION
2
OBJECTS
0
DICTIONARY
5
C
100
AcDbDictionary
3
ACAD_GROUP
350
D
3
ACAD_MLINESTYLE
350
17
0
DICTIONARY
5
D
100
AcDbDictionary
0
DICTIONARY
5
1A
330
C
100
AcDbDictionary
0
DICTIONARY
5
17
100
AcDbDictionary
0
ENDSEC
0
EOF
