0
SECTION
2
HEADER
9
$INSUNITS
70
4
9
$ACADVER
1
AC1014
9
$HANDSEED
5
FFFF
0
ENDSEC
0
SECTION
2
TABLES
0
TABLE
2
VPORT
5
8
100
AcDbSymbolTable
0
ENDTAB
0
TABLE
2
LTYPE
5
5
100
AcDbSymbolTable
0
LTYPE
5
14
100
AcDbSymbolTableRecord
100
AcDbLinetypeTableRecord
2
BYBLOCK
70
0
0
LTYPE
5
15
100
AcDbSymbolTableRecord
100
AcDbLinetypeTableRecord
2
BYLAYER
70
0
0
ENDTAB
0
TABLE
2
LAYER
5
2
100
AcDbSymbolTable
70
2
0
LAYER
5
50
100
AcDbSymbolTableRecord
100
AcDbLayerTableRecord
2
0
70
0
6
CONTINUOUS
0
ENDTAB
0
TABLE
2
STYLE
5
3
100
AcDbSymbolTable
70
1
0
STYLE
5
11
100
AcDbSymbolTableRecord
100
AcDbTextStyleTableRecord
2
STANDARD
70
0
0
ENDTAB
0
TABLE
2
VIEW
5
6
100
AcDbSymbolTable
70
0
0
ENDTAB
0
TABLE
2
UCS
5
7
100
AcDbSymbolTable
70
0
0
ENDTAB
0
TABLE
2
APPID
5
9
100
AcDbSymbolTable
70
2
0
APPID
5
12
100
AcDbSymbolTableRecord
100
AcDbRegAppTableRecord
2
ACAD
70
0
0
ENDTAB
0
TABLE
2
DIMSTYLE
5
A
100
AcDbSymbolTable
70
1
0
ENDTAB
0
TABLE
2
BLOCK_RECORD
5
1
100
AcDbSymbolTable
70
1
0
BLOCK_RECORD
5
1F
100
AcDbSymbolTableRecord
100
AcDbBlockTableRecord
2
*MODEL_SPACE
0
BLOCK_RECORD
5
1B
100
AcDbSymbolTableRecord
100
AcDbBlockTableRecord
2
*PAPER_SPACE
0
ENDTAB
0
ENDSEC
0
SECTION
2
BLOCKS
0
BLOCK
5
20
100
AcDbEntity
100
AcDbBlockBegin
2
*MODEL_SPACE
0
ENDBLK
5
21
100
AcDbEntity
100
AcDbBlockEnd
0
BLOCK
5
1C
100
AcDbEntity
100
AcDbBlockBegin
2
*PAPER_SPACE
0
ENDBLK
5
1D
100
AcDbEntity
100
AcDbBlockEnd
0
ENDSEC
0
SECTION
2
ENTITIES
0
LINE
5
100
100
AcDbEntity
8
0
100
AcDbLine
10
185.99999999999997
20
115.00220000000002
30
0
11
337
21
115.00220000000002
31
0
0
LWPOLYLINE
5
101
100
AcDbEntity
8
0
100
AcDbPolyline
90
24
70
1
43
0.0
10
71.939108889597208
20
84.271991558102286
10
87.5106188035423
20
77.339108670847679
42
-0.4142135623731209
10
88.017427618109124
20
76.018826570129249
10
80.492799721206794
20
59.118235603741212
42
-0.41421356237307388
10
79.172517620488406
20
58.611426789174388
10
61.358381196457685
20
66.542791329152507
42
-0.41421356237306811
10
60.85157238189089
20
67.863073429870866
10
61.006654301757244
20
68.211393124858404
42
0.41421356237306811
10
60.499845487190456
20
69.531675225576777
10
47.162054134310296
20
75.470042534539203
42
0.41421356237307527
10
45.841772033591901
20
74.963233719972379
10
45.6866997212068
20
74.614935603741117
42
-0.41421356237311013
10
44.366417620488434
20
74.108126789174349
10
26.552281196457692
20
82.03949132915244
42
-0.41421356237309093
10
26.045472381890882
20
83.359773429870856
10
33.570100278793184
20
100.26036439625891
42
-0.41421356237306362
10
34.890382379511593
20
100.76717321082572
10
50.470793019391316
20
93.83032746506494
42
0.41373798690889718
10
51.790413379831513
20
94.335653228705667
10
59.722794403638588
20
112.07448744705303
42
-0.41373798690890878
10
61.042414764078771
20
112.57981321069377
10
78.856553595804883
20
104.64844759874056
42
-0.41468929729433723
10
79.362700670824211
20
103.32668244873034
10
71.432961814577837
20
85.593756708112565
42
0.41468929729431658
0
LWPOLYLINE
5
102
100
AcDbEntity
8
0
100
AcDbPolyline
90
40
70
1
43
0.0
10
235.62267221351857
20
74.911776131504411
10
250.89565071741794
20
40.608135435368844
42
0.41421346506799583
10
252.21593268301004
20
40.101326924300587
10
270.03006880354224
20
48.03269132915247
42
0.41421356237308554
10
270.53687761810903
20
49.352973429870879
10
270.40743339745501
20
49.643709909629159
42
-0.41421356237312779
10
270.91424221202186
20
50.963992010347532
10
286.49016880354225
20
57.89884132915244
42
0.41421356237301582
10
286.99697761810904
20
59.219123429870919
10
286.86753339745502
20
59.509859909629164
42
-0.41421356237312779
10
287.37434221202187
20
60.830142010347537
10
300.71211269570455
20
66.768500027744636
42
-0.41421463960701654
10
302.0323962923556
20
66.26168785324154
10
302.16184542292075
20
65.97093746773588
42
0.41421463960700705
10
303.4821290195718
20
65.46412529323274
10
319.05806882668605
20
72.398980495999055
42
-0.41421356237314155
10
320.37835092740443
20
71.892171681432274
10
321.45070027879297
20
69.483635603741078
42
0.41421356237307605
10
322.77098237951151
20
68.976826789174311
10
340.58511910704084
20
76.908191464278772
42
0.41421365967827067
10
341.09192778648128
20
78.22847386849574
10
325.81894928258191
20
112.53211456463117
42
0.41421346506791662
10
324.49866731698984
20
113.03892307569946
10
308.92274975193448
20
106.10407777573569
42
-0.41421356237312779
10
307.6024676512161
20
106.61088659030253
10
306.5300997212068
20
109.01946439625888
42
0.41421356237304852
10
305.20981762048837
20
109.52627321082571
10
289.63387674198367
20
102.59141753104559
42
-0.41421356237312779
10
288.3135946412653
20
103.09822634561243
10
288.18414972120678
20
103.38896439625887
42
0.41421356237306234
10
286.86386762048835
20
103.89577321082569
10
269.04973119645769
20
95.96440867084759
42
0.41421356237312779
10
268.54292238189083
20
94.644126570129259
10
268.67237690943068
20
94.353366940726431
42
-0.41421356237308554
10
268.16556809486389
20
93.033084840008016
10
252.58958119645766
20
86.09820867084764
42
0.41421356237308554
10
252.08277238189086
20
84.777926570129239
10
252.21221660254488
20
84.487190090370916
42
-0.41421356237307183
10
251.70540778797803
20
83.166907989652515
10
236.12948089295907
20
76.232058535721336
42
0.41421365967822421
0
SPLINE
5
103
100
AcDbEntity
8
0
100
AcDbSpline
70
0
71
3
72
8
73
4
74
0
42
0.000000001
43
0.0000000001
44
0.0000000001
40
0
40
0
40
0
40
0
40
1
40
1
40
1
40
1
10
340.53553399999998
20
113.53773400000001
30
0
10
339.59785199999999
20
114.47541600000001
30
0
10
338.32608200000004
20
115.00220000000002
30
0
10
337
20
115.00220000000002
30
0
0
CIRCLE
5
104
100
AcDbEntity
8
0
100
AcDbCircle
10
336.9999922439456
20
109.99999452382326
30
0
40
1.6000000000000003
210
0
220
0
230
1
0
ARC
5
105
100
AcDbEntity
8
0
100
AcDbCircle
10
166
20
93.252200000000016
30
0
40
3.9999999999999858
210
0
220
0
230
1
100
AcDbArc
50
180
51
270
0
LWPOLYLINE
5
106
100
AcDbEntity
8
0
100
AcDbPolyline
90
8
70
1
43
0.0
10
156.83120001490113
20
110.55850001490114
10
111.61249998509886
20
110.55850001490114
42
0.41421356237308982
10
110.61249998509886
20
109.55850001490113
10
110.61249998509886
20
102.05839998509887
42
0.41421356237308982
10
111.61249998509886
20
101.05839998509886
10
156.83120001490113
20
101.05839998509886
42
0.41421356237307422
10
157.83120001490116
20
102.05839998509887
10
157.83120001490116
20
109.55850001490113
42
0.41421356237307422
0
SPLINE
5
107
100
AcDbEntity
8
0
100
AcDbSpline
70
0
71
3
72
8
73
4
74
0
42
0.000000001
43
0.0000000001
44
0.0000000001
40
0
40
0
40
0
40
0
40
1
40
1
40
1
40
1
10
342
20
110.00220000000002
30
0
10
342
20
111.32828200000003
30
0
10
341.47321600000004
20
112.60005200000002
30
0
10
340.53553399999998
20
113.53773400000001
30
0
0
SPLINE
5
108
100
AcDbEntity
8
0
100
AcDbSpline
70
0
71
3
72
8
73
4
74
0
42
0.000000001
43
0.0000000001
44
0.0000000001
40
0
40
0
40
0
40
0
40
1
40
1
40
1
40
1
10
3.4644660000000016
20
4.4666660000000036
30
0
10
4.4021480000000013
20
3.5289840000000083
30
0
10
5.6739180000000022
20
3.0021999999999949
30
0
10
7.0000000000000018
20
3.0021999999999949
30
0
0
ARC
5
109
100
AcDbEntity
8
0
100
AcDbCircle
10
72.266244246451635
20
16.937567352800507
30
0
40
0.99999999999998224
210
0
220
0
230
1
100
AcDbArc
50
125.999999999998
51
216.00000000000051
0
ARC
5
110
100
AcDbEntity
8
0
100
AcDbCircle
10
185.99999999999997
20
111.00220000000004
30
0
40
3.9999999999999858
210
0
220
-0
230
1
100
AcDbArc
50
90
51
180
0
ARC
5
111
100
AcDbEntity
8
0
100
AcDbCircle
10
158
20
111.00219999999996
30
0
40
4.0000000000000213
210
0
220
-0
230
1
100
AcDbArc
50
0
51
90
0
LINE
5
112
100
AcDbEntity
8
0
100
AcDbLine
10
166
20
89.25220000000003
30
0
11
178
21
89.25220000000003
31
0
0
ARC
5
113
100
AcDbEntity
8
0
100
AcDbCircle
10
178
20
93.252200000000016
30
0
40
3.9999999999999858
210
0
220
0
230
1
100
AcDbArc
50
-90
51
0
0
LINE
5
114
100
AcDbEntity
8
0
100
AcDbLine
10
182
20
111.00220000000004
30
0
11
182
21
93.252200000000016
31
0
0
LINE
5
115
100
AcDbEntity
8
0
100
AcDbLine
10
162.00000000000003
20
111.00220000000004
30
0
11
162.00000000000003
21
93.252200000000016
31
0
0
CIRCLE
5
116
100
AcDbEntity
8
0
100
AcDbCircle
10
336.9999922439456
20
7.9999968037009239
30
0
40
1.6000000000000003
210
0
220
0
230
1
0
ARC
5
117
100
AcDbEntity
8
0
100
AcDbCircle
10
106.19725575354838
20
18.722632647199493
30
0
40
1.0000000000000031
210
-0
220
0
230
1
100
AcDbArc
50
-54.00000000000005
51
36.000000000000817
0
SPLINE
5
118
100
AcDbEntity
8
0
100
AcDbSpline
70
0
71
3
72
8
73
4
74
0
42
0.000000001
43
0.0000000001
44
0.0000000001
40
0
40
0
40
0
40
0
40
1
40
1
40
1
40
1
10
337
20
3.0021999999999949
30
0
10
338.32608200000004
20
3.0021999999999949
30
0
10
339.59785199999999
20
3.5289840000000083
30
0
10
340.53553399999998
20
4.4666660000000036
30
0
0
SPLINE
5
119
100
AcDbEntity
8
0
100
AcDbSpline
70
0
71
3
72
8
73
4
74
0
42
0.000000001
43
0.0000000001
44
0.0000000001
40
0
40
0
40
0
40
0
40
1
40
1
40
1
40
1
10
7.0000000000000018
20
115.00220000000002
30
0
10
5.6739180000000022
20
115.00220000000002
30
0
10
4.4021480000000013
20
114.47541600000001
30
0
10
3.4644660000000016
20
113.53773400000001
30
0
0
CIRCLE
5
120
100
AcDbEntity
8
0
100
AcDbCircle
10
7.0000002533197403
20
110.00000365078449
30
0
40
1.6000000000000003
210
0
220
0
230
1
0
SPLINE
5
121
100
AcDbEntity
8
0
100
AcDbSpline
70
0
71
3
72
8
73
4
74
0
42
0.000000001
43
0.0000000001
44
0.0000000001
40
0
40
0
40
0
40
0
40
1
40
1
40
1
40
1
10
3.4644660000000016
20
113.53773400000001
30
0
10
2.5267840000000019
20
112.60005200000002
30
0
10
2.0000000000000018
20
111.32828200000003
30
0
10
2.0000000000000018
20
110.00220000000002
30
0
0
LINE
5
122
100
AcDbEntity
8
0
100
AcDbLine
10
71.6784589941592
20
17.74658434717546
30
0
11
94.735443333845183
21
34.498464037510992
31
0
0
LINE
5
123
100
AcDbEntity
8
0
100
AcDbLine
10
106.78504100584085
20
17.913615652824539
30
0
11
88.751136377545038
21
4.8112169943749405
31
0
0
LINE
5
124
100
AcDbEntity
8
0
100
AcDbLine
10
342
20
8.0021999999999949
30
0
11
342
21
110.00220000000002
31
0
0
LINE
5
125
100
AcDbEntity
8
0
100
AcDbLine
10
6.9999999999999929
20
115.00220000000002
30
0
11
158
21
115.00219999999999
31
0
0
ARC
5
126
100
AcDbEntity
8
0
100
AcDbCircle
10
248.67720339386153
20
33.690041612596588
30
0
40
1.0000000000001115
210
0
220
-0
230
1
100
AcDbArc
50
54.00000000000739
51
143.99999999999616
0
ARC
5
127
100
AcDbEntity
8
0
100
AcDbCircle
10
271.73418773354746
20
16.938161922261266
30
0
40
1.0000000000000173
210
-0
220
0
230
1
100
AcDbArc
50
-35.999999999998572
51
53.999999999997463
0
LINE
5
128
100
AcDbEntity
8
0
100
AcDbLine
10
96.132245580512588
20
34.277232295428526
30
0
11
107.00627274792332
21
19.310417899491981
31
0
0
SPLINE
5
129
100
AcDbEntity
8
0
100
AcDbSpline
70
0
71
3
72
8
73
4
74
0
42
0.000000001
43
0.0000000001
44
0.0000000001
40
0
40
0
40
0
40
0
40
1
40
1
40
1
40
1
10
340.53553399999998
20
4.4666660000000036
30
0
10
341.47321600000004
20
5.4043479999999988
30
0
10
342
20
6.6761179999999953
30
0
10
342
20
8.0021999999999949
30
0
0
LINE
5
130
100
AcDbEntity
8
0
100
AcDbLine
10
80.001219783008736
20
4.5899852522924682
30
0
11
71.457227252076706
21
16.349782100508037
31
0
0
ARC
5
131
100
AcDbEntity
8
0
100
AcDbCircle
10
237.80317622645086
20
18.723227216660252
30
0
40
1.0000000000000933
210
0
220
0
230
1
100
AcDbArc
50
144.00000000000514
51
233.9999999999979
0
LINE
5
132
100
AcDbEntity
8
0
100
AcDbLine
10
255.2501139571103
20
4.8112169943749548
30
0
11
237.21539097415831
21
17.914210222285263
31
0
0
LINE
5
133
100
AcDbEntity
8
0
100
AcDbLine
10
236.99415923207579
20
19.311012468952704
30
0
11
247.86818639948652
21
34.277826864889192
31
0
0
ARC
5
134
100
AcDbEntity
8
0
100
AcDbCircle
10
95.32322858613766
20
33.68944704313602
30
0
40
1.0000000000000095
210
0
220
-0
230
1
100
AcDbArc
50
36.000000000002117
51
125.99999999999939
0
CIRCLE
5
135
100
AcDbEntity
8
0
100
AcDbCircle
10
6.9999996200203896
20
7.9999968037009239
30
0
40
1.6000000000000003
210
0
220
0
230
1
0
LINE
5
136
100
AcDbEntity
8
0
100
AcDbLine
10
272.54320472792244
20
16.350376669968796
30
0
11
263.99878021699135
21
4.5899852522924771
31
0
0
LINE
5
137
100
AcDbEntity
8
0
100
AcDbLine
10
249.26498864615397
20
34.499058606971701
30
0
11
272.32197298583998
21
17.747178916636202
31
0
0
SPLINE
5
138
100
AcDbEntity
8
0
100
AcDbSpline
70
0
71
3
72
8
73
4
74
0
42
0.000000001
43
0.0000000001
44
0.0000000001
40
0
40
0
40
0
40
0
40
1
40
1
40
1
40
1
10
2.0000000000000018
20
8.0021999999999949
30
0
10
2.0000000000000018
20
6.6761179999999953
30
0
10
2.5267840000000019
20
5.4043479999999988
30
0
10
3.4644660000000016
20
4.4666660000000036
30
0
0
LINE
5
139
100
AcDbEntity
8
0
100
AcDbLine
10
2.0000000000000018
20
110.00220000000002
30
0
11
2.0000000000000018
21
8.0021999999999949
31
0
0
LINE
5
140
100
AcDbEntity
8
0
100
AcDbLine
10
79.192202788633793
20
3.0021999999999998
30
0
11
7.0000000000000018
21
3.0021999999999949
31
0
0
LINE
5
141
100
AcDbEntity
8
0
100
AcDbLine
10
89.338921629837515
20
3.0021999999999895
30
0
11
254.66232870481775
21
3.0021999999999789
31
0
0
LINE
5
142
100
AcDbEntity
8
0
100
AcDbLine
10
264.80779721136633
20
3.0021999999999913
30
0
11
337
21
3.0021999999999949
31
0
0
ARC
5
143
100
AcDbEntity
8
0
100
AcDbCircle
10
79.192202788633793
20
4.0021999999999966
30
0
40
0.999999999999997
210
-0
220
0
230
1
100
AcDbArc
50
-90
51
36.000000000000078
0
ARC
5
144
100
AcDbEntity
8
0
100
AcDbCircle
10
89.338921629837515
20
4.0021999999999895
30
0
40
1.0000000000000007
210
0
220
0
230
1
100
AcDbArc
50
126.00000000000004
51
270
0
ARC
5
145
100
AcDbEntity
8
0
100
AcDbCircle
10
254.66232870481781
20
4.0021999999999904
30
0
40
1.0000000000000115
210
0
220
0
230
1
100
AcDbArc
50
-90.000000000003254
51
53.999999999999737
0
ARC
5
146
100
AcDbEntity
8
0
100
AcDbCircle
10
264.80779721136633
20
4.002200000000026
30
0
40
1.0000000000000346
210
0
220
0
230
1
100
AcDbArc
50
144.0000000000023
51
270
0
ENDSEC
0
SECTION
2
OBJECTS
0
DICTIONARY
5
C
100
AcDbDictionary
3
ACAD_GROUP
350
D
3
ACAD_MLINESTYLE
350
17
0
DICTIONARY
5
D
100
AcDbDictionary
0
DICTIONARY
5
1A
330
C
100
AcDbDictionary
0
DICTIONARY
5
17
100
AcDbDictionary
0
ENDSEC
0
EOF
