0
SECTION
2
HEADER
9
$INSUNITS
70
4
9
$ACADVER
1
AC1014
9
$HANDSEED
5
FFFF
0
ENDSEC
0
SECTION
2
TABLES
0
TABLE
2
VPORT
5
8
100
AcDbSymbolTable
0
ENDTAB
0
TABLE
2
LTYPE
5
5
100
AcDbSymbolTable
0
LTYPE
5
14
100
AcDbSymbolTableRecord
100
AcDbLinetypeTableRecord
2
BYBLOCK
70
0
0
LTYPE
5
15
100
AcDbSymbolTableRecord
100
AcDbLinetypeTableRecord
2
BYLAYER
70
0
0
ENDTAB
0
TABLE
2
LAYER
5
2
100
AcDbSymbolTable
70
2
0
LAYER
5
50
100
AcDbSymbolTableRecord
100
AcDbLayerTableRecord
2
0
70
0
6
CONTINUOUS
0
ENDTAB
0
TABLE
2
STYLE
5
3
100
AcDbSymbolTable
70
1
0
STYLE
5
11
100
AcDbSymbolTableRecord
100
AcDbTextStyleTableRecord
2
STANDARD
70
0
0
ENDTAB
0
TABLE
2
VIEW
5
6
100
AcDbSymbolTable
70
0
0
ENDTAB
0
TABLE
2
UCS
5
7
100
AcDbSymbolTable
70
0
0
ENDTAB
0
TABLE
2
APPID
5
9
100
AcDbSymbolTable
70
2
0
APPID
5
12
100
AcDbSymbolTableRecord
100
AcDbRegAppTableRecord
2
ACAD
70
0
0
ENDTAB
0
TABLE
2
DIMSTYLE
5
A
100
AcDbSymbolTable
70
1
0
ENDTAB
0
TABLE
2
BLOCK_RECORD
5
1
100
AcDbSymbolTable
70
1
0
BLOCK_RECORD
5
1F
100
AcDbSymbolTableRecord
100
AcDbBlockTableRecord
2
*MODEL_SPACE
0
BLOCK_RECORD
5
1B
100
AcDbSymbolTableRecord
100
AcDbBlockTableRecord
2
*PAPER_SPACE
0
ENDTAB
0
ENDSEC
0
SECTION
2
BLOCKS
0
BLOCK
5
20
100
AcDbEntity
100
AcDbBlockBegin
2
*MODEL_SPACE
0
ENDBLK
5
21
100
AcDbEntity
100
AcDbBlockEnd
0
BLOCK
5
1C
100
AcDbEntity
100
AcDbBlockBegin
2
*PAPER_SPACE
0
ENDBLK
5
1D
100
AcDbEntity
100
AcDbBlockEnd
0
ENDSEC
0
SECTION
2
ENTITIES
0
SPLINE
5
100
100
AcDbEntity
8
0
100
AcDbSpline
70
0
71
3
72
8
73
4
74
0
42
0.000000001
43
0.0000000001
44
0.0000000001
40
0
40
0
40
0
40
0
40
1
40
1
40
1
40
1
10
1.4644659999999954
20
1.4666660000000142
30
0
10
2.4021479999999951
20
0.52898400000001899
30
0
10
3.6739180000000005
20
0.0021999999999877673
30
0
10
5
20
0.0021999999999877673
30
0
0
SPLINE
5
101
100
AcDbEntity
8
0
100
AcDbSpline
70
0
71
3
72
8
73
4
74
0
42
0.000000001
43
0.0000000001
44
0.0000000001
40
0
40
0
40
0
40
0
40
1
40
1
40
1
40
1
10
0
20
5.0021999999999878
30
0
10
0
20
3.676118000000006
30
0
10
0.52678400000000014
20
2.4043480000000095
30
0
10
1.4644659999999954
20
1.4666660000000142
30
0
0
SPLINE
5
102
100
AcDbEntity
8
0
100
AcDbSpline
70
0
71
3
72
8
73
4
74
0
42
0.000000001
43
0.0000000001
44
0.0000000001
40
0
40
0
40
0
40
0
40
1
40
1
40
1
40
1
10
318.53553399999998
20
1.4666660000000142
30
0
10
319.47321600000004
20
2.4043480000000095
30
0
10
320
20
3.676118000000006
30
0
10
320
20
5.0021999999999878
30
0
0
LINE
5
103
100
AcDbEntity
8
0
100
AcDbLine
10
5
20
0.0021999999999877673
30
0
11
315.00000000000006
21
0.0021999999999877673
31
0
0
SPLINE
5
104
100
AcDbEntity
8
0
100
AcDbSpline
70
0
71
3
72
8
73
4
74
0
42
0.000000001
43
0.0000000001
44
0.0000000001
40
0
40
0
40
0
40
0
40
1
40
1
40
1
40
1
10
1.4644659999999954
20
120.03773400000001
30
0
10
0.52678400000000014
20
119.10005200000002
30
0
10
0
20
117.82828200000003
30
0
10
0
20
116.50220000000003
30
0
0
SPLINE
5
105
100
AcDbEntity
8
0
100
AcDbSpline
70
0
71
3
72
8
73
4
74
0
42
0.000000001
43
0.0000000001
44
0.0000000001
40
0
40
0
40
0
40
0
40
1
40
1
40
1
40
1
10
5
20
121.50220000000003
30
0
10
3.6739180000000005
20
121.50220000000003
30
0
10
2.4021479999999951
20
120.97541600000001
30
0
10
1.4644659999999954
20
120.03773400000001
30
0
0
SPLINE
5
106
100
AcDbEntity
8
0
100
AcDbSpline
70
0
71
3
72
8
73
4
74
0
42
0.000000001
43
0.0000000001
44
0.0000000001
40
0
40
0
40
0
40
0
40
1
40
1
40
1
40
1
10
315.00000000000006
20
0.0021999999999877673
30
0
10
316.32608200000004
20
0.0021999999999877673
30
0
10
317.59785199999999
20
0.52898400000001899
30
0
10
318.53553399999998
20
1.4666660000000142
30
0
0
SPLINE
5
107
100
AcDbEntity
8
0
100
AcDbSpline
70
0
71
3
72
8
73
4
74
0
42
0.000000001
43
0.0000000001
44
0.0000000001
40
0
40
0
40
0
40
0
40
1
40
1
40
1
40
1
10
320
20
116.50220000000003
30
0
10
320
20
117.82828200000003
30
0
10
319.47321600000004
20
119.10005200000002
30
0
10
318.53553399999998
20
120.03773400000001
30
0
0
SPLINE
5
108
100
AcDbEntity
8
0
100
AcDbSpline
70
0
71
3
72
8
73
4
74
0
42
0.000000001
43
0.0000000001
44
0.0000000001
40
0
40
0
40
0
40
0
40
1
40
1
40
1
40
1
10
318.53553399999998
20
120.03773400000001
30
0
10
317.59785199999999
20
120.97541600000001
30
0
10
316.32608200000004
20
121.50220000000003
30
0
10
315.00000000000006
20
121.50220000000003
30
0
0
LWPOLYLINE
5
109
100
AcDbEntity
8
0
100
AcDbPolyline
90
45
70
1
43
0.0
10
236.8757164334302
20
98.896590149644851
10
236.74627221277618
20
99.187326629403174
42
-0.41421356237311358
10
237.25308102734294
20
100.50760873012158
10
255.0672176895992
20
108.43897337616447
42
-0.41421356237309975
10
256.38749979031758
20
107.93216456159767
10
256.51694471037609
20
107.64142651095111
42
0.41421356237309503
10
257.83722681109452
20
107.13461769638428
10
273.41316768959922
20
114.06947337616444
42
-0.41421356237309975
10
274.73344979031759
20
113.56266456159764
10
277.37173751665631
20
107.63697330810075
42
0.41421356237311141
10
278.69201961737468
20
107.13016449353393
10
294.26796768959923
20
114.06502337616446
42
-0.41421356237309975
10
295.5882497903176
20
113.55821456159767
10
302.70614609854317
20
97.571157700486069
10
303.33659138776892
20
96.155107976245432
10
310.45447778722388
20
80.168073370596858
42
-0.41421356237306362
10
309.94766897265708
20
78.847791269878442
10
292.13353231040082
20
70.91642662383552
42
-0.41421356237311219
10
290.81325020968234
20
71.423235438402358
10
288.17494390472302
20
77.348968420164397
42
0.41421356237308105
10
286.85466180400465
20
77.855777234731192
10
271.27873231040087
20
70.920926623835555
42
-0.4142135623730937
10
269.95845020968244
20
71.427735438402365
10
269.82900528962392
20
71.718473489048847
42
0.41421356237311485
10
268.50872318890555
20
72.225282303615657
10
255.17095065287148
20
66.286923372452947
42
0.41421356237317059
10
254.66414183830472
20
64.966641271734616
10
255.01728566934415
20
64.173470820035703
10
262.13517778722382
20
48.186423370596899
42
-0.41421356237312651
10
261.62836897265709
20
46.866141269878455
10
243.81423231040085
20
38.934776623835582
42
-0.4142135623730776
10
242.49395020968245
20
39.44158543840237
10
235.37605885585197
20
55.428631171760536
10
234.74561433065594
20
56.844629179964315
10
232.07600371750797
20
62.840672789097866
42
0.4142135623730589
10
230.7557216167896
20
63.347481603664576
10
215.17978231040087
20
56.412626623835578
42
-0.4142135623730776
10
213.85950020968244
20
56.919435438402374
10
206.33487221277619
20
73.820026629403131
42
-0.41421356237308821
10
206.84168102734304
20
75.140308730121546
10
222.41766073202939
20
82.075181696431514
42
0.41421356237306234
10
222.92446954659619
20
83.395463797149887
10
220.28617221277619
20
89.321176629403155
42
-0.41421356237306489
10
220.79298102734299
20
90.64145873012157
10
236.36890761886337
20
97.576308048926478
42
0.41421356237307183
0
LWPOLYLINE
5
110
100
AcDbEntity
8
0
100
AcDbPolyline
90
8
70
1
43
0.0
10
149.99999671610846
20
118.99999675883248
10
150.0000004748299
20
95.252199841723382
42
0.41421351601494494
10
151.0000004748299
20
94.25220000000003
10
168.99999965878035
20
94.252200000000016
42
0.41421352905946113
10
169.9999996587803
20
95.252199886260115
10
170.0000023598528
20
119.00000098701511
42
0.41421366376236496
10
169.0000021274281
20
120.00000110075497
10
150.99999648368373
20
119.9999969171091
42
0.41421354065563482
0
LINE
5
111
100
AcDbEntity
8
0
100
AcDbLine
10
4.9999999999999911
20
121.50220000000003
30
0
11
315.00000000000006
21
121.50220000000003
31
0
0
LINE
5
112
100
AcDbEntity
8
0
100
AcDbLine
10
320
20
116.50220000000003
30
0
11
320
21
5.0021999999999878
31
0
0
LINE
5
113
100
AcDbEntity
8
0
100
AcDbLine
10
0
20
116.50220000000003
30
0
11
0
21
5.0021999999999878
31
0
0
CIRCLE
5
114
100
AcDbEntity
8
0
100
AcDbCircle
10
5
20
115.00220000000002
30
0
40
1.6000000000000003
210
0
220
0
230
1
0
CIRCLE
5
115
100
AcDbEntity
8
0
100
AcDbCircle
10
5
20
5.0021999999999878
30
0
40
1.6000000000000003
210
0
220
0
230
1
0
CIRCLE
5
116
100
AcDbEntity
8
0
100
AcDbCircle
10
160.00000000000003
20
5.0021999999999878
30
0
40
1.6000000000000014
210
0
220
0
230
1
0
CIRCLE
5
117
100
AcDbEntity
8
0
100
AcDbCircle
10
315.00000000000006
20
5.0021999999999878
30
0
40
1.6000000000000014
210
0
220
0
230
1
0
CIRCLE
5
118
100
AcDbEntity
8
0
100
AcDbCircle
10
315.00000000000006
20
115.00220000000002
30
0
40
1.6000000000000014
210
0
220
0
230
1
0
CIRCLE
5
119
100
AcDbEntity
8
0
100
AcDbCircle
10
175.00000000000003
20
115.00220000000002
30
0
40
1.6000000000000014
210
0
220
0
230
1
0
LWPOLYLINE
5
120
100
AcDbEntity
8
0
100
AcDbPolyline
90
8
70
1
43
0.0
10
226.69352672022566
20
3.1522972927827491
10
207.62330417477145
20
24.331925112342102
42
-0.41421356237310974
10
207.69731839388996
20
25.744200544178351
10
221.44549784793813
20
38.123116926335804
42
-0.41421356237308943
10
222.85777327977445
20
38.049102707217266
10
241.92799582522866
20
16.869474887657937
42
-0.4142135623731098
10
241.85398160611015
20
15.457199455821687
10
228.10580215206193
20
3.0782830736642075
42
-0.41421356237309254
0
LWPOLYLINE
5
121
100
AcDbEntity
8
0
100
AcDbPolyline
90
8
70
1
43
0.0
10
112.37674582522865
20
24.331925112342091
10
93.306523279774353
20
3.1522972927827424
42
-0.41421356237309459
10
91.894247847938118
20
3.0782830736641973
10
78.146068393889919
20
15.457199455821666
42
-0.41421356237310236
10
78.072054174771381
20
16.869474887657915
10
97.142276720225667
20
38.049102707217273
42
-0.41421356237309687
10
98.554552152061916
20
38.123116926335818
10
112.30273160611011
20
25.744200544178337
42
-0.41421356237308671
0
LWPOLYLINE
5
122
100
AcDbEntity
8
0
100
AcDbPolyline
90
24
70
1
43
0.0
10
79.582927787223895
20
90.942576629403106
10
79.427864445978159
20
90.594298662680757
42
0.41421356237310669
10
79.93467326054494
20
89.27401656196237
10
95.510618972657113
20
82.339158730121511
42
-0.41421356237308821
10
96.017427787223909
20
81.018876629403124
10
88.492799790317605
20
64.118285438402353
42
-0.41421356237310086
10
87.172517689599204
20
63.611476623835543
10
69.358381027342929
20
71.542841269878494
42
-0.41421356237310669
10
68.851572212776134
20
72.863123370596909
10
69.006635554021855
20
73.211401337319273
42
0.41421356237311485
10
68.49982673945506
20
74.531683438037675
10
55.162054203421064
20
80.470042369200399
42
0.4142135623730927
10
53.84177210270267
20
79.96323355463359
10
53.686699790317583
20
79.614935438402313
42
-0.41421356237307871
10
52.366417689599167
20
79.108126623835531
10
34.552281027342914
20
87.039491269878482
42
-0.41421356237309215
10
34.045472212776119
20
88.359773370596869
10
41.570100209682437
20
105.26036456159765
42
-0.4142135623730927
10
42.890382310400838
20
105.76717337616446
10
58.466345796578942
20
98.832307630799619
42
0.41421356237307527
10
59.78662789729735
20
99.339116445366415
10
59.941700209682423
20
99.687414561597677
42
-0.4142135623730776
10
61.261982310400846
20
100.19422337616447
10
79.076118972657085
20
92.262858730121522
42
-0.41421356237309609
0
LWPOLYLINE
5
123
100
AcDbEntity
8
0
100
AcDbPolyline
90
48
70
1
43
0.0
10
111.76870000000001
20
115.55849999999998
10
120.7687
20
115.55849999999998
10
121.01870000000002
20
115.55849999999998
10
123.42500000000001
20
115.55849999999998
10
123.67500000000004
20
115.55849999999998
10
132.67500000000001
20
115.55849999999998
10
132.92500000000004
20
115.55849999999998
10
135.3312
20
115.55849999999998
10
135.58120000000002
20
115.55849999999998
10
144.58120000000002
20
115.55849999999998
10
144.8312
20
115.55849999999998
42
-0.41421356237310542
10
145.8312
20
114.55849999999998
10
145.8312
20
114.3085
10
145.8312
20
107.30840000000001
10
145.8312
20
107.05840000000002
42
-0.41421356237310542
10
144.8312
20
106.05840000000002
10
144.58120000000002
20
106.05840000000002
10
135.58120000000002
20
106.05840000000002
10
135.3312
20
106.05840000000002
10
132.92500000000004
20
106.05840000000002
10
132.67500000000001
20
106.05840000000002
10
123.67500000000004
20
106.05840000000002
10
123.42500000000001
20
106.05840000000002
10
121.01870000000002
20
106.05840000000002
10
120.7687
20
106.05840000000002
10
111.76870000000001
20
106.05840000000002
10
111.5187
20
106.05840000000002
10
109.11250000000003
20
106.05840000000002
10
108.86250000000001
20
106.05840000000002
10
99.862500000000011
20
106.05840000000002
10
99.61250000000004
20
106.05840000000002
10
97.206500000000034
20
106.05840000000002
10
96.956500000000005
20
106.05840000000002
10
87.95650000000002
20
106.05840000000002
10
87.706500000000005
20
106.05840000000002
42
-0.41421356237310542
10
86.706500000000005
20
107.05840000000002
10
86.706500000000005
20
107.30840000000001
10
86.706500000000005
20
114.3085
10
86.706500000000005
20
114.55849999999998
42
-0.41421356237310542
10
87.706500000000005
20
115.55849999999998
10
87.95650000000002
20
115.55849999999998
10
96.956500000000005
20
115.55849999999998
10
97.206500000000034
20
115.55849999999998
10
99.61250000000004
20
115.55849999999998
10
99.862500000000011
20
115.55849999999998
10
108.86250000000001
20
115.55849999999998
10
109.11250000000003
20
115.55849999999998
10
111.5187
20
115.55849999999998
0
ENDSEC
0
SECTION
2
OBJECTS
0
DICTIONARY
5
C
100
AcDbDictionary
3
ACAD_GROUP
350
D
3
ACAD_MLINESTYLE
350
17
0
DICTIONARY
5
D
100
AcDbDictionary
0
DICTIONARY
5
1A
330
C
100
AcDbDictionary
0
DICTIONARY
5
17
100
AcDbDictionary
0
ENDSEC
0
EOF
