0
SECTION
2
HEADER
9
$INSUNITS
70
4
9
$ACADVER
1
AC1014
9
$HANDSEED
5
FFFF
0
ENDSEC
0
SECTION
2
TABLES
0
TABLE
2
VPORT
5
8
100
AcDbSymbolTable
0
ENDTAB
0
TABLE
2
LTYPE
5
5
100
AcDbSymbolTable
0
LTYPE
5
14
100
AcDbSymbolTableRecord
100
AcDbLinetypeTableRecord
2
BYBLOCK
70
0
0
LTYPE
5
15
100
AcDbSymbolTableRecord
100
AcDbLinetypeTableRecord
2
BYLAYER
70
0
0
ENDTAB
0
TABLE
2
LAYER
5
2
100
AcDbSymbolTable
70
2
0
LAYER
5
50
100
AcDbSymbolTableRecord
100
AcDbLayerTableRecord
2
0
70
0
6
CONTINUOUS
0
ENDTAB
0
TABLE
2
STYLE
5
3
100
AcDbSymbolTable
70
1
0
STYLE
5
11
100
AcDbSymbolTableRecord
100
AcDbTextStyleTableRecord
2
STANDARD
70
0
0
ENDTAB
0
TABLE
2
VIEW
5
6
100
AcDbSymbolTable
70
0
0
ENDTAB
0
TABLE
2
UCS
5
7
100
AcDbSymbolTable
70
0
0
ENDTAB
0
TABLE
2
APPID
5
9
100
AcDbSymbolTable
70
2
0
APPID
5
12
100
AcDbSymbolTableRecord
100
AcDbRegAppTableRecord
2
ACAD
70
0
0
ENDTAB
0
TABLE
2
DIMSTYLE
5
A
100
AcDbSymbolTable
70
1
0
ENDTAB
0
TABLE
2
BLOCK_RECORD
5
1
100
AcDbSymbolTable
70
1
0
BLOCK_RECORD
5
1F
100
AcDbSymbolTableRecord
100
AcDbBlockTableRecord
2
*MODEL_SPACE
0
BLOCK_RECORD
5
1B
100
AcDbSymbolTableRecord
100
AcDbBlockTableRecord
2
*PAPER_SPACE
0
ENDTAB
0
ENDSEC
0
SECTION
2
BLOCKS
0
BLOCK
5
20
100
AcDbEntity
100
AcDbBlockBegin
2
*MODEL_SPACE
0
ENDBLK
5
21
100
AcDbEntity
100
AcDbBlockEnd
0
BLOCK
5
1C
100
AcDbEntity
100
AcDbBlockBegin
2
*PAPER_SPACE
0
ENDBLK
5
1D
100
AcDbEntity
100
AcDbBlockEnd
0
ENDSEC
0
SECTION
2
ENTITIES
0
SPLINE
5
100
100
AcDbEntity
8
0
100
AcDbSpline
70
0
71
3
72
8
73
4
74
0
42
0.000000001
43
0.0000000001
44
0.0000000001
40
0
40
0
40
0
40
0
40
1
40
1
40
1
40
1
10
315.00000000000006
20
0.0021999999999877673
30
0
10
316.32608200000004
20
0.0021999999999877673
30
0
10
317.59785199999999
20
0.52898400000001899
30
0
10
318.53553399999998
20
1.4666660000000142
30
0
0
SPLINE
5
101
100
AcDbEntity
8
0
100
AcDbSpline
70
0
71
3
72
8
73
4
74
0
42
0.000000001
43
0.0000000001
44
0.0000000001
40
0
40
0
40
0
40
0
40
1
40
1
40
1
40
1
10
1.4644659999999954
20
1.4666660000000142
30
0
10
2.4021479999999951
20
0.52898400000001899
30
0
10
3.6739180000000005
20
0.0021999999999877673
30
0
10
5
20
0.0021999999999877673
30
0
0
SPLINE
5
102
100
AcDbEntity
8
0
100
AcDbSpline
70
0
71
3
72
8
73
4
74
0
42
0.000000001
43
0.0000000001
44
0.0000000001
40
0
40
0
40
0
40
0
40
1
40
1
40
1
40
1
10
0
20
5.0021999999999878
30
0
10
0
20
3.676118000000006
30
0
10
0.52678400000000014
20
2.4043480000000095
30
0
10
1.4644659999999954
20
1.4666660000000142
30
0
0
SPLINE
5
103
100
AcDbEntity
8
0
100
AcDbSpline
70
0
71
3
72
8
73
4
74
0
42
0.000000001
43
0.0000000001
44
0.0000000001
40
0
40
0
40
0
40
0
40
1
40
1
40
1
40
1
10
318.53553399999998
20
120.03773400000001
30
0
10
317.59785199999999
20
120.97541600000001
30
0
10
316.32608200000004
20
121.50220000000003
30
0
10
315.00000000000006
20
121.50220000000003
30
0
0
SPLINE
5
104
100
AcDbEntity
8
0
100
AcDbSpline
70
0
71
3
72
8
73
4
74
0
42
0.000000001
43
0.0000000001
44
0.0000000001
40
0
40
0
40
0
40
0
40
1
40
1
40
1
40
1
10
5
20
121.50220000000003
30
0
10
3.6739180000000005
20
121.50220000000003
30
0
10
2.4021479999999951
20
120.97541600000001
30
0
10
1.4644659999999954
20
120.03773400000001
30
0
0
SPLINE
5
105
100
AcDbEntity
8
0
100
AcDbSpline
70
0
71
3
72
8
73
4
74
0
42
0.000000001
43
0.0000000001
44
0.0000000001
40
0
40
0
40
0
40
0
40
1
40
1
40
1
40
1
10
318.53553399999998
20
1.4666660000000142
30
0
10
319.47321600000004
20
2.4043480000000095
30
0
10
320
20
3.676118000000006
30
0
10
320
20
5.0021999999999878
30
0
0
LINE
5
106
100
AcDbEntity
8
0
100
AcDbLine
10
5
20
0.0021999999999877673
30
0
11
315.00000000000006
21
0.0021999999999877673
31
0
0
SPLINE
5
107
100
AcDbEntity
8
0
100
AcDbSpline
70
0
71
3
72
8
73
4
74
0
42
0.000000001
43
0.0000000001
44
0.0000000001
40
0
40
0
40
0
40
0
40
1
40
1
40
1
40
1
10
1.4644659999999954
20
120.03773400000001
30
0
10
0.52678400000000014
20
119.10005200000002
30
0
10
0
20
117.82828200000003
30
0
10
0
20
116.50220000000003
30
0
0
SPLINE
5
108
100
AcDbEntity
8
0
100
AcDbSpline
70
0
71
3
72
8
73
4
74
0
42
0.000000001
43
0.0000000001
44
0.0000000001
40
0
40
0
40
0
40
0
40
1
40
1
40
1
40
1
10
320
20
116.50220000000003
30
0
10
320
20
117.82828200000003
30
0
10
319.47321600000004
20
119.10005200000002
30
0
10
318.53553399999998
20
120.03773400000001
30
0
0
CIRCLE
5
109
100
AcDbEntity
8
0
100
AcDbCircle
10
5
20
115.00220000000002
30
0
40
1.6000000000000003
210
0
220
0
230
1
0
CIRCLE
5
110
100
AcDbEntity
8
0
100
AcDbCircle
10
5
20
5.0021999999999878
30
0
40
1.6000000000000003
210
0
220
0
230
1
0
CIRCLE
5
111
100
AcDbEntity
8
0
100
AcDbCircle
10
160.00000000000003
20
5.0021999999999878
30
0
40
1.6000000000000014
210
0
220
0
230
1
0
CIRCLE
5
112
100
AcDbEntity
8
0
100
AcDbCircle
10
315.00000000000006
20
5.0021999999999878
30
0
40
1.6000000000000014
210
0
220
0
230
1
0
CIRCLE
5
113
100
AcDbEntity
8
0
100
AcDbCircle
10
315.00000000000006
20
115.00220000000002
30
0
40
1.6000000000000014
210
0
220
0
230
1
0
CIRCLE
5
114
100
AcDbEntity
8
0
100
AcDbCircle
10
175.00000000000003
20
115.00220000000002
30
0
40
1.6000000000000014
210
0
220
0
230
1
0
LINE
5
115
100
AcDbEntity
8
0
100
AcDbLine
10
320
20
116.50220000000003
30
0
11
320
21
5.0021999999999878
31
0
0
LINE
5
116
100
AcDbEntity
8
0
100
AcDbLine
10
0
20
5.0021999999999878
30
0
11
0
21
116.50220000000003
31
0
0
LINE
5
117
100
AcDbEntity
8
0
100
AcDbLine
10
4.9999999999999911
20
121.50220000000003
30
0
11
315.00000000000006
21
121.50220000000003
31
0
0
ENDSEC
0
SECTION
2
OBJECTS
0
DICTIONARY
5
C
100
AcDbDictionary
3
ACAD_GROUP
350
D
3
ACAD_MLINESTYLE
350
17
0
DICTIONARY
5
D
100
AcDbDictionary
0
DICTIONARY
5
1A
330
C
100
AcDbDictionary
0
DICTIONARY
5
17
100
AcDbDictionary
0
ENDSEC
0
EOF
