0
SECTION
2
HEADER
9
$INSUNITS
70
4
9
$ACADVER
1
AC1014
9
$HANDSEED
5
FFFF
0
ENDSEC
0
SECTION
2
TABLES
0
TABLE
2
VPORT
5
8
100
AcDbSymbolTable
0
ENDTAB
0
TABLE
2
LTYPE
5
5
100
AcDbSymbolTable
0
LTYPE
5
14
100
AcDbSymbolTableRecord
100
AcDbLinetypeTableRecord
2
BYBLOCK
70
0
0
LTYPE
5
15
100
AcDbSymbolTableRecord
100
AcDbLinetypeTableRecord
2
BYLAYER
70
0
0
ENDTAB
0
TABLE
2
LAYER
5
2
100
AcDbSymbolTable
70
2
0
LAYER
5
50
100
AcDbSymbolTableRecord
100
AcDbLayerTableRecord
2
0
70
0
6
CONTINUOUS
0
ENDTAB
0
TABLE
2
STYLE
5
3
100
AcDbSymbolTable
70
1
0
STYLE
5
11
100
AcDbSymbolTableRecord
100
AcDbTextStyleTableRecord
2
STANDARD
70
0
0
ENDTAB
0
TABLE
2
VIEW
5
6
100
AcDbSymbolTable
70
0
0
ENDTAB
0
TABLE
2
UCS
5
7
100
AcDbSymbolTable
70
0
0
ENDTAB
0
TABLE
2
APPID
5
9
100
AcDbSymbolTable
70
2
0
APPID
5
12
100
AcDbSymbolTableRecord
100
AcDbRegAppTableRecord
2
ACAD
70
0
0
ENDTAB
0
TABLE
2
DIMSTYLE
5
A
100
AcDbSymbolTable
70
1
0
ENDTAB
0
TABLE
2
BLOCK_RECORD
5
1
100
AcDbSymbolTable
70
1
0
BLOCK_RECORD
5
1F
100
AcDbSymbolTableRecord
100
AcDbBlockTableRecord
2
*MODEL_SPACE
0
BLOCK_RECORD
5
1B
100
AcDbSymbolTableRecord
100
AcDbBlockTableRecord
2
*PAPER_SPACE
0
ENDTAB
0
ENDSEC
0
SECTION
2
BLOCKS
0
BLOCK
5
20
100
AcDbEntity
100
AcDbBlockBegin
2
*MODEL_SPACE
0
ENDBLK
5
21
100
AcDbEntity
100
AcDbBlockEnd
0
BLOCK
5
1C
100
AcDbEntity
100
AcDbBlockBegin
2
*PAPER_SPACE
0
ENDBLK
5
1D
100
AcDbEntity
100
AcDbBlockEnd
0
ENDSEC
0
SECTION
2
ENTITIES
0
LWPOLYLINE
5
100
100
AcDbEntity
8
0
100
AcDbPolyline
90
8
70
1
43
0.0
10
98.628566371180455
20
36.710841494499562
10
110.89045617427385
20
25.670186325059802
42
-0.41421356237308771
10
110.96447039339239
20
24.257910893223553
10
93.232509060655829
20
4.5645727246189951
42
-0.41421356237309354
10
91.820233628819608
20
4.4905585055004726
10
79.558343825726169
20
15.53121367494021
42
-0.41421356237310425
10
79.484329606607645
20
16.943489106776461
10
97.216290939344191
20
36.63682727538103
42
-0.41421356237309698
0
LINE
5
101
100
AcDbEntity
8
0
100
AcDbLine
10
165.5000024586916
20
121.50220000000003
30
0
11
315.00000000000006
21
121.50220000000003
31
0
0
LINE
5
102
100
AcDbEntity
8
0
100
AcDbLine
10
5
20
0.0021999999999877673
30
0
11
315.00000000000006
21
0.0021999999999877673
31
0
0
LWPOLYLINE
5
103
100
AcDbEntity
8
0
100
AcDbPolyline
90
46
70
1
43
0.0
10
235.65915940627391
20
57.251366681080441
10
236.28960431349455
20
55.835367814836339
10
243.00075902424922
20
40.761867539120765
42
0.4142135623730776
10
244.32104112496762
20
40.255058724553976
10
260.30808687193871
20
47.3729500844453
42
0.41421356237310325
10
260.81489568650551
20
48.693232185163708
10
254.10374059372617
20
63.766733318919584
10
253.47329568650559
20
65.182732185163687
10
253.3438597375864
20
65.473450086301384
42
-0.41421356237305096
10
253.85066855215319
20
66.793732187019799
10
269.01553200347229
20
73.545564404334044
42
-0.41421356237310325
10
270.33581410419072
20
73.038755589767206
10
270.46525902424924
20
72.748017539120738
42
0.41421356237311013
10
271.78554112496761
20
72.241208724553928
10
287.36147061857145
20
79.176059335449594
42
-0.4142135623730776
10
288.68175271928982
20
78.669250520882755
10
291.32005902424919
20
72.743517539120745
42
0.4142135623730937
10
292.64034112496756
20
72.236708724553949
10
308.62738687193871
20
79.354600084445238
42
0.41421356237306706
10
309.13419568650551
20
80.674882185163668
10
302.42304345251733
20
95.748376897970573
10
301.79259816327635
20
97.164426622245401
10
295.08144097575087
20
112.23793246087925
42
0.41421356237310453
10
293.76115887503249
20
112.74474127544607
10
278.18521080280794
20
105.80988239281552
42
-0.41421356237311141
10
276.86492870208957
20
106.31669120738235
10
274.2266409757508
20
112.24238246087923
42
0.41421356237309975
10
272.90635887503242
20
112.74919127544604
10
257.33041799652779
20
105.81433559566594
42
-0.41421356237307183
10
256.01013589580936
20
106.32114441023276
10
255.88069097575078
20
106.61188246087926
42
0.4142135623731209
10
254.56040887503246
20
107.11869127544608
10
238.57336312806137
20
100.00079991555472
42
0.41421356237307183
10
238.06655431349455
20
98.68051781483635
10
238.1959985341486
20
98.389781335077998
42
-0.41421356237309026
10
237.68918971958175
20
97.06949923435964
10
222.11326312806136
20
90.134649915554746
42
0.41421356237306489
10
221.60645431349454
20
88.814367814836345
10
224.24475164731456
20
82.888654982583063
42
-0.41421356237306234
10
223.73794283274776
20
81.56837288186469
10
208.16196312806139
20
74.633499915554722
42
0.41421356237307527
10
207.65515431349456
20
73.313217814836335
10
214.36630902424923
20
58.239717539120761
42
0.4142135623730776
10
215.68659112496763
20
57.732908724553972
10
231.26253043135637
20
64.667763704382892
42
-0.4142135623730589
10
232.58281253207471
20
64.160954889816139
0
LINE
5
104
100
AcDbEntity
8
0
100
AcDbLine
10
320
20
116.50220000000003
30
0
11
320
21
5.0021999999999878
31
0
0
LWPOLYLINE
5
105
100
AcDbEntity
8
0
100
AcDbPolyline
90
24
70
1
43
0.0
10
43.397191124967634
20
104.44689127544605
10
58.973154611145731
20
97.512025530081203
42
0.41421356237309975
10
60.293436711864139
20
98.018834344647999
10
60.448509024249219
20
98.367132460879247
42
-0.41421356237307999
10
61.768791124967635
20
98.873941275446072
10
77.755836871938683
20
91.756049915554712
42
-0.41421356237310564
10
78.262645686505493
20
90.435767814836339
10
78.107582345259743
20
90.087489848113933
42
0.41421356237310669
10
78.614391159826567
20
88.767207747395545
10
94.190336871938669
20
81.83234991555473
42
-0.41421356237309503
10
94.697145686505479
20
80.512067814836314
10
87.985990975750781
20
65.438567539120754
42
-0.41421356237310086
10
86.665708875032394
20
64.931758724553944
10
70.678663128061316
20
72.049650084445304
42
-0.41421356237310325
10
70.171854313494521
20
73.369932185163705
10
70.326917654740242
20
73.718210151886083
42
0.41421356237311485
10
69.820108840173447
20
75.03849225260447
10
54.655245388854269
20
81.790324469918815
42
0.41421356237311829
10
53.334963288135881
20
81.283515655352005
10
53.179890975750801
20
80.935217539120728
42
-0.41421356237311141
10
51.859608875032407
20
80.428408724553933
10
35.872563128061337
20
87.546300084445278
42
-0.41421356237310308
10
35.365754313494534
20
88.866582185163665
10
42.076909024249225
20
103.94008246087922
42
-0.41421356237308682
0
SPLINE
5
106
100
AcDbEntity
8
0
100
AcDbSpline
70
0
71
3
72
8
73
4
74
0
42
0.000000001
43
0.0000000001
44
0.0000000001
40
0
40
0
40
0
40
0
40
1
40
1
40
1
40
1
10
5
20
121.50220000000003
30
0
10
3.6739180000000005
20
121.50220000000003
30
0
10
2.4021479999999951
20
120.97541600000001
30
0
10
1.4644659999999954
20
120.03773400000001
30
0
0
SPLINE
5
107
100
AcDbEntity
8
0
100
AcDbSpline
70
0
71
3
72
8
73
4
74
0
42
0.000000001
43
0.0000000001
44
0.0000000001
40
0
40
0
40
0
40
0
40
1
40
1
40
1
40
1
10
315.00000000000006
20
0.0021999999999877673
30
0
10
316.32608200000004
20
0.0021999999999877673
30
0
10
317.59785199999999
20
0.52898400000001899
30
0
10
318.53553399999998
20
1.4666660000000142
30
0
0
SPLINE
5
108
100
AcDbEntity
8
0
100
AcDbSpline
70
0
71
3
72
8
73
4
74
0
42
0.000000001
43
0.0000000001
44
0.0000000001
40
0
40
0
40
0
40
0
40
1
40
1
40
1
40
1
10
320
20
116.50220000000003
30
0
10
320
20
117.82828200000003
30
0
10
319.47321600000004
20
119.10005200000002
30
0
10
318.53553399999998
20
120.03773400000001
30
0
0
LINE
5
109
100
AcDbEntity
8
0
100
AcDbLine
10
4.9999999999999911
20
121.50220000000003
30
0
11
154.50000230967993
21
121.50220000000003
31
0
0
LWPOLYLINE
5
110
100
AcDbEntity
8
0
100
AcDbPolyline
90
8
70
1
43
0.0
10
226.76754093934423
20
4.5645727246189969
10
209.03557960660771
20
24.257910893223578
42
-0.41421356237311069
10
209.10959382572622
20
25.670186325059831
10
221.37148362881959
20
36.71084149449954
42
-0.41421356237308066
10
222.78375906065583
20
36.636827275381016
10
240.51572039339243
20
16.94348910677645
42
-0.4142135623731098
10
240.44170617427392
20
15.531213674940201
10
228.17981637118052
20
4.4905585055004558
42
-0.41421356237309104
0
SPLINE
5
111
100
AcDbEntity
8
0
100
AcDbSpline
70
0
71
3
72
8
73
4
74
0
42
0.000000001
43
0.0000000001
44
0.0000000001
40
0
40
0
40
0
40
0
40
1
40
1
40
1
40
1
10
1.4644659999999954
20
1.4666660000000142
30
0
10
2.4021479999999951
20
0.52898400000001899
30
0
10
3.6739180000000005
20
0.0021999999999877673
30
0
10
5
20
0.0021999999999877673
30
0
0
SPLINE
5
112
100
AcDbEntity
8
0
100
AcDbSpline
70
0
71
3
72
8
73
4
74
0
42
0.000000001
43
0.0000000001
44
0.0000000001
40
0
40
0
40
0
40
0
40
1
40
1
40
1
40
1
10
318.53553399999998
20
120.03773400000001
30
0
10
317.59785199999999
20
120.97541600000001
30
0
10
316.32608200000004
20
121.50220000000003
30
0
10
315.00000000000006
20
121.50220000000003
30
0
0
SPLINE
5
113
100
AcDbEntity
8
0
100
AcDbSpline
70
0
71
3
72
8
73
4
74
0
42
0.000000001
43
0.0000000001
44
0.0000000001
40
0
40
0
40
0
40
0
40
1
40
1
40
1
40
1
10
0
20
5.0021999999999878
30
0
10
0
20
3.676118000000006
30
0
10
0.52678400000000014
20
2.4043480000000095
30
0
10
1.4644659999999954
20
1.4666660000000142
30
0
0
LINE
5
114
100
AcDbEntity
8
0
100
AcDbLine
10
0
20
116.50220000000003
30
0
11
0
21
5.0021999999999878
31
0
0
SPLINE
5
115
100
AcDbEntity
8
0
100
AcDbSpline
70
0
71
3
72
8
73
4
74
0
42
0.000000001
43
0.0000000001
44
0.0000000001
40
0
40
0
40
0
40
0
40
1
40
1
40
1
40
1
10
318.53553399999998
20
1.4666660000000142
30
0
10
319.47321600000004
20
2.4043480000000095
30
0
10
320
20
3.676118000000006
30
0
10
320
20
5.0021999999999878
30
0
0
SPLINE
5
116
100
AcDbEntity
8
0
100
AcDbSpline
70
0
71
3
72
8
73
4
74
0
42
0.000000001
43
0.0000000001
44
0.0000000001
40
0
40
0
40
0
40
0
40
1
40
1
40
1
40
1
10
1.4644659999999954
20
120.03773400000001
30
0
10
0.52678400000000014
20
119.10005200000002
30
0
10
0
20
117.82828200000003
30
0
10
0
20
116.50220000000003
30
0
0
LINE
5
117
100
AcDbEntity
8
0
100
AcDbLine
10
154.50000230967993
20
121.50220000000003
30
0
11
165.5000024586916
21
121.50220000000003
31
0
0
CIRCLE
5
118
100
AcDbEntity
8
0
100
AcDbCircle
10
92.456500000000005
20
110.80844999999999
30
0
40
3.4999999999999964
210
0
220
0
230
1
0
CIRCLE
5
119
100
AcDbEntity
8
0
100
AcDbCircle
10
104.36250000000003
20
110.80844999999999
30
0
40
3.4999999999999964
210
0
220
0
230
1
0
CIRCLE
5
120
100
AcDbEntity
8
0
100
AcDbCircle
10
116.2687
20
110.80844999999999
30
0
40
3.4999999999999964
210
0
220
0
230
1
0
CIRCLE
5
121
100
AcDbEntity
8
0
100
AcDbCircle
10
128.17500000000001
20
110.80844999999999
30
0
40
3.5000000000000058
210
0
220
0
230
1
0
CIRCLE
5
122
100
AcDbEntity
8
0
100
AcDbCircle
10
140.0812
20
110.80844999999999
30
0
40
3.4999999999999964
210
0
220
0
230
1
0
CIRCLE
5
123
100
AcDbEntity
8
0
100
AcDbCircle
10
5
20
5.0021999999999878
30
0
40
2.0499999999999998
210
0
220
0
230
1
0
CIRCLE
5
124
100
AcDbEntity
8
0
100
AcDbCircle
10
5
20
115.00220000000002
30
0
40
2.0499999999999998
210
0
220
0
230
1
0
CIRCLE
5
125
100
AcDbEntity
8
0
100
AcDbCircle
10
160.00000000000003
20
5.0021999999999878
30
0
40
2.0499999999999829
210
0
220
0
230
1
0
CIRCLE
5
126
100
AcDbEntity
8
0
100
AcDbCircle
10
175.00000000000003
20
115.00220000000002
30
0
40
2.0499999999999829
210
0
220
0
230
1
0
CIRCLE
5
127
100
AcDbEntity
8
0
100
AcDbCircle
10
315.00000000000006
20
115.00220000000002
30
0
40
2.0499999999999829
210
0
220
0
230
1
0
CIRCLE
5
128
100
AcDbEntity
8
0
100
AcDbCircle
10
315.00000000000006
20
5.0021999999999878
30
0
40
2.0499999999999829
210
0
220
0
230
1
0
ENDSEC
0
SECTION
2
OBJECTS
0
DICTIONARY
5
C
100
AcDbDictionary
3
ACAD_GROUP
350
D
3
ACAD_MLINESTYLE
350
17
0
DICTIONARY
5
D
100
AcDbDictionary
0
DICTIONARY
5
1A
330
C
100
AcDbDictionary
0
DICTIONARY
5
17
100
AcDbDictionary
0
ENDSEC
0
EOF
