%TF.GenerationSoftware,KiCad,Pcbnew,8.0.5*%
%TF.CreationDate,2024-10-10T15:24:37-05:00*%
%TF.ProjectId,triplejump,74726970-6c65-46a7-956d-702e6b696361,rev?*%
%TF.SameCoordinates,Original*%
%TF.FileFunction,Soldermask,Top*%
%TF.FilePolarity,Negative*%
%FSLAX46Y46*%
G04 Gerber Fmt 4.6, Leading zero omitted, Abs format (unit mm)*
G04 Created by KiCad (PCBNEW 8.0.5) date 2024-10-10 15:24:37*
%MOMM*%
%LPD*%
G01*
G04 APERTURE LIST*
%ADD10C,1.701800*%
%ADD11C,3.000000*%
%ADD12C,3.429000*%
%ADD13C,0.990600*%
%ADD14O,2.500000X1.500000*%
%ADD15O,1.500000X2.500000*%
%ADD16C,3.200000*%
%ADD17C,2.000000*%
G04 APERTURE END LIST*
D10*
%TO.C,SW18*%
X284442931Y-65162527D03*
D11*
X286424966Y-68384954D03*
D12*
X289467431Y-62925475D03*
D11*
X291887514Y-68361070D03*
D13*
X292527844Y-56965419D03*
D10*
X294491931Y-60688423D03*
%TD*%
%TO.C,SW10*%
X253095422Y-117314219D03*
D11*
X250643195Y-120195031D03*
D12*
X256775640Y-121401516D03*
D11*
X252353929Y-125382842D03*
D13*
X263389710Y-122470383D03*
D10*
X260455858Y-125488813D03*
%TD*%
%TO.C,SW12*%
X261047948Y-59452736D03*
D11*
X263029983Y-62675163D03*
D12*
X266072448Y-57215684D03*
D11*
X268492531Y-62651279D03*
D13*
X269132861Y-51255628D03*
D10*
X271096948Y-54978632D03*
%TD*%
%TO.C,SW9*%
X123544142Y-125488813D03*
D11*
X126665500Y-127626480D03*
D12*
X127224360Y-121401516D03*
D11*
X131646071Y-125382842D03*
D13*
X127596014Y-114711952D03*
D10*
X130904578Y-117314219D03*
%TD*%
%TO.C,SW20*%
X323643701Y-59536492D03*
D11*
X325625736Y-62758919D03*
D12*
X328668201Y-57299440D03*
D11*
X331088284Y-62735035D03*
D13*
X331728614Y-51339384D03*
D10*
X333692701Y-55062388D03*
%TD*%
D14*
%TO.C,U1*%
X200120000Y-24340000D03*
X200120000Y-26880000D03*
X200120000Y-29420000D03*
X200120000Y-31960000D03*
X200120000Y-34500000D03*
X200120000Y-37040000D03*
X200120000Y-39580000D03*
X200120000Y-42120000D03*
X200120000Y-44660000D03*
D15*
X197080000Y-45160000D03*
X194540000Y-45160000D03*
X192000000Y-45160000D03*
X189460000Y-45160000D03*
X186920000Y-45160000D03*
D14*
X183880000Y-44660000D03*
X183880000Y-42120000D03*
X183880000Y-39580000D03*
X183880000Y-37040000D03*
X183880000Y-34500000D03*
X183880000Y-31960000D03*
X183880000Y-29420000D03*
X183880000Y-26880000D03*
X183880000Y-24340000D03*
%TD*%
D10*
%TO.C,SW6*%
X74603917Y-47327495D03*
D11*
X73535427Y-50956659D03*
D12*
X79628417Y-49564547D03*
D11*
X77208334Y-55000142D03*
D13*
X86105418Y-47850821D03*
D10*
X84652917Y-51801599D03*
%TD*%
%TO.C,SW16*%
X247096678Y-74953873D03*
D11*
X249078713Y-78176300D03*
D12*
X252121178Y-72716821D03*
D11*
X254541261Y-78152416D03*
D13*
X255181591Y-66756765D03*
D10*
X257145678Y-70479769D03*
%TD*%
%TO.C,SW14*%
X295854030Y-43956070D03*
D11*
X297836065Y-47178497D03*
D12*
X300878530Y-41719018D03*
D11*
X303298613Y-47154613D03*
D13*
X303938943Y-35758962D03*
D10*
X305903030Y-39481966D03*
%TD*%
%TO.C,SW15*%
X316708842Y-43960541D03*
D11*
X318690877Y-47182968D03*
D12*
X321733342Y-41723489D03*
D11*
X324153425Y-47159084D03*
D13*
X324793755Y-35763433D03*
D10*
X326757842Y-39486437D03*
%TD*%
%TO.C,SW8*%
X109409999Y-62824161D03*
D11*
X108341509Y-66453325D03*
D12*
X114434499Y-65061213D03*
D11*
X112014416Y-70496808D03*
D13*
X120911500Y-63347487D03*
D10*
X119458999Y-67298265D03*
%TD*%
%TO.C,SW19*%
X302788889Y-59532021D03*
D11*
X304770924Y-62754448D03*
D12*
X307813389Y-57294969D03*
D11*
X310233472Y-62730564D03*
D13*
X310873802Y-51334913D03*
D10*
X312837889Y-55057917D03*
%TD*%
%TO.C,SW7*%
X92975500Y-52900448D03*
D11*
X91907010Y-56529612D03*
D12*
X98000000Y-55137500D03*
D11*
X95579917Y-60573095D03*
D13*
X104477001Y-53423774D03*
D10*
X103024500Y-57374552D03*
%TD*%
D16*
%TO.C,M3*%
X37000000Y-137000000D03*
%TD*%
D10*
%TO.C,SW17*%
X267982807Y-75028687D03*
D11*
X269964842Y-78251114D03*
D12*
X273007307Y-72791635D03*
D11*
X275427390Y-78227230D03*
D13*
X276067720Y-66831579D03*
D10*
X278031807Y-70554583D03*
%TD*%
D17*
%TO.C,SW5*%
X168831250Y-28943750D03*
X175331250Y-28943750D03*
X168831250Y-33443750D03*
X175331250Y-33443750D03*
%TD*%
D16*
%TO.C,M3*%
X37000000Y-27000000D03*
%TD*%
D10*
%TO.C,SW11*%
X274917667Y-90604637D03*
D11*
X276899702Y-93827064D03*
D12*
X279942167Y-88367585D03*
D11*
X282362250Y-93803180D03*
D13*
X283002580Y-82407529D03*
D10*
X284966667Y-86130533D03*
%TD*%
D16*
%TO.C,M3*%
X347000000Y-27000000D03*
%TD*%
%TO.C,M3*%
X207000000Y-27000000D03*
%TD*%
D10*
%TO.C,SW13*%
X277508072Y-49586576D03*
D11*
X279490107Y-52809003D03*
D12*
X282532572Y-47349524D03*
D11*
X284952655Y-52785119D03*
D13*
X285592985Y-41389468D03*
D10*
X287557072Y-45112472D03*
%TD*%
D16*
%TO.C,M3*%
X347000000Y-137000000D03*
%TD*%
D17*
%TO.C,SW2*%
X133112500Y-28943750D03*
X139612500Y-28943750D03*
X133112500Y-33443750D03*
X139612500Y-33443750D03*
%TD*%
%TO.C,SW1*%
X121206500Y-28943750D03*
X127706500Y-28943750D03*
X121206500Y-33443750D03*
X127706500Y-33443750D03*
%TD*%
%TO.C,SW4*%
X156925000Y-28943750D03*
X163425000Y-28943750D03*
X156925000Y-33443750D03*
X163425000Y-33443750D03*
%TD*%
%TO.C,SW3*%
X145018750Y-28943750D03*
X151518750Y-28943750D03*
X145018750Y-33443750D03*
X151518750Y-33443750D03*
%TD*%
D16*
%TO.C,M3*%
X192000000Y-137000000D03*
%TD*%
M02*
