%TF.GenerationSoftware,KiCad,Pcbnew,8.0.5*%
%TF.CreationDate,2024-10-21T13:35:55-05:00*%
%TF.ProjectId,triplejump,74726970-6c65-46a7-956d-702e6b696361,rev?*%
%TF.SameCoordinates,Original*%
%TF.FileFunction,Soldermask,Top*%
%TF.FilePolarity,Negative*%
%FSLAX46Y46*%
G04 Gerber Fmt 4.6, Leading zero omitted, Abs format (unit mm)*
G04 Created by KiCad (PCBNEW 8.0.5) date 2024-10-21 13:35:55*
%MOMM*%
%LPD*%
G01*
G04 APERTURE LIST*
%ADD10C,1.701800*%
%ADD11C,3.000000*%
%ADD12C,3.429000*%
%ADD13C,0.990600*%
%ADD14O,2.500000X1.500000*%
%ADD15O,1.500000X2.500000*%
%ADD16C,3.200000*%
%ADD17C,2.000000*%
G04 APERTURE END LIST*
D10*
%TO.C,SW18*%
X284646299Y-65619300D03*
D11*
X286628334Y-68841727D03*
D12*
X289670799Y-63382248D03*
D11*
X292090882Y-68817843D03*
D13*
X292731212Y-57422192D03*
D10*
X294695299Y-61145196D03*
%TD*%
%TO.C,SW10*%
X253095422Y-117314219D03*
D11*
X250643195Y-120195031D03*
D12*
X256775640Y-121401516D03*
D11*
X252353929Y-125382842D03*
D13*
X263389710Y-122470383D03*
D10*
X260455858Y-125488813D03*
%TD*%
%TO.C,SW12*%
X260844580Y-58995963D03*
D11*
X262826615Y-62218390D03*
D12*
X265869080Y-56758911D03*
D11*
X268289163Y-62194506D03*
D13*
X268929493Y-50798855D03*
D10*
X270893580Y-54521859D03*
%TD*%
%TO.C,SW9*%
X123544142Y-125488813D03*
D11*
X126665500Y-127626480D03*
D12*
X127224360Y-121401516D03*
D11*
X131646071Y-125382842D03*
D13*
X127596014Y-114711952D03*
D10*
X130904578Y-117314219D03*
%TD*%
%TO.C,SW20*%
X323847069Y-59993265D03*
D11*
X325829104Y-63215692D03*
D12*
X328871569Y-57756213D03*
D11*
X331291652Y-63191808D03*
D13*
X331931982Y-51796157D03*
D10*
X333896069Y-55519161D03*
%TD*%
D14*
%TO.C,U1*%
X200120000Y-24340000D03*
X200120000Y-26880000D03*
X200120000Y-29420000D03*
X200120000Y-31960000D03*
X200120000Y-34500000D03*
X200120000Y-37040000D03*
X200120000Y-39580000D03*
X200120000Y-42120000D03*
X200120000Y-44660000D03*
D15*
X197080000Y-45160000D03*
X194540000Y-45160000D03*
X192000000Y-45160000D03*
X189460000Y-45160000D03*
X186920000Y-45160000D03*
D14*
X183880000Y-44660000D03*
X183880000Y-42120000D03*
X183880000Y-39580000D03*
X183880000Y-37040000D03*
X183880000Y-34500000D03*
X183880000Y-31960000D03*
X183880000Y-29420000D03*
X183880000Y-26880000D03*
X183880000Y-24340000D03*
%TD*%
D10*
%TO.C,SW6*%
X74603917Y-47327495D03*
D11*
X73535427Y-50956659D03*
D12*
X79628417Y-49564547D03*
D11*
X77208334Y-55000142D03*
D13*
X86105418Y-47850821D03*
D10*
X84652917Y-51801599D03*
%TD*%
%TO.C,SW16*%
X246893310Y-74497100D03*
D11*
X248875345Y-77719527D03*
D12*
X251917810Y-72260048D03*
D11*
X254337893Y-77695643D03*
D13*
X254978223Y-66299992D03*
D10*
X256942310Y-70022996D03*
%TD*%
%TO.C,SW14*%
X305699662Y-39025193D03*
D13*
X303735575Y-35302189D03*
D11*
X303095245Y-46697840D03*
D12*
X300675162Y-41262245D03*
D11*
X297632697Y-46721724D03*
D10*
X295650662Y-43499297D03*
%TD*%
%TO.C,SW15*%
X316505474Y-43503768D03*
D11*
X318487509Y-46726195D03*
D12*
X321529974Y-41266716D03*
D11*
X323950057Y-46702311D03*
D13*
X324590387Y-35306660D03*
D10*
X326554474Y-39029664D03*
%TD*%
%TO.C,SW8*%
X109409999Y-62824161D03*
D11*
X108341509Y-66453325D03*
D12*
X114434499Y-65061213D03*
D11*
X112014416Y-70496808D03*
D13*
X120911500Y-63347487D03*
D10*
X119458999Y-67298265D03*
%TD*%
%TO.C,SW19*%
X302992257Y-59988794D03*
D11*
X304974292Y-63211221D03*
D12*
X308016757Y-57751742D03*
D11*
X310436840Y-63187337D03*
D13*
X311077170Y-51791686D03*
D10*
X313041257Y-55514690D03*
%TD*%
%TO.C,SW7*%
X92975500Y-52900448D03*
D11*
X91907010Y-56529612D03*
D12*
X98000000Y-55137500D03*
D11*
X95579917Y-60573095D03*
D13*
X104477001Y-53423774D03*
D10*
X103024500Y-57374552D03*
%TD*%
D16*
%TO.C,M3*%
X37000000Y-137000000D03*
%TD*%
D10*
%TO.C,SW17*%
X268186175Y-75485460D03*
D11*
X270168210Y-78707887D03*
D12*
X273210675Y-73248408D03*
D11*
X275630758Y-78684003D03*
D13*
X276271088Y-67288352D03*
D10*
X278235175Y-71011356D03*
%TD*%
D17*
%TO.C,SW5*%
X168831250Y-28943750D03*
X175331250Y-28943750D03*
X168831250Y-33443750D03*
X175331250Y-33443750D03*
%TD*%
D16*
%TO.C,M3*%
X37000000Y-27000000D03*
%TD*%
D10*
%TO.C,SW11*%
X275527772Y-91974955D03*
D11*
X277509807Y-95197382D03*
D12*
X280552272Y-89737903D03*
D11*
X282972355Y-95173498D03*
D13*
X283612685Y-83777847D03*
D10*
X285576772Y-87500851D03*
%TD*%
D16*
%TO.C,M3*%
X347000000Y-27000000D03*
%TD*%
%TO.C,M3*%
X207000000Y-27000000D03*
%TD*%
D10*
%TO.C,SW13*%
X287353704Y-44655699D03*
D13*
X285389617Y-40932695D03*
D11*
X284749287Y-52328346D03*
D12*
X282329204Y-46892751D03*
D11*
X279286739Y-52352230D03*
D10*
X277304704Y-49129803D03*
%TD*%
D16*
%TO.C,M3*%
X347000000Y-137000000D03*
%TD*%
D17*
%TO.C,SW2*%
X133112500Y-28943750D03*
X139612500Y-28943750D03*
X133112500Y-33443750D03*
X139612500Y-33443750D03*
%TD*%
%TO.C,SW1*%
X121206500Y-28943750D03*
X127706500Y-28943750D03*
X121206500Y-33443750D03*
X127706500Y-33443750D03*
%TD*%
%TO.C,SW4*%
X156925000Y-28943750D03*
X163425000Y-28943750D03*
X156925000Y-33443750D03*
X163425000Y-33443750D03*
%TD*%
%TO.C,SW3*%
X145018750Y-28943750D03*
X151518750Y-28943750D03*
X145018750Y-33443750D03*
X151518750Y-33443750D03*
%TD*%
D16*
%TO.C,M3*%
X192000000Y-137000000D03*
%TD*%
M02*
