M48
; DRILL file {KiCad 7.0.5} date Mon Jul 31 21:39:58 2023
; FORMAT={-:-/ absolute / metric / decimal}
; #@! TF.CreationDate,2023-07-31T21:39:58-05:00
; #@! TF.GenerationSoftware,Kicad,Pcbnew,7.0.5
; #@! TF.FileFunction,NonPlated,1,2,NPTH
FMAT,2
METRIC
; #@! TA.AperFunction,NonPlated,NPTH,ComponentDrill
T1C0.991
; #@! TA.AperFunction,NonPlated,NPTH,ComponentDrill
T2C1.702
; #@! TA.AperFunction,NonPlated,NPTH,ComponentDrill
T3C3.000
; #@! TA.AperFunction,NonPlated,NPTH,ComponentDrill
T4C3.200
; #@! TA.AperFunction,NonPlated,NPTH,ComponentDrill
T5C3.429
%
G90
G05
T1
X66.105Y-47.851
X84.477Y-53.424
X92.256Y-36.038
X100.911Y-63.347
X110.986Y-112.706
X272.266Y-60.208
X280.014Y-77.611
X281.46Y-118.842
X288.726Y-50.342
X296.474Y-67.745
X305.186Y-40.476
X312.935Y-57.879
X323.532Y-34.845
X331.281Y-52.248
X342.821Y-31.333
X350.569Y-48.736
T2
X54.604Y-47.327
X64.653Y-51.802
X72.975Y-52.9
X80.754Y-35.514
X83.025Y-57.375
X89.41Y-62.824
X90.803Y-39.988
X99.459Y-67.298
X104.782Y-122.405
X113.681Y-115.939
X264.181Y-68.405
X270.319Y-115.939
X271.929Y-85.808
X274.23Y-63.931
X279.218Y-122.405
X280.641Y-58.539
X281.978Y-81.334
X288.39Y-75.942
X290.69Y-54.065
X297.101Y-48.673
X298.439Y-71.468
X304.85Y-66.076
X307.15Y-44.199
X314.899Y-61.602
X315.447Y-43.043
X323.196Y-60.446
X325.496Y-38.568
X333.245Y-55.971
X334.736Y-39.53
X342.485Y-56.933
X344.785Y-35.056
X352.534Y-52.459
T3
X53.535Y-50.957
X57.208Y-55.0
X71.907Y-56.53
X75.58Y-60.573
X79.686Y-39.143
X83.359Y-43.187
X88.342Y-66.453
X92.014Y-70.497
X107.391Y-125.145
X112.729Y-123.986
X266.163Y-71.628
X268.519Y-119.267
X271.271Y-123.986
X271.626Y-71.604
X273.911Y-89.031
X279.374Y-89.007
X282.623Y-61.762
X288.086Y-61.738
X290.372Y-79.165
X295.834Y-79.141
X299.083Y-51.895
X304.546Y-51.872
X306.832Y-69.298
X312.294Y-69.275
X317.429Y-46.265
X322.892Y-46.241
X325.178Y-63.668
X330.64Y-63.644
X336.718Y-42.752
X342.181Y-42.728
X344.467Y-60.155
X349.929Y-60.131
T4
X27.0Y-27.0
X27.0Y-129.0
X357.0Y-27.0
X357.0Y-129.0
T5
X59.628Y-49.565
X78.0Y-55.137
X85.779Y-37.751
X94.434Y-65.061
X109.232Y-119.172
X269.206Y-66.168
X274.768Y-119.172
X276.954Y-83.571
X285.666Y-56.302
X293.414Y-73.705
X302.126Y-46.436
X309.874Y-63.839
X320.472Y-40.805
X328.22Y-58.209
X339.761Y-37.293
X347.509Y-54.696
T0
M30
