M48
; DRILL file {KiCad 8.0.5} date 2024-10-10T15:25:39-0500
; FORMAT={-:-/ absolute / inch / decimal}
; #@! TF.CreationDate,2024-10-10T15:25:39-05:00
; #@! TF.GenerationSoftware,Kicad,Pcbnew,8.0.5
; #@! TF.FileFunction,NonPlated,1,2,NPTH
FMAT,2
INCH
; #@! TA.AperFunction,NonPlated,NPTH,ComponentDrill
T1C0.0390
; #@! TA.AperFunction,NonPlated,NPTH,ComponentDrill
T2C0.0670
; #@! TA.AperFunction,NonPlated,NPTH,ComponentDrill
T3C0.1181
; #@! TA.AperFunction,NonPlated,NPTH,ComponentDrill
T4C0.1260
; #@! TA.AperFunction,NonPlated,NPTH,ComponentDrill
T5C0.1350
%
G90
G05
T1
X3.39Y-1.8839
X4.1133Y-2.1033
X4.7603Y-2.494
X5.0235Y-4.5162
X10.0465Y-2.6282
X10.3697Y-4.8217
X10.5958Y-2.0179
X10.8688Y-2.6312
X11.1418Y-3.2444
X11.2438Y-1.6295
X11.5168Y-2.2427
X11.9661Y-1.4078
X12.2391Y-2.0211
X12.7872Y-1.408
X13.0602Y-2.0212
T2
X2.9372Y-1.8633
X3.3328Y-2.0394
X3.6605Y-2.0827
X4.0561Y-2.2588
X4.3075Y-2.4734
X4.7031Y-2.6495
X4.8639Y-4.9405
X5.1537Y-4.6187
X9.7282Y-2.9509
X9.9644Y-4.6187
X10.1238Y-2.7748
X10.2542Y-4.9405
X10.2775Y-2.3407
X10.5505Y-2.9539
X10.6731Y-2.1645
X10.8235Y-3.5671
X10.9255Y-1.9522
X10.9461Y-2.7777
X11.1985Y-2.5655
X11.2192Y-3.391
X11.3211Y-1.7761
X11.5942Y-2.3893
X11.6478Y-1.7306
X11.9208Y-2.3438
X12.0434Y-1.5544
X12.3165Y-2.1676
X12.4689Y-1.7307
X12.7419Y-2.344
X12.8645Y-1.5546
X13.1375Y-2.1678
T3
X2.8951Y-2.0062
X3.0397Y-2.1654
X3.6184Y-2.2256
X3.763Y-2.3848
X4.2654Y-2.6163
X4.41Y-2.7755
X4.9868Y-5.0247
X5.1829Y-4.9363
X9.8062Y-3.0778
X9.8678Y-4.7321
X9.9352Y-4.9363
X10.0213Y-3.0769
X10.3555Y-2.4675
X10.5706Y-2.4666
X10.6285Y-3.0808
X10.8436Y-3.0798
X10.9016Y-3.694
X11.0035Y-2.0791
X11.1166Y-3.693
X11.2186Y-2.0782
X11.2766Y-2.6923
X11.4916Y-2.6914
X11.7258Y-1.8574
X11.9409Y-1.8565
X11.9989Y-2.4706
X12.2139Y-2.4697
X12.5469Y-1.8576
X12.7619Y-1.8567
X12.8199Y-2.4708
X13.035Y-2.4699
T4
X1.4567Y-1.063
X1.4567Y-5.3937
X7.5591Y-5.3937
X8.1496Y-1.063
X13.6614Y-1.063
X13.6614Y-5.3937
T5
X3.135Y-1.9514
X3.8583Y-2.1708
X4.5053Y-2.5615
X5.0088Y-4.7796
X9.926Y-2.8629
X10.1093Y-4.7796
X10.4753Y-2.2526
X10.7483Y-2.8658
X11.0213Y-3.479
X11.1233Y-1.8642
X11.3964Y-2.4774
X11.8456Y-1.6425
X12.1186Y-2.2557
X12.6667Y-1.6427
X12.9397Y-2.2559
M30
