%TF.GenerationSoftware,KiCad,Pcbnew,8.0.5*%
%TF.CreationDate,2024-10-21T13:35:55-05:00*%
%TF.ProjectId,triplejump,74726970-6c65-46a7-956d-702e6b696361,rev?*%
%TF.SameCoordinates,Original*%
%TF.FileFunction,Legend,Top*%
%TF.FilePolarity,Positive*%
%FSLAX46Y46*%
G04 Gerber Fmt 4.6, Leading zero omitted, Abs format (unit mm)*
G04 Created by KiCad (PCBNEW 8.0.5) date 2024-10-21 13:35:55*
%MOMM*%
%LPD*%
G01*
G04 APERTURE LIST*
%ADD10C,0.150000*%
%ADD11C,0.120000*%
G04 APERTURE END LIST*
D10*
%TO.C,SW18*%
X280835561Y-60748132D02*
X280428824Y-59834586D01*
X281342370Y-59427850D02*
X280428824Y-59834586D01*
X286123137Y-72624223D02*
X285716401Y-71710677D01*
X286123137Y-72624223D02*
X287036683Y-72217486D01*
X293218461Y-54140273D02*
X292304915Y-54547010D01*
X293218461Y-54140273D02*
X293625197Y-55053819D01*
X297999228Y-67336646D02*
X298912774Y-66929910D01*
X298506037Y-66016364D02*
X298912774Y-66929910D01*
X298912774Y-66929910D02*
X297999228Y-67336646D01*
%TO.C,SW10*%
X246889712Y-120883416D02*
X247558842Y-121626561D01*
X246889712Y-120883416D02*
X247632857Y-120214286D01*
X255588410Y-130544299D02*
X256257540Y-131287444D01*
X256257540Y-131287444D02*
X255588410Y-130544299D01*
X256550595Y-112184718D02*
X257293740Y-111515588D01*
X257000685Y-130618314D02*
X256257540Y-131287444D01*
X257962870Y-112258733D02*
X257293740Y-111515588D01*
X266661568Y-121919616D02*
X265918423Y-122588746D01*
X266661568Y-121919616D02*
X265992438Y-121176471D01*
%TO.C,SW12*%
X257033842Y-54124795D02*
X256627105Y-53211249D01*
X257540651Y-52804513D02*
X256627105Y-53211249D01*
X262321418Y-66000886D02*
X261914682Y-65087340D01*
X262321418Y-66000886D02*
X263234964Y-65594149D01*
X269416742Y-47516936D02*
X268503196Y-47923673D01*
X269416742Y-47516936D02*
X269823478Y-48430482D01*
X274197509Y-60713309D02*
X275111055Y-60306573D01*
X274704318Y-59393027D02*
X275111055Y-60306573D01*
X275111055Y-60306573D02*
X274197509Y-60713309D01*
%TO.C,SW9*%
X118007562Y-121176471D02*
X117338432Y-121919616D01*
X118081577Y-122588746D02*
X117338432Y-121919616D01*
X126706260Y-111515588D02*
X126037130Y-112258733D01*
X126706260Y-111515588D02*
X127449405Y-112184718D01*
X127742460Y-131287444D02*
X126999315Y-130618314D01*
X127742460Y-131287444D02*
X128411590Y-130544299D01*
X136367143Y-120214286D02*
X137110288Y-120883416D01*
X136441158Y-121626561D02*
X137110288Y-120883416D01*
X137110288Y-120883416D02*
X136441158Y-121626561D01*
%TO.C,SW20*%
X320036331Y-55122097D02*
X319629594Y-54208551D01*
X320543140Y-53801815D02*
X319629594Y-54208551D01*
X325323907Y-66998188D02*
X324917171Y-66084642D01*
X325323907Y-66998188D02*
X326237453Y-66591451D01*
X332419231Y-48514238D02*
X331505685Y-48920975D01*
X332419231Y-48514238D02*
X332825967Y-49427784D01*
X337199998Y-61710611D02*
X338113544Y-61303875D01*
X337706807Y-60390329D02*
X338113544Y-61303875D01*
X338113544Y-61303875D02*
X337199998Y-61710611D01*
%TO.C,SW6*%
X70386442Y-53112209D02*
X70793179Y-52198663D01*
X70386442Y-53112209D02*
X71299988Y-53518945D01*
X75674019Y-41236118D02*
X76080755Y-40322572D01*
X76994301Y-40729309D02*
X76080755Y-40322572D01*
X82262533Y-58399785D02*
X83176079Y-58806522D01*
X83176079Y-58806522D02*
X82262533Y-58399785D01*
X83582815Y-57892976D02*
X83176079Y-58806522D01*
X88870392Y-46016885D02*
X87956846Y-45610149D01*
X88870392Y-46016885D02*
X88463655Y-46930431D01*
%TO.C,SW16*%
X243082572Y-69625932D02*
X242675835Y-68712386D01*
X243589381Y-68305650D02*
X242675835Y-68712386D01*
X248370148Y-81502023D02*
X247963412Y-80588477D01*
X248370148Y-81502023D02*
X249283694Y-81095286D01*
X255465472Y-63018073D02*
X254551926Y-63424810D01*
X255465472Y-63018073D02*
X255872208Y-63931619D01*
X260246239Y-76214446D02*
X261159785Y-75807710D01*
X260753048Y-74894164D02*
X261159785Y-75807710D01*
X261159785Y-75807710D02*
X260246239Y-76214446D01*
%TO.C,SW14*%
X309917137Y-44809907D02*
X309003591Y-45216643D01*
X309510400Y-43896361D02*
X309917137Y-44809907D01*
X309003591Y-45216643D02*
X309917137Y-44809907D01*
X304222824Y-32020270D02*
X304629560Y-32933816D01*
X304222824Y-32020270D02*
X303309278Y-32427007D01*
X297127500Y-50504220D02*
X298041046Y-50097483D01*
X297127500Y-50504220D02*
X296720764Y-49590674D01*
X292346733Y-37307847D02*
X291433187Y-37714583D01*
X291839924Y-38628129D02*
X291433187Y-37714583D01*
%TO.C,SW15*%
X312694736Y-38632600D02*
X312287999Y-37719054D01*
X313201545Y-37312318D02*
X312287999Y-37719054D01*
X317982312Y-50508691D02*
X317575576Y-49595145D01*
X317982312Y-50508691D02*
X318895858Y-50101954D01*
X325077636Y-32024741D02*
X324164090Y-32431478D01*
X325077636Y-32024741D02*
X325484372Y-32938287D01*
X329858403Y-45221114D02*
X330771949Y-44814378D01*
X330365212Y-43900832D02*
X330771949Y-44814378D01*
X330771949Y-44814378D02*
X329858403Y-45221114D01*
%TO.C,SW8*%
X105192524Y-68608875D02*
X105599261Y-67695329D01*
X105192524Y-68608875D02*
X106106070Y-69015611D01*
X110480101Y-56732784D02*
X110886837Y-55819238D01*
X111800383Y-56225975D02*
X110886837Y-55819238D01*
X117068615Y-73896451D02*
X117982161Y-74303188D01*
X117982161Y-74303188D02*
X117068615Y-73896451D01*
X118388897Y-73389642D02*
X117982161Y-74303188D01*
X123676474Y-61513551D02*
X122762928Y-61106815D01*
X123676474Y-61513551D02*
X123269737Y-62427097D01*
%TO.C,SW19*%
X299181519Y-55117626D02*
X298774782Y-54204080D01*
X299688328Y-53797344D02*
X298774782Y-54204080D01*
X304469095Y-66993717D02*
X304062359Y-66080171D01*
X304469095Y-66993717D02*
X305382641Y-66586980D01*
X311564419Y-48509767D02*
X310650873Y-48916504D01*
X311564419Y-48509767D02*
X311971155Y-49423313D01*
X316345186Y-61706140D02*
X317258732Y-61299404D01*
X316851995Y-60385858D02*
X317258732Y-61299404D01*
X317258732Y-61299404D02*
X316345186Y-61706140D01*
%TO.C,SW7*%
X88758025Y-58685162D02*
X89164762Y-57771616D01*
X88758025Y-58685162D02*
X89671571Y-59091898D01*
X94045602Y-46809071D02*
X94452338Y-45895525D01*
X95365884Y-46302262D02*
X94452338Y-45895525D01*
X100634116Y-63972738D02*
X101547662Y-64379475D01*
X101547662Y-64379475D02*
X100634116Y-63972738D01*
X101954398Y-63465929D02*
X101547662Y-64379475D01*
X107241975Y-51589838D02*
X106328429Y-51183102D01*
X107241975Y-51589838D02*
X106835238Y-52503384D01*
%TO.C,SW17*%
X264375437Y-70614292D02*
X263968700Y-69700746D01*
X264882246Y-69294010D02*
X263968700Y-69700746D01*
X269663013Y-82490383D02*
X269256277Y-81576837D01*
X269663013Y-82490383D02*
X270576559Y-82083646D01*
X276758337Y-64006433D02*
X275844791Y-64413170D01*
X276758337Y-64006433D02*
X277165073Y-64919979D01*
X281539104Y-77202806D02*
X282452650Y-76796070D01*
X282045913Y-75882524D02*
X282452650Y-76796070D01*
X282452650Y-76796070D02*
X281539104Y-77202806D01*
D11*
%TO.C,SW5*%
X168581250Y-30443750D02*
X168581250Y-31943750D01*
X169831250Y-34443750D02*
X174331250Y-34443750D01*
X174331250Y-27943750D02*
X169831250Y-27943750D01*
X175581250Y-31943750D02*
X175581250Y-30443750D01*
D10*
%TO.C,SW11*%
X271717034Y-87103787D02*
X271310297Y-86190241D01*
X272223843Y-85783505D02*
X271310297Y-86190241D01*
X277004610Y-98979878D02*
X276597874Y-98066332D01*
X277004610Y-98979878D02*
X277918156Y-98573141D01*
X284099934Y-80495928D02*
X283186388Y-80902665D01*
X284099934Y-80495928D02*
X284506670Y-81409474D01*
X288880701Y-93692301D02*
X289794247Y-93285565D01*
X289387510Y-92372019D02*
X289794247Y-93285565D01*
X289794247Y-93285565D02*
X288880701Y-93692301D01*
%TO.C,SW13*%
X291571179Y-50440413D02*
X290657633Y-50847149D01*
X291164442Y-49526867D02*
X291571179Y-50440413D01*
X290657633Y-50847149D02*
X291571179Y-50440413D01*
X285876866Y-37650776D02*
X286283602Y-38564322D01*
X285876866Y-37650776D02*
X284963320Y-38057513D01*
X278781542Y-56134726D02*
X279695088Y-55727989D01*
X278781542Y-56134726D02*
X278374806Y-55221180D01*
X274000775Y-42938353D02*
X273087229Y-43345089D01*
X273493966Y-44258635D02*
X273087229Y-43345089D01*
D11*
%TO.C,SW2*%
X132862500Y-30443750D02*
X132862500Y-31943750D01*
X134112500Y-34443750D02*
X138612500Y-34443750D01*
X138612500Y-27943750D02*
X134112500Y-27943750D01*
X139862500Y-31943750D02*
X139862500Y-30443750D01*
%TO.C,SW1*%
X120956500Y-30443750D02*
X120956500Y-31943750D01*
X122206500Y-34443750D02*
X126706500Y-34443750D01*
X126706500Y-27943750D02*
X122206500Y-27943750D01*
X127956500Y-31943750D02*
X127956500Y-30443750D01*
%TO.C,SW4*%
X156675000Y-30443750D02*
X156675000Y-31943750D01*
X157925000Y-34443750D02*
X162425000Y-34443750D01*
X162425000Y-27943750D02*
X157925000Y-27943750D01*
X163675000Y-31943750D02*
X163675000Y-30443750D01*
%TO.C,SW3*%
X144768750Y-30443750D02*
X144768750Y-31943750D01*
X146018750Y-34443750D02*
X150518750Y-34443750D01*
X150518750Y-27943750D02*
X146018750Y-27943750D01*
X151768750Y-31943750D02*
X151768750Y-30443750D01*
%TD*%
M02*
