%TF.GenerationSoftware,KiCad,Pcbnew,8.0.5*%
%TF.CreationDate,2024-10-10T15:24:37-05:00*%
%TF.ProjectId,triplejump,74726970-6c65-46a7-956d-702e6b696361,rev?*%
%TF.SameCoordinates,Original*%
%TF.FileFunction,Legend,Bot*%
%TF.FilePolarity,Positive*%
%FSLAX46Y46*%
G04 Gerber Fmt 4.6, Leading zero omitted, Abs format (unit mm)*
G04 Created by KiCad (PCBNEW 8.0.5) date 2024-10-10 15:24:37*
%MOMM*%
%LPD*%
G01*
G04 APERTURE LIST*
%ADD10C,0.150000*%
G04 APERTURE END LIST*
D10*
X341642858Y-138375057D02*
X341642858Y-135375057D01*
X340357144Y-138375057D02*
X340357144Y-136803628D01*
X340357144Y-136803628D02*
X340500001Y-136517914D01*
X340500001Y-136517914D02*
X340785715Y-136375057D01*
X340785715Y-136375057D02*
X341214286Y-136375057D01*
X341214286Y-136375057D02*
X341500001Y-136517914D01*
X341500001Y-136517914D02*
X341642858Y-136660771D01*
X339357143Y-136375057D02*
X338214286Y-136375057D01*
X338928572Y-135375057D02*
X338928572Y-137946485D01*
X338928572Y-137946485D02*
X338785715Y-138232200D01*
X338785715Y-138232200D02*
X338500000Y-138375057D01*
X338500000Y-138375057D02*
X338214286Y-138375057D01*
X337642857Y-136375057D02*
X336500000Y-136375057D01*
X337214286Y-135375057D02*
X337214286Y-137946485D01*
X337214286Y-137946485D02*
X337071429Y-138232200D01*
X337071429Y-138232200D02*
X336785714Y-138375057D01*
X336785714Y-138375057D02*
X336500000Y-138375057D01*
X335500000Y-136375057D02*
X335500000Y-139375057D01*
X335500000Y-136517914D02*
X335214286Y-136375057D01*
X335214286Y-136375057D02*
X334642857Y-136375057D01*
X334642857Y-136375057D02*
X334357143Y-136517914D01*
X334357143Y-136517914D02*
X334214286Y-136660771D01*
X334214286Y-136660771D02*
X334071428Y-136946485D01*
X334071428Y-136946485D02*
X334071428Y-137803628D01*
X334071428Y-137803628D02*
X334214286Y-138089342D01*
X334214286Y-138089342D02*
X334357143Y-138232200D01*
X334357143Y-138232200D02*
X334642857Y-138375057D01*
X334642857Y-138375057D02*
X335214286Y-138375057D01*
X335214286Y-138375057D02*
X335500000Y-138232200D01*
X332928571Y-138232200D02*
X332642857Y-138375057D01*
X332642857Y-138375057D02*
X332071428Y-138375057D01*
X332071428Y-138375057D02*
X331785714Y-138232200D01*
X331785714Y-138232200D02*
X331642857Y-137946485D01*
X331642857Y-137946485D02*
X331642857Y-137803628D01*
X331642857Y-137803628D02*
X331785714Y-137517914D01*
X331785714Y-137517914D02*
X332071428Y-137375057D01*
X332071428Y-137375057D02*
X332500000Y-137375057D01*
X332500000Y-137375057D02*
X332785714Y-137232200D01*
X332785714Y-137232200D02*
X332928571Y-136946485D01*
X332928571Y-136946485D02*
X332928571Y-136803628D01*
X332928571Y-136803628D02*
X332785714Y-136517914D01*
X332785714Y-136517914D02*
X332500000Y-136375057D01*
X332500000Y-136375057D02*
X332071428Y-136375057D01*
X332071428Y-136375057D02*
X331785714Y-136517914D01*
X330357143Y-138089342D02*
X330214286Y-138232200D01*
X330214286Y-138232200D02*
X330357143Y-138375057D01*
X330357143Y-138375057D02*
X330500000Y-138232200D01*
X330500000Y-138232200D02*
X330357143Y-138089342D01*
X330357143Y-138089342D02*
X330357143Y-138375057D01*
X330357143Y-136517914D02*
X330214286Y-136660771D01*
X330214286Y-136660771D02*
X330357143Y-136803628D01*
X330357143Y-136803628D02*
X330500000Y-136660771D01*
X330500000Y-136660771D02*
X330357143Y-136517914D01*
X330357143Y-136517914D02*
X330357143Y-136803628D01*
X326785715Y-135232200D02*
X329357143Y-139089342D01*
X323642858Y-135232200D02*
X326214286Y-139089342D01*
X321357144Y-136375057D02*
X321357144Y-138803628D01*
X321357144Y-138803628D02*
X321500001Y-139089342D01*
X321500001Y-139089342D02*
X321642858Y-139232200D01*
X321642858Y-139232200D02*
X321928572Y-139375057D01*
X321928572Y-139375057D02*
X322357144Y-139375057D01*
X322357144Y-139375057D02*
X322642858Y-139232200D01*
X321357144Y-138232200D02*
X321642858Y-138375057D01*
X321642858Y-138375057D02*
X322214286Y-138375057D01*
X322214286Y-138375057D02*
X322500001Y-138232200D01*
X322500001Y-138232200D02*
X322642858Y-138089342D01*
X322642858Y-138089342D02*
X322785715Y-137803628D01*
X322785715Y-137803628D02*
X322785715Y-136946485D01*
X322785715Y-136946485D02*
X322642858Y-136660771D01*
X322642858Y-136660771D02*
X322500001Y-136517914D01*
X322500001Y-136517914D02*
X322214286Y-136375057D01*
X322214286Y-136375057D02*
X321642858Y-136375057D01*
X321642858Y-136375057D02*
X321357144Y-136517914D01*
X319928572Y-138375057D02*
X319928572Y-136375057D01*
X319928572Y-135375057D02*
X320071429Y-135517914D01*
X320071429Y-135517914D02*
X319928572Y-135660771D01*
X319928572Y-135660771D02*
X319785715Y-135517914D01*
X319785715Y-135517914D02*
X319928572Y-135375057D01*
X319928572Y-135375057D02*
X319928572Y-135660771D01*
X318928572Y-136375057D02*
X317785715Y-136375057D01*
X318500001Y-135375057D02*
X318500001Y-137946485D01*
X318500001Y-137946485D02*
X318357144Y-138232200D01*
X318357144Y-138232200D02*
X318071429Y-138375057D01*
X318071429Y-138375057D02*
X317785715Y-138375057D01*
X316785715Y-138375057D02*
X316785715Y-135375057D01*
X315500001Y-138375057D02*
X315500001Y-136803628D01*
X315500001Y-136803628D02*
X315642858Y-136517914D01*
X315642858Y-136517914D02*
X315928572Y-136375057D01*
X315928572Y-136375057D02*
X316357143Y-136375057D01*
X316357143Y-136375057D02*
X316642858Y-136517914D01*
X316642858Y-136517914D02*
X316785715Y-136660771D01*
X312785715Y-136375057D02*
X312785715Y-138375057D01*
X314071429Y-136375057D02*
X314071429Y-137946485D01*
X314071429Y-137946485D02*
X313928572Y-138232200D01*
X313928572Y-138232200D02*
X313642857Y-138375057D01*
X313642857Y-138375057D02*
X313214286Y-138375057D01*
X313214286Y-138375057D02*
X312928572Y-138232200D01*
X312928572Y-138232200D02*
X312785715Y-138089342D01*
X311357143Y-138375057D02*
X311357143Y-135375057D01*
X311357143Y-136517914D02*
X311071429Y-136375057D01*
X311071429Y-136375057D02*
X310500000Y-136375057D01*
X310500000Y-136375057D02*
X310214286Y-136517914D01*
X310214286Y-136517914D02*
X310071429Y-136660771D01*
X310071429Y-136660771D02*
X309928571Y-136946485D01*
X309928571Y-136946485D02*
X309928571Y-137803628D01*
X309928571Y-137803628D02*
X310071429Y-138089342D01*
X310071429Y-138089342D02*
X310214286Y-138232200D01*
X310214286Y-138232200D02*
X310500000Y-138375057D01*
X310500000Y-138375057D02*
X311071429Y-138375057D01*
X311071429Y-138375057D02*
X311357143Y-138232200D01*
X308642857Y-138089342D02*
X308500000Y-138232200D01*
X308500000Y-138232200D02*
X308642857Y-138375057D01*
X308642857Y-138375057D02*
X308785714Y-138232200D01*
X308785714Y-138232200D02*
X308642857Y-138089342D01*
X308642857Y-138089342D02*
X308642857Y-138375057D01*
X305928572Y-138232200D02*
X306214286Y-138375057D01*
X306214286Y-138375057D02*
X306785714Y-138375057D01*
X306785714Y-138375057D02*
X307071429Y-138232200D01*
X307071429Y-138232200D02*
X307214286Y-138089342D01*
X307214286Y-138089342D02*
X307357143Y-137803628D01*
X307357143Y-137803628D02*
X307357143Y-136946485D01*
X307357143Y-136946485D02*
X307214286Y-136660771D01*
X307214286Y-136660771D02*
X307071429Y-136517914D01*
X307071429Y-136517914D02*
X306785714Y-136375057D01*
X306785714Y-136375057D02*
X306214286Y-136375057D01*
X306214286Y-136375057D02*
X305928572Y-136517914D01*
X304214285Y-138375057D02*
X304500000Y-138232200D01*
X304500000Y-138232200D02*
X304642857Y-138089342D01*
X304642857Y-138089342D02*
X304785714Y-137803628D01*
X304785714Y-137803628D02*
X304785714Y-136946485D01*
X304785714Y-136946485D02*
X304642857Y-136660771D01*
X304642857Y-136660771D02*
X304500000Y-136517914D01*
X304500000Y-136517914D02*
X304214285Y-136375057D01*
X304214285Y-136375057D02*
X303785714Y-136375057D01*
X303785714Y-136375057D02*
X303500000Y-136517914D01*
X303500000Y-136517914D02*
X303357143Y-136660771D01*
X303357143Y-136660771D02*
X303214285Y-136946485D01*
X303214285Y-136946485D02*
X303214285Y-137803628D01*
X303214285Y-137803628D02*
X303357143Y-138089342D01*
X303357143Y-138089342D02*
X303500000Y-138232200D01*
X303500000Y-138232200D02*
X303785714Y-138375057D01*
X303785714Y-138375057D02*
X304214285Y-138375057D01*
X301928571Y-138375057D02*
X301928571Y-136375057D01*
X301928571Y-136660771D02*
X301785714Y-136517914D01*
X301785714Y-136517914D02*
X301499999Y-136375057D01*
X301499999Y-136375057D02*
X301071428Y-136375057D01*
X301071428Y-136375057D02*
X300785714Y-136517914D01*
X300785714Y-136517914D02*
X300642857Y-136803628D01*
X300642857Y-136803628D02*
X300642857Y-138375057D01*
X300642857Y-136803628D02*
X300499999Y-136517914D01*
X300499999Y-136517914D02*
X300214285Y-136375057D01*
X300214285Y-136375057D02*
X299785714Y-136375057D01*
X299785714Y-136375057D02*
X299499999Y-136517914D01*
X299499999Y-136517914D02*
X299357142Y-136803628D01*
X299357142Y-136803628D02*
X299357142Y-138375057D01*
X295785714Y-135232200D02*
X298357142Y-139089342D01*
X293500000Y-138232200D02*
X293785714Y-138375057D01*
X293785714Y-138375057D02*
X294357142Y-138375057D01*
X294357142Y-138375057D02*
X294642857Y-138232200D01*
X294642857Y-138232200D02*
X294785714Y-138089342D01*
X294785714Y-138089342D02*
X294928571Y-137803628D01*
X294928571Y-137803628D02*
X294928571Y-136946485D01*
X294928571Y-136946485D02*
X294785714Y-136660771D01*
X294785714Y-136660771D02*
X294642857Y-136517914D01*
X294642857Y-136517914D02*
X294357142Y-136375057D01*
X294357142Y-136375057D02*
X293785714Y-136375057D01*
X293785714Y-136375057D02*
X293500000Y-136517914D01*
X292499999Y-136375057D02*
X291785713Y-138375057D01*
X291785713Y-138375057D02*
X291071428Y-136375057D01*
X288785714Y-138232200D02*
X289071428Y-138375057D01*
X289071428Y-138375057D02*
X289642857Y-138375057D01*
X289642857Y-138375057D02*
X289928571Y-138232200D01*
X289928571Y-138232200D02*
X290071428Y-137946485D01*
X290071428Y-137946485D02*
X290071428Y-136803628D01*
X290071428Y-136803628D02*
X289928571Y-136517914D01*
X289928571Y-136517914D02*
X289642857Y-136375057D01*
X289642857Y-136375057D02*
X289071428Y-136375057D01*
X289071428Y-136375057D02*
X288785714Y-136517914D01*
X288785714Y-136517914D02*
X288642857Y-136803628D01*
X288642857Y-136803628D02*
X288642857Y-137089342D01*
X288642857Y-137089342D02*
X290071428Y-137375057D01*
X286928570Y-138375057D02*
X287214285Y-138232200D01*
X287214285Y-138232200D02*
X287357142Y-137946485D01*
X287357142Y-137946485D02*
X287357142Y-135375057D01*
X284499999Y-138375057D02*
X284499999Y-135375057D01*
X284499999Y-138232200D02*
X284785713Y-138375057D01*
X284785713Y-138375057D02*
X285357141Y-138375057D01*
X285357141Y-138375057D02*
X285642856Y-138232200D01*
X285642856Y-138232200D02*
X285785713Y-138089342D01*
X285785713Y-138089342D02*
X285928570Y-137803628D01*
X285928570Y-137803628D02*
X285928570Y-136946485D01*
X285928570Y-136946485D02*
X285785713Y-136660771D01*
X285785713Y-136660771D02*
X285642856Y-136517914D01*
X285642856Y-136517914D02*
X285357141Y-136375057D01*
X285357141Y-136375057D02*
X284785713Y-136375057D01*
X284785713Y-136375057D02*
X284499999Y-136517914D01*
X283357141Y-136375057D02*
X282642855Y-138375057D01*
X281928570Y-136375057D02*
X282642855Y-138375057D01*
X282642855Y-138375057D02*
X282928570Y-139089342D01*
X282928570Y-139089342D02*
X283071427Y-139232200D01*
X283071427Y-139232200D02*
X283357141Y-139375057D01*
X278642856Y-135232200D02*
X281214284Y-139089342D01*
X278071427Y-136375057D02*
X276928570Y-136375057D01*
X277642856Y-135375057D02*
X277642856Y-137946485D01*
X277642856Y-137946485D02*
X277499999Y-138232200D01*
X277499999Y-138232200D02*
X277214284Y-138375057D01*
X277214284Y-138375057D02*
X276928570Y-138375057D01*
X275928570Y-138375057D02*
X275928570Y-136375057D01*
X275928570Y-136946485D02*
X275785713Y-136660771D01*
X275785713Y-136660771D02*
X275642856Y-136517914D01*
X275642856Y-136517914D02*
X275357141Y-136375057D01*
X275357141Y-136375057D02*
X275071427Y-136375057D01*
X274071427Y-138375057D02*
X274071427Y-136375057D01*
X274071427Y-135375057D02*
X274214284Y-135517914D01*
X274214284Y-135517914D02*
X274071427Y-135660771D01*
X274071427Y-135660771D02*
X273928570Y-135517914D01*
X273928570Y-135517914D02*
X274071427Y-135375057D01*
X274071427Y-135375057D02*
X274071427Y-135660771D01*
X272642856Y-136375057D02*
X272642856Y-139375057D01*
X272642856Y-136517914D02*
X272357142Y-136375057D01*
X272357142Y-136375057D02*
X271785713Y-136375057D01*
X271785713Y-136375057D02*
X271499999Y-136517914D01*
X271499999Y-136517914D02*
X271357142Y-136660771D01*
X271357142Y-136660771D02*
X271214284Y-136946485D01*
X271214284Y-136946485D02*
X271214284Y-137803628D01*
X271214284Y-137803628D02*
X271357142Y-138089342D01*
X271357142Y-138089342D02*
X271499999Y-138232200D01*
X271499999Y-138232200D02*
X271785713Y-138375057D01*
X271785713Y-138375057D02*
X272357142Y-138375057D01*
X272357142Y-138375057D02*
X272642856Y-138232200D01*
X269499998Y-138375057D02*
X269785713Y-138232200D01*
X269785713Y-138232200D02*
X269928570Y-137946485D01*
X269928570Y-137946485D02*
X269928570Y-135375057D01*
X267214284Y-138232200D02*
X267499998Y-138375057D01*
X267499998Y-138375057D02*
X268071427Y-138375057D01*
X268071427Y-138375057D02*
X268357141Y-138232200D01*
X268357141Y-138232200D02*
X268499998Y-137946485D01*
X268499998Y-137946485D02*
X268499998Y-136803628D01*
X268499998Y-136803628D02*
X268357141Y-136517914D01*
X268357141Y-136517914D02*
X268071427Y-136375057D01*
X268071427Y-136375057D02*
X267499998Y-136375057D01*
X267499998Y-136375057D02*
X267214284Y-136517914D01*
X267214284Y-136517914D02*
X267071427Y-136803628D01*
X267071427Y-136803628D02*
X267071427Y-137089342D01*
X267071427Y-137089342D02*
X268499998Y-137375057D01*
X265785712Y-136375057D02*
X265785712Y-138946485D01*
X265785712Y-138946485D02*
X265928569Y-139232200D01*
X265928569Y-139232200D02*
X266214283Y-139375057D01*
X266214283Y-139375057D02*
X266357140Y-139375057D01*
X265785712Y-135375057D02*
X265928569Y-135517914D01*
X265928569Y-135517914D02*
X265785712Y-135660771D01*
X265785712Y-135660771D02*
X265642855Y-135517914D01*
X265642855Y-135517914D02*
X265785712Y-135375057D01*
X265785712Y-135375057D02*
X265785712Y-135660771D01*
X263071427Y-136375057D02*
X263071427Y-138375057D01*
X264357141Y-136375057D02*
X264357141Y-137946485D01*
X264357141Y-137946485D02*
X264214284Y-138232200D01*
X264214284Y-138232200D02*
X263928569Y-138375057D01*
X263928569Y-138375057D02*
X263499998Y-138375057D01*
X263499998Y-138375057D02*
X263214284Y-138232200D01*
X263214284Y-138232200D02*
X263071427Y-138089342D01*
X261642855Y-138375057D02*
X261642855Y-136375057D01*
X261642855Y-136660771D02*
X261499998Y-136517914D01*
X261499998Y-136517914D02*
X261214283Y-136375057D01*
X261214283Y-136375057D02*
X260785712Y-136375057D01*
X260785712Y-136375057D02*
X260499998Y-136517914D01*
X260499998Y-136517914D02*
X260357141Y-136803628D01*
X260357141Y-136803628D02*
X260357141Y-138375057D01*
X260357141Y-136803628D02*
X260214283Y-136517914D01*
X260214283Y-136517914D02*
X259928569Y-136375057D01*
X259928569Y-136375057D02*
X259499998Y-136375057D01*
X259499998Y-136375057D02*
X259214283Y-136517914D01*
X259214283Y-136517914D02*
X259071426Y-136803628D01*
X259071426Y-136803628D02*
X259071426Y-138375057D01*
X257642855Y-136375057D02*
X257642855Y-139375057D01*
X257642855Y-136517914D02*
X257357141Y-136375057D01*
X257357141Y-136375057D02*
X256785712Y-136375057D01*
X256785712Y-136375057D02*
X256499998Y-136517914D01*
X256499998Y-136517914D02*
X256357141Y-136660771D01*
X256357141Y-136660771D02*
X256214283Y-136946485D01*
X256214283Y-136946485D02*
X256214283Y-137803628D01*
X256214283Y-137803628D02*
X256357141Y-138089342D01*
X256357141Y-138089342D02*
X256499998Y-138232200D01*
X256499998Y-138232200D02*
X256785712Y-138375057D01*
X256785712Y-138375057D02*
X257357141Y-138375057D01*
X257357141Y-138375057D02*
X257642855Y-138232200D01*
X196380774Y-48359555D02*
X196714107Y-47883364D01*
X196952202Y-48359555D02*
X196952202Y-47359555D01*
X196952202Y-47359555D02*
X196571250Y-47359555D01*
X196571250Y-47359555D02*
X196476012Y-47407174D01*
X196476012Y-47407174D02*
X196428393Y-47454793D01*
X196428393Y-47454793D02*
X196380774Y-47550031D01*
X196380774Y-47550031D02*
X196380774Y-47692888D01*
X196380774Y-47692888D02*
X196428393Y-47788126D01*
X196428393Y-47788126D02*
X196476012Y-47835745D01*
X196476012Y-47835745D02*
X196571250Y-47883364D01*
X196571250Y-47883364D02*
X196952202Y-47883364D01*
X195952202Y-48359555D02*
X195952202Y-47359555D01*
X195952202Y-47359555D02*
X195571250Y-47359555D01*
X195571250Y-47359555D02*
X195476012Y-47407174D01*
X195476012Y-47407174D02*
X195428393Y-47454793D01*
X195428393Y-47454793D02*
X195380774Y-47550031D01*
X195380774Y-47550031D02*
X195380774Y-47692888D01*
X195380774Y-47692888D02*
X195428393Y-47788126D01*
X195428393Y-47788126D02*
X195476012Y-47835745D01*
X195476012Y-47835745D02*
X195571250Y-47883364D01*
X195571250Y-47883364D02*
X195952202Y-47883364D01*
X194999821Y-47454793D02*
X194952202Y-47407174D01*
X194952202Y-47407174D02*
X194856964Y-47359555D01*
X194856964Y-47359555D02*
X194618869Y-47359555D01*
X194618869Y-47359555D02*
X194523631Y-47407174D01*
X194523631Y-47407174D02*
X194476012Y-47454793D01*
X194476012Y-47454793D02*
X194428393Y-47550031D01*
X194428393Y-47550031D02*
X194428393Y-47645269D01*
X194428393Y-47645269D02*
X194476012Y-47788126D01*
X194476012Y-47788126D02*
X195047440Y-48359555D01*
X195047440Y-48359555D02*
X194428393Y-48359555D01*
X193809345Y-47359555D02*
X193714107Y-47359555D01*
X193714107Y-47359555D02*
X193618869Y-47407174D01*
X193618869Y-47407174D02*
X193571250Y-47454793D01*
X193571250Y-47454793D02*
X193523631Y-47550031D01*
X193523631Y-47550031D02*
X193476012Y-47740507D01*
X193476012Y-47740507D02*
X193476012Y-47978602D01*
X193476012Y-47978602D02*
X193523631Y-48169078D01*
X193523631Y-48169078D02*
X193571250Y-48264316D01*
X193571250Y-48264316D02*
X193618869Y-48311936D01*
X193618869Y-48311936D02*
X193714107Y-48359555D01*
X193714107Y-48359555D02*
X193809345Y-48359555D01*
X193809345Y-48359555D02*
X193904583Y-48311936D01*
X193904583Y-48311936D02*
X193952202Y-48264316D01*
X193952202Y-48264316D02*
X193999821Y-48169078D01*
X193999821Y-48169078D02*
X194047440Y-47978602D01*
X194047440Y-47978602D02*
X194047440Y-47740507D01*
X194047440Y-47740507D02*
X193999821Y-47550031D01*
X193999821Y-47550031D02*
X193952202Y-47454793D01*
X193952202Y-47454793D02*
X193904583Y-47407174D01*
X193904583Y-47407174D02*
X193809345Y-47359555D01*
X192618869Y-47692888D02*
X192618869Y-48359555D01*
X192856964Y-47311936D02*
X193095059Y-48026221D01*
X193095059Y-48026221D02*
X192476012Y-48026221D01*
X191904583Y-47359555D02*
X191809345Y-47359555D01*
X191809345Y-47359555D02*
X191714107Y-47407174D01*
X191714107Y-47407174D02*
X191666488Y-47454793D01*
X191666488Y-47454793D02*
X191618869Y-47550031D01*
X191618869Y-47550031D02*
X191571250Y-47740507D01*
X191571250Y-47740507D02*
X191571250Y-47978602D01*
X191571250Y-47978602D02*
X191618869Y-48169078D01*
X191618869Y-48169078D02*
X191666488Y-48264316D01*
X191666488Y-48264316D02*
X191714107Y-48311936D01*
X191714107Y-48311936D02*
X191809345Y-48359555D01*
X191809345Y-48359555D02*
X191904583Y-48359555D01*
X191904583Y-48359555D02*
X191999821Y-48311936D01*
X191999821Y-48311936D02*
X192047440Y-48264316D01*
X192047440Y-48264316D02*
X192095059Y-48169078D01*
X192095059Y-48169078D02*
X192142678Y-47978602D01*
X192142678Y-47978602D02*
X192142678Y-47740507D01*
X192142678Y-47740507D02*
X192095059Y-47550031D01*
X192095059Y-47550031D02*
X192047440Y-47454793D01*
X192047440Y-47454793D02*
X191999821Y-47407174D01*
X191999821Y-47407174D02*
X191904583Y-47359555D01*
X191142678Y-47978602D02*
X190380774Y-47978602D01*
X189999821Y-47359555D02*
X189333155Y-47359555D01*
X189333155Y-47359555D02*
X189999821Y-48359555D01*
X189999821Y-48359555D02*
X189333155Y-48359555D01*
X188571250Y-48311936D02*
X188666488Y-48359555D01*
X188666488Y-48359555D02*
X188856964Y-48359555D01*
X188856964Y-48359555D02*
X188952202Y-48311936D01*
X188952202Y-48311936D02*
X188999821Y-48216697D01*
X188999821Y-48216697D02*
X188999821Y-47835745D01*
X188999821Y-47835745D02*
X188952202Y-47740507D01*
X188952202Y-47740507D02*
X188856964Y-47692888D01*
X188856964Y-47692888D02*
X188666488Y-47692888D01*
X188666488Y-47692888D02*
X188571250Y-47740507D01*
X188571250Y-47740507D02*
X188523631Y-47835745D01*
X188523631Y-47835745D02*
X188523631Y-47930983D01*
X188523631Y-47930983D02*
X188999821Y-48026221D01*
X188095059Y-48359555D02*
X188095059Y-47692888D01*
X188095059Y-47883364D02*
X188047440Y-47788126D01*
X188047440Y-47788126D02*
X187999821Y-47740507D01*
X187999821Y-47740507D02*
X187904583Y-47692888D01*
X187904583Y-47692888D02*
X187809345Y-47692888D01*
X187333154Y-48359555D02*
X187428392Y-48311936D01*
X187428392Y-48311936D02*
X187476011Y-48264316D01*
X187476011Y-48264316D02*
X187523630Y-48169078D01*
X187523630Y-48169078D02*
X187523630Y-47883364D01*
X187523630Y-47883364D02*
X187476011Y-47788126D01*
X187476011Y-47788126D02*
X187428392Y-47740507D01*
X187428392Y-47740507D02*
X187333154Y-47692888D01*
X187333154Y-47692888D02*
X187190297Y-47692888D01*
X187190297Y-47692888D02*
X187095059Y-47740507D01*
X187095059Y-47740507D02*
X187047440Y-47788126D01*
X187047440Y-47788126D02*
X186999821Y-47883364D01*
X186999821Y-47883364D02*
X186999821Y-48169078D01*
X186999821Y-48169078D02*
X187047440Y-48264316D01*
X187047440Y-48264316D02*
X187095059Y-48311936D01*
X187095059Y-48311936D02*
X187190297Y-48359555D01*
X187190297Y-48359555D02*
X187333154Y-48359555D01*
X285904935Y-62768063D02*
X285793797Y-62869670D01*
X285793797Y-62869670D02*
X285576286Y-62966512D01*
X285576286Y-62966512D02*
X285469913Y-62961747D01*
X285469913Y-62961747D02*
X285407043Y-62937613D01*
X285407043Y-62937613D02*
X285324804Y-62869977D01*
X285324804Y-62869977D02*
X285286067Y-62782973D01*
X285286067Y-62782973D02*
X285290832Y-62676600D01*
X285290832Y-62676600D02*
X285314966Y-62613729D01*
X285314966Y-62613729D02*
X285382602Y-62531490D01*
X285382602Y-62531490D02*
X285537242Y-62410515D01*
X285537242Y-62410515D02*
X285604878Y-62328276D01*
X285604878Y-62328276D02*
X285629012Y-62265405D01*
X285629012Y-62265405D02*
X285633777Y-62159032D01*
X285633777Y-62159032D02*
X285595040Y-62072028D01*
X285595040Y-62072028D02*
X285512801Y-62004392D01*
X285512801Y-62004392D02*
X285449931Y-61980258D01*
X285449931Y-61980258D02*
X285343558Y-61975493D01*
X285343558Y-61975493D02*
X285126047Y-62072335D01*
X285126047Y-62072335D02*
X285014909Y-62173942D01*
X284691026Y-62266019D02*
X284880251Y-63276407D01*
X284880251Y-63276407D02*
X284415717Y-62701348D01*
X284415717Y-62701348D02*
X284532234Y-63431354D01*
X284532234Y-63431354D02*
X283907987Y-62614651D01*
X283488182Y-63896196D02*
X284010208Y-63663775D01*
X283749195Y-63779985D02*
X283342459Y-62866440D01*
X283342459Y-62866440D02*
X283487568Y-62958209D01*
X283487568Y-62958209D02*
X283613309Y-63006477D01*
X283613309Y-63006477D02*
X283719682Y-63011242D01*
X282733735Y-63606591D02*
X282801371Y-63524352D01*
X282801371Y-63524352D02*
X282825505Y-63461481D01*
X282825505Y-63461481D02*
X282830270Y-63355108D01*
X282830270Y-63355108D02*
X282810902Y-63311606D01*
X282810902Y-63311606D02*
X282728663Y-63243970D01*
X282728663Y-63243970D02*
X282665792Y-63219837D01*
X282665792Y-63219837D02*
X282559420Y-63215071D01*
X282559420Y-63215071D02*
X282385411Y-63292545D01*
X282385411Y-63292545D02*
X282317775Y-63374784D01*
X282317775Y-63374784D02*
X282293641Y-63437654D01*
X282293641Y-63437654D02*
X282288876Y-63544027D01*
X282288876Y-63544027D02*
X282308244Y-63587529D01*
X282308244Y-63587529D02*
X282390483Y-63655165D01*
X282390483Y-63655165D02*
X282453354Y-63679299D01*
X282453354Y-63679299D02*
X282559727Y-63684064D01*
X282559727Y-63684064D02*
X282733735Y-63606591D01*
X282733735Y-63606591D02*
X282840108Y-63611356D01*
X282840108Y-63611356D02*
X282902979Y-63635490D01*
X282902979Y-63635490D02*
X282985218Y-63703126D01*
X282985218Y-63703126D02*
X283062691Y-63877134D01*
X283062691Y-63877134D02*
X283057926Y-63983507D01*
X283057926Y-63983507D02*
X283033792Y-64046378D01*
X283033792Y-64046378D02*
X282966156Y-64128617D01*
X282966156Y-64128617D02*
X282792148Y-64206090D01*
X282792148Y-64206090D02*
X282685775Y-64201325D01*
X282685775Y-64201325D02*
X282622904Y-64177191D01*
X282622904Y-64177191D02*
X282540665Y-64109555D01*
X282540665Y-64109555D02*
X282463192Y-63935547D01*
X282463192Y-63935547D02*
X282467957Y-63829174D01*
X282467957Y-63829174D02*
X282492091Y-63766303D01*
X282492091Y-63766303D02*
X282559727Y-63684064D01*
X255824476Y-117964739D02*
X255693498Y-117890439D01*
X255693498Y-117890439D02*
X255534181Y-117713499D01*
X255534181Y-117713499D02*
X255505842Y-117610860D01*
X255505842Y-117610860D02*
X255509367Y-117543609D01*
X255509367Y-117543609D02*
X255548279Y-117444494D01*
X255548279Y-117444494D02*
X255619055Y-117380768D01*
X255619055Y-117380768D02*
X255721694Y-117352429D01*
X255721694Y-117352429D02*
X255788945Y-117355953D01*
X255788945Y-117355953D02*
X255888059Y-117394866D01*
X255888059Y-117394866D02*
X256050901Y-117504554D01*
X256050901Y-117504554D02*
X256150015Y-117543466D01*
X256150015Y-117543466D02*
X256217267Y-117546991D01*
X256217267Y-117546991D02*
X256319906Y-117518652D01*
X256319906Y-117518652D02*
X256390681Y-117454925D01*
X256390681Y-117454925D02*
X256429594Y-117355810D01*
X256429594Y-117355810D02*
X256433118Y-117288559D01*
X256433118Y-117288559D02*
X256404779Y-117185920D01*
X256404779Y-117185920D02*
X256245462Y-117008981D01*
X256245462Y-117008981D02*
X256114484Y-116934681D01*
X255926829Y-116655102D02*
X255024367Y-117147294D01*
X255024367Y-117147294D02*
X255427731Y-116527792D01*
X255427731Y-116527792D02*
X254769460Y-116864191D01*
X254769460Y-116864191D02*
X255353288Y-116018121D01*
X254004740Y-116014883D02*
X254387100Y-116439537D01*
X254195920Y-116227210D02*
X254939065Y-115558079D01*
X254939065Y-115558079D02*
X254896628Y-115724445D01*
X254896628Y-115724445D02*
X254889579Y-115858947D01*
X254889579Y-115858947D02*
X254917918Y-115961586D01*
X254333661Y-114885710D02*
X254269934Y-114814934D01*
X254269934Y-114814934D02*
X254170819Y-114776022D01*
X254170819Y-114776022D02*
X254103568Y-114772497D01*
X254103568Y-114772497D02*
X254000929Y-114800836D01*
X254000929Y-114800836D02*
X253827514Y-114892902D01*
X253827514Y-114892902D02*
X253650575Y-115052219D01*
X253650575Y-115052219D02*
X253540887Y-115215060D01*
X253540887Y-115215060D02*
X253501975Y-115314175D01*
X253501975Y-115314175D02*
X253498450Y-115381426D01*
X253498450Y-115381426D02*
X253526789Y-115484065D01*
X253526789Y-115484065D02*
X253590516Y-115554841D01*
X253590516Y-115554841D02*
X253689630Y-115593753D01*
X253689630Y-115593753D02*
X253756882Y-115597277D01*
X253756882Y-115597277D02*
X253859521Y-115568939D01*
X253859521Y-115568939D02*
X254032935Y-115476873D01*
X254032935Y-115476873D02*
X254209875Y-115317556D01*
X254209875Y-115317556D02*
X254319563Y-115154715D01*
X254319563Y-115154715D02*
X254358475Y-115055600D01*
X254358475Y-115055600D02*
X254362000Y-114988349D01*
X254362000Y-114988349D02*
X254333661Y-114885710D01*
X262509952Y-57058272D02*
X262398814Y-57159879D01*
X262398814Y-57159879D02*
X262181303Y-57256721D01*
X262181303Y-57256721D02*
X262074930Y-57251956D01*
X262074930Y-57251956D02*
X262012060Y-57227822D01*
X262012060Y-57227822D02*
X261929821Y-57160186D01*
X261929821Y-57160186D02*
X261891084Y-57073182D01*
X261891084Y-57073182D02*
X261895849Y-56966809D01*
X261895849Y-56966809D02*
X261919983Y-56903938D01*
X261919983Y-56903938D02*
X261987619Y-56821699D01*
X261987619Y-56821699D02*
X262142259Y-56700724D01*
X262142259Y-56700724D02*
X262209895Y-56618485D01*
X262209895Y-56618485D02*
X262234029Y-56555614D01*
X262234029Y-56555614D02*
X262238794Y-56449241D01*
X262238794Y-56449241D02*
X262200057Y-56362237D01*
X262200057Y-56362237D02*
X262117818Y-56294601D01*
X262117818Y-56294601D02*
X262054948Y-56270467D01*
X262054948Y-56270467D02*
X261948575Y-56265702D01*
X261948575Y-56265702D02*
X261731064Y-56362544D01*
X261731064Y-56362544D02*
X261619926Y-56464151D01*
X261296043Y-56556228D02*
X261485268Y-57566616D01*
X261485268Y-57566616D02*
X261020734Y-56991557D01*
X261020734Y-56991557D02*
X261137251Y-57721563D01*
X261137251Y-57721563D02*
X260513004Y-56904860D01*
X260093199Y-58186405D02*
X260615225Y-57953984D01*
X260354212Y-58070194D02*
X259947476Y-57156649D01*
X259947476Y-57156649D02*
X260092585Y-57248418D01*
X260092585Y-57248418D02*
X260218326Y-57296686D01*
X260218326Y-57296686D02*
X260324699Y-57301451D01*
X259377182Y-57514811D02*
X259314311Y-57490677D01*
X259314311Y-57490677D02*
X259207939Y-57485912D01*
X259207939Y-57485912D02*
X258990428Y-57582754D01*
X258990428Y-57582754D02*
X258922792Y-57664993D01*
X258922792Y-57664993D02*
X258898658Y-57727863D01*
X258898658Y-57727863D02*
X258893893Y-57834236D01*
X258893893Y-57834236D02*
X258932630Y-57921241D01*
X258932630Y-57921241D02*
X259034237Y-58032379D01*
X259034237Y-58032379D02*
X259788684Y-58321984D01*
X259788684Y-58321984D02*
X259223156Y-58573773D01*
X123587200Y-123060590D02*
X123526998Y-123198617D01*
X123526998Y-123198617D02*
X123367681Y-123375556D01*
X123367681Y-123375556D02*
X123268566Y-123414469D01*
X123268566Y-123414469D02*
X123201315Y-123417993D01*
X123201315Y-123417993D02*
X123098676Y-123389654D01*
X123098676Y-123389654D02*
X123027900Y-123325927D01*
X123027900Y-123325927D02*
X122988988Y-123226813D01*
X122988988Y-123226813D02*
X122985463Y-123159562D01*
X122985463Y-123159562D02*
X123013802Y-123056923D01*
X123013802Y-123056923D02*
X123105868Y-122883508D01*
X123105868Y-122883508D02*
X123134207Y-122780869D01*
X123134207Y-122780869D02*
X123130682Y-122713618D01*
X123130682Y-122713618D02*
X123091770Y-122614503D01*
X123091770Y-122614503D02*
X123020994Y-122550776D01*
X123020994Y-122550776D02*
X122918355Y-122522437D01*
X122918355Y-122522437D02*
X122851104Y-122525962D01*
X122851104Y-122525962D02*
X122751989Y-122564874D01*
X122751989Y-122564874D02*
X122592673Y-122741814D01*
X122592673Y-122741814D02*
X122532470Y-122879840D01*
X122274039Y-123095692D02*
X122857867Y-123941762D01*
X122857867Y-123941762D02*
X122199596Y-123605363D01*
X122199596Y-123605363D02*
X122602960Y-124224865D01*
X122602960Y-124224865D02*
X121700498Y-123732673D01*
X122156873Y-124720294D02*
X122029420Y-124861846D01*
X122029420Y-124861846D02*
X121930305Y-124900758D01*
X121930305Y-124900758D02*
X121863054Y-124904283D01*
X121863054Y-124904283D02*
X121693164Y-124879468D01*
X121693164Y-124879468D02*
X121519749Y-124787403D01*
X121519749Y-124787403D02*
X121236646Y-124532496D01*
X121236646Y-124532496D02*
X121197734Y-124433381D01*
X121197734Y-124433381D02*
X121194209Y-124366130D01*
X121194209Y-124366130D02*
X121222548Y-124263491D01*
X121222548Y-124263491D02*
X121350002Y-124121940D01*
X121350002Y-124121940D02*
X121449116Y-124083027D01*
X121449116Y-124083027D02*
X121516367Y-124079503D01*
X121516367Y-124079503D02*
X121619006Y-124107842D01*
X121619006Y-124107842D02*
X121795946Y-124267158D01*
X121795946Y-124267158D02*
X121834858Y-124366273D01*
X121834858Y-124366273D02*
X121838382Y-124433524D01*
X121838382Y-124433524D02*
X121810044Y-124536163D01*
X121810044Y-124536163D02*
X121682590Y-124677715D01*
X121682590Y-124677715D02*
X121583476Y-124716627D01*
X121583476Y-124716627D02*
X121516224Y-124720151D01*
X121516224Y-124720151D02*
X121413585Y-124691813D01*
X325105705Y-57142028D02*
X324994567Y-57243635D01*
X324994567Y-57243635D02*
X324777056Y-57340477D01*
X324777056Y-57340477D02*
X324670683Y-57335712D01*
X324670683Y-57335712D02*
X324607813Y-57311578D01*
X324607813Y-57311578D02*
X324525574Y-57243942D01*
X324525574Y-57243942D02*
X324486837Y-57156938D01*
X324486837Y-57156938D02*
X324491602Y-57050565D01*
X324491602Y-57050565D02*
X324515736Y-56987694D01*
X324515736Y-56987694D02*
X324583372Y-56905455D01*
X324583372Y-56905455D02*
X324738012Y-56784480D01*
X324738012Y-56784480D02*
X324805648Y-56702241D01*
X324805648Y-56702241D02*
X324829782Y-56639370D01*
X324829782Y-56639370D02*
X324834547Y-56532997D01*
X324834547Y-56532997D02*
X324795810Y-56445993D01*
X324795810Y-56445993D02*
X324713571Y-56378357D01*
X324713571Y-56378357D02*
X324650701Y-56354223D01*
X324650701Y-56354223D02*
X324544328Y-56349458D01*
X324544328Y-56349458D02*
X324326817Y-56446300D01*
X324326817Y-56446300D02*
X324215679Y-56547907D01*
X323891796Y-56639984D02*
X324081021Y-57650372D01*
X324081021Y-57650372D02*
X323616487Y-57075313D01*
X323616487Y-57075313D02*
X323733004Y-57805319D01*
X323733004Y-57805319D02*
X323108757Y-56988616D01*
X322842978Y-57211199D02*
X322780108Y-57187065D01*
X322780108Y-57187065D02*
X322673735Y-57182300D01*
X322673735Y-57182300D02*
X322456224Y-57279142D01*
X322456224Y-57279142D02*
X322388588Y-57361381D01*
X322388588Y-57361381D02*
X322364455Y-57424251D01*
X322364455Y-57424251D02*
X322359689Y-57530624D01*
X322359689Y-57530624D02*
X322398426Y-57617628D01*
X322398426Y-57617628D02*
X322500033Y-57728766D01*
X322500033Y-57728766D02*
X323254480Y-58018371D01*
X323254480Y-58018371D02*
X322688952Y-58270161D01*
X321716687Y-57608405D02*
X321629683Y-57647141D01*
X321629683Y-57647141D02*
X321562047Y-57729380D01*
X321562047Y-57729380D02*
X321537913Y-57792251D01*
X321537913Y-57792251D02*
X321533148Y-57898624D01*
X321533148Y-57898624D02*
X321567120Y-58092001D01*
X321567120Y-58092001D02*
X321663962Y-58309512D01*
X321663962Y-58309512D02*
X321784937Y-58464152D01*
X321784937Y-58464152D02*
X321867176Y-58531788D01*
X321867176Y-58531788D02*
X321930047Y-58555922D01*
X321930047Y-58555922D02*
X322036420Y-58560687D01*
X322036420Y-58560687D02*
X322123424Y-58521950D01*
X322123424Y-58521950D02*
X322191060Y-58439711D01*
X322191060Y-58439711D02*
X322215194Y-58376841D01*
X322215194Y-58376841D02*
X322219959Y-58270468D01*
X322219959Y-58270468D02*
X322185988Y-58077091D01*
X322185988Y-58077091D02*
X322089145Y-57859580D01*
X322089145Y-57859580D02*
X321968170Y-57704940D01*
X321968170Y-57704940D02*
X321885931Y-57637304D01*
X321885931Y-57637304D02*
X321823060Y-57613170D01*
X321823060Y-57613170D02*
X321716687Y-57608405D01*
X76926599Y-46618084D02*
X76776725Y-46603480D01*
X76776725Y-46603480D02*
X76559214Y-46506638D01*
X76559214Y-46506638D02*
X76491578Y-46424399D01*
X76491578Y-46424399D02*
X76467444Y-46361529D01*
X76467444Y-46361529D02*
X76462679Y-46255156D01*
X76462679Y-46255156D02*
X76501416Y-46168152D01*
X76501416Y-46168152D02*
X76583655Y-46100516D01*
X76583655Y-46100516D02*
X76646525Y-46076382D01*
X76646525Y-46076382D02*
X76752898Y-46071617D01*
X76752898Y-46071617D02*
X76946275Y-46105588D01*
X76946275Y-46105588D02*
X77052648Y-46100823D01*
X77052648Y-46100823D02*
X77115518Y-46076689D01*
X77115518Y-46076689D02*
X77197757Y-46009053D01*
X77197757Y-46009053D02*
X77236494Y-45922049D01*
X77236494Y-45922049D02*
X77231729Y-45815676D01*
X77231729Y-45815676D02*
X77207595Y-45752806D01*
X77207595Y-45752806D02*
X77139959Y-45670567D01*
X77139959Y-45670567D02*
X76922448Y-45573725D01*
X76922448Y-45573725D02*
X76772573Y-45559121D01*
X76487427Y-45380040D02*
X75863179Y-46196744D01*
X75863179Y-46196744D02*
X75979697Y-45466738D01*
X75979697Y-45466738D02*
X75515162Y-46041796D01*
X75515162Y-46041796D02*
X75704388Y-45031409D01*
X74964851Y-44702146D02*
X75138860Y-44779620D01*
X75138860Y-44779620D02*
X75206495Y-44861859D01*
X75206495Y-44861859D02*
X75230629Y-44924729D01*
X75230629Y-44924729D02*
X75259528Y-45093973D01*
X75259528Y-45093973D02*
X75225557Y-45287350D01*
X75225557Y-45287350D02*
X75070610Y-45635367D01*
X75070610Y-45635367D02*
X74988371Y-45703003D01*
X74988371Y-45703003D02*
X74925500Y-45727137D01*
X74925500Y-45727137D02*
X74819127Y-45731902D01*
X74819127Y-45731902D02*
X74645119Y-45654428D01*
X74645119Y-45654428D02*
X74577483Y-45572189D01*
X74577483Y-45572189D02*
X74553349Y-45509319D01*
X74553349Y-45509319D02*
X74548584Y-45402946D01*
X74548584Y-45402946D02*
X74645426Y-45185435D01*
X74645426Y-45185435D02*
X74727665Y-45117799D01*
X74727665Y-45117799D02*
X74790535Y-45093666D01*
X74790535Y-45093666D02*
X74896908Y-45088900D01*
X74896908Y-45088900D02*
X75070917Y-45166374D01*
X75070917Y-45166374D02*
X75138553Y-45248613D01*
X75138553Y-45248613D02*
X75162686Y-45311483D01*
X75162686Y-45311483D02*
X75167452Y-45417856D01*
X248558682Y-72559409D02*
X248447544Y-72661016D01*
X248447544Y-72661016D02*
X248230033Y-72757858D01*
X248230033Y-72757858D02*
X248123660Y-72753093D01*
X248123660Y-72753093D02*
X248060790Y-72728959D01*
X248060790Y-72728959D02*
X247978551Y-72661323D01*
X247978551Y-72661323D02*
X247939814Y-72574319D01*
X247939814Y-72574319D02*
X247944579Y-72467946D01*
X247944579Y-72467946D02*
X247968713Y-72405075D01*
X247968713Y-72405075D02*
X248036349Y-72322836D01*
X248036349Y-72322836D02*
X248190989Y-72201861D01*
X248190989Y-72201861D02*
X248258625Y-72119622D01*
X248258625Y-72119622D02*
X248282759Y-72056751D01*
X248282759Y-72056751D02*
X248287524Y-71950378D01*
X248287524Y-71950378D02*
X248248787Y-71863374D01*
X248248787Y-71863374D02*
X248166548Y-71795738D01*
X248166548Y-71795738D02*
X248103678Y-71771604D01*
X248103678Y-71771604D02*
X247997305Y-71766839D01*
X247997305Y-71766839D02*
X247779794Y-71863681D01*
X247779794Y-71863681D02*
X247668656Y-71965288D01*
X247344773Y-72057365D02*
X247533998Y-73067753D01*
X247533998Y-73067753D02*
X247069464Y-72492694D01*
X247069464Y-72492694D02*
X247185981Y-73222700D01*
X247185981Y-73222700D02*
X246561734Y-72405997D01*
X246141929Y-73687542D02*
X246663955Y-73455121D01*
X246402942Y-73571331D02*
X245996206Y-72657786D01*
X245996206Y-72657786D02*
X246141315Y-72749555D01*
X246141315Y-72749555D02*
X246267056Y-72797823D01*
X246267056Y-72797823D02*
X246373429Y-72802588D01*
X244952154Y-73122628D02*
X245126162Y-73045154D01*
X245126162Y-73045154D02*
X245232535Y-73049919D01*
X245232535Y-73049919D02*
X245295406Y-73074053D01*
X245295406Y-73074053D02*
X245440515Y-73165823D01*
X245440515Y-73165823D02*
X245561491Y-73320463D01*
X245561491Y-73320463D02*
X245716438Y-73668480D01*
X245716438Y-73668480D02*
X245711673Y-73774853D01*
X245711673Y-73774853D02*
X245687539Y-73837724D01*
X245687539Y-73837724D02*
X245619903Y-73919963D01*
X245619903Y-73919963D02*
X245445895Y-73997436D01*
X245445895Y-73997436D02*
X245339522Y-73992671D01*
X245339522Y-73992671D02*
X245276651Y-73968537D01*
X245276651Y-73968537D02*
X245194412Y-73900901D01*
X245194412Y-73900901D02*
X245097570Y-73683391D01*
X245097570Y-73683391D02*
X245102335Y-73577018D01*
X245102335Y-73577018D02*
X245126469Y-73514147D01*
X245126469Y-73514147D02*
X245194105Y-73431908D01*
X245194105Y-73431908D02*
X245368114Y-73354435D01*
X245368114Y-73354435D02*
X245474487Y-73359200D01*
X245474487Y-73359200D02*
X245537357Y-73383334D01*
X245537357Y-73383334D02*
X245619596Y-73450970D01*
X297316034Y-41561606D02*
X297204896Y-41663213D01*
X297204896Y-41663213D02*
X296987385Y-41760055D01*
X296987385Y-41760055D02*
X296881012Y-41755290D01*
X296881012Y-41755290D02*
X296818142Y-41731156D01*
X296818142Y-41731156D02*
X296735903Y-41663520D01*
X296735903Y-41663520D02*
X296697166Y-41576516D01*
X296697166Y-41576516D02*
X296701931Y-41470143D01*
X296701931Y-41470143D02*
X296726065Y-41407272D01*
X296726065Y-41407272D02*
X296793701Y-41325033D01*
X296793701Y-41325033D02*
X296948341Y-41204058D01*
X296948341Y-41204058D02*
X297015977Y-41121819D01*
X297015977Y-41121819D02*
X297040111Y-41058948D01*
X297040111Y-41058948D02*
X297044876Y-40952575D01*
X297044876Y-40952575D02*
X297006139Y-40865571D01*
X297006139Y-40865571D02*
X296923900Y-40797935D01*
X296923900Y-40797935D02*
X296861030Y-40773801D01*
X296861030Y-40773801D02*
X296754657Y-40769036D01*
X296754657Y-40769036D02*
X296537146Y-40865878D01*
X296537146Y-40865878D02*
X296426008Y-40967485D01*
X296102125Y-41059562D02*
X296291350Y-42069950D01*
X296291350Y-42069950D02*
X295826816Y-41494891D01*
X295826816Y-41494891D02*
X295943333Y-42224897D01*
X295943333Y-42224897D02*
X295319086Y-41408194D01*
X294899281Y-42689739D02*
X295421307Y-42457318D01*
X295160294Y-42573528D02*
X294753558Y-41659983D01*
X294753558Y-41659983D02*
X294898667Y-41751752D01*
X294898667Y-41751752D02*
X295024408Y-41800020D01*
X295024408Y-41800020D02*
X295130781Y-41804785D01*
X293845084Y-42429340D02*
X294116242Y-43038370D01*
X293907648Y-41984480D02*
X294415685Y-42540171D01*
X294415685Y-42540171D02*
X293850157Y-42791960D01*
X318170846Y-41566077D02*
X318059708Y-41667684D01*
X318059708Y-41667684D02*
X317842197Y-41764526D01*
X317842197Y-41764526D02*
X317735824Y-41759761D01*
X317735824Y-41759761D02*
X317672954Y-41735627D01*
X317672954Y-41735627D02*
X317590715Y-41667991D01*
X317590715Y-41667991D02*
X317551978Y-41580987D01*
X317551978Y-41580987D02*
X317556743Y-41474614D01*
X317556743Y-41474614D02*
X317580877Y-41411743D01*
X317580877Y-41411743D02*
X317648513Y-41329504D01*
X317648513Y-41329504D02*
X317803153Y-41208529D01*
X317803153Y-41208529D02*
X317870789Y-41126290D01*
X317870789Y-41126290D02*
X317894923Y-41063419D01*
X317894923Y-41063419D02*
X317899688Y-40957046D01*
X317899688Y-40957046D02*
X317860951Y-40870042D01*
X317860951Y-40870042D02*
X317778712Y-40802406D01*
X317778712Y-40802406D02*
X317715842Y-40778272D01*
X317715842Y-40778272D02*
X317609469Y-40773507D01*
X317609469Y-40773507D02*
X317391958Y-40870349D01*
X317391958Y-40870349D02*
X317280820Y-40971956D01*
X316956937Y-41064033D02*
X317146162Y-42074421D01*
X317146162Y-42074421D02*
X316681628Y-41499362D01*
X316681628Y-41499362D02*
X316798145Y-42229368D01*
X316798145Y-42229368D02*
X316173898Y-41412665D01*
X315754093Y-42694210D02*
X316276119Y-42461789D01*
X316015106Y-42577999D02*
X315608370Y-41664454D01*
X315608370Y-41664454D02*
X315753479Y-41756223D01*
X315753479Y-41756223D02*
X315879220Y-41804491D01*
X315879220Y-41804491D02*
X315985593Y-41809256D01*
X314520815Y-42148664D02*
X314955837Y-41954980D01*
X314955837Y-41954980D02*
X315193023Y-42370633D01*
X315193023Y-42370633D02*
X315130153Y-42346499D01*
X315130153Y-42346499D02*
X315023780Y-42341734D01*
X315023780Y-42341734D02*
X314806269Y-42438576D01*
X314806269Y-42438576D02*
X314738633Y-42520815D01*
X314738633Y-42520815D02*
X314714499Y-42583686D01*
X314714499Y-42583686D02*
X314709734Y-42690059D01*
X314709734Y-42690059D02*
X314806576Y-42907569D01*
X314806576Y-42907569D02*
X314888815Y-42975205D01*
X314888815Y-42975205D02*
X314951686Y-42999339D01*
X314951686Y-42999339D02*
X315058059Y-43004104D01*
X315058059Y-43004104D02*
X315275569Y-42907262D01*
X315275569Y-42907262D02*
X315343205Y-42825023D01*
X315343205Y-42825023D02*
X315367339Y-42762153D01*
X111732681Y-62114750D02*
X111582807Y-62100146D01*
X111582807Y-62100146D02*
X111365296Y-62003304D01*
X111365296Y-62003304D02*
X111297660Y-61921065D01*
X111297660Y-61921065D02*
X111273526Y-61858195D01*
X111273526Y-61858195D02*
X111268761Y-61751822D01*
X111268761Y-61751822D02*
X111307498Y-61664818D01*
X111307498Y-61664818D02*
X111389737Y-61597182D01*
X111389737Y-61597182D02*
X111452607Y-61573048D01*
X111452607Y-61573048D02*
X111558980Y-61568283D01*
X111558980Y-61568283D02*
X111752357Y-61602254D01*
X111752357Y-61602254D02*
X111858730Y-61597489D01*
X111858730Y-61597489D02*
X111921600Y-61573355D01*
X111921600Y-61573355D02*
X112003839Y-61505719D01*
X112003839Y-61505719D02*
X112042576Y-61418715D01*
X112042576Y-61418715D02*
X112037811Y-61312342D01*
X112037811Y-61312342D02*
X112013677Y-61249472D01*
X112013677Y-61249472D02*
X111946041Y-61167233D01*
X111946041Y-61167233D02*
X111728530Y-61070391D01*
X111728530Y-61070391D02*
X111578655Y-61055787D01*
X111293509Y-60876706D02*
X110669261Y-61693410D01*
X110669261Y-61693410D02*
X110785779Y-60963404D01*
X110785779Y-60963404D02*
X110321244Y-61538462D01*
X110321244Y-61538462D02*
X110510470Y-60528075D01*
X109857630Y-60706542D02*
X109964003Y-60701777D01*
X109964003Y-60701777D02*
X110026873Y-60677643D01*
X110026873Y-60677643D02*
X110109112Y-60610007D01*
X110109112Y-60610007D02*
X110128481Y-60566505D01*
X110128481Y-60566505D02*
X110123716Y-60460132D01*
X110123716Y-60460132D02*
X110099582Y-60397261D01*
X110099582Y-60397261D02*
X110031946Y-60315023D01*
X110031946Y-60315023D02*
X109857937Y-60237549D01*
X109857937Y-60237549D02*
X109751564Y-60242314D01*
X109751564Y-60242314D02*
X109688694Y-60266448D01*
X109688694Y-60266448D02*
X109606455Y-60334084D01*
X109606455Y-60334084D02*
X109587087Y-60377586D01*
X109587087Y-60377586D02*
X109591852Y-60483959D01*
X109591852Y-60483959D02*
X109615986Y-60546829D01*
X109615986Y-60546829D02*
X109683622Y-60629068D01*
X109683622Y-60629068D02*
X109857630Y-60706542D01*
X109857630Y-60706542D02*
X109925266Y-60788781D01*
X109925266Y-60788781D02*
X109949400Y-60851652D01*
X109949400Y-60851652D02*
X109954165Y-60958024D01*
X109954165Y-60958024D02*
X109876692Y-61132033D01*
X109876692Y-61132033D02*
X109794453Y-61199669D01*
X109794453Y-61199669D02*
X109731582Y-61223803D01*
X109731582Y-61223803D02*
X109625209Y-61228568D01*
X109625209Y-61228568D02*
X109451201Y-61151094D01*
X109451201Y-61151094D02*
X109383565Y-61068855D01*
X109383565Y-61068855D02*
X109359431Y-61005985D01*
X109359431Y-61005985D02*
X109354666Y-60899612D01*
X109354666Y-60899612D02*
X109432139Y-60725603D01*
X109432139Y-60725603D02*
X109514378Y-60657967D01*
X109514378Y-60657967D02*
X109577249Y-60633834D01*
X109577249Y-60633834D02*
X109683622Y-60629068D01*
X304250893Y-57137557D02*
X304139755Y-57239164D01*
X304139755Y-57239164D02*
X303922244Y-57336006D01*
X303922244Y-57336006D02*
X303815871Y-57331241D01*
X303815871Y-57331241D02*
X303753001Y-57307107D01*
X303753001Y-57307107D02*
X303670762Y-57239471D01*
X303670762Y-57239471D02*
X303632025Y-57152467D01*
X303632025Y-57152467D02*
X303636790Y-57046094D01*
X303636790Y-57046094D02*
X303660924Y-56983223D01*
X303660924Y-56983223D02*
X303728560Y-56900984D01*
X303728560Y-56900984D02*
X303883200Y-56780009D01*
X303883200Y-56780009D02*
X303950836Y-56697770D01*
X303950836Y-56697770D02*
X303974970Y-56634899D01*
X303974970Y-56634899D02*
X303979735Y-56528526D01*
X303979735Y-56528526D02*
X303940998Y-56441522D01*
X303940998Y-56441522D02*
X303858759Y-56373886D01*
X303858759Y-56373886D02*
X303795889Y-56349752D01*
X303795889Y-56349752D02*
X303689516Y-56344987D01*
X303689516Y-56344987D02*
X303472005Y-56441829D01*
X303472005Y-56441829D02*
X303360867Y-56543436D01*
X303036984Y-56635513D02*
X303226209Y-57645901D01*
X303226209Y-57645901D02*
X302761675Y-57070842D01*
X302761675Y-57070842D02*
X302878192Y-57800848D01*
X302878192Y-57800848D02*
X302253945Y-56984145D01*
X301834140Y-58265690D02*
X302356166Y-58033269D01*
X302095153Y-58149479D02*
X301688417Y-57235934D01*
X301688417Y-57235934D02*
X301833526Y-57327703D01*
X301833526Y-57327703D02*
X301959267Y-57375971D01*
X301959267Y-57375971D02*
X302065640Y-57380736D01*
X301399119Y-58459374D02*
X301225110Y-58536848D01*
X301225110Y-58536848D02*
X301118737Y-58532082D01*
X301118737Y-58532082D02*
X301055867Y-58507948D01*
X301055867Y-58507948D02*
X300910757Y-58416179D01*
X300910757Y-58416179D02*
X300789781Y-58261539D01*
X300789781Y-58261539D02*
X300634834Y-57913521D01*
X300634834Y-57913521D02*
X300639599Y-57807148D01*
X300639599Y-57807148D02*
X300663733Y-57744278D01*
X300663733Y-57744278D02*
X300731369Y-57662039D01*
X300731369Y-57662039D02*
X300905378Y-57584565D01*
X300905378Y-57584565D02*
X301011750Y-57589331D01*
X301011750Y-57589331D02*
X301074621Y-57613464D01*
X301074621Y-57613464D02*
X301156860Y-57681100D01*
X301156860Y-57681100D02*
X301253702Y-57898611D01*
X301253702Y-57898611D02*
X301248937Y-58004984D01*
X301248937Y-58004984D02*
X301224803Y-58067854D01*
X301224803Y-58067854D02*
X301157167Y-58150093D01*
X301157167Y-58150093D02*
X300983158Y-58227567D01*
X300983158Y-58227567D02*
X300876785Y-58222802D01*
X300876785Y-58222802D02*
X300813915Y-58198668D01*
X300813915Y-58198668D02*
X300731676Y-58131032D01*
X95180482Y-52082951D02*
X95030608Y-52068347D01*
X95030608Y-52068347D02*
X94813097Y-51971505D01*
X94813097Y-51971505D02*
X94745461Y-51889266D01*
X94745461Y-51889266D02*
X94721327Y-51826396D01*
X94721327Y-51826396D02*
X94716562Y-51720023D01*
X94716562Y-51720023D02*
X94755299Y-51633019D01*
X94755299Y-51633019D02*
X94837538Y-51565383D01*
X94837538Y-51565383D02*
X94900408Y-51541249D01*
X94900408Y-51541249D02*
X95006781Y-51536484D01*
X95006781Y-51536484D02*
X95200158Y-51570455D01*
X95200158Y-51570455D02*
X95306531Y-51565690D01*
X95306531Y-51565690D02*
X95369401Y-51541556D01*
X95369401Y-51541556D02*
X95451640Y-51473920D01*
X95451640Y-51473920D02*
X95490377Y-51386916D01*
X95490377Y-51386916D02*
X95485612Y-51280543D01*
X95485612Y-51280543D02*
X95461478Y-51217673D01*
X95461478Y-51217673D02*
X95393842Y-51135434D01*
X95393842Y-51135434D02*
X95176331Y-51038592D01*
X95176331Y-51038592D02*
X95026456Y-51023988D01*
X94741310Y-50844907D02*
X94117062Y-51661611D01*
X94117062Y-51661611D02*
X94233580Y-50931605D01*
X94233580Y-50931605D02*
X93769045Y-51506663D01*
X93769045Y-51506663D02*
X93958271Y-50496276D01*
X93697258Y-50380066D02*
X93088227Y-50108908D01*
X93088227Y-50108908D02*
X93073010Y-51196769D01*
X37809523Y-133254819D02*
X37809523Y-132254819D01*
X37809523Y-132254819D02*
X37476190Y-132969104D01*
X37476190Y-132969104D02*
X37142857Y-132254819D01*
X37142857Y-132254819D02*
X37142857Y-133254819D01*
X36761904Y-132254819D02*
X36142857Y-132254819D01*
X36142857Y-132254819D02*
X36476190Y-132635771D01*
X36476190Y-132635771D02*
X36333333Y-132635771D01*
X36333333Y-132635771D02*
X36238095Y-132683390D01*
X36238095Y-132683390D02*
X36190476Y-132731009D01*
X36190476Y-132731009D02*
X36142857Y-132826247D01*
X36142857Y-132826247D02*
X36142857Y-133064342D01*
X36142857Y-133064342D02*
X36190476Y-133159580D01*
X36190476Y-133159580D02*
X36238095Y-133207200D01*
X36238095Y-133207200D02*
X36333333Y-133254819D01*
X36333333Y-133254819D02*
X36619047Y-133254819D01*
X36619047Y-133254819D02*
X36714285Y-133207200D01*
X36714285Y-133207200D02*
X36761904Y-133159580D01*
X269444811Y-72634223D02*
X269333673Y-72735830D01*
X269333673Y-72735830D02*
X269116162Y-72832672D01*
X269116162Y-72832672D02*
X269009789Y-72827907D01*
X269009789Y-72827907D02*
X268946919Y-72803773D01*
X268946919Y-72803773D02*
X268864680Y-72736137D01*
X268864680Y-72736137D02*
X268825943Y-72649133D01*
X268825943Y-72649133D02*
X268830708Y-72542760D01*
X268830708Y-72542760D02*
X268854842Y-72479889D01*
X268854842Y-72479889D02*
X268922478Y-72397650D01*
X268922478Y-72397650D02*
X269077118Y-72276675D01*
X269077118Y-72276675D02*
X269144754Y-72194436D01*
X269144754Y-72194436D02*
X269168888Y-72131565D01*
X269168888Y-72131565D02*
X269173653Y-72025192D01*
X269173653Y-72025192D02*
X269134916Y-71938188D01*
X269134916Y-71938188D02*
X269052677Y-71870552D01*
X269052677Y-71870552D02*
X268989807Y-71846418D01*
X268989807Y-71846418D02*
X268883434Y-71841653D01*
X268883434Y-71841653D02*
X268665923Y-71938495D01*
X268665923Y-71938495D02*
X268554785Y-72040102D01*
X268230902Y-72132179D02*
X268420127Y-73142567D01*
X268420127Y-73142567D02*
X267955593Y-72567508D01*
X267955593Y-72567508D02*
X268072110Y-73297514D01*
X268072110Y-73297514D02*
X267447863Y-72480811D01*
X267028058Y-73762356D02*
X267550084Y-73529935D01*
X267289071Y-73646145D02*
X266882335Y-72732600D01*
X266882335Y-72732600D02*
X267027444Y-72824369D01*
X267027444Y-72824369D02*
X267153185Y-72872637D01*
X267153185Y-72872637D02*
X267259558Y-72877402D01*
X266316806Y-72984389D02*
X265707776Y-73255547D01*
X265707776Y-73255547D02*
X266506032Y-73994777D01*
X173414582Y-27350950D02*
X173271725Y-27398569D01*
X173271725Y-27398569D02*
X173033630Y-27398569D01*
X173033630Y-27398569D02*
X172938392Y-27350950D01*
X172938392Y-27350950D02*
X172890773Y-27303330D01*
X172890773Y-27303330D02*
X172843154Y-27208092D01*
X172843154Y-27208092D02*
X172843154Y-27112854D01*
X172843154Y-27112854D02*
X172890773Y-27017616D01*
X172890773Y-27017616D02*
X172938392Y-26969997D01*
X172938392Y-26969997D02*
X173033630Y-26922378D01*
X173033630Y-26922378D02*
X173224106Y-26874759D01*
X173224106Y-26874759D02*
X173319344Y-26827140D01*
X173319344Y-26827140D02*
X173366963Y-26779521D01*
X173366963Y-26779521D02*
X173414582Y-26684283D01*
X173414582Y-26684283D02*
X173414582Y-26589045D01*
X173414582Y-26589045D02*
X173366963Y-26493807D01*
X173366963Y-26493807D02*
X173319344Y-26446188D01*
X173319344Y-26446188D02*
X173224106Y-26398569D01*
X173224106Y-26398569D02*
X172986011Y-26398569D01*
X172986011Y-26398569D02*
X172843154Y-26446188D01*
X172509820Y-26398569D02*
X172271725Y-27398569D01*
X172271725Y-27398569D02*
X172081249Y-26684283D01*
X172081249Y-26684283D02*
X171890773Y-27398569D01*
X171890773Y-27398569D02*
X171652678Y-26398569D01*
X170795535Y-26398569D02*
X171271725Y-26398569D01*
X171271725Y-26398569D02*
X171319344Y-26874759D01*
X171319344Y-26874759D02*
X171271725Y-26827140D01*
X171271725Y-26827140D02*
X171176487Y-26779521D01*
X171176487Y-26779521D02*
X170938392Y-26779521D01*
X170938392Y-26779521D02*
X170843154Y-26827140D01*
X170843154Y-26827140D02*
X170795535Y-26874759D01*
X170795535Y-26874759D02*
X170747916Y-26969997D01*
X170747916Y-26969997D02*
X170747916Y-27208092D01*
X170747916Y-27208092D02*
X170795535Y-27303330D01*
X170795535Y-27303330D02*
X170843154Y-27350950D01*
X170843154Y-27350950D02*
X170938392Y-27398569D01*
X170938392Y-27398569D02*
X171176487Y-27398569D01*
X171176487Y-27398569D02*
X171271725Y-27350950D01*
X171271725Y-27350950D02*
X171319344Y-27303330D01*
X37809523Y-31954819D02*
X37809523Y-30954819D01*
X37809523Y-30954819D02*
X37476190Y-31669104D01*
X37476190Y-31669104D02*
X37142857Y-30954819D01*
X37142857Y-30954819D02*
X37142857Y-31954819D01*
X36761904Y-30954819D02*
X36142857Y-30954819D01*
X36142857Y-30954819D02*
X36476190Y-31335771D01*
X36476190Y-31335771D02*
X36333333Y-31335771D01*
X36333333Y-31335771D02*
X36238095Y-31383390D01*
X36238095Y-31383390D02*
X36190476Y-31431009D01*
X36190476Y-31431009D02*
X36142857Y-31526247D01*
X36142857Y-31526247D02*
X36142857Y-31764342D01*
X36142857Y-31764342D02*
X36190476Y-31859580D01*
X36190476Y-31859580D02*
X36238095Y-31907200D01*
X36238095Y-31907200D02*
X36333333Y-31954819D01*
X36333333Y-31954819D02*
X36619047Y-31954819D01*
X36619047Y-31954819D02*
X36714285Y-31907200D01*
X36714285Y-31907200D02*
X36761904Y-31859580D01*
X276379671Y-88210173D02*
X276268533Y-88311780D01*
X276268533Y-88311780D02*
X276051022Y-88408622D01*
X276051022Y-88408622D02*
X275944649Y-88403857D01*
X275944649Y-88403857D02*
X275881779Y-88379723D01*
X275881779Y-88379723D02*
X275799540Y-88312087D01*
X275799540Y-88312087D02*
X275760803Y-88225083D01*
X275760803Y-88225083D02*
X275765568Y-88118710D01*
X275765568Y-88118710D02*
X275789702Y-88055839D01*
X275789702Y-88055839D02*
X275857338Y-87973600D01*
X275857338Y-87973600D02*
X276011978Y-87852625D01*
X276011978Y-87852625D02*
X276079614Y-87770386D01*
X276079614Y-87770386D02*
X276103748Y-87707515D01*
X276103748Y-87707515D02*
X276108513Y-87601142D01*
X276108513Y-87601142D02*
X276069776Y-87514138D01*
X276069776Y-87514138D02*
X275987537Y-87446502D01*
X275987537Y-87446502D02*
X275924667Y-87422368D01*
X275924667Y-87422368D02*
X275818294Y-87417603D01*
X275818294Y-87417603D02*
X275600783Y-87514445D01*
X275600783Y-87514445D02*
X275489645Y-87616052D01*
X275165762Y-87708129D02*
X275354987Y-88718517D01*
X275354987Y-88718517D02*
X274890453Y-88143458D01*
X274890453Y-88143458D02*
X275006970Y-88873464D01*
X275006970Y-88873464D02*
X274382723Y-88056761D01*
X273962918Y-89338306D02*
X274484944Y-89105885D01*
X274223931Y-89222095D02*
X273817195Y-88308550D01*
X273817195Y-88308550D02*
X273962304Y-88400319D01*
X273962304Y-88400319D02*
X274088045Y-88448587D01*
X274088045Y-88448587D02*
X274194418Y-88453352D01*
X273092875Y-89725674D02*
X273614901Y-89493253D01*
X273353888Y-89609464D02*
X272947151Y-88695918D01*
X272947151Y-88695918D02*
X273092261Y-88787688D01*
X273092261Y-88787688D02*
X273218002Y-88835955D01*
X273218002Y-88835955D02*
X273324375Y-88840721D01*
X347809523Y-31954819D02*
X347809523Y-30954819D01*
X347809523Y-30954819D02*
X347476190Y-31669104D01*
X347476190Y-31669104D02*
X347142857Y-30954819D01*
X347142857Y-30954819D02*
X347142857Y-31954819D01*
X346761904Y-30954819D02*
X346142857Y-30954819D01*
X346142857Y-30954819D02*
X346476190Y-31335771D01*
X346476190Y-31335771D02*
X346333333Y-31335771D01*
X346333333Y-31335771D02*
X346238095Y-31383390D01*
X346238095Y-31383390D02*
X346190476Y-31431009D01*
X346190476Y-31431009D02*
X346142857Y-31526247D01*
X346142857Y-31526247D02*
X346142857Y-31764342D01*
X346142857Y-31764342D02*
X346190476Y-31859580D01*
X346190476Y-31859580D02*
X346238095Y-31907200D01*
X346238095Y-31907200D02*
X346333333Y-31954819D01*
X346333333Y-31954819D02*
X346619047Y-31954819D01*
X346619047Y-31954819D02*
X346714285Y-31907200D01*
X346714285Y-31907200D02*
X346761904Y-31859580D01*
X207809523Y-31954819D02*
X207809523Y-30954819D01*
X207809523Y-30954819D02*
X207476190Y-31669104D01*
X207476190Y-31669104D02*
X207142857Y-30954819D01*
X207142857Y-30954819D02*
X207142857Y-31954819D01*
X206761904Y-30954819D02*
X206142857Y-30954819D01*
X206142857Y-30954819D02*
X206476190Y-31335771D01*
X206476190Y-31335771D02*
X206333333Y-31335771D01*
X206333333Y-31335771D02*
X206238095Y-31383390D01*
X206238095Y-31383390D02*
X206190476Y-31431009D01*
X206190476Y-31431009D02*
X206142857Y-31526247D01*
X206142857Y-31526247D02*
X206142857Y-31764342D01*
X206142857Y-31764342D02*
X206190476Y-31859580D01*
X206190476Y-31859580D02*
X206238095Y-31907200D01*
X206238095Y-31907200D02*
X206333333Y-31954819D01*
X206333333Y-31954819D02*
X206619047Y-31954819D01*
X206619047Y-31954819D02*
X206714285Y-31907200D01*
X206714285Y-31907200D02*
X206761904Y-31859580D01*
X278970076Y-47192112D02*
X278858938Y-47293719D01*
X278858938Y-47293719D02*
X278641427Y-47390561D01*
X278641427Y-47390561D02*
X278535054Y-47385796D01*
X278535054Y-47385796D02*
X278472184Y-47361662D01*
X278472184Y-47361662D02*
X278389945Y-47294026D01*
X278389945Y-47294026D02*
X278351208Y-47207022D01*
X278351208Y-47207022D02*
X278355973Y-47100649D01*
X278355973Y-47100649D02*
X278380107Y-47037778D01*
X278380107Y-47037778D02*
X278447743Y-46955539D01*
X278447743Y-46955539D02*
X278602383Y-46834564D01*
X278602383Y-46834564D02*
X278670019Y-46752325D01*
X278670019Y-46752325D02*
X278694153Y-46689454D01*
X278694153Y-46689454D02*
X278698918Y-46583081D01*
X278698918Y-46583081D02*
X278660181Y-46496077D01*
X278660181Y-46496077D02*
X278577942Y-46428441D01*
X278577942Y-46428441D02*
X278515072Y-46404307D01*
X278515072Y-46404307D02*
X278408699Y-46399542D01*
X278408699Y-46399542D02*
X278191188Y-46496384D01*
X278191188Y-46496384D02*
X278080050Y-46597991D01*
X277756167Y-46690068D02*
X277945392Y-47700456D01*
X277945392Y-47700456D02*
X277480858Y-47125397D01*
X277480858Y-47125397D02*
X277597375Y-47855403D01*
X277597375Y-47855403D02*
X276973128Y-47038700D01*
X276553323Y-48320245D02*
X277075349Y-48087824D01*
X276814336Y-48204034D02*
X276407600Y-47290489D01*
X276407600Y-47290489D02*
X276552709Y-47382258D01*
X276552709Y-47382258D02*
X276678450Y-47430526D01*
X276678450Y-47430526D02*
X276784823Y-47435291D01*
X275842071Y-47542278D02*
X275276543Y-47794068D01*
X275276543Y-47794068D02*
X275736006Y-48006506D01*
X275736006Y-48006506D02*
X275605499Y-48064611D01*
X275605499Y-48064611D02*
X275537863Y-48146850D01*
X275537863Y-48146850D02*
X275513729Y-48209721D01*
X275513729Y-48209721D02*
X275508964Y-48316094D01*
X275508964Y-48316094D02*
X275605806Y-48533604D01*
X275605806Y-48533604D02*
X275688045Y-48601240D01*
X275688045Y-48601240D02*
X275750916Y-48625374D01*
X275750916Y-48625374D02*
X275857289Y-48630139D01*
X275857289Y-48630139D02*
X276118302Y-48513929D01*
X276118302Y-48513929D02*
X276185937Y-48431690D01*
X276185937Y-48431690D02*
X276210071Y-48368819D01*
X347809523Y-133254819D02*
X347809523Y-132254819D01*
X347809523Y-132254819D02*
X347476190Y-132969104D01*
X347476190Y-132969104D02*
X347142857Y-132254819D01*
X347142857Y-132254819D02*
X347142857Y-133254819D01*
X346761904Y-132254819D02*
X346142857Y-132254819D01*
X346142857Y-132254819D02*
X346476190Y-132635771D01*
X346476190Y-132635771D02*
X346333333Y-132635771D01*
X346333333Y-132635771D02*
X346238095Y-132683390D01*
X346238095Y-132683390D02*
X346190476Y-132731009D01*
X346190476Y-132731009D02*
X346142857Y-132826247D01*
X346142857Y-132826247D02*
X346142857Y-133064342D01*
X346142857Y-133064342D02*
X346190476Y-133159580D01*
X346190476Y-133159580D02*
X346238095Y-133207200D01*
X346238095Y-133207200D02*
X346333333Y-133254819D01*
X346333333Y-133254819D02*
X346619047Y-133254819D01*
X346619047Y-133254819D02*
X346714285Y-133207200D01*
X346714285Y-133207200D02*
X346761904Y-133159580D01*
X137695832Y-27350950D02*
X137552975Y-27398569D01*
X137552975Y-27398569D02*
X137314880Y-27398569D01*
X137314880Y-27398569D02*
X137219642Y-27350950D01*
X137219642Y-27350950D02*
X137172023Y-27303330D01*
X137172023Y-27303330D02*
X137124404Y-27208092D01*
X137124404Y-27208092D02*
X137124404Y-27112854D01*
X137124404Y-27112854D02*
X137172023Y-27017616D01*
X137172023Y-27017616D02*
X137219642Y-26969997D01*
X137219642Y-26969997D02*
X137314880Y-26922378D01*
X137314880Y-26922378D02*
X137505356Y-26874759D01*
X137505356Y-26874759D02*
X137600594Y-26827140D01*
X137600594Y-26827140D02*
X137648213Y-26779521D01*
X137648213Y-26779521D02*
X137695832Y-26684283D01*
X137695832Y-26684283D02*
X137695832Y-26589045D01*
X137695832Y-26589045D02*
X137648213Y-26493807D01*
X137648213Y-26493807D02*
X137600594Y-26446188D01*
X137600594Y-26446188D02*
X137505356Y-26398569D01*
X137505356Y-26398569D02*
X137267261Y-26398569D01*
X137267261Y-26398569D02*
X137124404Y-26446188D01*
X136791070Y-26398569D02*
X136552975Y-27398569D01*
X136552975Y-27398569D02*
X136362499Y-26684283D01*
X136362499Y-26684283D02*
X136172023Y-27398569D01*
X136172023Y-27398569D02*
X135933928Y-26398569D01*
X135600594Y-26493807D02*
X135552975Y-26446188D01*
X135552975Y-26446188D02*
X135457737Y-26398569D01*
X135457737Y-26398569D02*
X135219642Y-26398569D01*
X135219642Y-26398569D02*
X135124404Y-26446188D01*
X135124404Y-26446188D02*
X135076785Y-26493807D01*
X135076785Y-26493807D02*
X135029166Y-26589045D01*
X135029166Y-26589045D02*
X135029166Y-26684283D01*
X135029166Y-26684283D02*
X135076785Y-26827140D01*
X135076785Y-26827140D02*
X135648213Y-27398569D01*
X135648213Y-27398569D02*
X135029166Y-27398569D01*
X125789832Y-27350950D02*
X125646975Y-27398569D01*
X125646975Y-27398569D02*
X125408880Y-27398569D01*
X125408880Y-27398569D02*
X125313642Y-27350950D01*
X125313642Y-27350950D02*
X125266023Y-27303330D01*
X125266023Y-27303330D02*
X125218404Y-27208092D01*
X125218404Y-27208092D02*
X125218404Y-27112854D01*
X125218404Y-27112854D02*
X125266023Y-27017616D01*
X125266023Y-27017616D02*
X125313642Y-26969997D01*
X125313642Y-26969997D02*
X125408880Y-26922378D01*
X125408880Y-26922378D02*
X125599356Y-26874759D01*
X125599356Y-26874759D02*
X125694594Y-26827140D01*
X125694594Y-26827140D02*
X125742213Y-26779521D01*
X125742213Y-26779521D02*
X125789832Y-26684283D01*
X125789832Y-26684283D02*
X125789832Y-26589045D01*
X125789832Y-26589045D02*
X125742213Y-26493807D01*
X125742213Y-26493807D02*
X125694594Y-26446188D01*
X125694594Y-26446188D02*
X125599356Y-26398569D01*
X125599356Y-26398569D02*
X125361261Y-26398569D01*
X125361261Y-26398569D02*
X125218404Y-26446188D01*
X124885070Y-26398569D02*
X124646975Y-27398569D01*
X124646975Y-27398569D02*
X124456499Y-26684283D01*
X124456499Y-26684283D02*
X124266023Y-27398569D01*
X124266023Y-27398569D02*
X124027928Y-26398569D01*
X123123166Y-27398569D02*
X123694594Y-27398569D01*
X123408880Y-27398569D02*
X123408880Y-26398569D01*
X123408880Y-26398569D02*
X123504118Y-26541426D01*
X123504118Y-26541426D02*
X123599356Y-26636664D01*
X123599356Y-26636664D02*
X123694594Y-26684283D01*
X161508332Y-27350950D02*
X161365475Y-27398569D01*
X161365475Y-27398569D02*
X161127380Y-27398569D01*
X161127380Y-27398569D02*
X161032142Y-27350950D01*
X161032142Y-27350950D02*
X160984523Y-27303330D01*
X160984523Y-27303330D02*
X160936904Y-27208092D01*
X160936904Y-27208092D02*
X160936904Y-27112854D01*
X160936904Y-27112854D02*
X160984523Y-27017616D01*
X160984523Y-27017616D02*
X161032142Y-26969997D01*
X161032142Y-26969997D02*
X161127380Y-26922378D01*
X161127380Y-26922378D02*
X161317856Y-26874759D01*
X161317856Y-26874759D02*
X161413094Y-26827140D01*
X161413094Y-26827140D02*
X161460713Y-26779521D01*
X161460713Y-26779521D02*
X161508332Y-26684283D01*
X161508332Y-26684283D02*
X161508332Y-26589045D01*
X161508332Y-26589045D02*
X161460713Y-26493807D01*
X161460713Y-26493807D02*
X161413094Y-26446188D01*
X161413094Y-26446188D02*
X161317856Y-26398569D01*
X161317856Y-26398569D02*
X161079761Y-26398569D01*
X161079761Y-26398569D02*
X160936904Y-26446188D01*
X160603570Y-26398569D02*
X160365475Y-27398569D01*
X160365475Y-27398569D02*
X160174999Y-26684283D01*
X160174999Y-26684283D02*
X159984523Y-27398569D01*
X159984523Y-27398569D02*
X159746428Y-26398569D01*
X158936904Y-26731902D02*
X158936904Y-27398569D01*
X159174999Y-26350950D02*
X159413094Y-27065235D01*
X159413094Y-27065235D02*
X158794047Y-27065235D01*
X149602082Y-27350950D02*
X149459225Y-27398569D01*
X149459225Y-27398569D02*
X149221130Y-27398569D01*
X149221130Y-27398569D02*
X149125892Y-27350950D01*
X149125892Y-27350950D02*
X149078273Y-27303330D01*
X149078273Y-27303330D02*
X149030654Y-27208092D01*
X149030654Y-27208092D02*
X149030654Y-27112854D01*
X149030654Y-27112854D02*
X149078273Y-27017616D01*
X149078273Y-27017616D02*
X149125892Y-26969997D01*
X149125892Y-26969997D02*
X149221130Y-26922378D01*
X149221130Y-26922378D02*
X149411606Y-26874759D01*
X149411606Y-26874759D02*
X149506844Y-26827140D01*
X149506844Y-26827140D02*
X149554463Y-26779521D01*
X149554463Y-26779521D02*
X149602082Y-26684283D01*
X149602082Y-26684283D02*
X149602082Y-26589045D01*
X149602082Y-26589045D02*
X149554463Y-26493807D01*
X149554463Y-26493807D02*
X149506844Y-26446188D01*
X149506844Y-26446188D02*
X149411606Y-26398569D01*
X149411606Y-26398569D02*
X149173511Y-26398569D01*
X149173511Y-26398569D02*
X149030654Y-26446188D01*
X148697320Y-26398569D02*
X148459225Y-27398569D01*
X148459225Y-27398569D02*
X148268749Y-26684283D01*
X148268749Y-26684283D02*
X148078273Y-27398569D01*
X148078273Y-27398569D02*
X147840178Y-26398569D01*
X147554463Y-26398569D02*
X146935416Y-26398569D01*
X146935416Y-26398569D02*
X147268749Y-26779521D01*
X147268749Y-26779521D02*
X147125892Y-26779521D01*
X147125892Y-26779521D02*
X147030654Y-26827140D01*
X147030654Y-26827140D02*
X146983035Y-26874759D01*
X146983035Y-26874759D02*
X146935416Y-26969997D01*
X146935416Y-26969997D02*
X146935416Y-27208092D01*
X146935416Y-27208092D02*
X146983035Y-27303330D01*
X146983035Y-27303330D02*
X147030654Y-27350950D01*
X147030654Y-27350950D02*
X147125892Y-27398569D01*
X147125892Y-27398569D02*
X147411606Y-27398569D01*
X147411606Y-27398569D02*
X147506844Y-27350950D01*
X147506844Y-27350950D02*
X147554463Y-27303330D01*
X192809523Y-133254819D02*
X192809523Y-132254819D01*
X192809523Y-132254819D02*
X192476190Y-132969104D01*
X192476190Y-132969104D02*
X192142857Y-132254819D01*
X192142857Y-132254819D02*
X192142857Y-133254819D01*
X191761904Y-132254819D02*
X191142857Y-132254819D01*
X191142857Y-132254819D02*
X191476190Y-132635771D01*
X191476190Y-132635771D02*
X191333333Y-132635771D01*
X191333333Y-132635771D02*
X191238095Y-132683390D01*
X191238095Y-132683390D02*
X191190476Y-132731009D01*
X191190476Y-132731009D02*
X191142857Y-132826247D01*
X191142857Y-132826247D02*
X191142857Y-133064342D01*
X191142857Y-133064342D02*
X191190476Y-133159580D01*
X191190476Y-133159580D02*
X191238095Y-133207200D01*
X191238095Y-133207200D02*
X191333333Y-133254819D01*
X191333333Y-133254819D02*
X191619047Y-133254819D01*
X191619047Y-133254819D02*
X191714285Y-133207200D01*
X191714285Y-133207200D02*
X191761904Y-133159580D01*
%TO.C,SW18*%
X283682718Y-67142950D02*
X283886086Y-67599722D01*
X285350338Y-70888486D02*
X285594380Y-71436613D01*
X285594380Y-71436613D02*
X289705335Y-69606298D01*
X287793672Y-65312635D02*
X283682718Y-67142950D01*
X288078388Y-65952117D02*
X287793672Y-65312635D01*
X290365476Y-69859703D02*
X290772212Y-70773248D01*
X291432353Y-71026653D02*
X290772212Y-70773248D01*
X292342675Y-65695488D02*
X290058811Y-66712330D01*
X293002816Y-65948893D02*
X292342675Y-65695488D01*
X294172990Y-69806443D02*
X291432353Y-71026653D01*
X294426394Y-69146302D02*
X294172990Y-69806443D01*
X289705335Y-69606298D02*
G75*
G02*
X290365476Y-69859703I203368J-456773D01*
G01*
X290058811Y-66712330D02*
G75*
G02*
X288078388Y-65952117I-610104J1370321D01*
G01*
%TO.C,SW10*%
X247484226Y-120348112D02*
X250495316Y-123692263D01*
X247930115Y-119946633D02*
X247484226Y-120348112D01*
X249678156Y-125773669D02*
X249715164Y-125067532D01*
X250458309Y-124398401D02*
X249715164Y-125067532D01*
X250977009Y-117203198D02*
X250605437Y-117537763D01*
X251685548Y-128003104D02*
X249678156Y-125773669D01*
X252391687Y-128040111D02*
X251685548Y-128003104D01*
X253467895Y-121015741D02*
X253988097Y-120547351D01*
X253988097Y-120547351D02*
X250977009Y-117203198D01*
X254992693Y-125698154D02*
X255029700Y-124992016D01*
X255029700Y-124992016D02*
X253356874Y-123134155D01*
X250495316Y-123692263D02*
G75*
G02*
X250458309Y-124398400I-371572J-334565D01*
G01*
X253356874Y-123134155D02*
G75*
G02*
X253467895Y-121015741I1114718J1003696D01*
G01*
%TO.C,SW12*%
X260287735Y-61433159D02*
X260491103Y-61889931D01*
X261955355Y-65178695D02*
X262199397Y-65726822D01*
X262199397Y-65726822D02*
X266310352Y-63896507D01*
X264398689Y-59602844D02*
X260287735Y-61433159D01*
X264683405Y-60242326D02*
X264398689Y-59602844D01*
X266970493Y-64149912D02*
X267377229Y-65063457D01*
X268037370Y-65316862D02*
X267377229Y-65063457D01*
X268947692Y-59985697D02*
X266663828Y-61002539D01*
X269607833Y-60239102D02*
X268947692Y-59985697D01*
X270778007Y-64096652D02*
X268037370Y-65316862D01*
X271031411Y-63436511D02*
X270778007Y-64096652D01*
X266310352Y-63896507D02*
G75*
G02*
X266970493Y-64149912I203368J-456773D01*
G01*
X266663828Y-61002539D02*
G75*
G02*
X264683405Y-60242326I-610104J1370321D01*
G01*
%TO.C,SW9*%
X123655164Y-127607225D02*
X124026735Y-127941791D01*
X126666249Y-124263074D02*
X123655164Y-127607225D01*
X126702056Y-130350661D02*
X127147944Y-130752139D01*
X127147944Y-130752139D02*
X130159031Y-127407987D01*
X127186451Y-124731466D02*
X126666249Y-124263074D01*
X130865168Y-127370980D02*
X131608313Y-128040111D01*
X130977692Y-122762582D02*
X129304865Y-124620444D01*
X131683829Y-122725575D02*
X130977692Y-122762582D01*
X132314452Y-128003104D02*
X131608313Y-128040111D01*
X134284836Y-125067532D02*
X134321844Y-125773669D01*
X134321844Y-125773669D02*
X132314452Y-128003104D01*
X129304865Y-124620444D02*
G75*
G02*
X127186451Y-124731466I-1114718J1003704D01*
G01*
X130159031Y-127407987D02*
G75*
G02*
X130865168Y-127370980I371572J-334567D01*
G01*
%TO.C,SW20*%
X322883488Y-61516915D02*
X323086856Y-61973687D01*
X324551108Y-65262451D02*
X324795150Y-65810578D01*
X324795150Y-65810578D02*
X328906105Y-63980263D01*
X326994442Y-59686600D02*
X322883488Y-61516915D01*
X327279158Y-60326082D02*
X326994442Y-59686600D01*
X329566246Y-64233668D02*
X329972982Y-65147213D01*
X330633123Y-65400618D02*
X329972982Y-65147213D01*
X331543445Y-60069453D02*
X329259581Y-61086295D01*
X332203586Y-60322858D02*
X331543445Y-60069453D01*
X333373760Y-64180408D02*
X330633123Y-65400618D01*
X333627164Y-63520267D02*
X333373760Y-64180408D01*
X328906105Y-63980263D02*
G75*
G02*
X329566246Y-64233668I203368J-456773D01*
G01*
X329259581Y-61086295D02*
G75*
G02*
X327279158Y-60326082I-610104J1370321D01*
G01*
%TO.C,SW6*%
X70711832Y-52381372D02*
X74822786Y-54211687D01*
X70955874Y-51833245D02*
X70711832Y-52381372D01*
X72623494Y-48087709D02*
X72420126Y-48544481D01*
X74922858Y-56445515D02*
X74669454Y-55785374D01*
X75076191Y-54871828D02*
X74669454Y-55785374D01*
X76449733Y-50557505D02*
X76734448Y-49918024D01*
X76734448Y-49918024D02*
X72623494Y-48087709D01*
X77663495Y-57665725D02*
X74922858Y-56445515D01*
X78323636Y-57412320D02*
X77663495Y-57665725D01*
X79493810Y-53554770D02*
X77209946Y-52537929D01*
X79747214Y-54214911D02*
X79493810Y-53554770D01*
X74822786Y-54211687D02*
G75*
G02*
X75076191Y-54871828I-203369J-456773D01*
G01*
X77209946Y-52537929D02*
G75*
G02*
X76449733Y-50557505I610104J1370318D01*
G01*
%TO.C,SW16*%
X246336465Y-76934296D02*
X246539833Y-77391068D01*
X248004085Y-80679832D02*
X248248127Y-81227959D01*
X248248127Y-81227959D02*
X252359082Y-79397644D01*
X250447419Y-75103981D02*
X246336465Y-76934296D01*
X250732135Y-75743463D02*
X250447419Y-75103981D01*
X253019223Y-79651049D02*
X253425959Y-80564594D01*
X254086100Y-80817999D02*
X253425959Y-80564594D01*
X254996422Y-75486834D02*
X252712558Y-76503676D01*
X255656563Y-75740239D02*
X254996422Y-75486834D01*
X256826737Y-79597789D02*
X254086100Y-80817999D01*
X257080141Y-78937648D02*
X256826737Y-79597789D01*
X252359082Y-79397644D02*
G75*
G02*
X253019223Y-79651049I203368J-456773D01*
G01*
X252712558Y-76503676D02*
G75*
G02*
X250732135Y-75743463I-610104J1370321D01*
G01*
%TO.C,SW14*%
X295093817Y-45936493D02*
X295297185Y-46393265D01*
X296761437Y-49682029D02*
X297005479Y-50230156D01*
X297005479Y-50230156D02*
X301116434Y-48399841D01*
X299204771Y-44106178D02*
X295093817Y-45936493D01*
X299489487Y-44745660D02*
X299204771Y-44106178D01*
X301776575Y-48653246D02*
X302183311Y-49566791D01*
X302843452Y-49820196D02*
X302183311Y-49566791D01*
X303753774Y-44489031D02*
X301469910Y-45505873D01*
X304413915Y-44742436D02*
X303753774Y-44489031D01*
X305584089Y-48599986D02*
X302843452Y-49820196D01*
X305837493Y-47939845D02*
X305584089Y-48599986D01*
X301116434Y-48399841D02*
G75*
G02*
X301776575Y-48653246I203368J-456773D01*
G01*
X301469910Y-45505873D02*
G75*
G02*
X299489487Y-44745660I-610104J1370321D01*
G01*
%TO.C,SW15*%
X315948629Y-45940964D02*
X316151997Y-46397736D01*
X317616249Y-49686500D02*
X317860291Y-50234627D01*
X317860291Y-50234627D02*
X321971246Y-48404312D01*
X320059583Y-44110649D02*
X315948629Y-45940964D01*
X320344299Y-44750131D02*
X320059583Y-44110649D01*
X322631387Y-48657717D02*
X323038123Y-49571262D01*
X323698264Y-49824667D02*
X323038123Y-49571262D01*
X324608586Y-44493502D02*
X322324722Y-45510344D01*
X325268727Y-44746907D02*
X324608586Y-44493502D01*
X326438901Y-48604457D02*
X323698264Y-49824667D01*
X326692305Y-47944316D02*
X326438901Y-48604457D01*
X321971246Y-48404312D02*
G75*
G02*
X322631387Y-48657717I203368J-456773D01*
G01*
X322324722Y-45510344D02*
G75*
G02*
X320344299Y-44750131I-610104J1370321D01*
G01*
%TO.C,SW8*%
X105517914Y-67878038D02*
X109628868Y-69708353D01*
X105761956Y-67329911D02*
X105517914Y-67878038D01*
X107429576Y-63584375D02*
X107226208Y-64041147D01*
X109728940Y-71942181D02*
X109475536Y-71282040D01*
X109882273Y-70368494D02*
X109475536Y-71282040D01*
X111255815Y-66054171D02*
X111540530Y-65414690D01*
X111540530Y-65414690D02*
X107429576Y-63584375D01*
X112469577Y-73162391D02*
X109728940Y-71942181D01*
X113129718Y-72908986D02*
X112469577Y-73162391D01*
X114299892Y-69051436D02*
X112016028Y-68034595D01*
X114553296Y-69711577D02*
X114299892Y-69051436D01*
X109628868Y-69708353D02*
G75*
G02*
X109882273Y-70368494I-203369J-456773D01*
G01*
X112016028Y-68034595D02*
G75*
G02*
X111255815Y-66054171I610104J1370318D01*
G01*
%TO.C,SW19*%
X302028676Y-61512444D02*
X302232044Y-61969216D01*
X303696296Y-65257980D02*
X303940338Y-65806107D01*
X303940338Y-65806107D02*
X308051293Y-63975792D01*
X306139630Y-59682129D02*
X302028676Y-61512444D01*
X306424346Y-60321611D02*
X306139630Y-59682129D01*
X308711434Y-64229197D02*
X309118170Y-65142742D01*
X309778311Y-65396147D02*
X309118170Y-65142742D01*
X310688633Y-60064982D02*
X308404769Y-61081824D01*
X311348774Y-60318387D02*
X310688633Y-60064982D01*
X312518948Y-64175937D02*
X309778311Y-65396147D01*
X312772352Y-63515796D02*
X312518948Y-64175937D01*
X308051293Y-63975792D02*
G75*
G02*
X308711434Y-64229197I203368J-456773D01*
G01*
X308404769Y-61081824D02*
G75*
G02*
X306424346Y-60321611I-610104J1370321D01*
G01*
%TO.C,SW7*%
X89083415Y-57954325D02*
X93194369Y-59784640D01*
X89327457Y-57406198D02*
X89083415Y-57954325D01*
X90995077Y-53660662D02*
X90791709Y-54117434D01*
X93294441Y-62018468D02*
X93041037Y-61358327D01*
X93447774Y-60444781D02*
X93041037Y-61358327D01*
X94821316Y-56130458D02*
X95106031Y-55490977D01*
X95106031Y-55490977D02*
X90995077Y-53660662D01*
X96035078Y-63238678D02*
X93294441Y-62018468D01*
X96695219Y-62985273D02*
X96035078Y-63238678D01*
X97865393Y-59127723D02*
X95581529Y-58110882D01*
X98118797Y-59787864D02*
X97865393Y-59127723D01*
X93194369Y-59784640D02*
G75*
G02*
X93447774Y-60444781I-203369J-456773D01*
G01*
X95581529Y-58110882D02*
G75*
G02*
X94821316Y-56130458I610104J1370318D01*
G01*
%TO.C,SW17*%
X267222594Y-77009110D02*
X267425962Y-77465882D01*
X268890214Y-80754646D02*
X269134256Y-81302773D01*
X269134256Y-81302773D02*
X273245211Y-79472458D01*
X271333548Y-75178795D02*
X267222594Y-77009110D01*
X271618264Y-75818277D02*
X271333548Y-75178795D01*
X273905352Y-79725863D02*
X274312088Y-80639408D01*
X274972229Y-80892813D02*
X274312088Y-80639408D01*
X275882551Y-75561648D02*
X273598687Y-76578490D01*
X276542692Y-75815053D02*
X275882551Y-75561648D01*
X277712866Y-79672603D02*
X274972229Y-80892813D01*
X277966270Y-79012462D02*
X277712866Y-79672603D01*
X273245211Y-79472458D02*
G75*
G02*
X273905352Y-79725863I203368J-456773D01*
G01*
X273598687Y-76578490D02*
G75*
G02*
X271618264Y-75818277I-610104J1370321D01*
G01*
%TO.C,SW11*%
X274157454Y-92585060D02*
X274360822Y-93041832D01*
X275825074Y-96330596D02*
X276069116Y-96878723D01*
X276069116Y-96878723D02*
X280180071Y-95048408D01*
X278268408Y-90754745D02*
X274157454Y-92585060D01*
X278553124Y-91394227D02*
X278268408Y-90754745D01*
X280840212Y-95301813D02*
X281246948Y-96215358D01*
X281907089Y-96468763D02*
X281246948Y-96215358D01*
X282817411Y-91137598D02*
X280533547Y-92154440D01*
X283477552Y-91391003D02*
X282817411Y-91137598D01*
X284647726Y-95248553D02*
X281907089Y-96468763D01*
X284901130Y-94588412D02*
X284647726Y-95248553D01*
X280180071Y-95048408D02*
G75*
G02*
X280840212Y-95301813I203368J-456773D01*
G01*
X280533547Y-92154440D02*
G75*
G02*
X278553124Y-91394227I-610104J1370321D01*
G01*
%TO.C,SW13*%
X276747859Y-51566999D02*
X276951227Y-52023771D01*
X278415479Y-55312535D02*
X278659521Y-55860662D01*
X278659521Y-55860662D02*
X282770476Y-54030347D01*
X280858813Y-49736684D02*
X276747859Y-51566999D01*
X281143529Y-50376166D02*
X280858813Y-49736684D01*
X283430617Y-54283752D02*
X283837353Y-55197297D01*
X284497494Y-55450702D02*
X283837353Y-55197297D01*
X285407816Y-50119537D02*
X283123952Y-51136379D01*
X286067957Y-50372942D02*
X285407816Y-50119537D01*
X287238131Y-54230492D02*
X284497494Y-55450702D01*
X287491535Y-53570351D02*
X287238131Y-54230492D01*
X282770476Y-54030347D02*
G75*
G02*
X283430617Y-54283752I203368J-456773D01*
G01*
X283123952Y-51136379D02*
G75*
G02*
X281143529Y-50376166I-610104J1370321D01*
G01*
%TD*%
M02*
