M48
; DRILL file {KiCad 7.0.5} date Tue Jul  4 10:47:45 2023
; FORMAT={-:-/ absolute / inch / decimal}
; #@! TF.CreationDate,2023-07-04T10:47:45-05:00
; #@! TF.GenerationSoftware,Kicad,Pcbnew,7.0.5
; #@! TF.FileFunction,Plated,1,2,PTH
FMAT,2
INCH
; #@! TA.AperFunction,Plated,PTH,ComponentDrill
T1C0.0394
; #@! TA.AperFunction,Plated,PTH,ComponentDrill
T2C0.0433
%
G90
G05
T1
X7.2591Y-0.9583
X7.2591Y-1.0583
X7.2591Y-1.1583
X7.2591Y-1.2583
X7.2591Y-1.3583
X7.2591Y-1.4583
X7.2591Y-1.5583
X7.2591Y-1.6583
X7.2591Y-1.7583
X7.3591Y-1.7583
X7.4591Y-1.7583
X7.5591Y-1.7583
X7.6591Y-1.7583
X7.7591Y-1.7583
X7.8591Y-0.9583
X7.8591Y-1.0583
X7.8591Y-1.1583
X7.8591Y-1.2583
X7.8591Y-1.3583
X7.8591Y-1.4583
X7.8591Y-1.5583
X7.8591Y-1.6583
X7.8591Y-1.7583
T2
X5.2406Y-1.1395
X5.2406Y-1.3167
X5.4966Y-1.1395
X5.4966Y-1.3167
X5.7094Y-1.1395
X5.7094Y-1.3167
X5.9653Y-1.1395
X5.9653Y-1.3167
X6.1781Y-1.1395
X6.1781Y-1.3167
X6.4341Y-1.1395
X6.4341Y-1.3167
X6.6469Y-1.1395
X6.6469Y-1.3167
X6.9028Y-1.1395
X6.9028Y-1.3167
T0
M30
