M48
; DRILL file {KiCad 7.0.5} date Sat Jul  1 10:30:38 2023
; FORMAT={-:-/ absolute / inch / decimal}
; #@! TF.CreationDate,2023-07-01T10:30:38-05:00
; #@! TF.GenerationSoftware,Kicad,Pcbnew,7.0.5
; #@! TF.FileFunction,NonPlated,1,2,NPTH
FMAT,2
INCH
; #@! TA.AperFunction,NonPlated,NPTH,ComponentDrill
T1C0.0390
; #@! TA.AperFunction,NonPlated,NPTH,ComponentDrill
T2C0.0670
; #@! TA.AperFunction,NonPlated,NPTH,ComponentDrill
T3C0.1181
; #@! TA.AperFunction,NonPlated,NPTH,ComponentDrill
T4C0.1260
; #@! TA.AperFunction,NonPlated,NPTH,ComponentDrill
T5C0.1350
%
G90
G05
T1
X2.6026Y-1.8839
X3.3259Y-2.1033
X3.6428Y-1.4236
X3.9729Y-2.494
X4.3695Y-4.4372
X10.7191Y-2.3704
X11.0242Y-3.0556
X11.0811Y-4.6788
X11.3672Y-1.982
X11.6722Y-2.6671
X12.0152Y-1.5935
X12.3203Y-2.2787
X12.7375Y-1.3719
X13.0425Y-2.057
X13.4969Y-1.2336
X13.8019Y-1.9187
T2
X2.1498Y-1.8633
X2.5454Y-2.0394
X2.8731Y-2.0827
X3.19Y-1.403
X3.2687Y-2.2588
X3.5201Y-2.4734
X3.5856Y-1.5791
X3.9157Y-2.6495
X4.1253Y-4.8191
X4.4756Y-4.5645
X10.4008Y-2.6931
X10.6425Y-4.5645
X10.7059Y-3.3783
X10.7965Y-2.517
X10.9928Y-4.8191
X11.0489Y-2.3047
X11.1015Y-3.2021
X11.3539Y-2.9899
X11.4445Y-2.1285
X11.6969Y-1.9163
X11.7495Y-2.8137
X12.002Y-2.6014
X12.0925Y-1.7401
X12.3976Y-2.4253
X12.4192Y-1.6946
X12.7242Y-2.3797
X12.8148Y-1.5184
X13.1199Y-2.2036
X13.1786Y-1.5563
X13.4836Y-2.2415
X13.5742Y-1.3801
X13.8793Y-2.0653
T3
X2.1077Y-2.0062
X2.2523Y-2.1654
X2.831Y-2.2256
X2.9756Y-2.3848
X3.1479Y-1.5458
X3.2926Y-1.705
X3.478Y-2.6163
X3.6226Y-2.7755
X4.228Y-4.927
X4.4382Y-4.8813
X10.4789Y-2.82
X10.5716Y-4.6955
X10.68Y-4.8813
X10.6939Y-2.8191
X10.7839Y-3.5052
X10.999Y-3.5042
X11.1269Y-2.4316
X11.342Y-2.4306
X11.432Y-3.1167
X11.647Y-3.1158
X11.7749Y-2.0431
X11.99Y-2.0422
X12.08Y-2.7283
X12.295Y-2.7273
X12.4972Y-1.8215
X12.7123Y-1.8205
X12.8023Y-2.5066
X13.0173Y-2.5057
X13.2566Y-1.6832
X13.4717Y-1.6822
X13.5617Y-2.3683
X13.7767Y-2.3674
T4
X1.063Y-1.063
X1.063Y-5.0787
X7.5591Y-3.0709
X14.0551Y-1.063
X14.0551Y-5.0787
T5
X2.3476Y-1.9514
X3.0709Y-2.1708
X3.3878Y-1.491
X3.7179Y-2.5615
X4.3005Y-4.6918
X10.5986Y-2.6051
X10.8176Y-4.6918
X10.9037Y-3.2902
X11.2467Y-2.2166
X11.5517Y-2.9018
X11.8947Y-1.8282
X12.1998Y-2.5133
X12.617Y-1.6065
X12.9221Y-2.2917
X13.3764Y-1.4682
X13.6815Y-2.1534
T0
M30
