%TF.GenerationSoftware,KiCad,Pcbnew,7.0.5*%
%TF.CreationDate,2023-07-04T10:47:42-05:00*%
%TF.ProjectId,triplejump,74726970-6c65-46a7-956d-702e6b696361,rev?*%
%TF.SameCoordinates,Original*%
%TF.FileFunction,Legend,Bot*%
%TF.FilePolarity,Positive*%
%FSLAX46Y46*%
G04 Gerber Fmt 4.6, Leading zero omitted, Abs format (unit mm)*
G04 Created by KiCad (PCBNEW 7.0.5) date 2023-07-04 10:47:42*
%MOMM*%
%LPD*%
G01*
G04 APERTURE LIST*
%ADD10C,0.150000*%
G04 APERTURE END LIST*
D10*
X234642680Y-128710105D02*
X234642680Y-125710105D01*
X233356966Y-128710105D02*
X233356966Y-127138676D01*
X233356966Y-127138676D02*
X233499823Y-126852962D01*
X233499823Y-126852962D02*
X233785537Y-126710105D01*
X233785537Y-126710105D02*
X234214108Y-126710105D01*
X234214108Y-126710105D02*
X234499823Y-126852962D01*
X234499823Y-126852962D02*
X234642680Y-126995819D01*
X232356965Y-126710105D02*
X231214108Y-126710105D01*
X231928394Y-125710105D02*
X231928394Y-128281533D01*
X231928394Y-128281533D02*
X231785537Y-128567248D01*
X231785537Y-128567248D02*
X231499822Y-128710105D01*
X231499822Y-128710105D02*
X231214108Y-128710105D01*
X230642679Y-126710105D02*
X229499822Y-126710105D01*
X230214108Y-125710105D02*
X230214108Y-128281533D01*
X230214108Y-128281533D02*
X230071251Y-128567248D01*
X230071251Y-128567248D02*
X229785536Y-128710105D01*
X229785536Y-128710105D02*
X229499822Y-128710105D01*
X228499822Y-126710105D02*
X228499822Y-129710105D01*
X228499822Y-126852962D02*
X228214108Y-126710105D01*
X228214108Y-126710105D02*
X227642679Y-126710105D01*
X227642679Y-126710105D02*
X227356965Y-126852962D01*
X227356965Y-126852962D02*
X227214108Y-126995819D01*
X227214108Y-126995819D02*
X227071250Y-127281533D01*
X227071250Y-127281533D02*
X227071250Y-128138676D01*
X227071250Y-128138676D02*
X227214108Y-128424390D01*
X227214108Y-128424390D02*
X227356965Y-128567248D01*
X227356965Y-128567248D02*
X227642679Y-128710105D01*
X227642679Y-128710105D02*
X228214108Y-128710105D01*
X228214108Y-128710105D02*
X228499822Y-128567248D01*
X225928393Y-128567248D02*
X225642679Y-128710105D01*
X225642679Y-128710105D02*
X225071250Y-128710105D01*
X225071250Y-128710105D02*
X224785536Y-128567248D01*
X224785536Y-128567248D02*
X224642679Y-128281533D01*
X224642679Y-128281533D02*
X224642679Y-128138676D01*
X224642679Y-128138676D02*
X224785536Y-127852962D01*
X224785536Y-127852962D02*
X225071250Y-127710105D01*
X225071250Y-127710105D02*
X225499822Y-127710105D01*
X225499822Y-127710105D02*
X225785536Y-127567248D01*
X225785536Y-127567248D02*
X225928393Y-127281533D01*
X225928393Y-127281533D02*
X225928393Y-127138676D01*
X225928393Y-127138676D02*
X225785536Y-126852962D01*
X225785536Y-126852962D02*
X225499822Y-126710105D01*
X225499822Y-126710105D02*
X225071250Y-126710105D01*
X225071250Y-126710105D02*
X224785536Y-126852962D01*
X223356965Y-128424390D02*
X223214108Y-128567248D01*
X223214108Y-128567248D02*
X223356965Y-128710105D01*
X223356965Y-128710105D02*
X223499822Y-128567248D01*
X223499822Y-128567248D02*
X223356965Y-128424390D01*
X223356965Y-128424390D02*
X223356965Y-128710105D01*
X223356965Y-126852962D02*
X223214108Y-126995819D01*
X223214108Y-126995819D02*
X223356965Y-127138676D01*
X223356965Y-127138676D02*
X223499822Y-126995819D01*
X223499822Y-126995819D02*
X223356965Y-126852962D01*
X223356965Y-126852962D02*
X223356965Y-127138676D01*
X219785537Y-125567248D02*
X222356965Y-129424390D01*
X216642680Y-125567248D02*
X219214108Y-129424390D01*
X214356966Y-126710105D02*
X214356966Y-129138676D01*
X214356966Y-129138676D02*
X214499823Y-129424390D01*
X214499823Y-129424390D02*
X214642680Y-129567248D01*
X214642680Y-129567248D02*
X214928394Y-129710105D01*
X214928394Y-129710105D02*
X215356966Y-129710105D01*
X215356966Y-129710105D02*
X215642680Y-129567248D01*
X214356966Y-128567248D02*
X214642680Y-128710105D01*
X214642680Y-128710105D02*
X215214108Y-128710105D01*
X215214108Y-128710105D02*
X215499823Y-128567248D01*
X215499823Y-128567248D02*
X215642680Y-128424390D01*
X215642680Y-128424390D02*
X215785537Y-128138676D01*
X215785537Y-128138676D02*
X215785537Y-127281533D01*
X215785537Y-127281533D02*
X215642680Y-126995819D01*
X215642680Y-126995819D02*
X215499823Y-126852962D01*
X215499823Y-126852962D02*
X215214108Y-126710105D01*
X215214108Y-126710105D02*
X214642680Y-126710105D01*
X214642680Y-126710105D02*
X214356966Y-126852962D01*
X212928394Y-128710105D02*
X212928394Y-126710105D01*
X212928394Y-125710105D02*
X213071251Y-125852962D01*
X213071251Y-125852962D02*
X212928394Y-125995819D01*
X212928394Y-125995819D02*
X212785537Y-125852962D01*
X212785537Y-125852962D02*
X212928394Y-125710105D01*
X212928394Y-125710105D02*
X212928394Y-125995819D01*
X211928394Y-126710105D02*
X210785537Y-126710105D01*
X211499823Y-125710105D02*
X211499823Y-128281533D01*
X211499823Y-128281533D02*
X211356966Y-128567248D01*
X211356966Y-128567248D02*
X211071251Y-128710105D01*
X211071251Y-128710105D02*
X210785537Y-128710105D01*
X209785537Y-128710105D02*
X209785537Y-125710105D01*
X208499823Y-128710105D02*
X208499823Y-127138676D01*
X208499823Y-127138676D02*
X208642680Y-126852962D01*
X208642680Y-126852962D02*
X208928394Y-126710105D01*
X208928394Y-126710105D02*
X209356965Y-126710105D01*
X209356965Y-126710105D02*
X209642680Y-126852962D01*
X209642680Y-126852962D02*
X209785537Y-126995819D01*
X205785537Y-126710105D02*
X205785537Y-128710105D01*
X207071251Y-126710105D02*
X207071251Y-128281533D01*
X207071251Y-128281533D02*
X206928394Y-128567248D01*
X206928394Y-128567248D02*
X206642679Y-128710105D01*
X206642679Y-128710105D02*
X206214108Y-128710105D01*
X206214108Y-128710105D02*
X205928394Y-128567248D01*
X205928394Y-128567248D02*
X205785537Y-128424390D01*
X204356965Y-128710105D02*
X204356965Y-125710105D01*
X204356965Y-126852962D02*
X204071251Y-126710105D01*
X204071251Y-126710105D02*
X203499822Y-126710105D01*
X203499822Y-126710105D02*
X203214108Y-126852962D01*
X203214108Y-126852962D02*
X203071251Y-126995819D01*
X203071251Y-126995819D02*
X202928393Y-127281533D01*
X202928393Y-127281533D02*
X202928393Y-128138676D01*
X202928393Y-128138676D02*
X203071251Y-128424390D01*
X203071251Y-128424390D02*
X203214108Y-128567248D01*
X203214108Y-128567248D02*
X203499822Y-128710105D01*
X203499822Y-128710105D02*
X204071251Y-128710105D01*
X204071251Y-128710105D02*
X204356965Y-128567248D01*
X201642679Y-128424390D02*
X201499822Y-128567248D01*
X201499822Y-128567248D02*
X201642679Y-128710105D01*
X201642679Y-128710105D02*
X201785536Y-128567248D01*
X201785536Y-128567248D02*
X201642679Y-128424390D01*
X201642679Y-128424390D02*
X201642679Y-128710105D01*
X198928394Y-128567248D02*
X199214108Y-128710105D01*
X199214108Y-128710105D02*
X199785536Y-128710105D01*
X199785536Y-128710105D02*
X200071251Y-128567248D01*
X200071251Y-128567248D02*
X200214108Y-128424390D01*
X200214108Y-128424390D02*
X200356965Y-128138676D01*
X200356965Y-128138676D02*
X200356965Y-127281533D01*
X200356965Y-127281533D02*
X200214108Y-126995819D01*
X200214108Y-126995819D02*
X200071251Y-126852962D01*
X200071251Y-126852962D02*
X199785536Y-126710105D01*
X199785536Y-126710105D02*
X199214108Y-126710105D01*
X199214108Y-126710105D02*
X198928394Y-126852962D01*
X197214107Y-128710105D02*
X197499822Y-128567248D01*
X197499822Y-128567248D02*
X197642679Y-128424390D01*
X197642679Y-128424390D02*
X197785536Y-128138676D01*
X197785536Y-128138676D02*
X197785536Y-127281533D01*
X197785536Y-127281533D02*
X197642679Y-126995819D01*
X197642679Y-126995819D02*
X197499822Y-126852962D01*
X197499822Y-126852962D02*
X197214107Y-126710105D01*
X197214107Y-126710105D02*
X196785536Y-126710105D01*
X196785536Y-126710105D02*
X196499822Y-126852962D01*
X196499822Y-126852962D02*
X196356965Y-126995819D01*
X196356965Y-126995819D02*
X196214107Y-127281533D01*
X196214107Y-127281533D02*
X196214107Y-128138676D01*
X196214107Y-128138676D02*
X196356965Y-128424390D01*
X196356965Y-128424390D02*
X196499822Y-128567248D01*
X196499822Y-128567248D02*
X196785536Y-128710105D01*
X196785536Y-128710105D02*
X197214107Y-128710105D01*
X194928393Y-128710105D02*
X194928393Y-126710105D01*
X194928393Y-126995819D02*
X194785536Y-126852962D01*
X194785536Y-126852962D02*
X194499821Y-126710105D01*
X194499821Y-126710105D02*
X194071250Y-126710105D01*
X194071250Y-126710105D02*
X193785536Y-126852962D01*
X193785536Y-126852962D02*
X193642679Y-127138676D01*
X193642679Y-127138676D02*
X193642679Y-128710105D01*
X193642679Y-127138676D02*
X193499821Y-126852962D01*
X193499821Y-126852962D02*
X193214107Y-126710105D01*
X193214107Y-126710105D02*
X192785536Y-126710105D01*
X192785536Y-126710105D02*
X192499821Y-126852962D01*
X192499821Y-126852962D02*
X192356964Y-127138676D01*
X192356964Y-127138676D02*
X192356964Y-128710105D01*
X188785536Y-125567248D02*
X191356964Y-129424390D01*
X186499822Y-128567248D02*
X186785536Y-128710105D01*
X186785536Y-128710105D02*
X187356964Y-128710105D01*
X187356964Y-128710105D02*
X187642679Y-128567248D01*
X187642679Y-128567248D02*
X187785536Y-128424390D01*
X187785536Y-128424390D02*
X187928393Y-128138676D01*
X187928393Y-128138676D02*
X187928393Y-127281533D01*
X187928393Y-127281533D02*
X187785536Y-126995819D01*
X187785536Y-126995819D02*
X187642679Y-126852962D01*
X187642679Y-126852962D02*
X187356964Y-126710105D01*
X187356964Y-126710105D02*
X186785536Y-126710105D01*
X186785536Y-126710105D02*
X186499822Y-126852962D01*
X185499821Y-126710105D02*
X184785535Y-128710105D01*
X184785535Y-128710105D02*
X184071250Y-126710105D01*
X181785536Y-128567248D02*
X182071250Y-128710105D01*
X182071250Y-128710105D02*
X182642679Y-128710105D01*
X182642679Y-128710105D02*
X182928393Y-128567248D01*
X182928393Y-128567248D02*
X183071250Y-128281533D01*
X183071250Y-128281533D02*
X183071250Y-127138676D01*
X183071250Y-127138676D02*
X182928393Y-126852962D01*
X182928393Y-126852962D02*
X182642679Y-126710105D01*
X182642679Y-126710105D02*
X182071250Y-126710105D01*
X182071250Y-126710105D02*
X181785536Y-126852962D01*
X181785536Y-126852962D02*
X181642679Y-127138676D01*
X181642679Y-127138676D02*
X181642679Y-127424390D01*
X181642679Y-127424390D02*
X183071250Y-127710105D01*
X179928392Y-128710105D02*
X180214107Y-128567248D01*
X180214107Y-128567248D02*
X180356964Y-128281533D01*
X180356964Y-128281533D02*
X180356964Y-125710105D01*
X177499821Y-128710105D02*
X177499821Y-125710105D01*
X177499821Y-128567248D02*
X177785535Y-128710105D01*
X177785535Y-128710105D02*
X178356963Y-128710105D01*
X178356963Y-128710105D02*
X178642678Y-128567248D01*
X178642678Y-128567248D02*
X178785535Y-128424390D01*
X178785535Y-128424390D02*
X178928392Y-128138676D01*
X178928392Y-128138676D02*
X178928392Y-127281533D01*
X178928392Y-127281533D02*
X178785535Y-126995819D01*
X178785535Y-126995819D02*
X178642678Y-126852962D01*
X178642678Y-126852962D02*
X178356963Y-126710105D01*
X178356963Y-126710105D02*
X177785535Y-126710105D01*
X177785535Y-126710105D02*
X177499821Y-126852962D01*
X176356963Y-126710105D02*
X175642677Y-128710105D01*
X174928392Y-126710105D02*
X175642677Y-128710105D01*
X175642677Y-128710105D02*
X175928392Y-129424390D01*
X175928392Y-129424390D02*
X176071249Y-129567248D01*
X176071249Y-129567248D02*
X176356963Y-129710105D01*
X171642678Y-125567248D02*
X174214106Y-129424390D01*
X171071249Y-126710105D02*
X169928392Y-126710105D01*
X170642678Y-125710105D02*
X170642678Y-128281533D01*
X170642678Y-128281533D02*
X170499821Y-128567248D01*
X170499821Y-128567248D02*
X170214106Y-128710105D01*
X170214106Y-128710105D02*
X169928392Y-128710105D01*
X168928392Y-128710105D02*
X168928392Y-126710105D01*
X168928392Y-127281533D02*
X168785535Y-126995819D01*
X168785535Y-126995819D02*
X168642678Y-126852962D01*
X168642678Y-126852962D02*
X168356963Y-126710105D01*
X168356963Y-126710105D02*
X168071249Y-126710105D01*
X167071249Y-128710105D02*
X167071249Y-126710105D01*
X167071249Y-125710105D02*
X167214106Y-125852962D01*
X167214106Y-125852962D02*
X167071249Y-125995819D01*
X167071249Y-125995819D02*
X166928392Y-125852962D01*
X166928392Y-125852962D02*
X167071249Y-125710105D01*
X167071249Y-125710105D02*
X167071249Y-125995819D01*
X165642678Y-126710105D02*
X165642678Y-129710105D01*
X165642678Y-126852962D02*
X165356964Y-126710105D01*
X165356964Y-126710105D02*
X164785535Y-126710105D01*
X164785535Y-126710105D02*
X164499821Y-126852962D01*
X164499821Y-126852962D02*
X164356964Y-126995819D01*
X164356964Y-126995819D02*
X164214106Y-127281533D01*
X164214106Y-127281533D02*
X164214106Y-128138676D01*
X164214106Y-128138676D02*
X164356964Y-128424390D01*
X164356964Y-128424390D02*
X164499821Y-128567248D01*
X164499821Y-128567248D02*
X164785535Y-128710105D01*
X164785535Y-128710105D02*
X165356964Y-128710105D01*
X165356964Y-128710105D02*
X165642678Y-128567248D01*
X162499820Y-128710105D02*
X162785535Y-128567248D01*
X162785535Y-128567248D02*
X162928392Y-128281533D01*
X162928392Y-128281533D02*
X162928392Y-125710105D01*
X160214106Y-128567248D02*
X160499820Y-128710105D01*
X160499820Y-128710105D02*
X161071249Y-128710105D01*
X161071249Y-128710105D02*
X161356963Y-128567248D01*
X161356963Y-128567248D02*
X161499820Y-128281533D01*
X161499820Y-128281533D02*
X161499820Y-127138676D01*
X161499820Y-127138676D02*
X161356963Y-126852962D01*
X161356963Y-126852962D02*
X161071249Y-126710105D01*
X161071249Y-126710105D02*
X160499820Y-126710105D01*
X160499820Y-126710105D02*
X160214106Y-126852962D01*
X160214106Y-126852962D02*
X160071249Y-127138676D01*
X160071249Y-127138676D02*
X160071249Y-127424390D01*
X160071249Y-127424390D02*
X161499820Y-127710105D01*
X158785534Y-126710105D02*
X158785534Y-129281533D01*
X158785534Y-129281533D02*
X158928391Y-129567248D01*
X158928391Y-129567248D02*
X159214105Y-129710105D01*
X159214105Y-129710105D02*
X159356962Y-129710105D01*
X158785534Y-125710105D02*
X158928391Y-125852962D01*
X158928391Y-125852962D02*
X158785534Y-125995819D01*
X158785534Y-125995819D02*
X158642677Y-125852962D01*
X158642677Y-125852962D02*
X158785534Y-125710105D01*
X158785534Y-125710105D02*
X158785534Y-125995819D01*
X156071249Y-126710105D02*
X156071249Y-128710105D01*
X157356963Y-126710105D02*
X157356963Y-128281533D01*
X157356963Y-128281533D02*
X157214106Y-128567248D01*
X157214106Y-128567248D02*
X156928391Y-128710105D01*
X156928391Y-128710105D02*
X156499820Y-128710105D01*
X156499820Y-128710105D02*
X156214106Y-128567248D01*
X156214106Y-128567248D02*
X156071249Y-128424390D01*
X154642677Y-128710105D02*
X154642677Y-126710105D01*
X154642677Y-126995819D02*
X154499820Y-126852962D01*
X154499820Y-126852962D02*
X154214105Y-126710105D01*
X154214105Y-126710105D02*
X153785534Y-126710105D01*
X153785534Y-126710105D02*
X153499820Y-126852962D01*
X153499820Y-126852962D02*
X153356963Y-127138676D01*
X153356963Y-127138676D02*
X153356963Y-128710105D01*
X153356963Y-127138676D02*
X153214105Y-126852962D01*
X153214105Y-126852962D02*
X152928391Y-126710105D01*
X152928391Y-126710105D02*
X152499820Y-126710105D01*
X152499820Y-126710105D02*
X152214105Y-126852962D01*
X152214105Y-126852962D02*
X152071248Y-127138676D01*
X152071248Y-127138676D02*
X152071248Y-128710105D01*
X150642677Y-126710105D02*
X150642677Y-129710105D01*
X150642677Y-126852962D02*
X150356963Y-126710105D01*
X150356963Y-126710105D02*
X149785534Y-126710105D01*
X149785534Y-126710105D02*
X149499820Y-126852962D01*
X149499820Y-126852962D02*
X149356963Y-126995819D01*
X149356963Y-126995819D02*
X149214105Y-127281533D01*
X149214105Y-127281533D02*
X149214105Y-128138676D01*
X149214105Y-128138676D02*
X149356963Y-128424390D01*
X149356963Y-128424390D02*
X149499820Y-128567248D01*
X149499820Y-128567248D02*
X149785534Y-128710105D01*
X149785534Y-128710105D02*
X150356963Y-128710105D01*
X150356963Y-128710105D02*
X150642677Y-128567248D01*
X196380774Y-48359555D02*
X196714107Y-47883364D01*
X196952202Y-48359555D02*
X196952202Y-47359555D01*
X196952202Y-47359555D02*
X196571250Y-47359555D01*
X196571250Y-47359555D02*
X196476012Y-47407174D01*
X196476012Y-47407174D02*
X196428393Y-47454793D01*
X196428393Y-47454793D02*
X196380774Y-47550031D01*
X196380774Y-47550031D02*
X196380774Y-47692888D01*
X196380774Y-47692888D02*
X196428393Y-47788126D01*
X196428393Y-47788126D02*
X196476012Y-47835745D01*
X196476012Y-47835745D02*
X196571250Y-47883364D01*
X196571250Y-47883364D02*
X196952202Y-47883364D01*
X195952202Y-48359555D02*
X195952202Y-47359555D01*
X195952202Y-47359555D02*
X195571250Y-47359555D01*
X195571250Y-47359555D02*
X195476012Y-47407174D01*
X195476012Y-47407174D02*
X195428393Y-47454793D01*
X195428393Y-47454793D02*
X195380774Y-47550031D01*
X195380774Y-47550031D02*
X195380774Y-47692888D01*
X195380774Y-47692888D02*
X195428393Y-47788126D01*
X195428393Y-47788126D02*
X195476012Y-47835745D01*
X195476012Y-47835745D02*
X195571250Y-47883364D01*
X195571250Y-47883364D02*
X195952202Y-47883364D01*
X194999821Y-47454793D02*
X194952202Y-47407174D01*
X194952202Y-47407174D02*
X194856964Y-47359555D01*
X194856964Y-47359555D02*
X194618869Y-47359555D01*
X194618869Y-47359555D02*
X194523631Y-47407174D01*
X194523631Y-47407174D02*
X194476012Y-47454793D01*
X194476012Y-47454793D02*
X194428393Y-47550031D01*
X194428393Y-47550031D02*
X194428393Y-47645269D01*
X194428393Y-47645269D02*
X194476012Y-47788126D01*
X194476012Y-47788126D02*
X195047440Y-48359555D01*
X195047440Y-48359555D02*
X194428393Y-48359555D01*
X193809345Y-47359555D02*
X193714107Y-47359555D01*
X193714107Y-47359555D02*
X193618869Y-47407174D01*
X193618869Y-47407174D02*
X193571250Y-47454793D01*
X193571250Y-47454793D02*
X193523631Y-47550031D01*
X193523631Y-47550031D02*
X193476012Y-47740507D01*
X193476012Y-47740507D02*
X193476012Y-47978602D01*
X193476012Y-47978602D02*
X193523631Y-48169078D01*
X193523631Y-48169078D02*
X193571250Y-48264316D01*
X193571250Y-48264316D02*
X193618869Y-48311936D01*
X193618869Y-48311936D02*
X193714107Y-48359555D01*
X193714107Y-48359555D02*
X193809345Y-48359555D01*
X193809345Y-48359555D02*
X193904583Y-48311936D01*
X193904583Y-48311936D02*
X193952202Y-48264316D01*
X193952202Y-48264316D02*
X193999821Y-48169078D01*
X193999821Y-48169078D02*
X194047440Y-47978602D01*
X194047440Y-47978602D02*
X194047440Y-47740507D01*
X194047440Y-47740507D02*
X193999821Y-47550031D01*
X193999821Y-47550031D02*
X193952202Y-47454793D01*
X193952202Y-47454793D02*
X193904583Y-47407174D01*
X193904583Y-47407174D02*
X193809345Y-47359555D01*
X192618869Y-47692888D02*
X192618869Y-48359555D01*
X192856964Y-47311936D02*
X193095059Y-48026221D01*
X193095059Y-48026221D02*
X192476012Y-48026221D01*
X191904583Y-47359555D02*
X191809345Y-47359555D01*
X191809345Y-47359555D02*
X191714107Y-47407174D01*
X191714107Y-47407174D02*
X191666488Y-47454793D01*
X191666488Y-47454793D02*
X191618869Y-47550031D01*
X191618869Y-47550031D02*
X191571250Y-47740507D01*
X191571250Y-47740507D02*
X191571250Y-47978602D01*
X191571250Y-47978602D02*
X191618869Y-48169078D01*
X191618869Y-48169078D02*
X191666488Y-48264316D01*
X191666488Y-48264316D02*
X191714107Y-48311936D01*
X191714107Y-48311936D02*
X191809345Y-48359555D01*
X191809345Y-48359555D02*
X191904583Y-48359555D01*
X191904583Y-48359555D02*
X191999821Y-48311936D01*
X191999821Y-48311936D02*
X192047440Y-48264316D01*
X192047440Y-48264316D02*
X192095059Y-48169078D01*
X192095059Y-48169078D02*
X192142678Y-47978602D01*
X192142678Y-47978602D02*
X192142678Y-47740507D01*
X192142678Y-47740507D02*
X192095059Y-47550031D01*
X192095059Y-47550031D02*
X192047440Y-47454793D01*
X192047440Y-47454793D02*
X191999821Y-47407174D01*
X191999821Y-47407174D02*
X191904583Y-47359555D01*
X191142678Y-47978602D02*
X190380774Y-47978602D01*
X189999821Y-47359555D02*
X189333155Y-47359555D01*
X189333155Y-47359555D02*
X189999821Y-48359555D01*
X189999821Y-48359555D02*
X189333155Y-48359555D01*
X188571250Y-48311936D02*
X188666488Y-48359555D01*
X188666488Y-48359555D02*
X188856964Y-48359555D01*
X188856964Y-48359555D02*
X188952202Y-48311936D01*
X188952202Y-48311936D02*
X188999821Y-48216697D01*
X188999821Y-48216697D02*
X188999821Y-47835745D01*
X188999821Y-47835745D02*
X188952202Y-47740507D01*
X188952202Y-47740507D02*
X188856964Y-47692888D01*
X188856964Y-47692888D02*
X188666488Y-47692888D01*
X188666488Y-47692888D02*
X188571250Y-47740507D01*
X188571250Y-47740507D02*
X188523631Y-47835745D01*
X188523631Y-47835745D02*
X188523631Y-47930983D01*
X188523631Y-47930983D02*
X188999821Y-48026221D01*
X188095059Y-48359555D02*
X188095059Y-47692888D01*
X188095059Y-47883364D02*
X188047440Y-47788126D01*
X188047440Y-47788126D02*
X187999821Y-47740507D01*
X187999821Y-47740507D02*
X187904583Y-47692888D01*
X187904583Y-47692888D02*
X187809345Y-47692888D01*
X187333154Y-48359555D02*
X187428392Y-48311936D01*
X187428392Y-48311936D02*
X187476011Y-48264316D01*
X187476011Y-48264316D02*
X187523630Y-48169078D01*
X187523630Y-48169078D02*
X187523630Y-47883364D01*
X187523630Y-47883364D02*
X187476011Y-47788126D01*
X187476011Y-47788126D02*
X187428392Y-47740507D01*
X187428392Y-47740507D02*
X187333154Y-47692888D01*
X187333154Y-47692888D02*
X187190297Y-47692888D01*
X187190297Y-47692888D02*
X187095059Y-47740507D01*
X187095059Y-47740507D02*
X187047440Y-47788126D01*
X187047440Y-47788126D02*
X186999821Y-47883364D01*
X186999821Y-47883364D02*
X186999821Y-48169078D01*
X186999821Y-48169078D02*
X187047440Y-48264316D01*
X187047440Y-48264316D02*
X187095059Y-48311936D01*
X187095059Y-48311936D02*
X187190297Y-48359555D01*
X187190297Y-48359555D02*
X187333154Y-48359555D01*
%TO.C,SW18*%
X306311672Y-63681608D02*
X306200534Y-63783215D01*
X306200534Y-63783215D02*
X305983023Y-63880057D01*
X305983023Y-63880057D02*
X305876650Y-63875292D01*
X305876650Y-63875292D02*
X305813780Y-63851158D01*
X305813780Y-63851158D02*
X305731541Y-63783522D01*
X305731541Y-63783522D02*
X305692804Y-63696518D01*
X305692804Y-63696518D02*
X305697569Y-63590145D01*
X305697569Y-63590145D02*
X305721703Y-63527274D01*
X305721703Y-63527274D02*
X305789339Y-63445035D01*
X305789339Y-63445035D02*
X305943979Y-63324060D01*
X305943979Y-63324060D02*
X306011615Y-63241821D01*
X306011615Y-63241821D02*
X306035749Y-63178950D01*
X306035749Y-63178950D02*
X306040514Y-63072577D01*
X306040514Y-63072577D02*
X306001777Y-62985573D01*
X306001777Y-62985573D02*
X305919538Y-62917937D01*
X305919538Y-62917937D02*
X305856668Y-62893803D01*
X305856668Y-62893803D02*
X305750295Y-62889038D01*
X305750295Y-62889038D02*
X305532784Y-62985880D01*
X305532784Y-62985880D02*
X305421646Y-63087487D01*
X305097763Y-63179564D02*
X305286988Y-64189952D01*
X305286988Y-64189952D02*
X304822454Y-63614893D01*
X304822454Y-63614893D02*
X304938971Y-64344899D01*
X304938971Y-64344899D02*
X304314724Y-63528196D01*
X303894919Y-64809741D02*
X304416945Y-64577320D01*
X304155932Y-64693530D02*
X303749196Y-63779985D01*
X303749196Y-63779985D02*
X303894305Y-63871754D01*
X303894305Y-63871754D02*
X304020046Y-63920022D01*
X304020046Y-63920022D02*
X304126419Y-63924787D01*
X303140472Y-64520136D02*
X303208108Y-64437897D01*
X303208108Y-64437897D02*
X303232242Y-64375026D01*
X303232242Y-64375026D02*
X303237007Y-64268653D01*
X303237007Y-64268653D02*
X303217639Y-64225151D01*
X303217639Y-64225151D02*
X303135400Y-64157515D01*
X303135400Y-64157515D02*
X303072529Y-64133382D01*
X303072529Y-64133382D02*
X302966157Y-64128616D01*
X302966157Y-64128616D02*
X302792148Y-64206090D01*
X302792148Y-64206090D02*
X302724512Y-64288329D01*
X302724512Y-64288329D02*
X302700378Y-64351199D01*
X302700378Y-64351199D02*
X302695613Y-64457572D01*
X302695613Y-64457572D02*
X302714981Y-64501074D01*
X302714981Y-64501074D02*
X302797220Y-64568710D01*
X302797220Y-64568710D02*
X302860091Y-64592844D01*
X302860091Y-64592844D02*
X302966464Y-64597609D01*
X302966464Y-64597609D02*
X303140472Y-64520136D01*
X303140472Y-64520136D02*
X303246845Y-64524901D01*
X303246845Y-64524901D02*
X303309716Y-64549035D01*
X303309716Y-64549035D02*
X303391955Y-64616671D01*
X303391955Y-64616671D02*
X303469428Y-64790679D01*
X303469428Y-64790679D02*
X303464663Y-64897052D01*
X303464663Y-64897052D02*
X303440529Y-64959923D01*
X303440529Y-64959923D02*
X303372893Y-65042162D01*
X303372893Y-65042162D02*
X303198885Y-65119635D01*
X303198885Y-65119635D02*
X303092512Y-65114870D01*
X303092512Y-65114870D02*
X303029641Y-65090736D01*
X303029641Y-65090736D02*
X302947402Y-65023100D01*
X302947402Y-65023100D02*
X302869929Y-64849092D01*
X302869929Y-64849092D02*
X302874694Y-64742719D01*
X302874694Y-64742719D02*
X302898828Y-64679848D01*
X302898828Y-64679848D02*
X302966464Y-64597609D01*
%TO.C,SW10*%
X273123323Y-116008165D02*
X272979759Y-115962720D01*
X272979759Y-115962720D02*
X272787136Y-115822771D01*
X272787136Y-115822771D02*
X272738077Y-115728267D01*
X272738077Y-115728267D02*
X272727542Y-115661752D01*
X272727542Y-115661752D02*
X272744997Y-115556713D01*
X272744997Y-115556713D02*
X272800976Y-115479664D01*
X272800976Y-115479664D02*
X272895480Y-115430605D01*
X272895480Y-115430605D02*
X272961995Y-115420070D01*
X272961995Y-115420070D02*
X273067034Y-115437525D01*
X273067034Y-115437525D02*
X273249122Y-115510959D01*
X273249122Y-115510959D02*
X273354161Y-115528414D01*
X273354161Y-115528414D02*
X273420676Y-115517879D01*
X273420676Y-115517879D02*
X273515180Y-115468820D01*
X273515180Y-115468820D02*
X273571159Y-115391771D01*
X273571159Y-115391771D02*
X273588614Y-115286732D01*
X273588614Y-115286732D02*
X273578079Y-115220217D01*
X273578079Y-115220217D02*
X273529020Y-115125713D01*
X273529020Y-115125713D02*
X273336397Y-114985764D01*
X273336397Y-114985764D02*
X273192833Y-114940320D01*
X272951151Y-114705867D02*
X272170742Y-115374935D01*
X272170742Y-115374935D02*
X272436490Y-114685106D01*
X272436490Y-114685106D02*
X271862545Y-115151016D01*
X271862545Y-115151016D02*
X272257707Y-114202051D01*
X270937955Y-114479262D02*
X271400250Y-114815139D01*
X271169102Y-114647201D02*
X271756887Y-113838184D01*
X271756887Y-113838184D02*
X271749967Y-114009737D01*
X271749967Y-114009737D02*
X271771037Y-114142766D01*
X271771037Y-114142766D02*
X271820097Y-114237270D01*
X271024920Y-113306378D02*
X270947870Y-113250398D01*
X270947870Y-113250398D02*
X270842831Y-113232943D01*
X270842831Y-113232943D02*
X270776317Y-113243478D01*
X270776317Y-113243478D02*
X270681813Y-113292538D01*
X270681813Y-113292538D02*
X270531329Y-113418646D01*
X270531329Y-113418646D02*
X270391380Y-113611270D01*
X270391380Y-113611270D02*
X270317946Y-113793358D01*
X270317946Y-113793358D02*
X270300491Y-113898397D01*
X270300491Y-113898397D02*
X270311026Y-113964911D01*
X270311026Y-113964911D02*
X270360085Y-114059415D01*
X270360085Y-114059415D02*
X270437134Y-114115395D01*
X270437134Y-114115395D02*
X270542173Y-114132850D01*
X270542173Y-114132850D02*
X270608688Y-114122315D01*
X270608688Y-114122315D02*
X270703192Y-114073255D01*
X270703192Y-114073255D02*
X270853676Y-113947147D01*
X270853676Y-113947147D02*
X270993625Y-113754524D01*
X270993625Y-113754524D02*
X271067059Y-113572435D01*
X271067059Y-113572435D02*
X271084514Y-113467396D01*
X271084514Y-113467396D02*
X271073979Y-113400882D01*
X271073979Y-113400882D02*
X271024920Y-113306378D01*
%TO.C,SW12*%
X282103215Y-56144727D02*
X281992077Y-56246334D01*
X281992077Y-56246334D02*
X281774566Y-56343176D01*
X281774566Y-56343176D02*
X281668193Y-56338411D01*
X281668193Y-56338411D02*
X281605323Y-56314277D01*
X281605323Y-56314277D02*
X281523084Y-56246641D01*
X281523084Y-56246641D02*
X281484347Y-56159637D01*
X281484347Y-56159637D02*
X281489112Y-56053264D01*
X281489112Y-56053264D02*
X281513246Y-55990393D01*
X281513246Y-55990393D02*
X281580882Y-55908154D01*
X281580882Y-55908154D02*
X281735522Y-55787179D01*
X281735522Y-55787179D02*
X281803158Y-55704940D01*
X281803158Y-55704940D02*
X281827292Y-55642069D01*
X281827292Y-55642069D02*
X281832057Y-55535696D01*
X281832057Y-55535696D02*
X281793320Y-55448692D01*
X281793320Y-55448692D02*
X281711081Y-55381056D01*
X281711081Y-55381056D02*
X281648211Y-55356922D01*
X281648211Y-55356922D02*
X281541838Y-55352157D01*
X281541838Y-55352157D02*
X281324327Y-55448999D01*
X281324327Y-55448999D02*
X281213189Y-55550606D01*
X280889306Y-55642683D02*
X281078531Y-56653071D01*
X281078531Y-56653071D02*
X280613997Y-56078012D01*
X280613997Y-56078012D02*
X280730514Y-56808018D01*
X280730514Y-56808018D02*
X280106267Y-55991315D01*
X279686462Y-57272860D02*
X280208488Y-57040439D01*
X279947475Y-57156649D02*
X279540739Y-56243104D01*
X279540739Y-56243104D02*
X279685848Y-56334873D01*
X279685848Y-56334873D02*
X279811589Y-56383141D01*
X279811589Y-56383141D02*
X279917962Y-56387906D01*
X278970445Y-56601266D02*
X278907574Y-56577132D01*
X278907574Y-56577132D02*
X278801202Y-56572367D01*
X278801202Y-56572367D02*
X278583691Y-56669209D01*
X278583691Y-56669209D02*
X278516055Y-56751448D01*
X278516055Y-56751448D02*
X278491921Y-56814318D01*
X278491921Y-56814318D02*
X278487156Y-56920691D01*
X278487156Y-56920691D02*
X278525893Y-57007696D01*
X278525893Y-57007696D02*
X278627500Y-57118834D01*
X278627500Y-57118834D02*
X279381947Y-57408439D01*
X279381947Y-57408439D02*
X278816419Y-57660228D01*
%TO.C,SW9*%
X105329132Y-120038692D02*
X105241547Y-120161186D01*
X105241547Y-120161186D02*
X105048924Y-120301135D01*
X105048924Y-120301135D02*
X104943885Y-120318590D01*
X104943885Y-120318590D02*
X104877371Y-120308055D01*
X104877371Y-120308055D02*
X104782867Y-120258995D01*
X104782867Y-120258995D02*
X104726887Y-120181946D01*
X104726887Y-120181946D02*
X104709432Y-120076907D01*
X104709432Y-120076907D02*
X104719967Y-120010393D01*
X104719967Y-120010393D02*
X104769027Y-119915888D01*
X104769027Y-119915888D02*
X104895135Y-119765405D01*
X104895135Y-119765405D02*
X104944195Y-119670901D01*
X104944195Y-119670901D02*
X104954730Y-119604386D01*
X104954730Y-119604386D02*
X104937275Y-119499347D01*
X104937275Y-119499347D02*
X104881295Y-119422298D01*
X104881295Y-119422298D02*
X104786791Y-119373238D01*
X104786791Y-119373238D02*
X104720277Y-119362704D01*
X104720277Y-119362704D02*
X104615238Y-119380159D01*
X104615238Y-119380159D02*
X104422615Y-119520107D01*
X104422615Y-119520107D02*
X104335030Y-119642601D01*
X104037368Y-119800005D02*
X104432530Y-120748971D01*
X104432530Y-120748971D02*
X103858585Y-120283061D01*
X103858585Y-120283061D02*
X104124333Y-120972889D01*
X104124333Y-120972889D02*
X103343925Y-120303821D01*
X103584989Y-121364746D02*
X103430890Y-121476705D01*
X103430890Y-121476705D02*
X103325851Y-121494160D01*
X103325851Y-121494160D02*
X103259337Y-121483625D01*
X103259337Y-121483625D02*
X103098319Y-121424031D01*
X103098319Y-121424031D02*
X102947835Y-121297922D01*
X102947835Y-121297922D02*
X102723917Y-120989725D01*
X102723917Y-120989725D02*
X102706462Y-120884686D01*
X102706462Y-120884686D02*
X102716997Y-120818172D01*
X102716997Y-120818172D02*
X102766056Y-120723668D01*
X102766056Y-120723668D02*
X102920154Y-120611709D01*
X102920154Y-120611709D02*
X103025193Y-120594254D01*
X103025193Y-120594254D02*
X103091708Y-120604788D01*
X103091708Y-120604788D02*
X103186212Y-120653848D01*
X103186212Y-120653848D02*
X103326161Y-120846471D01*
X103326161Y-120846471D02*
X103343616Y-120951510D01*
X103343616Y-120951510D02*
X103333081Y-121018024D01*
X103333081Y-121018024D02*
X103284022Y-121112529D01*
X103284022Y-121112529D02*
X103129923Y-121224488D01*
X103129923Y-121224488D02*
X103024884Y-121241943D01*
X103024884Y-121241943D02*
X102958370Y-121231408D01*
X102958370Y-121231408D02*
X102863865Y-121182348D01*
%TO.C,SW20*%
X343946505Y-54538423D02*
X343835367Y-54640030D01*
X343835367Y-54640030D02*
X343617856Y-54736872D01*
X343617856Y-54736872D02*
X343511483Y-54732107D01*
X343511483Y-54732107D02*
X343448613Y-54707973D01*
X343448613Y-54707973D02*
X343366374Y-54640337D01*
X343366374Y-54640337D02*
X343327637Y-54553333D01*
X343327637Y-54553333D02*
X343332402Y-54446960D01*
X343332402Y-54446960D02*
X343356536Y-54384089D01*
X343356536Y-54384089D02*
X343424172Y-54301850D01*
X343424172Y-54301850D02*
X343578812Y-54180875D01*
X343578812Y-54180875D02*
X343646448Y-54098636D01*
X343646448Y-54098636D02*
X343670582Y-54035765D01*
X343670582Y-54035765D02*
X343675347Y-53929392D01*
X343675347Y-53929392D02*
X343636610Y-53842388D01*
X343636610Y-53842388D02*
X343554371Y-53774752D01*
X343554371Y-53774752D02*
X343491501Y-53750618D01*
X343491501Y-53750618D02*
X343385128Y-53745853D01*
X343385128Y-53745853D02*
X343167617Y-53842695D01*
X343167617Y-53842695D02*
X343056479Y-53944302D01*
X342732596Y-54036379D02*
X342921821Y-55046767D01*
X342921821Y-55046767D02*
X342457287Y-54471708D01*
X342457287Y-54471708D02*
X342573804Y-55201714D01*
X342573804Y-55201714D02*
X341949557Y-54385011D01*
X341683778Y-54607594D02*
X341620908Y-54583460D01*
X341620908Y-54583460D02*
X341514535Y-54578695D01*
X341514535Y-54578695D02*
X341297024Y-54675537D01*
X341297024Y-54675537D02*
X341229388Y-54757776D01*
X341229388Y-54757776D02*
X341205255Y-54820646D01*
X341205255Y-54820646D02*
X341200489Y-54927019D01*
X341200489Y-54927019D02*
X341239226Y-55014023D01*
X341239226Y-55014023D02*
X341340833Y-55125161D01*
X341340833Y-55125161D02*
X342095280Y-55414766D01*
X342095280Y-55414766D02*
X341529752Y-55666556D01*
X340557487Y-55004800D02*
X340470483Y-55043536D01*
X340470483Y-55043536D02*
X340402847Y-55125775D01*
X340402847Y-55125775D02*
X340378713Y-55188646D01*
X340378713Y-55188646D02*
X340373948Y-55295019D01*
X340373948Y-55295019D02*
X340407920Y-55488396D01*
X340407920Y-55488396D02*
X340504762Y-55705907D01*
X340504762Y-55705907D02*
X340625737Y-55860547D01*
X340625737Y-55860547D02*
X340707976Y-55928183D01*
X340707976Y-55928183D02*
X340770847Y-55952317D01*
X340770847Y-55952317D02*
X340877220Y-55957082D01*
X340877220Y-55957082D02*
X340964224Y-55918345D01*
X340964224Y-55918345D02*
X341031860Y-55836106D01*
X341031860Y-55836106D02*
X341055994Y-55773236D01*
X341055994Y-55773236D02*
X341060759Y-55666863D01*
X341060759Y-55666863D02*
X341026788Y-55473486D01*
X341026788Y-55473486D02*
X340929945Y-55255975D01*
X340929945Y-55255975D02*
X340808970Y-55101335D01*
X340808970Y-55101335D02*
X340726731Y-55033699D01*
X340726731Y-55033699D02*
X340663860Y-55009565D01*
X340663860Y-55009565D02*
X340557487Y-55004800D01*
%TO.C,SW5*%
X56926599Y-46618084D02*
X56776725Y-46603480D01*
X56776725Y-46603480D02*
X56559214Y-46506638D01*
X56559214Y-46506638D02*
X56491578Y-46424399D01*
X56491578Y-46424399D02*
X56467444Y-46361529D01*
X56467444Y-46361529D02*
X56462679Y-46255156D01*
X56462679Y-46255156D02*
X56501416Y-46168152D01*
X56501416Y-46168152D02*
X56583655Y-46100516D01*
X56583655Y-46100516D02*
X56646525Y-46076382D01*
X56646525Y-46076382D02*
X56752898Y-46071617D01*
X56752898Y-46071617D02*
X56946275Y-46105588D01*
X56946275Y-46105588D02*
X57052648Y-46100823D01*
X57052648Y-46100823D02*
X57115518Y-46076689D01*
X57115518Y-46076689D02*
X57197757Y-46009053D01*
X57197757Y-46009053D02*
X57236494Y-45922049D01*
X57236494Y-45922049D02*
X57231729Y-45815676D01*
X57231729Y-45815676D02*
X57207595Y-45752806D01*
X57207595Y-45752806D02*
X57139959Y-45670567D01*
X57139959Y-45670567D02*
X56922448Y-45573725D01*
X56922448Y-45573725D02*
X56772573Y-45559121D01*
X56487427Y-45380040D02*
X55863179Y-46196744D01*
X55863179Y-46196744D02*
X55979697Y-45466738D01*
X55979697Y-45466738D02*
X55515162Y-46041796D01*
X55515162Y-46041796D02*
X55704388Y-45031409D01*
X54921349Y-44682778D02*
X55356370Y-44876462D01*
X55356370Y-44876462D02*
X55206188Y-45330852D01*
X55206188Y-45330852D02*
X55182055Y-45267981D01*
X55182055Y-45267981D02*
X55114419Y-45185742D01*
X55114419Y-45185742D02*
X54896908Y-45088900D01*
X54896908Y-45088900D02*
X54790535Y-45093666D01*
X54790535Y-45093666D02*
X54727665Y-45117799D01*
X54727665Y-45117799D02*
X54645426Y-45185435D01*
X54645426Y-45185435D02*
X54548584Y-45402946D01*
X54548584Y-45402946D02*
X54553349Y-45509319D01*
X54553349Y-45509319D02*
X54577483Y-45572189D01*
X54577483Y-45572189D02*
X54645119Y-45654428D01*
X54645119Y-45654428D02*
X54862629Y-45751270D01*
X54862629Y-45751270D02*
X54969002Y-45746505D01*
X54969002Y-45746505D02*
X55031873Y-45722371D01*
%TO.C,SW16*%
X273391424Y-83413928D02*
X273280286Y-83515535D01*
X273280286Y-83515535D02*
X273062775Y-83612377D01*
X273062775Y-83612377D02*
X272956402Y-83607612D01*
X272956402Y-83607612D02*
X272893532Y-83583478D01*
X272893532Y-83583478D02*
X272811293Y-83515842D01*
X272811293Y-83515842D02*
X272772556Y-83428838D01*
X272772556Y-83428838D02*
X272777321Y-83322465D01*
X272777321Y-83322465D02*
X272801455Y-83259594D01*
X272801455Y-83259594D02*
X272869091Y-83177355D01*
X272869091Y-83177355D02*
X273023731Y-83056380D01*
X273023731Y-83056380D02*
X273091367Y-82974141D01*
X273091367Y-82974141D02*
X273115501Y-82911270D01*
X273115501Y-82911270D02*
X273120266Y-82804897D01*
X273120266Y-82804897D02*
X273081529Y-82717893D01*
X273081529Y-82717893D02*
X272999290Y-82650257D01*
X272999290Y-82650257D02*
X272936420Y-82626123D01*
X272936420Y-82626123D02*
X272830047Y-82621358D01*
X272830047Y-82621358D02*
X272612536Y-82718200D01*
X272612536Y-82718200D02*
X272501398Y-82819807D01*
X272177515Y-82911884D02*
X272366740Y-83922272D01*
X272366740Y-83922272D02*
X271902206Y-83347213D01*
X271902206Y-83347213D02*
X272018723Y-84077219D01*
X272018723Y-84077219D02*
X271394476Y-83260516D01*
X270974671Y-84542061D02*
X271496697Y-84309640D01*
X271235684Y-84425850D02*
X270828948Y-83512305D01*
X270828948Y-83512305D02*
X270974057Y-83604074D01*
X270974057Y-83604074D02*
X271099798Y-83652342D01*
X271099798Y-83652342D02*
X271206171Y-83657107D01*
X269784896Y-83977147D02*
X269958904Y-83899673D01*
X269958904Y-83899673D02*
X270065277Y-83904438D01*
X270065277Y-83904438D02*
X270128148Y-83928572D01*
X270128148Y-83928572D02*
X270273257Y-84020342D01*
X270273257Y-84020342D02*
X270394233Y-84174982D01*
X270394233Y-84174982D02*
X270549180Y-84522999D01*
X270549180Y-84522999D02*
X270544415Y-84629372D01*
X270544415Y-84629372D02*
X270520281Y-84692243D01*
X270520281Y-84692243D02*
X270452645Y-84774482D01*
X270452645Y-84774482D02*
X270278637Y-84851955D01*
X270278637Y-84851955D02*
X270172264Y-84847190D01*
X270172264Y-84847190D02*
X270109393Y-84823056D01*
X270109393Y-84823056D02*
X270027154Y-84755420D01*
X270027154Y-84755420D02*
X269930312Y-84537910D01*
X269930312Y-84537910D02*
X269935077Y-84431537D01*
X269935077Y-84431537D02*
X269959211Y-84368666D01*
X269959211Y-84368666D02*
X270026847Y-84286427D01*
X270026847Y-84286427D02*
X270200856Y-84208954D01*
X270200856Y-84208954D02*
X270307229Y-84213719D01*
X270307229Y-84213719D02*
X270370099Y-84237853D01*
X270370099Y-84237853D02*
X270452338Y-84305489D01*
%TO.C,SW14*%
X316909297Y-40648061D02*
X316798159Y-40749668D01*
X316798159Y-40749668D02*
X316580648Y-40846510D01*
X316580648Y-40846510D02*
X316474275Y-40841745D01*
X316474275Y-40841745D02*
X316411405Y-40817611D01*
X316411405Y-40817611D02*
X316329166Y-40749975D01*
X316329166Y-40749975D02*
X316290429Y-40662971D01*
X316290429Y-40662971D02*
X316295194Y-40556598D01*
X316295194Y-40556598D02*
X316319328Y-40493727D01*
X316319328Y-40493727D02*
X316386964Y-40411488D01*
X316386964Y-40411488D02*
X316541604Y-40290513D01*
X316541604Y-40290513D02*
X316609240Y-40208274D01*
X316609240Y-40208274D02*
X316633374Y-40145403D01*
X316633374Y-40145403D02*
X316638139Y-40039030D01*
X316638139Y-40039030D02*
X316599402Y-39952026D01*
X316599402Y-39952026D02*
X316517163Y-39884390D01*
X316517163Y-39884390D02*
X316454293Y-39860256D01*
X316454293Y-39860256D02*
X316347920Y-39855491D01*
X316347920Y-39855491D02*
X316130409Y-39952333D01*
X316130409Y-39952333D02*
X316019271Y-40053940D01*
X315695388Y-40146017D02*
X315884613Y-41156405D01*
X315884613Y-41156405D02*
X315420079Y-40581346D01*
X315420079Y-40581346D02*
X315536596Y-41311352D01*
X315536596Y-41311352D02*
X314912349Y-40494649D01*
X314492544Y-41776194D02*
X315014570Y-41543773D01*
X314753557Y-41659983D02*
X314346821Y-40746438D01*
X314346821Y-40746438D02*
X314491930Y-40838207D01*
X314491930Y-40838207D02*
X314617671Y-40886475D01*
X314617671Y-40886475D02*
X314724044Y-40891240D01*
X313438347Y-41515795D02*
X313709505Y-42124825D01*
X313500911Y-41070935D02*
X314008948Y-41626626D01*
X314008948Y-41626626D02*
X313443420Y-41878415D01*
%TO.C,SW15*%
X336198172Y-37135382D02*
X336087034Y-37236989D01*
X336087034Y-37236989D02*
X335869523Y-37333831D01*
X335869523Y-37333831D02*
X335763150Y-37329066D01*
X335763150Y-37329066D02*
X335700280Y-37304932D01*
X335700280Y-37304932D02*
X335618041Y-37237296D01*
X335618041Y-37237296D02*
X335579304Y-37150292D01*
X335579304Y-37150292D02*
X335584069Y-37043919D01*
X335584069Y-37043919D02*
X335608203Y-36981048D01*
X335608203Y-36981048D02*
X335675839Y-36898809D01*
X335675839Y-36898809D02*
X335830479Y-36777834D01*
X335830479Y-36777834D02*
X335898115Y-36695595D01*
X335898115Y-36695595D02*
X335922249Y-36632724D01*
X335922249Y-36632724D02*
X335927014Y-36526351D01*
X335927014Y-36526351D02*
X335888277Y-36439347D01*
X335888277Y-36439347D02*
X335806038Y-36371711D01*
X335806038Y-36371711D02*
X335743168Y-36347577D01*
X335743168Y-36347577D02*
X335636795Y-36342812D01*
X335636795Y-36342812D02*
X335419284Y-36439654D01*
X335419284Y-36439654D02*
X335308146Y-36541261D01*
X334984263Y-36633338D02*
X335173488Y-37643726D01*
X335173488Y-37643726D02*
X334708954Y-37068667D01*
X334708954Y-37068667D02*
X334825471Y-37798673D01*
X334825471Y-37798673D02*
X334201224Y-36981970D01*
X333781419Y-38263515D02*
X334303445Y-38031094D01*
X334042432Y-38147304D02*
X333635696Y-37233759D01*
X333635696Y-37233759D02*
X333780805Y-37325528D01*
X333780805Y-37325528D02*
X333906546Y-37373796D01*
X333906546Y-37373796D02*
X334012919Y-37378561D01*
X332548141Y-37717969D02*
X332983163Y-37524285D01*
X332983163Y-37524285D02*
X333220349Y-37939938D01*
X333220349Y-37939938D02*
X333157479Y-37915804D01*
X333157479Y-37915804D02*
X333051106Y-37911039D01*
X333051106Y-37911039D02*
X332833595Y-38007881D01*
X332833595Y-38007881D02*
X332765959Y-38090120D01*
X332765959Y-38090120D02*
X332741825Y-38152991D01*
X332741825Y-38152991D02*
X332737060Y-38259364D01*
X332737060Y-38259364D02*
X332833902Y-38476874D01*
X332833902Y-38476874D02*
X332916141Y-38544510D01*
X332916141Y-38544510D02*
X332979012Y-38568644D01*
X332979012Y-38568644D02*
X333085385Y-38573409D01*
X333085385Y-38573409D02*
X333302895Y-38476567D01*
X333302895Y-38476567D02*
X333370531Y-38394328D01*
X333370531Y-38394328D02*
X333394665Y-38331458D01*
%TO.C,SW7*%
X91732681Y-62114750D02*
X91582807Y-62100146D01*
X91582807Y-62100146D02*
X91365296Y-62003304D01*
X91365296Y-62003304D02*
X91297660Y-61921065D01*
X91297660Y-61921065D02*
X91273526Y-61858195D01*
X91273526Y-61858195D02*
X91268761Y-61751822D01*
X91268761Y-61751822D02*
X91307498Y-61664818D01*
X91307498Y-61664818D02*
X91389737Y-61597182D01*
X91389737Y-61597182D02*
X91452607Y-61573048D01*
X91452607Y-61573048D02*
X91558980Y-61568283D01*
X91558980Y-61568283D02*
X91752357Y-61602254D01*
X91752357Y-61602254D02*
X91858730Y-61597489D01*
X91858730Y-61597489D02*
X91921600Y-61573355D01*
X91921600Y-61573355D02*
X92003839Y-61505719D01*
X92003839Y-61505719D02*
X92042576Y-61418715D01*
X92042576Y-61418715D02*
X92037811Y-61312342D01*
X92037811Y-61312342D02*
X92013677Y-61249472D01*
X92013677Y-61249472D02*
X91946041Y-61167233D01*
X91946041Y-61167233D02*
X91728530Y-61070391D01*
X91728530Y-61070391D02*
X91578655Y-61055787D01*
X91293509Y-60876706D02*
X90669261Y-61693410D01*
X90669261Y-61693410D02*
X90785779Y-60963404D01*
X90785779Y-60963404D02*
X90321244Y-61538462D01*
X90321244Y-61538462D02*
X90510470Y-60528075D01*
X90249457Y-60411865D02*
X89640426Y-60140707D01*
X89640426Y-60140707D02*
X89625209Y-61228568D01*
%TO.C,SW19*%
X324657630Y-58051102D02*
X324546492Y-58152709D01*
X324546492Y-58152709D02*
X324328981Y-58249551D01*
X324328981Y-58249551D02*
X324222608Y-58244786D01*
X324222608Y-58244786D02*
X324159738Y-58220652D01*
X324159738Y-58220652D02*
X324077499Y-58153016D01*
X324077499Y-58153016D02*
X324038762Y-58066012D01*
X324038762Y-58066012D02*
X324043527Y-57959639D01*
X324043527Y-57959639D02*
X324067661Y-57896768D01*
X324067661Y-57896768D02*
X324135297Y-57814529D01*
X324135297Y-57814529D02*
X324289937Y-57693554D01*
X324289937Y-57693554D02*
X324357573Y-57611315D01*
X324357573Y-57611315D02*
X324381707Y-57548444D01*
X324381707Y-57548444D02*
X324386472Y-57442071D01*
X324386472Y-57442071D02*
X324347735Y-57355067D01*
X324347735Y-57355067D02*
X324265496Y-57287431D01*
X324265496Y-57287431D02*
X324202626Y-57263297D01*
X324202626Y-57263297D02*
X324096253Y-57258532D01*
X324096253Y-57258532D02*
X323878742Y-57355374D01*
X323878742Y-57355374D02*
X323767604Y-57456981D01*
X323443721Y-57549058D02*
X323632946Y-58559446D01*
X323632946Y-58559446D02*
X323168412Y-57984387D01*
X323168412Y-57984387D02*
X323284929Y-58714393D01*
X323284929Y-58714393D02*
X322660682Y-57897690D01*
X322240877Y-59179235D02*
X322762903Y-58946814D01*
X322501890Y-59063024D02*
X322095154Y-58149479D01*
X322095154Y-58149479D02*
X322240263Y-58241248D01*
X322240263Y-58241248D02*
X322366004Y-58289516D01*
X322366004Y-58289516D02*
X322472377Y-58294281D01*
X321805856Y-59372919D02*
X321631847Y-59450393D01*
X321631847Y-59450393D02*
X321525474Y-59445627D01*
X321525474Y-59445627D02*
X321462604Y-59421493D01*
X321462604Y-59421493D02*
X321317494Y-59329724D01*
X321317494Y-59329724D02*
X321196518Y-59175084D01*
X321196518Y-59175084D02*
X321041571Y-58827066D01*
X321041571Y-58827066D02*
X321046336Y-58720693D01*
X321046336Y-58720693D02*
X321070470Y-58657823D01*
X321070470Y-58657823D02*
X321138106Y-58575584D01*
X321138106Y-58575584D02*
X321312115Y-58498110D01*
X321312115Y-58498110D02*
X321418487Y-58502876D01*
X321418487Y-58502876D02*
X321481358Y-58527009D01*
X321481358Y-58527009D02*
X321563597Y-58594645D01*
X321563597Y-58594645D02*
X321660439Y-58812156D01*
X321660439Y-58812156D02*
X321655674Y-58918529D01*
X321655674Y-58918529D02*
X321631540Y-58981399D01*
X321631540Y-58981399D02*
X321563904Y-59063638D01*
X321563904Y-59063638D02*
X321389895Y-59141112D01*
X321389895Y-59141112D02*
X321283522Y-59136347D01*
X321283522Y-59136347D02*
X321220652Y-59112213D01*
X321220652Y-59112213D02*
X321138413Y-59044577D01*
%TO.C,SW6*%
X75180482Y-52082951D02*
X75030608Y-52068347D01*
X75030608Y-52068347D02*
X74813097Y-51971505D01*
X74813097Y-51971505D02*
X74745461Y-51889266D01*
X74745461Y-51889266D02*
X74721327Y-51826396D01*
X74721327Y-51826396D02*
X74716562Y-51720023D01*
X74716562Y-51720023D02*
X74755299Y-51633019D01*
X74755299Y-51633019D02*
X74837538Y-51565383D01*
X74837538Y-51565383D02*
X74900408Y-51541249D01*
X74900408Y-51541249D02*
X75006781Y-51536484D01*
X75006781Y-51536484D02*
X75200158Y-51570455D01*
X75200158Y-51570455D02*
X75306531Y-51565690D01*
X75306531Y-51565690D02*
X75369401Y-51541556D01*
X75369401Y-51541556D02*
X75451640Y-51473920D01*
X75451640Y-51473920D02*
X75490377Y-51386916D01*
X75490377Y-51386916D02*
X75485612Y-51280543D01*
X75485612Y-51280543D02*
X75461478Y-51217673D01*
X75461478Y-51217673D02*
X75393842Y-51135434D01*
X75393842Y-51135434D02*
X75176331Y-51038592D01*
X75176331Y-51038592D02*
X75026456Y-51023988D01*
X74741310Y-50844907D02*
X74117062Y-51661611D01*
X74117062Y-51661611D02*
X74233580Y-50931605D01*
X74233580Y-50931605D02*
X73769045Y-51506663D01*
X73769045Y-51506663D02*
X73958271Y-50496276D01*
X73218734Y-50167013D02*
X73392743Y-50244487D01*
X73392743Y-50244487D02*
X73460378Y-50326726D01*
X73460378Y-50326726D02*
X73484512Y-50389596D01*
X73484512Y-50389596D02*
X73513411Y-50558840D01*
X73513411Y-50558840D02*
X73479440Y-50752217D01*
X73479440Y-50752217D02*
X73324493Y-51100234D01*
X73324493Y-51100234D02*
X73242254Y-51167870D01*
X73242254Y-51167870D02*
X73179383Y-51192004D01*
X73179383Y-51192004D02*
X73073010Y-51196769D01*
X73073010Y-51196769D02*
X72899002Y-51119295D01*
X72899002Y-51119295D02*
X72831366Y-51037056D01*
X72831366Y-51037056D02*
X72807232Y-50974186D01*
X72807232Y-50974186D02*
X72802467Y-50867813D01*
X72802467Y-50867813D02*
X72899309Y-50650302D01*
X72899309Y-50650302D02*
X72981548Y-50582666D01*
X72981548Y-50582666D02*
X73044418Y-50558533D01*
X73044418Y-50558533D02*
X73150791Y-50553767D01*
X73150791Y-50553767D02*
X73324800Y-50631241D01*
X73324800Y-50631241D02*
X73392436Y-50713480D01*
X73392436Y-50713480D02*
X73416569Y-50776350D01*
X73416569Y-50776350D02*
X73421335Y-50882723D01*
%TO.C,M3*%
X27809523Y-125254819D02*
X27809523Y-124254819D01*
X27809523Y-124254819D02*
X27476190Y-124969104D01*
X27476190Y-124969104D02*
X27142857Y-124254819D01*
X27142857Y-124254819D02*
X27142857Y-125254819D01*
X26761904Y-124254819D02*
X26142857Y-124254819D01*
X26142857Y-124254819D02*
X26476190Y-124635771D01*
X26476190Y-124635771D02*
X26333333Y-124635771D01*
X26333333Y-124635771D02*
X26238095Y-124683390D01*
X26238095Y-124683390D02*
X26190476Y-124731009D01*
X26190476Y-124731009D02*
X26142857Y-124826247D01*
X26142857Y-124826247D02*
X26142857Y-125064342D01*
X26142857Y-125064342D02*
X26190476Y-125159580D01*
X26190476Y-125159580D02*
X26238095Y-125207200D01*
X26238095Y-125207200D02*
X26333333Y-125254819D01*
X26333333Y-125254819D02*
X26619047Y-125254819D01*
X26619047Y-125254819D02*
X26714285Y-125207200D01*
X26714285Y-125207200D02*
X26761904Y-125159580D01*
%TO.C,SW17*%
X289851548Y-73547768D02*
X289740410Y-73649375D01*
X289740410Y-73649375D02*
X289522899Y-73746217D01*
X289522899Y-73746217D02*
X289416526Y-73741452D01*
X289416526Y-73741452D02*
X289353656Y-73717318D01*
X289353656Y-73717318D02*
X289271417Y-73649682D01*
X289271417Y-73649682D02*
X289232680Y-73562678D01*
X289232680Y-73562678D02*
X289237445Y-73456305D01*
X289237445Y-73456305D02*
X289261579Y-73393434D01*
X289261579Y-73393434D02*
X289329215Y-73311195D01*
X289329215Y-73311195D02*
X289483855Y-73190220D01*
X289483855Y-73190220D02*
X289551491Y-73107981D01*
X289551491Y-73107981D02*
X289575625Y-73045110D01*
X289575625Y-73045110D02*
X289580390Y-72938737D01*
X289580390Y-72938737D02*
X289541653Y-72851733D01*
X289541653Y-72851733D02*
X289459414Y-72784097D01*
X289459414Y-72784097D02*
X289396544Y-72759963D01*
X289396544Y-72759963D02*
X289290171Y-72755198D01*
X289290171Y-72755198D02*
X289072660Y-72852040D01*
X289072660Y-72852040D02*
X288961522Y-72953647D01*
X288637639Y-73045724D02*
X288826864Y-74056112D01*
X288826864Y-74056112D02*
X288362330Y-73481053D01*
X288362330Y-73481053D02*
X288478847Y-74211059D01*
X288478847Y-74211059D02*
X287854600Y-73394356D01*
X287434795Y-74675901D02*
X287956821Y-74443480D01*
X287695808Y-74559690D02*
X287289072Y-73646145D01*
X287289072Y-73646145D02*
X287434181Y-73737914D01*
X287434181Y-73737914D02*
X287559922Y-73786182D01*
X287559922Y-73786182D02*
X287666295Y-73790947D01*
X286723543Y-73897934D02*
X286114513Y-74169092D01*
X286114513Y-74169092D02*
X286912769Y-74908322D01*
%TO.C,SW4*%
X173414582Y-27350950D02*
X173271725Y-27398569D01*
X173271725Y-27398569D02*
X173033630Y-27398569D01*
X173033630Y-27398569D02*
X172938392Y-27350950D01*
X172938392Y-27350950D02*
X172890773Y-27303330D01*
X172890773Y-27303330D02*
X172843154Y-27208092D01*
X172843154Y-27208092D02*
X172843154Y-27112854D01*
X172843154Y-27112854D02*
X172890773Y-27017616D01*
X172890773Y-27017616D02*
X172938392Y-26969997D01*
X172938392Y-26969997D02*
X173033630Y-26922378D01*
X173033630Y-26922378D02*
X173224106Y-26874759D01*
X173224106Y-26874759D02*
X173319344Y-26827140D01*
X173319344Y-26827140D02*
X173366963Y-26779521D01*
X173366963Y-26779521D02*
X173414582Y-26684283D01*
X173414582Y-26684283D02*
X173414582Y-26589045D01*
X173414582Y-26589045D02*
X173366963Y-26493807D01*
X173366963Y-26493807D02*
X173319344Y-26446188D01*
X173319344Y-26446188D02*
X173224106Y-26398569D01*
X173224106Y-26398569D02*
X172986011Y-26398569D01*
X172986011Y-26398569D02*
X172843154Y-26446188D01*
X172509820Y-26398569D02*
X172271725Y-27398569D01*
X172271725Y-27398569D02*
X172081249Y-26684283D01*
X172081249Y-26684283D02*
X171890773Y-27398569D01*
X171890773Y-27398569D02*
X171652678Y-26398569D01*
X170843154Y-26731902D02*
X170843154Y-27398569D01*
X171081249Y-26350950D02*
X171319344Y-27065235D01*
X171319344Y-27065235D02*
X170700297Y-27065235D01*
%TO.C,M3*%
X27809523Y-31954819D02*
X27809523Y-30954819D01*
X27809523Y-30954819D02*
X27476190Y-31669104D01*
X27476190Y-31669104D02*
X27142857Y-30954819D01*
X27142857Y-30954819D02*
X27142857Y-31954819D01*
X26761904Y-30954819D02*
X26142857Y-30954819D01*
X26142857Y-30954819D02*
X26476190Y-31335771D01*
X26476190Y-31335771D02*
X26333333Y-31335771D01*
X26333333Y-31335771D02*
X26238095Y-31383390D01*
X26238095Y-31383390D02*
X26190476Y-31431009D01*
X26190476Y-31431009D02*
X26142857Y-31526247D01*
X26142857Y-31526247D02*
X26142857Y-31764342D01*
X26142857Y-31764342D02*
X26190476Y-31859580D01*
X26190476Y-31859580D02*
X26238095Y-31907200D01*
X26238095Y-31907200D02*
X26333333Y-31954819D01*
X26333333Y-31954819D02*
X26619047Y-31954819D01*
X26619047Y-31954819D02*
X26714285Y-31907200D01*
X26714285Y-31907200D02*
X26761904Y-31859580D01*
%TO.C,SW11*%
X265643091Y-66010887D02*
X265531953Y-66112494D01*
X265531953Y-66112494D02*
X265314442Y-66209336D01*
X265314442Y-66209336D02*
X265208069Y-66204571D01*
X265208069Y-66204571D02*
X265145199Y-66180437D01*
X265145199Y-66180437D02*
X265062960Y-66112801D01*
X265062960Y-66112801D02*
X265024223Y-66025797D01*
X265024223Y-66025797D02*
X265028988Y-65919424D01*
X265028988Y-65919424D02*
X265053122Y-65856553D01*
X265053122Y-65856553D02*
X265120758Y-65774314D01*
X265120758Y-65774314D02*
X265275398Y-65653339D01*
X265275398Y-65653339D02*
X265343034Y-65571100D01*
X265343034Y-65571100D02*
X265367168Y-65508229D01*
X265367168Y-65508229D02*
X265371933Y-65401856D01*
X265371933Y-65401856D02*
X265333196Y-65314852D01*
X265333196Y-65314852D02*
X265250957Y-65247216D01*
X265250957Y-65247216D02*
X265188087Y-65223082D01*
X265188087Y-65223082D02*
X265081714Y-65218317D01*
X265081714Y-65218317D02*
X264864203Y-65315159D01*
X264864203Y-65315159D02*
X264753065Y-65416766D01*
X264429182Y-65508843D02*
X264618407Y-66519231D01*
X264618407Y-66519231D02*
X264153873Y-65944172D01*
X264153873Y-65944172D02*
X264270390Y-66674178D01*
X264270390Y-66674178D02*
X263646143Y-65857475D01*
X263226338Y-67139020D02*
X263748364Y-66906599D01*
X263487351Y-67022809D02*
X263080615Y-66109264D01*
X263080615Y-66109264D02*
X263225724Y-66201033D01*
X263225724Y-66201033D02*
X263351465Y-66249301D01*
X263351465Y-66249301D02*
X263457838Y-66254066D01*
X262356295Y-67526388D02*
X262878321Y-67293967D01*
X262617308Y-67410178D02*
X262210571Y-66496632D01*
X262210571Y-66496632D02*
X262355681Y-66588402D01*
X262355681Y-66588402D02*
X262481422Y-66636669D01*
X262481422Y-66636669D02*
X262587795Y-66641435D01*
%TO.C,M3*%
X357809523Y-31954819D02*
X357809523Y-30954819D01*
X357809523Y-30954819D02*
X357476190Y-31669104D01*
X357476190Y-31669104D02*
X357142857Y-30954819D01*
X357142857Y-30954819D02*
X357142857Y-31954819D01*
X356761904Y-30954819D02*
X356142857Y-30954819D01*
X356142857Y-30954819D02*
X356476190Y-31335771D01*
X356476190Y-31335771D02*
X356333333Y-31335771D01*
X356333333Y-31335771D02*
X356238095Y-31383390D01*
X356238095Y-31383390D02*
X356190476Y-31431009D01*
X356190476Y-31431009D02*
X356142857Y-31526247D01*
X356142857Y-31526247D02*
X356142857Y-31764342D01*
X356142857Y-31764342D02*
X356190476Y-31859580D01*
X356190476Y-31859580D02*
X356238095Y-31907200D01*
X356238095Y-31907200D02*
X356333333Y-31954819D01*
X356333333Y-31954819D02*
X356619047Y-31954819D01*
X356619047Y-31954819D02*
X356714285Y-31907200D01*
X356714285Y-31907200D02*
X356761904Y-31859580D01*
%TO.C,SW13*%
X298563339Y-46278567D02*
X298452201Y-46380174D01*
X298452201Y-46380174D02*
X298234690Y-46477016D01*
X298234690Y-46477016D02*
X298128317Y-46472251D01*
X298128317Y-46472251D02*
X298065447Y-46448117D01*
X298065447Y-46448117D02*
X297983208Y-46380481D01*
X297983208Y-46380481D02*
X297944471Y-46293477D01*
X297944471Y-46293477D02*
X297949236Y-46187104D01*
X297949236Y-46187104D02*
X297973370Y-46124233D01*
X297973370Y-46124233D02*
X298041006Y-46041994D01*
X298041006Y-46041994D02*
X298195646Y-45921019D01*
X298195646Y-45921019D02*
X298263282Y-45838780D01*
X298263282Y-45838780D02*
X298287416Y-45775909D01*
X298287416Y-45775909D02*
X298292181Y-45669536D01*
X298292181Y-45669536D02*
X298253444Y-45582532D01*
X298253444Y-45582532D02*
X298171205Y-45514896D01*
X298171205Y-45514896D02*
X298108335Y-45490762D01*
X298108335Y-45490762D02*
X298001962Y-45485997D01*
X298001962Y-45485997D02*
X297784451Y-45582839D01*
X297784451Y-45582839D02*
X297673313Y-45684446D01*
X297349430Y-45776523D02*
X297538655Y-46786911D01*
X297538655Y-46786911D02*
X297074121Y-46211852D01*
X297074121Y-46211852D02*
X297190638Y-46941858D01*
X297190638Y-46941858D02*
X296566391Y-46125155D01*
X296146586Y-47406700D02*
X296668612Y-47174279D01*
X296407599Y-47290489D02*
X296000863Y-46376944D01*
X296000863Y-46376944D02*
X296145972Y-46468713D01*
X296145972Y-46468713D02*
X296271713Y-46516981D01*
X296271713Y-46516981D02*
X296378086Y-46521746D01*
X295435334Y-46628733D02*
X294869806Y-46880523D01*
X294869806Y-46880523D02*
X295329269Y-47092961D01*
X295329269Y-47092961D02*
X295198762Y-47151066D01*
X295198762Y-47151066D02*
X295131126Y-47233305D01*
X295131126Y-47233305D02*
X295106992Y-47296176D01*
X295106992Y-47296176D02*
X295102227Y-47402549D01*
X295102227Y-47402549D02*
X295199069Y-47620059D01*
X295199069Y-47620059D02*
X295281308Y-47687695D01*
X295281308Y-47687695D02*
X295344179Y-47711829D01*
X295344179Y-47711829D02*
X295450552Y-47716594D01*
X295450552Y-47716594D02*
X295711565Y-47600384D01*
X295711565Y-47600384D02*
X295779200Y-47518145D01*
X295779200Y-47518145D02*
X295803334Y-47455274D01*
%TO.C,SW8*%
X83077138Y-34804806D02*
X82927264Y-34790202D01*
X82927264Y-34790202D02*
X82709753Y-34693360D01*
X82709753Y-34693360D02*
X82642117Y-34611121D01*
X82642117Y-34611121D02*
X82617983Y-34548251D01*
X82617983Y-34548251D02*
X82613218Y-34441878D01*
X82613218Y-34441878D02*
X82651955Y-34354874D01*
X82651955Y-34354874D02*
X82734194Y-34287238D01*
X82734194Y-34287238D02*
X82797064Y-34263104D01*
X82797064Y-34263104D02*
X82903437Y-34258339D01*
X82903437Y-34258339D02*
X83096814Y-34292310D01*
X83096814Y-34292310D02*
X83203187Y-34287545D01*
X83203187Y-34287545D02*
X83266057Y-34263411D01*
X83266057Y-34263411D02*
X83348296Y-34195775D01*
X83348296Y-34195775D02*
X83387033Y-34108771D01*
X83387033Y-34108771D02*
X83382268Y-34002398D01*
X83382268Y-34002398D02*
X83358134Y-33939528D01*
X83358134Y-33939528D02*
X83290498Y-33857289D01*
X83290498Y-33857289D02*
X83072987Y-33760447D01*
X83072987Y-33760447D02*
X82923112Y-33745843D01*
X82637966Y-33566762D02*
X82013718Y-34383466D01*
X82013718Y-34383466D02*
X82130236Y-33653460D01*
X82130236Y-33653460D02*
X81665701Y-34228518D01*
X81665701Y-34228518D02*
X81854927Y-33218131D01*
X81202087Y-33396598D02*
X81308460Y-33391833D01*
X81308460Y-33391833D02*
X81371330Y-33367699D01*
X81371330Y-33367699D02*
X81453569Y-33300063D01*
X81453569Y-33300063D02*
X81472938Y-33256561D01*
X81472938Y-33256561D02*
X81468173Y-33150188D01*
X81468173Y-33150188D02*
X81444039Y-33087317D01*
X81444039Y-33087317D02*
X81376403Y-33005079D01*
X81376403Y-33005079D02*
X81202394Y-32927605D01*
X81202394Y-32927605D02*
X81096021Y-32932370D01*
X81096021Y-32932370D02*
X81033151Y-32956504D01*
X81033151Y-32956504D02*
X80950912Y-33024140D01*
X80950912Y-33024140D02*
X80931544Y-33067642D01*
X80931544Y-33067642D02*
X80936309Y-33174015D01*
X80936309Y-33174015D02*
X80960443Y-33236885D01*
X80960443Y-33236885D02*
X81028079Y-33319124D01*
X81028079Y-33319124D02*
X81202087Y-33396598D01*
X81202087Y-33396598D02*
X81269723Y-33478837D01*
X81269723Y-33478837D02*
X81293857Y-33541708D01*
X81293857Y-33541708D02*
X81298622Y-33648080D01*
X81298622Y-33648080D02*
X81221149Y-33822089D01*
X81221149Y-33822089D02*
X81138910Y-33889725D01*
X81138910Y-33889725D02*
X81076039Y-33913859D01*
X81076039Y-33913859D02*
X80969666Y-33918624D01*
X80969666Y-33918624D02*
X80795658Y-33841150D01*
X80795658Y-33841150D02*
X80728022Y-33758911D01*
X80728022Y-33758911D02*
X80703888Y-33696041D01*
X80703888Y-33696041D02*
X80699123Y-33589668D01*
X80699123Y-33589668D02*
X80776596Y-33415659D01*
X80776596Y-33415659D02*
X80858835Y-33348023D01*
X80858835Y-33348023D02*
X80921706Y-33323890D01*
X80921706Y-33323890D02*
X81028079Y-33319124D01*
%TO.C,M3*%
X357809523Y-125254819D02*
X357809523Y-124254819D01*
X357809523Y-124254819D02*
X357476190Y-124969104D01*
X357476190Y-124969104D02*
X357142857Y-124254819D01*
X357142857Y-124254819D02*
X357142857Y-125254819D01*
X356761904Y-124254819D02*
X356142857Y-124254819D01*
X356142857Y-124254819D02*
X356476190Y-124635771D01*
X356476190Y-124635771D02*
X356333333Y-124635771D01*
X356333333Y-124635771D02*
X356238095Y-124683390D01*
X356238095Y-124683390D02*
X356190476Y-124731009D01*
X356190476Y-124731009D02*
X356142857Y-124826247D01*
X356142857Y-124826247D02*
X356142857Y-125064342D01*
X356142857Y-125064342D02*
X356190476Y-125159580D01*
X356190476Y-125159580D02*
X356238095Y-125207200D01*
X356238095Y-125207200D02*
X356333333Y-125254819D01*
X356333333Y-125254819D02*
X356619047Y-125254819D01*
X356619047Y-125254819D02*
X356714285Y-125207200D01*
X356714285Y-125207200D02*
X356761904Y-125159580D01*
%TO.C,SW1*%
X137695832Y-27350950D02*
X137552975Y-27398569D01*
X137552975Y-27398569D02*
X137314880Y-27398569D01*
X137314880Y-27398569D02*
X137219642Y-27350950D01*
X137219642Y-27350950D02*
X137172023Y-27303330D01*
X137172023Y-27303330D02*
X137124404Y-27208092D01*
X137124404Y-27208092D02*
X137124404Y-27112854D01*
X137124404Y-27112854D02*
X137172023Y-27017616D01*
X137172023Y-27017616D02*
X137219642Y-26969997D01*
X137219642Y-26969997D02*
X137314880Y-26922378D01*
X137314880Y-26922378D02*
X137505356Y-26874759D01*
X137505356Y-26874759D02*
X137600594Y-26827140D01*
X137600594Y-26827140D02*
X137648213Y-26779521D01*
X137648213Y-26779521D02*
X137695832Y-26684283D01*
X137695832Y-26684283D02*
X137695832Y-26589045D01*
X137695832Y-26589045D02*
X137648213Y-26493807D01*
X137648213Y-26493807D02*
X137600594Y-26446188D01*
X137600594Y-26446188D02*
X137505356Y-26398569D01*
X137505356Y-26398569D02*
X137267261Y-26398569D01*
X137267261Y-26398569D02*
X137124404Y-26446188D01*
X136791070Y-26398569D02*
X136552975Y-27398569D01*
X136552975Y-27398569D02*
X136362499Y-26684283D01*
X136362499Y-26684283D02*
X136172023Y-27398569D01*
X136172023Y-27398569D02*
X135933928Y-26398569D01*
X135029166Y-27398569D02*
X135600594Y-27398569D01*
X135314880Y-27398569D02*
X135314880Y-26398569D01*
X135314880Y-26398569D02*
X135410118Y-26541426D01*
X135410118Y-26541426D02*
X135505356Y-26636664D01*
X135505356Y-26636664D02*
X135600594Y-26684283D01*
%TO.C,SW3*%
X161508332Y-27350950D02*
X161365475Y-27398569D01*
X161365475Y-27398569D02*
X161127380Y-27398569D01*
X161127380Y-27398569D02*
X161032142Y-27350950D01*
X161032142Y-27350950D02*
X160984523Y-27303330D01*
X160984523Y-27303330D02*
X160936904Y-27208092D01*
X160936904Y-27208092D02*
X160936904Y-27112854D01*
X160936904Y-27112854D02*
X160984523Y-27017616D01*
X160984523Y-27017616D02*
X161032142Y-26969997D01*
X161032142Y-26969997D02*
X161127380Y-26922378D01*
X161127380Y-26922378D02*
X161317856Y-26874759D01*
X161317856Y-26874759D02*
X161413094Y-26827140D01*
X161413094Y-26827140D02*
X161460713Y-26779521D01*
X161460713Y-26779521D02*
X161508332Y-26684283D01*
X161508332Y-26684283D02*
X161508332Y-26589045D01*
X161508332Y-26589045D02*
X161460713Y-26493807D01*
X161460713Y-26493807D02*
X161413094Y-26446188D01*
X161413094Y-26446188D02*
X161317856Y-26398569D01*
X161317856Y-26398569D02*
X161079761Y-26398569D01*
X161079761Y-26398569D02*
X160936904Y-26446188D01*
X160603570Y-26398569D02*
X160365475Y-27398569D01*
X160365475Y-27398569D02*
X160174999Y-26684283D01*
X160174999Y-26684283D02*
X159984523Y-27398569D01*
X159984523Y-27398569D02*
X159746428Y-26398569D01*
X159460713Y-26398569D02*
X158841666Y-26398569D01*
X158841666Y-26398569D02*
X159174999Y-26779521D01*
X159174999Y-26779521D02*
X159032142Y-26779521D01*
X159032142Y-26779521D02*
X158936904Y-26827140D01*
X158936904Y-26827140D02*
X158889285Y-26874759D01*
X158889285Y-26874759D02*
X158841666Y-26969997D01*
X158841666Y-26969997D02*
X158841666Y-27208092D01*
X158841666Y-27208092D02*
X158889285Y-27303330D01*
X158889285Y-27303330D02*
X158936904Y-27350950D01*
X158936904Y-27350950D02*
X159032142Y-27398569D01*
X159032142Y-27398569D02*
X159317856Y-27398569D01*
X159317856Y-27398569D02*
X159413094Y-27350950D01*
X159413094Y-27350950D02*
X159460713Y-27303330D01*
%TO.C,SW2*%
X149602082Y-27350950D02*
X149459225Y-27398569D01*
X149459225Y-27398569D02*
X149221130Y-27398569D01*
X149221130Y-27398569D02*
X149125892Y-27350950D01*
X149125892Y-27350950D02*
X149078273Y-27303330D01*
X149078273Y-27303330D02*
X149030654Y-27208092D01*
X149030654Y-27208092D02*
X149030654Y-27112854D01*
X149030654Y-27112854D02*
X149078273Y-27017616D01*
X149078273Y-27017616D02*
X149125892Y-26969997D01*
X149125892Y-26969997D02*
X149221130Y-26922378D01*
X149221130Y-26922378D02*
X149411606Y-26874759D01*
X149411606Y-26874759D02*
X149506844Y-26827140D01*
X149506844Y-26827140D02*
X149554463Y-26779521D01*
X149554463Y-26779521D02*
X149602082Y-26684283D01*
X149602082Y-26684283D02*
X149602082Y-26589045D01*
X149602082Y-26589045D02*
X149554463Y-26493807D01*
X149554463Y-26493807D02*
X149506844Y-26446188D01*
X149506844Y-26446188D02*
X149411606Y-26398569D01*
X149411606Y-26398569D02*
X149173511Y-26398569D01*
X149173511Y-26398569D02*
X149030654Y-26446188D01*
X148697320Y-26398569D02*
X148459225Y-27398569D01*
X148459225Y-27398569D02*
X148268749Y-26684283D01*
X148268749Y-26684283D02*
X148078273Y-27398569D01*
X148078273Y-27398569D02*
X147840178Y-26398569D01*
X147506844Y-26493807D02*
X147459225Y-26446188D01*
X147459225Y-26446188D02*
X147363987Y-26398569D01*
X147363987Y-26398569D02*
X147125892Y-26398569D01*
X147125892Y-26398569D02*
X147030654Y-26446188D01*
X147030654Y-26446188D02*
X146983035Y-26493807D01*
X146983035Y-26493807D02*
X146935416Y-26589045D01*
X146935416Y-26589045D02*
X146935416Y-26684283D01*
X146935416Y-26684283D02*
X146983035Y-26827140D01*
X146983035Y-26827140D02*
X147554463Y-27398569D01*
X147554463Y-27398569D02*
X146935416Y-27398569D01*
%TO.C,SW18*%
X304089455Y-68056495D02*
X304292823Y-68513267D01*
X305757075Y-71802031D02*
X306001117Y-72350158D01*
X306001117Y-72350158D02*
X310112072Y-70519843D01*
X308200409Y-66226180D02*
X304089455Y-68056495D01*
X308485125Y-66865662D02*
X308200409Y-66226180D01*
X310772213Y-70773248D02*
X311178949Y-71686793D01*
X311839090Y-71940198D02*
X311178949Y-71686793D01*
X312749412Y-66609033D02*
X310465548Y-67625875D01*
X314579727Y-70719988D02*
X311839090Y-71940198D01*
X313409553Y-66862438D02*
X312749412Y-66609033D01*
X314833131Y-70059847D02*
X314579727Y-70719988D01*
X310772212Y-70773249D02*
G75*
G03*
X310112072Y-70519844I-456773J-203368D01*
G01*
X308485125Y-66865662D02*
G75*
G03*
X310465548Y-67625875I1370319J610108D01*
G01*
%TO.C,SW10*%
X268223451Y-116271111D02*
X267929559Y-116675619D01*
X265813532Y-119588080D02*
X265460860Y-120073491D01*
X265460860Y-120073491D02*
X269101437Y-122718524D01*
X271864028Y-118916144D02*
X268223451Y-116271111D01*
X271452578Y-119482456D02*
X271864028Y-118916144D01*
X269212053Y-123416925D02*
X268624268Y-124225942D01*
X268734883Y-124924343D02*
X268624268Y-124225942D01*
X273806968Y-123047123D02*
X271784426Y-121577660D01*
X271161934Y-126687699D02*
X268734883Y-124924343D01*
X273917584Y-123745524D02*
X273806968Y-123047123D01*
X271860336Y-126577083D02*
X271161934Y-126687699D01*
X269212053Y-123416925D02*
G75*
G03*
X269101437Y-122718524I-404510J293892D01*
G01*
X271452578Y-119482456D02*
G75*
G03*
X271784426Y-121577660I1213527J-881678D01*
G01*
%TO.C,SW12*%
X279880998Y-60519614D02*
X280084366Y-60976386D01*
X281548618Y-64265150D02*
X281792660Y-64813277D01*
X281792660Y-64813277D02*
X285903615Y-62982962D01*
X283991952Y-58689299D02*
X279880998Y-60519614D01*
X284276668Y-59328781D02*
X283991952Y-58689299D01*
X286563756Y-63236367D02*
X286970492Y-64149912D01*
X287630633Y-64403317D02*
X286970492Y-64149912D01*
X288540955Y-59072152D02*
X286257091Y-60088994D01*
X290371270Y-63183107D02*
X287630633Y-64403317D01*
X289201096Y-59325557D02*
X288540955Y-59072152D01*
X290624674Y-62522966D02*
X290371270Y-63183107D01*
X286563755Y-63236368D02*
G75*
G03*
X285903615Y-62982963I-456773J-203368D01*
G01*
X284276668Y-59328781D02*
G75*
G03*
X286257091Y-60088994I1370319J610108D01*
G01*
%TO.C,SW9*%
X104450311Y-124500104D02*
X104744204Y-124904613D01*
X106860230Y-127817074D02*
X107212902Y-128302484D01*
X107212902Y-128302484D02*
X110853478Y-125657450D01*
X108090887Y-121855071D02*
X104450311Y-124500104D01*
X108502337Y-122421383D02*
X108090887Y-121855071D01*
X111551879Y-125768066D02*
X112139664Y-126577083D01*
X112838066Y-126687699D02*
X112139664Y-126577083D01*
X112620083Y-121283767D02*
X110597540Y-122753230D01*
X115265117Y-124924343D02*
X112838066Y-126687699D01*
X113318484Y-121394383D02*
X112620083Y-121283767D01*
X115375732Y-124225942D02*
X115265117Y-124924343D01*
X111551878Y-125768067D02*
G75*
G03*
X110853478Y-125657451I-404508J-293893D01*
G01*
X108502338Y-122421382D02*
G75*
G03*
X110597540Y-122753229I1213525J881679D01*
G01*
%TO.C,SW20*%
X341724288Y-58913310D02*
X341927656Y-59370082D01*
X343391908Y-62658846D02*
X343635950Y-63206973D01*
X343635950Y-63206973D02*
X347746905Y-61376658D01*
X345835242Y-57082995D02*
X341724288Y-58913310D01*
X346119958Y-57722477D02*
X345835242Y-57082995D01*
X348407046Y-61630063D02*
X348813782Y-62543608D01*
X349473923Y-62797013D02*
X348813782Y-62543608D01*
X350384245Y-57465848D02*
X348100381Y-58482690D01*
X352214560Y-61576803D02*
X349473923Y-62797013D01*
X351044386Y-57719253D02*
X350384245Y-57465848D01*
X352467964Y-60916662D02*
X352214560Y-61576803D01*
X348407045Y-61630064D02*
G75*
G03*
X347746905Y-61376659I-456773J-203368D01*
G01*
X346119958Y-57722477D02*
G75*
G03*
X348100381Y-58482690I1370319J610108D01*
G01*
%TO.C,SW5*%
X52623494Y-48087709D02*
X52420126Y-48544481D01*
X50955874Y-51833245D02*
X50711832Y-52381372D01*
X50711832Y-52381372D02*
X54822786Y-54211687D01*
X56734448Y-49918024D02*
X52623494Y-48087709D01*
X56449733Y-50557505D02*
X56734448Y-49918024D01*
X55076191Y-54871828D02*
X54669454Y-55785374D01*
X54922858Y-56445515D02*
X54669454Y-55785374D01*
X59493810Y-53554770D02*
X57209946Y-52537929D01*
X57663495Y-57665725D02*
X54922858Y-56445515D01*
X59747214Y-54214911D02*
X59493810Y-53554770D01*
X58323636Y-57412320D02*
X57663495Y-57665725D01*
X55076190Y-54871828D02*
G75*
G03*
X54822786Y-54211687I-456773J203368D01*
G01*
X56449733Y-50557505D02*
G75*
G03*
X57209946Y-52537929I1370319J-610105D01*
G01*
%TO.C,SW16*%
X271169207Y-87788815D02*
X271372575Y-88245587D01*
X272836827Y-91534351D02*
X273080869Y-92082478D01*
X273080869Y-92082478D02*
X277191824Y-90252163D01*
X275280161Y-85958500D02*
X271169207Y-87788815D01*
X275564877Y-86597982D02*
X275280161Y-85958500D01*
X277851965Y-90505568D02*
X278258701Y-91419113D01*
X278918842Y-91672518D02*
X278258701Y-91419113D01*
X279829164Y-86341353D02*
X277545300Y-87358195D01*
X281659479Y-90452308D02*
X278918842Y-91672518D01*
X280489305Y-86594758D02*
X279829164Y-86341353D01*
X281912883Y-89792167D02*
X281659479Y-90452308D01*
X277851964Y-90505569D02*
G75*
G03*
X277191824Y-90252164I-456773J-203368D01*
G01*
X275564877Y-86597982D02*
G75*
G03*
X277545300Y-87358195I1370319J610108D01*
G01*
%TO.C,SW14*%
X314687080Y-45022948D02*
X314890448Y-45479720D01*
X316354700Y-48768484D02*
X316598742Y-49316611D01*
X316598742Y-49316611D02*
X320709697Y-47486296D01*
X318798034Y-43192633D02*
X314687080Y-45022948D01*
X319082750Y-43832115D02*
X318798034Y-43192633D01*
X321369838Y-47739701D02*
X321776574Y-48653246D01*
X322436715Y-48906651D02*
X321776574Y-48653246D01*
X323347037Y-43575486D02*
X321063173Y-44592328D01*
X325177352Y-47686441D02*
X322436715Y-48906651D01*
X324007178Y-43828891D02*
X323347037Y-43575486D01*
X325430756Y-47026300D02*
X325177352Y-47686441D01*
X321369837Y-47739702D02*
G75*
G03*
X320709697Y-47486297I-456773J-203368D01*
G01*
X319082750Y-43832115D02*
G75*
G03*
X321063173Y-44592328I1370319J610108D01*
G01*
%TO.C,SW15*%
X333975955Y-41510269D02*
X334179323Y-41967041D01*
X335643575Y-45255805D02*
X335887617Y-45803932D01*
X335887617Y-45803932D02*
X339998572Y-43973617D01*
X338086909Y-39679954D02*
X333975955Y-41510269D01*
X338371625Y-40319436D02*
X338086909Y-39679954D01*
X340658713Y-44227022D02*
X341065449Y-45140567D01*
X341725590Y-45393972D02*
X341065449Y-45140567D01*
X342635912Y-40062807D02*
X340352048Y-41079649D01*
X344466227Y-44173762D02*
X341725590Y-45393972D01*
X343296053Y-40316212D02*
X342635912Y-40062807D01*
X344719631Y-43513621D02*
X344466227Y-44173762D01*
X340658712Y-44227023D02*
G75*
G03*
X339998572Y-43973618I-456773J-203368D01*
G01*
X338371625Y-40319436D02*
G75*
G03*
X340352048Y-41079649I1370319J610108D01*
G01*
%TO.C,SW7*%
X87429576Y-63584375D02*
X87226208Y-64041147D01*
X85761956Y-67329911D02*
X85517914Y-67878038D01*
X85517914Y-67878038D02*
X89628868Y-69708353D01*
X91540530Y-65414690D02*
X87429576Y-63584375D01*
X91255815Y-66054171D02*
X91540530Y-65414690D01*
X89882273Y-70368494D02*
X89475536Y-71282040D01*
X89728940Y-71942181D02*
X89475536Y-71282040D01*
X94299892Y-69051436D02*
X92016028Y-68034595D01*
X92469577Y-73162391D02*
X89728940Y-71942181D01*
X94553296Y-69711577D02*
X94299892Y-69051436D01*
X93129718Y-72908986D02*
X92469577Y-73162391D01*
X89882272Y-70368494D02*
G75*
G03*
X89628868Y-69708353I-456773J203368D01*
G01*
X91255815Y-66054171D02*
G75*
G03*
X92016028Y-68034595I1370319J-610105D01*
G01*
%TO.C,SW19*%
X322435413Y-62425989D02*
X322638781Y-62882761D01*
X324103033Y-66171525D02*
X324347075Y-66719652D01*
X324347075Y-66719652D02*
X328458030Y-64889337D01*
X326546367Y-60595674D02*
X322435413Y-62425989D01*
X326831083Y-61235156D02*
X326546367Y-60595674D01*
X329118171Y-65142742D02*
X329524907Y-66056287D01*
X330185048Y-66309692D02*
X329524907Y-66056287D01*
X331095370Y-60978527D02*
X328811506Y-61995369D01*
X332925685Y-65089482D02*
X330185048Y-66309692D01*
X331755511Y-61231932D02*
X331095370Y-60978527D01*
X333179089Y-64429341D02*
X332925685Y-65089482D01*
X329118170Y-65142743D02*
G75*
G03*
X328458030Y-64889338I-456773J-203368D01*
G01*
X326831083Y-61235156D02*
G75*
G03*
X328811506Y-61995369I1370319J610108D01*
G01*
%TO.C,SW6*%
X70995077Y-53660662D02*
X70791709Y-54117434D01*
X69327457Y-57406198D02*
X69083415Y-57954325D01*
X69083415Y-57954325D02*
X73194369Y-59784640D01*
X75106031Y-55490977D02*
X70995077Y-53660662D01*
X74821316Y-56130458D02*
X75106031Y-55490977D01*
X73447774Y-60444781D02*
X73041037Y-61358327D01*
X73294441Y-62018468D02*
X73041037Y-61358327D01*
X77865393Y-59127723D02*
X75581529Y-58110882D01*
X76035078Y-63238678D02*
X73294441Y-62018468D01*
X78118797Y-59787864D02*
X77865393Y-59127723D01*
X76695219Y-62985273D02*
X76035078Y-63238678D01*
X73447773Y-60444781D02*
G75*
G03*
X73194369Y-59784640I-456773J203368D01*
G01*
X74821316Y-56130458D02*
G75*
G03*
X75581529Y-58110882I1370319J-610105D01*
G01*
%TO.C,SW17*%
X287629331Y-77922655D02*
X287832699Y-78379427D01*
X289296951Y-81668191D02*
X289540993Y-82216318D01*
X289540993Y-82216318D02*
X293651948Y-80386003D01*
X291740285Y-76092340D02*
X287629331Y-77922655D01*
X292025001Y-76731822D02*
X291740285Y-76092340D01*
X294312089Y-80639408D02*
X294718825Y-81552953D01*
X295378966Y-81806358D02*
X294718825Y-81552953D01*
X296289288Y-76475193D02*
X294005424Y-77492035D01*
X298119603Y-80586148D02*
X295378966Y-81806358D01*
X296949429Y-76728598D02*
X296289288Y-76475193D01*
X298373007Y-79926007D02*
X298119603Y-80586148D01*
X294312088Y-80639409D02*
G75*
G03*
X293651948Y-80386004I-456773J-203368D01*
G01*
X292025001Y-76731822D02*
G75*
G03*
X294005424Y-77492035I1370319J610108D01*
G01*
%TO.C,SW11*%
X263420874Y-70385774D02*
X263624242Y-70842546D01*
X265088494Y-74131310D02*
X265332536Y-74679437D01*
X265332536Y-74679437D02*
X269443491Y-72849122D01*
X267531828Y-68555459D02*
X263420874Y-70385774D01*
X267816544Y-69194941D02*
X267531828Y-68555459D01*
X270103632Y-73102527D02*
X270510368Y-74016072D01*
X271170509Y-74269477D02*
X270510368Y-74016072D01*
X272080831Y-68938312D02*
X269796967Y-69955154D01*
X273911146Y-73049267D02*
X271170509Y-74269477D01*
X272740972Y-69191717D02*
X272080831Y-68938312D01*
X274164550Y-72389126D02*
X273911146Y-73049267D01*
X270103631Y-73102528D02*
G75*
G03*
X269443491Y-72849123I-456773J-203368D01*
G01*
X267816544Y-69194941D02*
G75*
G03*
X269796967Y-69955154I1370319J610108D01*
G01*
%TO.C,SW13*%
X296341122Y-50653454D02*
X296544490Y-51110226D01*
X298008742Y-54398990D02*
X298252784Y-54947117D01*
X298252784Y-54947117D02*
X302363739Y-53116802D01*
X300452076Y-48823139D02*
X296341122Y-50653454D01*
X300736792Y-49462621D02*
X300452076Y-48823139D01*
X303023880Y-53370207D02*
X303430616Y-54283752D01*
X304090757Y-54537157D02*
X303430616Y-54283752D01*
X305001079Y-49205992D02*
X302717215Y-50222834D01*
X306831394Y-53316947D02*
X304090757Y-54537157D01*
X305661220Y-49459397D02*
X305001079Y-49205992D01*
X307084798Y-52656806D02*
X306831394Y-53316947D01*
X303023879Y-53370208D02*
G75*
G03*
X302363739Y-53116803I-456773J-203368D01*
G01*
X300736792Y-49462621D02*
G75*
G03*
X302717215Y-50222834I1370319J610108D01*
G01*
%TO.C,SW8*%
X78774033Y-36274431D02*
X78570665Y-36731203D01*
X77106413Y-40019967D02*
X76862371Y-40568094D01*
X76862371Y-40568094D02*
X80973325Y-42398409D01*
X82884987Y-38104746D02*
X78774033Y-36274431D01*
X82600272Y-38744227D02*
X82884987Y-38104746D01*
X81226730Y-43058550D02*
X80819993Y-43972096D01*
X81073397Y-44632237D02*
X80819993Y-43972096D01*
X85644349Y-41741492D02*
X83360485Y-40724651D01*
X83814034Y-45852447D02*
X81073397Y-44632237D01*
X85897753Y-42401633D02*
X85644349Y-41741492D01*
X84474175Y-45599042D02*
X83814034Y-45852447D01*
X81226729Y-43058550D02*
G75*
G03*
X80973325Y-42398409I-456773J203368D01*
G01*
X82600272Y-38744227D02*
G75*
G03*
X83360485Y-40724651I1370319J-610105D01*
G01*
%TD*%
M02*
