M48
; DRILL file {KiCad 8.0.5} date 2024-10-21T13:36:51-0500
; FORMAT={-:-/ absolute / inch / decimal}
; #@! TF.CreationDate,2024-10-21T13:36:51-05:00
; #@! TF.GenerationSoftware,Kicad,Pcbnew,8.0.5
; #@! TF.FileFunction,NonPlated,1,2,NPTH
FMAT,2
INCH
; #@! TA.AperFunction,NonPlated,NPTH,ComponentDrill
T1C0.0390
; #@! TA.AperFunction,NonPlated,NPTH,ComponentDrill
T2C0.0670
; #@! TA.AperFunction,NonPlated,NPTH,ComponentDrill
T3C0.1181
; #@! TA.AperFunction,NonPlated,NPTH,ComponentDrill
T4C0.1260
; #@! TA.AperFunction,NonPlated,NPTH,ComponentDrill
T5C0.1350
%
G90
G05
T1
X3.39Y-1.8839
X4.1133Y-2.1033
X4.7603Y-2.494
X5.0235Y-4.5162
X10.0385Y-2.6102
X10.3697Y-4.8217
X10.5878Y-2.0
X10.8768Y-2.6491
X11.1659Y-3.2983
X11.2358Y-1.6115
X11.5249Y-2.2607
X11.9581Y-1.3898
X12.2471Y-2.039
X12.7791Y-1.39
X13.0682Y-2.0392
T2
X2.9372Y-1.8633
X3.3328Y-2.0394
X3.6605Y-2.0827
X4.0561Y-2.2588
X4.3075Y-2.4734
X4.7031Y-2.6495
X4.8639Y-4.9405
X5.1537Y-4.6187
X9.7202Y-2.933
X9.9644Y-4.6187
X10.1158Y-2.7568
X10.2542Y-4.9405
X10.2695Y-2.3227
X10.5585Y-2.9719
X10.6651Y-2.1465
X10.8476Y-3.6211
X10.9175Y-1.9342
X10.9541Y-2.7957
X11.2065Y-2.5834
X11.2432Y-3.4449
X11.3131Y-1.7581
X11.6022Y-2.4073
X11.6398Y-1.7126
X11.9288Y-2.3618
X12.0354Y-1.5364
X12.3245Y-2.1856
X12.4608Y-1.7127
X12.7499Y-2.3619
X12.8565Y-1.5366
X13.1455Y-2.1858
T3
X2.8951Y-2.0062
X3.0397Y-2.1654
X3.6184Y-2.2256
X3.763Y-2.3848
X4.2654Y-2.6163
X4.41Y-2.7755
X4.9868Y-5.0247
X5.1829Y-4.9363
X9.7982Y-3.0598
X9.8678Y-4.7321
X9.9352Y-4.9363
X10.0133Y-3.0589
X10.3475Y-2.4495
X10.5626Y-2.4486
X10.6365Y-3.0987
X10.8516Y-3.0978
X10.9256Y-3.7479
X10.9955Y-2.0611
X11.1406Y-3.747
X11.2106Y-2.0602
X11.2846Y-2.7103
X11.4996Y-2.7094
X11.7178Y-1.8394
X11.9329Y-1.8385
X12.0069Y-2.4886
X12.2219Y-2.4877
X12.5389Y-1.8396
X12.7539Y-1.8387
X12.8279Y-2.4888
X13.043Y-2.4879
T4
X1.4567Y-1.063
X1.4567Y-5.3937
X7.5591Y-5.3937
X8.1496Y-1.063
X13.6614Y-1.063
X13.6614Y-5.3937
T5
X3.135Y-1.9514
X3.8583Y-2.1708
X4.5053Y-2.5615
X5.0088Y-4.7796
X9.918Y-2.8449
X10.1093Y-4.7796
X10.4673Y-2.2346
X10.7563Y-2.8838
X11.0454Y-3.533
X11.1153Y-1.8462
X11.4044Y-2.4954
X11.8376Y-1.6245
X12.1266Y-2.2737
X12.6587Y-1.6247
X12.9477Y-2.2739
M30
