%TF.GenerationSoftware,KiCad,Pcbnew,7.0.5*%
%TF.CreationDate,2023-07-01T10:29:15-05:00*%
%TF.ProjectId,triplejump,74726970-6c65-46a7-956d-702e6b696361,rev?*%
%TF.SameCoordinates,Original*%
%TF.FileFunction,Legend,Top*%
%TF.FilePolarity,Positive*%
%FSLAX46Y46*%
G04 Gerber Fmt 4.6, Leading zero omitted, Abs format (unit mm)*
G04 Created by KiCad (PCBNEW 7.0.5) date 2023-07-01 10:29:15*
%MOMM*%
%LPD*%
G01*
G04 APERTURE LIST*
%ADD10C,0.150000*%
%ADD11C,0.120000*%
G04 APERTURE END LIST*
D10*
X54251655Y-58693705D02*
X53816634Y-58500021D01*
X53816634Y-58500021D02*
X54223370Y-57586475D01*
X54769223Y-58350760D02*
X55073738Y-58486339D01*
X54991192Y-59022968D02*
X54556171Y-58829284D01*
X54556171Y-58829284D02*
X54962907Y-57915738D01*
X54962907Y-57915738D02*
X55397929Y-58109423D01*
X55900279Y-58854339D02*
X55595764Y-58718760D01*
X55382712Y-59197284D02*
X55789448Y-58283738D01*
X55789448Y-58283738D02*
X56224470Y-58477422D01*
X56441981Y-58574265D02*
X56964007Y-58806685D01*
X56296257Y-59604020D02*
X56702994Y-58690475D01*
X281113543Y-92898863D02*
X280678521Y-93092547D01*
X280678521Y-93092547D02*
X280271785Y-92179001D01*
X281355188Y-92739150D02*
X281505063Y-92724547D01*
X281505063Y-92724547D02*
X281722573Y-92627705D01*
X281722573Y-92627705D02*
X281790209Y-92545466D01*
X281790209Y-92545466D02*
X281814343Y-92482595D01*
X281814343Y-92482595D02*
X281819108Y-92376222D01*
X281819108Y-92376222D02*
X281780372Y-92289218D01*
X281780372Y-92289218D02*
X281698133Y-92221582D01*
X281698133Y-92221582D02*
X281635262Y-92197448D01*
X281635262Y-92197448D02*
X281528889Y-92192683D01*
X281528889Y-92192683D02*
X281335512Y-92226655D01*
X281335512Y-92226655D02*
X281229139Y-92221889D01*
X281229139Y-92221889D02*
X281166269Y-92197755D01*
X281166269Y-92197755D02*
X281084030Y-92130120D01*
X281084030Y-92130120D02*
X281045293Y-92043115D01*
X281045293Y-92043115D02*
X281050058Y-91936742D01*
X281050058Y-91936742D02*
X281074192Y-91873872D01*
X281074192Y-91873872D02*
X281141828Y-91791633D01*
X281141828Y-91791633D02*
X281359339Y-91694791D01*
X281359339Y-91694791D02*
X281509214Y-91680188D01*
X113575347Y-127751311D02*
X114051173Y-128406229D01*
X114051173Y-128406229D02*
X114145677Y-128455289D01*
X114145677Y-128455289D02*
X114212191Y-128465824D01*
X114212191Y-128465824D02*
X114317230Y-128448369D01*
X114317230Y-128448369D02*
X114471329Y-128336410D01*
X114471329Y-128336410D02*
X114520388Y-128241906D01*
X114520388Y-128241906D02*
X114530923Y-128175391D01*
X114530923Y-128175391D02*
X114513468Y-128070352D01*
X114513468Y-128070352D02*
X114037642Y-127415434D01*
X115010674Y-127944553D02*
X114422888Y-127135536D01*
X114422888Y-127135536D02*
X114731085Y-126911618D01*
X114731085Y-126911618D02*
X114836124Y-126894163D01*
X114836124Y-126894163D02*
X114902639Y-126904698D01*
X114902639Y-126904698D02*
X114997143Y-126953757D01*
X114997143Y-126953757D02*
X115081112Y-127069331D01*
X115081112Y-127069331D02*
X115098567Y-127174370D01*
X115098567Y-127174370D02*
X115088032Y-127240884D01*
X115088032Y-127240884D02*
X115038973Y-127335388D01*
X115038973Y-127335388D02*
X114730776Y-127559307D01*
X115865754Y-126204953D02*
X115876289Y-126138439D01*
X115876289Y-126138439D02*
X115925349Y-126043935D01*
X115925349Y-126043935D02*
X116117972Y-125903986D01*
X116117972Y-125903986D02*
X116223011Y-125886531D01*
X116223011Y-125886531D02*
X116289525Y-125897066D01*
X116289525Y-125897066D02*
X116384029Y-125946125D01*
X116384029Y-125946125D02*
X116440009Y-126023174D01*
X116440009Y-126023174D02*
X116485454Y-126166738D01*
X116485454Y-126166738D02*
X116359035Y-126964911D01*
X116359035Y-126964911D02*
X116859855Y-126601044D01*
X265363543Y-58648863D02*
X264865344Y-58349420D01*
X264841517Y-58881283D02*
X264434780Y-57967738D01*
X264434780Y-57967738D02*
X264782798Y-57812791D01*
X264782798Y-57812791D02*
X264889170Y-57817556D01*
X264889170Y-57817556D02*
X264952041Y-57841690D01*
X264952041Y-57841690D02*
X265034280Y-57909326D01*
X265034280Y-57909326D02*
X265092385Y-58039832D01*
X265092385Y-58039832D02*
X265087620Y-58146205D01*
X265087620Y-58146205D02*
X265063486Y-58209076D01*
X265063486Y-58209076D02*
X264995850Y-58291315D01*
X264995850Y-58291315D02*
X264647833Y-58446262D01*
X265692192Y-58450413D02*
X265842067Y-58435810D01*
X265842067Y-58435810D02*
X266059578Y-58338968D01*
X266059578Y-58338968D02*
X266127214Y-58256729D01*
X266127214Y-58256729D02*
X266151347Y-58193858D01*
X266151347Y-58193858D02*
X266156113Y-58087486D01*
X266156113Y-58087486D02*
X266117376Y-58000481D01*
X266117376Y-58000481D02*
X266035137Y-57932845D01*
X266035137Y-57932845D02*
X265972266Y-57908712D01*
X265972266Y-57908712D02*
X265865894Y-57903946D01*
X265865894Y-57903946D02*
X265672516Y-57937918D01*
X265672516Y-57937918D02*
X265566144Y-57933152D01*
X265566144Y-57933152D02*
X265503273Y-57909019D01*
X265503273Y-57909019D02*
X265421034Y-57841383D01*
X265421034Y-57841383D02*
X265382297Y-57754378D01*
X265382297Y-57754378D02*
X265387063Y-57648006D01*
X265387063Y-57648006D02*
X265411196Y-57585135D01*
X265411196Y-57585135D02*
X265478832Y-57502896D01*
X265478832Y-57502896D02*
X265696343Y-57406054D01*
X265696343Y-57406054D02*
X265846218Y-57391451D01*
X335700547Y-29860126D02*
X335202348Y-29560683D01*
X335178521Y-30092547D02*
X334771785Y-29179001D01*
X334771785Y-29179001D02*
X335119802Y-29024054D01*
X335119802Y-29024054D02*
X335226175Y-29028819D01*
X335226175Y-29028819D02*
X335289045Y-29052953D01*
X335289045Y-29052953D02*
X335371284Y-29120589D01*
X335371284Y-29120589D02*
X335429389Y-29251095D01*
X335429389Y-29251095D02*
X335424624Y-29357468D01*
X335424624Y-29357468D02*
X335400490Y-29420339D01*
X335400490Y-29420339D02*
X335332854Y-29502578D01*
X335332854Y-29502578D02*
X334984837Y-29657525D01*
X335554824Y-28830370D02*
X336076850Y-28597949D01*
X336222573Y-29627705D02*
X335815837Y-28714159D01*
X268005513Y-125983618D02*
X267529687Y-126638536D01*
X267529687Y-126638536D02*
X267512232Y-126743575D01*
X267512232Y-126743575D02*
X267522767Y-126810090D01*
X267522767Y-126810090D02*
X267571827Y-126904594D01*
X267571827Y-126904594D02*
X267725925Y-127016553D01*
X267725925Y-127016553D02*
X267830964Y-127034008D01*
X267830964Y-127034008D02*
X267897478Y-127023473D01*
X267897478Y-127023473D02*
X267991983Y-126974414D01*
X267991983Y-126974414D02*
X268467809Y-126319495D01*
X268265270Y-127408410D02*
X268853055Y-126599393D01*
X268853055Y-126599393D02*
X269161252Y-126823311D01*
X269161252Y-126823311D02*
X269210311Y-126917815D01*
X269210311Y-126917815D02*
X269220846Y-126984330D01*
X269220846Y-126984330D02*
X269203391Y-127089369D01*
X269203391Y-127089369D02*
X269119422Y-127204942D01*
X269119422Y-127204942D02*
X269024918Y-127254002D01*
X269024918Y-127254002D02*
X268958403Y-127264537D01*
X268958403Y-127264537D02*
X268853364Y-127247082D01*
X268853364Y-127247082D02*
X268545167Y-127023164D01*
X270201417Y-127579035D02*
X270702237Y-127942902D01*
X270702237Y-127942902D02*
X270208646Y-128055171D01*
X270208646Y-128055171D02*
X270324220Y-128139140D01*
X270324220Y-128139140D02*
X270373280Y-128233644D01*
X270373280Y-128233644D02*
X270383814Y-128300158D01*
X270383814Y-128300158D02*
X270366360Y-128405197D01*
X270366360Y-128405197D02*
X270226411Y-128597821D01*
X270226411Y-128597821D02*
X270131906Y-128646880D01*
X270131906Y-128646880D02*
X270065392Y-128657415D01*
X270065392Y-128657415D02*
X269960353Y-128639960D01*
X269960353Y-128639960D02*
X269729205Y-128472021D01*
X269729205Y-128472021D02*
X269680146Y-128377517D01*
X269680146Y-128377517D02*
X269669611Y-128311003D01*
X170116369Y-35569819D02*
X170306845Y-35569819D01*
X170306845Y-35569819D02*
X170402083Y-35617438D01*
X170402083Y-35617438D02*
X170497321Y-35712676D01*
X170497321Y-35712676D02*
X170544940Y-35903152D01*
X170544940Y-35903152D02*
X170544940Y-36236485D01*
X170544940Y-36236485D02*
X170497321Y-36426961D01*
X170497321Y-36426961D02*
X170402083Y-36522200D01*
X170402083Y-36522200D02*
X170306845Y-36569819D01*
X170306845Y-36569819D02*
X170116369Y-36569819D01*
X170116369Y-36569819D02*
X170021131Y-36522200D01*
X170021131Y-36522200D02*
X169925893Y-36426961D01*
X169925893Y-36426961D02*
X169878274Y-36236485D01*
X169878274Y-36236485D02*
X169878274Y-35903152D01*
X169878274Y-35903152D02*
X169925893Y-35712676D01*
X169925893Y-35712676D02*
X170021131Y-35617438D01*
X170021131Y-35617438D02*
X170116369Y-35569819D01*
X170830655Y-35569819D02*
X171402083Y-35569819D01*
X171116369Y-36569819D02*
X171116369Y-35569819D01*
X171735417Y-36569819D02*
X171735417Y-35569819D01*
X171735417Y-36046009D02*
X172306845Y-36046009D01*
X172306845Y-36569819D02*
X172306845Y-35569819D01*
X172783036Y-36046009D02*
X173116369Y-36046009D01*
X173259226Y-36569819D02*
X172783036Y-36569819D01*
X172783036Y-36569819D02*
X172783036Y-35569819D01*
X172783036Y-35569819D02*
X173259226Y-35569819D01*
X174259226Y-36569819D02*
X173925893Y-36093628D01*
X173687798Y-36569819D02*
X173687798Y-35569819D01*
X173687798Y-35569819D02*
X174068750Y-35569819D01*
X174068750Y-35569819D02*
X174163988Y-35617438D01*
X174163988Y-35617438D02*
X174211607Y-35665057D01*
X174211607Y-35665057D02*
X174259226Y-35760295D01*
X174259226Y-35760295D02*
X174259226Y-35903152D01*
X174259226Y-35903152D02*
X174211607Y-35998390D01*
X174211607Y-35998390D02*
X174163988Y-36046009D01*
X174163988Y-36046009D02*
X174068750Y-36093628D01*
X174068750Y-36093628D02*
X173687798Y-36093628D01*
X351700547Y-64110126D02*
X351265526Y-64303810D01*
X351265526Y-64303810D02*
X350858789Y-63390264D01*
X351467819Y-63119107D02*
X351989845Y-62886686D01*
X352135569Y-63916442D02*
X351728832Y-63002896D01*
X88777611Y-28499318D02*
X88448348Y-29238855D01*
X88448348Y-29238855D02*
X88453114Y-29345227D01*
X88453114Y-29345227D02*
X88477247Y-29408098D01*
X88477247Y-29408098D02*
X88544883Y-29490337D01*
X88544883Y-29490337D02*
X88718892Y-29567811D01*
X88718892Y-29567811D02*
X88825265Y-29563045D01*
X88825265Y-29563045D02*
X88888135Y-29538911D01*
X88888135Y-29538911D02*
X88970374Y-29471276D01*
X88970374Y-29471276D02*
X89299637Y-28731739D01*
X89327922Y-29838968D02*
X89734659Y-28925423D01*
X89734659Y-28925423D02*
X90082676Y-29080370D01*
X90082676Y-29080370D02*
X90150312Y-29162609D01*
X90150312Y-29162609D02*
X90174446Y-29225480D01*
X90174446Y-29225480D02*
X90179211Y-29331852D01*
X90179211Y-29331852D02*
X90121106Y-29462359D01*
X90121106Y-29462359D02*
X90038867Y-29529995D01*
X90038867Y-29529995D02*
X89975996Y-29554129D01*
X89975996Y-29554129D02*
X89869624Y-29558894D01*
X89869624Y-29558894D02*
X89521606Y-29403947D01*
X91416026Y-30768652D02*
X90894000Y-30536231D01*
X91155013Y-30652442D02*
X91561750Y-29738896D01*
X91561750Y-29738896D02*
X91416640Y-29830666D01*
X91416640Y-29830666D02*
X91290899Y-29878933D01*
X91290899Y-29878933D02*
X91184526Y-29883699D01*
X134342559Y-36522200D02*
X134485416Y-36569819D01*
X134485416Y-36569819D02*
X134723511Y-36569819D01*
X134723511Y-36569819D02*
X134818749Y-36522200D01*
X134818749Y-36522200D02*
X134866368Y-36474580D01*
X134866368Y-36474580D02*
X134913987Y-36379342D01*
X134913987Y-36379342D02*
X134913987Y-36284104D01*
X134913987Y-36284104D02*
X134866368Y-36188866D01*
X134866368Y-36188866D02*
X134818749Y-36141247D01*
X134818749Y-36141247D02*
X134723511Y-36093628D01*
X134723511Y-36093628D02*
X134533035Y-36046009D01*
X134533035Y-36046009D02*
X134437797Y-35998390D01*
X134437797Y-35998390D02*
X134390178Y-35950771D01*
X134390178Y-35950771D02*
X134342559Y-35855533D01*
X134342559Y-35855533D02*
X134342559Y-35760295D01*
X134342559Y-35760295D02*
X134390178Y-35665057D01*
X134390178Y-35665057D02*
X134437797Y-35617438D01*
X134437797Y-35617438D02*
X134533035Y-35569819D01*
X134533035Y-35569819D02*
X134771130Y-35569819D01*
X134771130Y-35569819D02*
X134913987Y-35617438D01*
X135199702Y-35569819D02*
X135771130Y-35569819D01*
X135485416Y-36569819D02*
X135485416Y-35569819D01*
X136056845Y-36284104D02*
X136533035Y-36284104D01*
X135961607Y-36569819D02*
X136294940Y-35569819D01*
X136294940Y-35569819D02*
X136628273Y-36569819D01*
X137533035Y-36569819D02*
X137199702Y-36093628D01*
X136961607Y-36569819D02*
X136961607Y-35569819D01*
X136961607Y-35569819D02*
X137342559Y-35569819D01*
X137342559Y-35569819D02*
X137437797Y-35617438D01*
X137437797Y-35617438D02*
X137485416Y-35665057D01*
X137485416Y-35665057D02*
X137533035Y-35760295D01*
X137533035Y-35760295D02*
X137533035Y-35903152D01*
X137533035Y-35903152D02*
X137485416Y-35998390D01*
X137485416Y-35998390D02*
X137437797Y-36046009D01*
X137437797Y-36046009D02*
X137342559Y-36093628D01*
X137342559Y-36093628D02*
X136961607Y-36093628D01*
X137818750Y-35569819D02*
X138390178Y-35569819D01*
X138104464Y-36569819D02*
X138104464Y-35569819D01*
X298072116Y-38146051D02*
X298265801Y-38581073D01*
X297554549Y-37803107D02*
X298072116Y-38146051D01*
X298072116Y-38146051D02*
X298163579Y-37531949D01*
X316591791Y-33158547D02*
X316093592Y-32859104D01*
X316069766Y-33390968D02*
X315663029Y-32477422D01*
X315663029Y-32477422D02*
X316011046Y-32322475D01*
X316011046Y-32322475D02*
X316117419Y-32327240D01*
X316117419Y-32327240D02*
X316180289Y-32351374D01*
X316180289Y-32351374D02*
X316262528Y-32419010D01*
X316262528Y-32419010D02*
X316320634Y-32549517D01*
X316320634Y-32549517D02*
X316315868Y-32655889D01*
X316315868Y-32655889D02*
X316291735Y-32718760D01*
X316291735Y-32718760D02*
X316224099Y-32800999D01*
X316224099Y-32800999D02*
X315876081Y-32955946D01*
X317074774Y-32370129D02*
X317224648Y-32355525D01*
X317224648Y-32355525D02*
X317287519Y-32379659D01*
X317287519Y-32379659D02*
X317369758Y-32447295D01*
X317369758Y-32447295D02*
X317427863Y-32577802D01*
X317427863Y-32577802D02*
X317423098Y-32684174D01*
X317423098Y-32684174D02*
X317398964Y-32747045D01*
X317398964Y-32747045D02*
X317331328Y-32829284D01*
X317331328Y-32829284D02*
X316983311Y-32984231D01*
X316983311Y-32984231D02*
X316576574Y-32070686D01*
X316576574Y-32070686D02*
X316881089Y-31935107D01*
X316881089Y-31935107D02*
X316987462Y-31939872D01*
X316987462Y-31939872D02*
X317050333Y-31964006D01*
X317050333Y-31964006D02*
X317132572Y-32031642D01*
X317132572Y-32031642D02*
X317171309Y-32118646D01*
X317171309Y-32118646D02*
X317166543Y-32225019D01*
X317166543Y-32225019D02*
X317142410Y-32287890D01*
X317142410Y-32287890D02*
X317074774Y-32370129D01*
X317074774Y-32370129D02*
X316770258Y-32505707D01*
X71903364Y-63816021D02*
X72310101Y-62902476D01*
X72310101Y-62902476D02*
X72527611Y-62999318D01*
X72527611Y-62999318D02*
X72638749Y-63100925D01*
X72638749Y-63100925D02*
X72687017Y-63226666D01*
X72687017Y-63226666D02*
X72691782Y-63333039D01*
X72691782Y-63333039D02*
X72657811Y-63526416D01*
X72657811Y-63526416D02*
X72599706Y-63656923D01*
X72599706Y-63656923D02*
X72478730Y-63811563D01*
X72478730Y-63811563D02*
X72396491Y-63879199D01*
X72396491Y-63879199D02*
X72270750Y-63927466D01*
X72270750Y-63927466D02*
X72120875Y-63912863D01*
X72120875Y-63912863D02*
X71903364Y-63816021D01*
X73397655Y-63386686D02*
X73571663Y-63464160D01*
X73571663Y-63464160D02*
X73639299Y-63546399D01*
X73639299Y-63546399D02*
X73687567Y-63672140D01*
X73687567Y-63672140D02*
X73653595Y-63865517D01*
X73653595Y-63865517D02*
X73518016Y-64170032D01*
X73518016Y-64170032D02*
X73397041Y-64324672D01*
X73397041Y-64324672D02*
X73271299Y-64372940D01*
X73271299Y-64372940D02*
X73164927Y-64377705D01*
X73164927Y-64377705D02*
X72990918Y-64300232D01*
X72990918Y-64300232D02*
X72923282Y-64217993D01*
X72923282Y-64217993D02*
X72875015Y-64092251D01*
X72875015Y-64092251D02*
X72908986Y-63898874D01*
X72908986Y-63898874D02*
X73044565Y-63594359D01*
X73044565Y-63594359D02*
X73165541Y-63439719D01*
X73165541Y-63439719D02*
X73291282Y-63391451D01*
X73291282Y-63391451D02*
X73397655Y-63386686D01*
X74093689Y-63696581D02*
X73904463Y-64706968D01*
X73904463Y-64706968D02*
X74368998Y-64131909D01*
X74368998Y-64131909D02*
X74252481Y-64861915D01*
X74252481Y-64861915D02*
X74876728Y-64045212D01*
X74818009Y-65113705D02*
X75224745Y-64200159D01*
X75224745Y-64200159D02*
X75340035Y-65346126D01*
X75340035Y-65346126D02*
X75746771Y-64432580D01*
X332341791Y-67658547D02*
X331906770Y-67852231D01*
X331906770Y-67852231D02*
X331500033Y-66938686D01*
X332737769Y-66908865D02*
X332887644Y-66894262D01*
X332887644Y-66894262D02*
X332950515Y-66918396D01*
X332950515Y-66918396D02*
X333032754Y-66986032D01*
X333032754Y-66986032D02*
X333090859Y-67116538D01*
X333090859Y-67116538D02*
X333086094Y-67222911D01*
X333086094Y-67222911D02*
X333061960Y-67285782D01*
X333061960Y-67285782D02*
X332994324Y-67368021D01*
X332994324Y-67368021D02*
X332646307Y-67522968D01*
X332646307Y-67522968D02*
X332239570Y-66609423D01*
X332239570Y-66609423D02*
X332544085Y-66473844D01*
X332544085Y-66473844D02*
X332650458Y-66478609D01*
X332650458Y-66478609D02*
X332713329Y-66502743D01*
X332713329Y-66502743D02*
X332795568Y-66570379D01*
X332795568Y-66570379D02*
X332834304Y-66657383D01*
X332834304Y-66657383D02*
X332829539Y-66763756D01*
X332829539Y-66763756D02*
X332805405Y-66826626D01*
X332805405Y-66826626D02*
X332737769Y-66908865D01*
X332737769Y-66908865D02*
X332433254Y-67044444D01*
X297432079Y-82916902D02*
X297867101Y-82723218D01*
X297461285Y-83216652D02*
X297359064Y-82167528D01*
X297359064Y-82167528D02*
X298070316Y-82945494D01*
X158866369Y-35617438D02*
X158771131Y-35569819D01*
X158771131Y-35569819D02*
X158628274Y-35569819D01*
X158628274Y-35569819D02*
X158485417Y-35617438D01*
X158485417Y-35617438D02*
X158390179Y-35712676D01*
X158390179Y-35712676D02*
X158342560Y-35807914D01*
X158342560Y-35807914D02*
X158294941Y-35998390D01*
X158294941Y-35998390D02*
X158294941Y-36141247D01*
X158294941Y-36141247D02*
X158342560Y-36331723D01*
X158342560Y-36331723D02*
X158390179Y-36426961D01*
X158390179Y-36426961D02*
X158485417Y-36522200D01*
X158485417Y-36522200D02*
X158628274Y-36569819D01*
X158628274Y-36569819D02*
X158723512Y-36569819D01*
X158723512Y-36569819D02*
X158866369Y-36522200D01*
X158866369Y-36522200D02*
X158913988Y-36474580D01*
X158913988Y-36474580D02*
X158913988Y-36141247D01*
X158913988Y-36141247D02*
X158723512Y-36141247D01*
X159342560Y-35569819D02*
X159342560Y-36379342D01*
X159342560Y-36379342D02*
X159390179Y-36474580D01*
X159390179Y-36474580D02*
X159437798Y-36522200D01*
X159437798Y-36522200D02*
X159533036Y-36569819D01*
X159533036Y-36569819D02*
X159723512Y-36569819D01*
X159723512Y-36569819D02*
X159818750Y-36522200D01*
X159818750Y-36522200D02*
X159866369Y-36474580D01*
X159866369Y-36474580D02*
X159913988Y-36379342D01*
X159913988Y-36379342D02*
X159913988Y-35569819D01*
X160390179Y-36569819D02*
X160390179Y-35569819D01*
X160866369Y-36569819D02*
X160866369Y-35569819D01*
X160866369Y-35569819D02*
X161104464Y-35569819D01*
X161104464Y-35569819D02*
X161247321Y-35617438D01*
X161247321Y-35617438D02*
X161342559Y-35712676D01*
X161342559Y-35712676D02*
X161390178Y-35807914D01*
X161390178Y-35807914D02*
X161437797Y-35998390D01*
X161437797Y-35998390D02*
X161437797Y-36141247D01*
X161437797Y-36141247D02*
X161390178Y-36331723D01*
X161390178Y-36331723D02*
X161342559Y-36426961D01*
X161342559Y-36426961D02*
X161247321Y-36522200D01*
X161247321Y-36522200D02*
X161104464Y-36569819D01*
X161104464Y-36569819D02*
X160866369Y-36569819D01*
X161866369Y-36046009D02*
X162199702Y-36046009D01*
X162342559Y-36569819D02*
X161866369Y-36569819D01*
X161866369Y-36569819D02*
X161866369Y-35569819D01*
X161866369Y-35569819D02*
X162342559Y-35569819D01*
X314118001Y-72823497D02*
X314267876Y-72808894D01*
X314267876Y-72808894D02*
X314330746Y-72833028D01*
X314330746Y-72833028D02*
X314412985Y-72900663D01*
X314412985Y-72900663D02*
X314471091Y-73031170D01*
X314471091Y-73031170D02*
X314466325Y-73137543D01*
X314466325Y-73137543D02*
X314442191Y-73200413D01*
X314442191Y-73200413D02*
X314374556Y-73282652D01*
X314374556Y-73282652D02*
X314026538Y-73437600D01*
X314026538Y-73437600D02*
X313619802Y-72524054D01*
X313619802Y-72524054D02*
X313924317Y-72388475D01*
X313924317Y-72388475D02*
X314030689Y-72393241D01*
X314030689Y-72393241D02*
X314093560Y-72417374D01*
X314093560Y-72417374D02*
X314175799Y-72485010D01*
X314175799Y-72485010D02*
X314214536Y-72572015D01*
X314214536Y-72572015D02*
X314209771Y-72678387D01*
X314209771Y-72678387D02*
X314185637Y-72741258D01*
X314185637Y-72741258D02*
X314118001Y-72823497D01*
X314118001Y-72823497D02*
X313813486Y-72959076D01*
X146961607Y-36046009D02*
X147104464Y-36093628D01*
X147104464Y-36093628D02*
X147152083Y-36141247D01*
X147152083Y-36141247D02*
X147199702Y-36236485D01*
X147199702Y-36236485D02*
X147199702Y-36379342D01*
X147199702Y-36379342D02*
X147152083Y-36474580D01*
X147152083Y-36474580D02*
X147104464Y-36522200D01*
X147104464Y-36522200D02*
X147009226Y-36569819D01*
X147009226Y-36569819D02*
X146628274Y-36569819D01*
X146628274Y-36569819D02*
X146628274Y-35569819D01*
X146628274Y-35569819D02*
X146961607Y-35569819D01*
X146961607Y-35569819D02*
X147056845Y-35617438D01*
X147056845Y-35617438D02*
X147104464Y-35665057D01*
X147104464Y-35665057D02*
X147152083Y-35760295D01*
X147152083Y-35760295D02*
X147152083Y-35855533D01*
X147152083Y-35855533D02*
X147104464Y-35950771D01*
X147104464Y-35950771D02*
X147056845Y-35998390D01*
X147056845Y-35998390D02*
X146961607Y-36046009D01*
X146961607Y-36046009D02*
X146628274Y-36046009D01*
X147580655Y-36284104D02*
X148056845Y-36284104D01*
X147485417Y-36569819D02*
X147818750Y-35569819D01*
X147818750Y-35569819D02*
X148152083Y-36569819D01*
X149056845Y-36474580D02*
X149009226Y-36522200D01*
X149009226Y-36522200D02*
X148866369Y-36569819D01*
X148866369Y-36569819D02*
X148771131Y-36569819D01*
X148771131Y-36569819D02*
X148628274Y-36522200D01*
X148628274Y-36522200D02*
X148533036Y-36426961D01*
X148533036Y-36426961D02*
X148485417Y-36331723D01*
X148485417Y-36331723D02*
X148437798Y-36141247D01*
X148437798Y-36141247D02*
X148437798Y-35998390D01*
X148437798Y-35998390D02*
X148485417Y-35807914D01*
X148485417Y-35807914D02*
X148533036Y-35712676D01*
X148533036Y-35712676D02*
X148628274Y-35617438D01*
X148628274Y-35617438D02*
X148771131Y-35569819D01*
X148771131Y-35569819D02*
X148866369Y-35569819D01*
X148866369Y-35569819D02*
X149009226Y-35617438D01*
X149009226Y-35617438D02*
X149056845Y-35665057D01*
X149485417Y-36569819D02*
X149485417Y-35569819D01*
X150056845Y-36569819D02*
X149628274Y-35998390D01*
X150056845Y-35569819D02*
X149485417Y-36141247D01*
X281304549Y-47803107D02*
X282320316Y-48445494D01*
X281913579Y-47531949D02*
X281711285Y-48716652D01*
X88951388Y-73950475D02*
X88840557Y-73379874D01*
X88429362Y-73718054D02*
X88836099Y-72804508D01*
X88836099Y-72804508D02*
X89184116Y-72959456D01*
X89184116Y-72959456D02*
X89251752Y-73041695D01*
X89251752Y-73041695D02*
X89275886Y-73104565D01*
X89275886Y-73104565D02*
X89280651Y-73210938D01*
X89280651Y-73210938D02*
X89222546Y-73341444D01*
X89222546Y-73341444D02*
X89140307Y-73409080D01*
X89140307Y-73409080D02*
X89077436Y-73433214D01*
X89077436Y-73433214D02*
X88971063Y-73437979D01*
X88971063Y-73437979D02*
X88623046Y-73283032D01*
X89342907Y-74124790D02*
X89749644Y-73211245D01*
X90643821Y-73661484D02*
X90576185Y-73579245D01*
X90576185Y-73579245D02*
X90445678Y-73521139D01*
X90445678Y-73521139D02*
X90295803Y-73506536D01*
X90295803Y-73506536D02*
X90170062Y-73554804D01*
X90170062Y-73554804D02*
X90087823Y-73622440D01*
X90087823Y-73622440D02*
X89966847Y-73777080D01*
X89966847Y-73777080D02*
X89908742Y-73907586D01*
X89908742Y-73907586D02*
X89874771Y-74100963D01*
X89874771Y-74100963D02*
X89879536Y-74207336D01*
X89879536Y-74207336D02*
X89927804Y-74333077D01*
X89927804Y-74333077D02*
X90038942Y-74434685D01*
X90038942Y-74434685D02*
X90125946Y-74473422D01*
X90125946Y-74473422D02*
X90275821Y-74488025D01*
X90275821Y-74488025D02*
X90338691Y-74463891D01*
X90338691Y-74463891D02*
X90474270Y-74159376D01*
X90474270Y-74159376D02*
X90300262Y-74081902D01*
X90691474Y-74725211D02*
X91098211Y-73811665D01*
X90904527Y-74246687D02*
X91426553Y-74479108D01*
X91213500Y-74957632D02*
X91620237Y-74044086D01*
X91924752Y-74179665D02*
X92446778Y-74412086D01*
X91779028Y-75209421D02*
X92185765Y-74295876D01*
%TO.C,SW18*%
X301038930Y-61204904D02*
X300632193Y-60291358D01*
X306326506Y-73080995D02*
X305919770Y-72167449D01*
X306326506Y-73080995D02*
X307240052Y-72674258D01*
X301545739Y-59884622D02*
X300632193Y-60291358D01*
X318202597Y-67793418D02*
X319116143Y-67386682D01*
X313421830Y-54597045D02*
X312508284Y-55003782D01*
X313421830Y-54597045D02*
X313828566Y-55510591D01*
X318709406Y-66473136D02*
X319116143Y-67386682D01*
X319116143Y-67386682D02*
X318202597Y-67793418D01*
%TO.C,SW10*%
X272631841Y-110203483D02*
X273219626Y-109394466D01*
X264990632Y-120720704D02*
X265578418Y-119911687D01*
X264990632Y-120720704D02*
X265799649Y-121308489D01*
X274028643Y-109982252D02*
X273219626Y-109394466D01*
X275507853Y-128361912D02*
X276316870Y-128949698D01*
X284545864Y-117623460D02*
X283736847Y-117035675D01*
X284545864Y-117623460D02*
X283958078Y-118432477D01*
X276904655Y-128140681D02*
X276316870Y-128949698D01*
X276316870Y-128949698D02*
X275507853Y-128361912D01*
%TO.C,SW12*%
X276830473Y-53668023D02*
X276423736Y-52754477D01*
X282118049Y-65544114D02*
X281711313Y-64630568D01*
X282118049Y-65544114D02*
X283031595Y-65137377D01*
X277337282Y-52347741D02*
X276423736Y-52754477D01*
X293994140Y-60256537D02*
X294907686Y-59849801D01*
X289213373Y-47060164D02*
X288299827Y-47466901D01*
X289213373Y-47060164D02*
X289620109Y-47973710D01*
X294500949Y-58936255D02*
X294907686Y-59849801D01*
X294907686Y-59849801D02*
X293994140Y-60256537D01*
%TO.C,SW9*%
X100041922Y-118432477D02*
X99454136Y-117623460D01*
X107683130Y-128949698D02*
X107095345Y-128140681D01*
X107683130Y-128949698D02*
X108492147Y-128361912D01*
X100263153Y-117035675D02*
X99454136Y-117623460D01*
X118200351Y-121308489D02*
X119009368Y-120720704D01*
X110780374Y-109394466D02*
X109971357Y-109982252D01*
X110780374Y-109394466D02*
X111368159Y-110203483D01*
X118421582Y-119911687D02*
X119009368Y-120720704D01*
X119009368Y-120720704D02*
X118200351Y-121308489D01*
%TO.C,SW20*%
X338673763Y-52061719D02*
X338267026Y-51148173D01*
X343961339Y-63937810D02*
X343554603Y-63024264D01*
X343961339Y-63937810D02*
X344874885Y-63531073D01*
X339180572Y-50741437D02*
X338267026Y-51148173D01*
X355837430Y-58650233D02*
X356750976Y-58243497D01*
X351056663Y-45453860D02*
X350143117Y-45860597D01*
X351056663Y-45453860D02*
X351463399Y-46367406D01*
X356344239Y-57329951D02*
X356750976Y-58243497D01*
X356750976Y-58243497D02*
X355837430Y-58650233D01*
%TO.C,SW5*%
X55674019Y-41236118D02*
X56080755Y-40322572D01*
X50386442Y-53112209D02*
X50793179Y-52198663D01*
X50386442Y-53112209D02*
X51299988Y-53518945D01*
X56994301Y-40729309D02*
X56080755Y-40322572D01*
X62262533Y-58399785D02*
X63176079Y-58806522D01*
X68870392Y-46016885D02*
X67956846Y-45610149D01*
X68870392Y-46016885D02*
X68463655Y-46930431D01*
X63582815Y-57892976D02*
X63176079Y-58806522D01*
X63176079Y-58806522D02*
X62262533Y-58399785D01*
%TO.C,SW16*%
X268118682Y-80937224D02*
X267711945Y-80023678D01*
X273406258Y-92813315D02*
X272999522Y-91899769D01*
X273406258Y-92813315D02*
X274319804Y-92406578D01*
X268625491Y-79616942D02*
X267711945Y-80023678D01*
X285282349Y-87525738D02*
X286195895Y-87119002D01*
X280501582Y-74329365D02*
X279588036Y-74736102D01*
X280501582Y-74329365D02*
X280908318Y-75242911D01*
X285789158Y-86205456D02*
X286195895Y-87119002D01*
X286195895Y-87119002D02*
X285282349Y-87525738D01*
%TO.C,SW14*%
X311636555Y-38171357D02*
X311229818Y-37257811D01*
X316924131Y-50047448D02*
X316517395Y-49133902D01*
X316924131Y-50047448D02*
X317837677Y-49640711D01*
X312143364Y-36851075D02*
X311229818Y-37257811D01*
X328800222Y-44759871D02*
X329713768Y-44353135D01*
X324019455Y-31563498D02*
X323105909Y-31970235D01*
X324019455Y-31563498D02*
X324426191Y-32477044D01*
X329307031Y-43439589D02*
X329713768Y-44353135D01*
X329713768Y-44353135D02*
X328800222Y-44759871D01*
%TO.C,SW15*%
X330925430Y-34658678D02*
X330518693Y-33745132D01*
X336213006Y-46534769D02*
X335806270Y-45621223D01*
X336213006Y-46534769D02*
X337126552Y-46128032D01*
X331432239Y-33338396D02*
X330518693Y-33745132D01*
X348089097Y-41247192D02*
X349002643Y-40840456D01*
X343308330Y-28050819D02*
X342394784Y-28457556D01*
X343308330Y-28050819D02*
X343715066Y-28964365D01*
X348595906Y-39926910D02*
X349002643Y-40840456D01*
X349002643Y-40840456D02*
X348089097Y-41247192D01*
%TO.C,SW7*%
X90480101Y-56732784D02*
X90886837Y-55819238D01*
X85192524Y-68608875D02*
X85599261Y-67695329D01*
X85192524Y-68608875D02*
X86106070Y-69015611D01*
X91800383Y-56225975D02*
X90886837Y-55819238D01*
X97068615Y-73896451D02*
X97982161Y-74303188D01*
X103676474Y-61513551D02*
X102762928Y-61106815D01*
X103676474Y-61513551D02*
X103269737Y-62427097D01*
X98388897Y-73389642D02*
X97982161Y-74303188D01*
X97982161Y-74303188D02*
X97068615Y-73896451D01*
%TO.C,SW19*%
X319384888Y-55574398D02*
X318978151Y-54660852D01*
X324672464Y-67450489D02*
X324265728Y-66536943D01*
X324672464Y-67450489D02*
X325586010Y-67043752D01*
X319891697Y-54254116D02*
X318978151Y-54660852D01*
X336548555Y-62162912D02*
X337462101Y-61756176D01*
X331767788Y-48966539D02*
X330854242Y-49373276D01*
X331767788Y-48966539D02*
X332174524Y-49880085D01*
X337055364Y-60842630D02*
X337462101Y-61756176D01*
X337462101Y-61756176D02*
X336548555Y-62162912D01*
%TO.C,SW6*%
X74045602Y-46809071D02*
X74452338Y-45895525D01*
X68758025Y-58685162D02*
X69164762Y-57771616D01*
X68758025Y-58685162D02*
X69671571Y-59091898D01*
X75365884Y-46302262D02*
X74452338Y-45895525D01*
X80634116Y-63972738D02*
X81547662Y-64379475D01*
X87241975Y-51589838D02*
X86328429Y-51183102D01*
X87241975Y-51589838D02*
X86835238Y-52503384D01*
X81954398Y-63465929D02*
X81547662Y-64379475D01*
X81547662Y-64379475D02*
X80634116Y-63972738D01*
%TO.C,SW17*%
X284578806Y-71071064D02*
X284172069Y-70157518D01*
X289866382Y-82947155D02*
X289459646Y-82033609D01*
X289866382Y-82947155D02*
X290779928Y-82540418D01*
X285085615Y-69750782D02*
X284172069Y-70157518D01*
X301742473Y-77659578D02*
X302656019Y-77252842D01*
X296961706Y-64463205D02*
X296048160Y-64869942D01*
X296961706Y-64463205D02*
X297368442Y-65376751D01*
X302249282Y-76339296D02*
X302656019Y-77252842D01*
X302656019Y-77252842D02*
X301742473Y-77659578D01*
D11*
%TO.C,SW4*%
X168581250Y-30443750D02*
X168581250Y-31943750D01*
X169831250Y-34443750D02*
X174331250Y-34443750D01*
X174331250Y-27943750D02*
X169831250Y-27943750D01*
X175581250Y-31943750D02*
X175581250Y-30443750D01*
D10*
%TO.C,SW11*%
X260370349Y-63534183D02*
X259963612Y-62620637D01*
X265657925Y-75410274D02*
X265251189Y-74496728D01*
X265657925Y-75410274D02*
X266571471Y-75003537D01*
X260877158Y-62213901D02*
X259963612Y-62620637D01*
X277534016Y-70122697D02*
X278447562Y-69715961D01*
X272753249Y-56926324D02*
X271839703Y-57333061D01*
X272753249Y-56926324D02*
X273159985Y-57839870D01*
X278040825Y-68802415D02*
X278447562Y-69715961D01*
X278447562Y-69715961D02*
X277534016Y-70122697D01*
%TO.C,SW13*%
X293290597Y-43801863D02*
X292883860Y-42888317D01*
X298578173Y-55677954D02*
X298171437Y-54764408D01*
X298578173Y-55677954D02*
X299491719Y-55271217D01*
X293797406Y-42481581D02*
X292883860Y-42888317D01*
X310454264Y-50390377D02*
X311367810Y-49983641D01*
X305673497Y-37194004D02*
X304759951Y-37600741D01*
X305673497Y-37194004D02*
X306080233Y-38107550D01*
X310961073Y-49070095D02*
X311367810Y-49983641D01*
X311367810Y-49983641D02*
X310454264Y-50390377D01*
%TO.C,SW8*%
X82096480Y-29543908D02*
X82503216Y-28630362D01*
X76808903Y-41419999D02*
X77215640Y-40506453D01*
X76808903Y-41419999D02*
X77722449Y-41826735D01*
X83416762Y-29037099D02*
X82503216Y-28630362D01*
X88684994Y-46707575D02*
X89598540Y-47114312D01*
X95292853Y-34324675D02*
X94379307Y-33917939D01*
X95292853Y-34324675D02*
X94886116Y-35238221D01*
X90005276Y-46200766D02*
X89598540Y-47114312D01*
X89598540Y-47114312D02*
X88684994Y-46707575D01*
D11*
%TO.C,SW1*%
X132862500Y-30443750D02*
X132862500Y-31943750D01*
X134112500Y-34443750D02*
X138612500Y-34443750D01*
X138612500Y-27943750D02*
X134112500Y-27943750D01*
X139862500Y-31943750D02*
X139862500Y-30443750D01*
%TO.C,SW3*%
X156675000Y-30443750D02*
X156675000Y-31943750D01*
X157925000Y-34443750D02*
X162425000Y-34443750D01*
X162425000Y-27943750D02*
X157925000Y-27943750D01*
X163675000Y-31943750D02*
X163675000Y-30443750D01*
%TO.C,SW2*%
X144768750Y-30443750D02*
X144768750Y-31943750D01*
X146018750Y-34443750D02*
X150518750Y-34443750D01*
X150518750Y-27943750D02*
X146018750Y-27943750D01*
X151768750Y-31943750D02*
X151768750Y-30443750D01*
%TD*%
M02*
