%TF.GenerationSoftware,KiCad,Pcbnew,8.0.5*%
%TF.CreationDate,2024-10-21T13:35:55-05:00*%
%TF.ProjectId,triplejump,74726970-6c65-46a7-956d-702e6b696361,rev?*%
%TF.SameCoordinates,Original*%
%TF.FileFunction,Legend,Bot*%
%TF.FilePolarity,Positive*%
%FSLAX46Y46*%
G04 Gerber Fmt 4.6, Leading zero omitted, Abs format (unit mm)*
G04 Created by KiCad (PCBNEW 8.0.5) date 2024-10-21 13:35:55*
%MOMM*%
%LPD*%
G01*
G04 APERTURE LIST*
%ADD10C,0.150000*%
G04 APERTURE END LIST*
D10*
X341642858Y-138375057D02*
X341642858Y-135375057D01*
X340357144Y-138375057D02*
X340357144Y-136803628D01*
X340357144Y-136803628D02*
X340500001Y-136517914D01*
X340500001Y-136517914D02*
X340785715Y-136375057D01*
X340785715Y-136375057D02*
X341214286Y-136375057D01*
X341214286Y-136375057D02*
X341500001Y-136517914D01*
X341500001Y-136517914D02*
X341642858Y-136660771D01*
X339357143Y-136375057D02*
X338214286Y-136375057D01*
X338928572Y-135375057D02*
X338928572Y-137946485D01*
X338928572Y-137946485D02*
X338785715Y-138232200D01*
X338785715Y-138232200D02*
X338500000Y-138375057D01*
X338500000Y-138375057D02*
X338214286Y-138375057D01*
X337642857Y-136375057D02*
X336500000Y-136375057D01*
X337214286Y-135375057D02*
X337214286Y-137946485D01*
X337214286Y-137946485D02*
X337071429Y-138232200D01*
X337071429Y-138232200D02*
X336785714Y-138375057D01*
X336785714Y-138375057D02*
X336500000Y-138375057D01*
X335500000Y-136375057D02*
X335500000Y-139375057D01*
X335500000Y-136517914D02*
X335214286Y-136375057D01*
X335214286Y-136375057D02*
X334642857Y-136375057D01*
X334642857Y-136375057D02*
X334357143Y-136517914D01*
X334357143Y-136517914D02*
X334214286Y-136660771D01*
X334214286Y-136660771D02*
X334071428Y-136946485D01*
X334071428Y-136946485D02*
X334071428Y-137803628D01*
X334071428Y-137803628D02*
X334214286Y-138089342D01*
X334214286Y-138089342D02*
X334357143Y-138232200D01*
X334357143Y-138232200D02*
X334642857Y-138375057D01*
X334642857Y-138375057D02*
X335214286Y-138375057D01*
X335214286Y-138375057D02*
X335500000Y-138232200D01*
X332928571Y-138232200D02*
X332642857Y-138375057D01*
X332642857Y-138375057D02*
X332071428Y-138375057D01*
X332071428Y-138375057D02*
X331785714Y-138232200D01*
X331785714Y-138232200D02*
X331642857Y-137946485D01*
X331642857Y-137946485D02*
X331642857Y-137803628D01*
X331642857Y-137803628D02*
X331785714Y-137517914D01*
X331785714Y-137517914D02*
X332071428Y-137375057D01*
X332071428Y-137375057D02*
X332500000Y-137375057D01*
X332500000Y-137375057D02*
X332785714Y-137232200D01*
X332785714Y-137232200D02*
X332928571Y-136946485D01*
X332928571Y-136946485D02*
X332928571Y-136803628D01*
X332928571Y-136803628D02*
X332785714Y-136517914D01*
X332785714Y-136517914D02*
X332500000Y-136375057D01*
X332500000Y-136375057D02*
X332071428Y-136375057D01*
X332071428Y-136375057D02*
X331785714Y-136517914D01*
X330357143Y-138089342D02*
X330214286Y-138232200D01*
X330214286Y-138232200D02*
X330357143Y-138375057D01*
X330357143Y-138375057D02*
X330500000Y-138232200D01*
X330500000Y-138232200D02*
X330357143Y-138089342D01*
X330357143Y-138089342D02*
X330357143Y-138375057D01*
X330357143Y-136517914D02*
X330214286Y-136660771D01*
X330214286Y-136660771D02*
X330357143Y-136803628D01*
X330357143Y-136803628D02*
X330500000Y-136660771D01*
X330500000Y-136660771D02*
X330357143Y-136517914D01*
X330357143Y-136517914D02*
X330357143Y-136803628D01*
X326785715Y-135232200D02*
X329357143Y-139089342D01*
X323642858Y-135232200D02*
X326214286Y-139089342D01*
X321357144Y-136375057D02*
X321357144Y-138803628D01*
X321357144Y-138803628D02*
X321500001Y-139089342D01*
X321500001Y-139089342D02*
X321642858Y-139232200D01*
X321642858Y-139232200D02*
X321928572Y-139375057D01*
X321928572Y-139375057D02*
X322357144Y-139375057D01*
X322357144Y-139375057D02*
X322642858Y-139232200D01*
X321357144Y-138232200D02*
X321642858Y-138375057D01*
X321642858Y-138375057D02*
X322214286Y-138375057D01*
X322214286Y-138375057D02*
X322500001Y-138232200D01*
X322500001Y-138232200D02*
X322642858Y-138089342D01*
X322642858Y-138089342D02*
X322785715Y-137803628D01*
X322785715Y-137803628D02*
X322785715Y-136946485D01*
X322785715Y-136946485D02*
X322642858Y-136660771D01*
X322642858Y-136660771D02*
X322500001Y-136517914D01*
X322500001Y-136517914D02*
X322214286Y-136375057D01*
X322214286Y-136375057D02*
X321642858Y-136375057D01*
X321642858Y-136375057D02*
X321357144Y-136517914D01*
X319928572Y-138375057D02*
X319928572Y-136375057D01*
X319928572Y-135375057D02*
X320071429Y-135517914D01*
X320071429Y-135517914D02*
X319928572Y-135660771D01*
X319928572Y-135660771D02*
X319785715Y-135517914D01*
X319785715Y-135517914D02*
X319928572Y-135375057D01*
X319928572Y-135375057D02*
X319928572Y-135660771D01*
X318928572Y-136375057D02*
X317785715Y-136375057D01*
X318500001Y-135375057D02*
X318500001Y-137946485D01*
X318500001Y-137946485D02*
X318357144Y-138232200D01*
X318357144Y-138232200D02*
X318071429Y-138375057D01*
X318071429Y-138375057D02*
X317785715Y-138375057D01*
X316785715Y-138375057D02*
X316785715Y-135375057D01*
X315500001Y-138375057D02*
X315500001Y-136803628D01*
X315500001Y-136803628D02*
X315642858Y-136517914D01*
X315642858Y-136517914D02*
X315928572Y-136375057D01*
X315928572Y-136375057D02*
X316357143Y-136375057D01*
X316357143Y-136375057D02*
X316642858Y-136517914D01*
X316642858Y-136517914D02*
X316785715Y-136660771D01*
X312785715Y-136375057D02*
X312785715Y-138375057D01*
X314071429Y-136375057D02*
X314071429Y-137946485D01*
X314071429Y-137946485D02*
X313928572Y-138232200D01*
X313928572Y-138232200D02*
X313642857Y-138375057D01*
X313642857Y-138375057D02*
X313214286Y-138375057D01*
X313214286Y-138375057D02*
X312928572Y-138232200D01*
X312928572Y-138232200D02*
X312785715Y-138089342D01*
X311357143Y-138375057D02*
X311357143Y-135375057D01*
X311357143Y-136517914D02*
X311071429Y-136375057D01*
X311071429Y-136375057D02*
X310500000Y-136375057D01*
X310500000Y-136375057D02*
X310214286Y-136517914D01*
X310214286Y-136517914D02*
X310071429Y-136660771D01*
X310071429Y-136660771D02*
X309928571Y-136946485D01*
X309928571Y-136946485D02*
X309928571Y-137803628D01*
X309928571Y-137803628D02*
X310071429Y-138089342D01*
X310071429Y-138089342D02*
X310214286Y-138232200D01*
X310214286Y-138232200D02*
X310500000Y-138375057D01*
X310500000Y-138375057D02*
X311071429Y-138375057D01*
X311071429Y-138375057D02*
X311357143Y-138232200D01*
X308642857Y-138089342D02*
X308500000Y-138232200D01*
X308500000Y-138232200D02*
X308642857Y-138375057D01*
X308642857Y-138375057D02*
X308785714Y-138232200D01*
X308785714Y-138232200D02*
X308642857Y-138089342D01*
X308642857Y-138089342D02*
X308642857Y-138375057D01*
X305928572Y-138232200D02*
X306214286Y-138375057D01*
X306214286Y-138375057D02*
X306785714Y-138375057D01*
X306785714Y-138375057D02*
X307071429Y-138232200D01*
X307071429Y-138232200D02*
X307214286Y-138089342D01*
X307214286Y-138089342D02*
X307357143Y-137803628D01*
X307357143Y-137803628D02*
X307357143Y-136946485D01*
X307357143Y-136946485D02*
X307214286Y-136660771D01*
X307214286Y-136660771D02*
X307071429Y-136517914D01*
X307071429Y-136517914D02*
X306785714Y-136375057D01*
X306785714Y-136375057D02*
X306214286Y-136375057D01*
X306214286Y-136375057D02*
X305928572Y-136517914D01*
X304214285Y-138375057D02*
X304500000Y-138232200D01*
X304500000Y-138232200D02*
X304642857Y-138089342D01*
X304642857Y-138089342D02*
X304785714Y-137803628D01*
X304785714Y-137803628D02*
X304785714Y-136946485D01*
X304785714Y-136946485D02*
X304642857Y-136660771D01*
X304642857Y-136660771D02*
X304500000Y-136517914D01*
X304500000Y-136517914D02*
X304214285Y-136375057D01*
X304214285Y-136375057D02*
X303785714Y-136375057D01*
X303785714Y-136375057D02*
X303500000Y-136517914D01*
X303500000Y-136517914D02*
X303357143Y-136660771D01*
X303357143Y-136660771D02*
X303214285Y-136946485D01*
X303214285Y-136946485D02*
X303214285Y-137803628D01*
X303214285Y-137803628D02*
X303357143Y-138089342D01*
X303357143Y-138089342D02*
X303500000Y-138232200D01*
X303500000Y-138232200D02*
X303785714Y-138375057D01*
X303785714Y-138375057D02*
X304214285Y-138375057D01*
X301928571Y-138375057D02*
X301928571Y-136375057D01*
X301928571Y-136660771D02*
X301785714Y-136517914D01*
X301785714Y-136517914D02*
X301499999Y-136375057D01*
X301499999Y-136375057D02*
X301071428Y-136375057D01*
X301071428Y-136375057D02*
X300785714Y-136517914D01*
X300785714Y-136517914D02*
X300642857Y-136803628D01*
X300642857Y-136803628D02*
X300642857Y-138375057D01*
X300642857Y-136803628D02*
X300499999Y-136517914D01*
X300499999Y-136517914D02*
X300214285Y-136375057D01*
X300214285Y-136375057D02*
X299785714Y-136375057D01*
X299785714Y-136375057D02*
X299499999Y-136517914D01*
X299499999Y-136517914D02*
X299357142Y-136803628D01*
X299357142Y-136803628D02*
X299357142Y-138375057D01*
X295785714Y-135232200D02*
X298357142Y-139089342D01*
X293500000Y-138232200D02*
X293785714Y-138375057D01*
X293785714Y-138375057D02*
X294357142Y-138375057D01*
X294357142Y-138375057D02*
X294642857Y-138232200D01*
X294642857Y-138232200D02*
X294785714Y-138089342D01*
X294785714Y-138089342D02*
X294928571Y-137803628D01*
X294928571Y-137803628D02*
X294928571Y-136946485D01*
X294928571Y-136946485D02*
X294785714Y-136660771D01*
X294785714Y-136660771D02*
X294642857Y-136517914D01*
X294642857Y-136517914D02*
X294357142Y-136375057D01*
X294357142Y-136375057D02*
X293785714Y-136375057D01*
X293785714Y-136375057D02*
X293500000Y-136517914D01*
X292499999Y-136375057D02*
X291785713Y-138375057D01*
X291785713Y-138375057D02*
X291071428Y-136375057D01*
X288785714Y-138232200D02*
X289071428Y-138375057D01*
X289071428Y-138375057D02*
X289642857Y-138375057D01*
X289642857Y-138375057D02*
X289928571Y-138232200D01*
X289928571Y-138232200D02*
X290071428Y-137946485D01*
X290071428Y-137946485D02*
X290071428Y-136803628D01*
X290071428Y-136803628D02*
X289928571Y-136517914D01*
X289928571Y-136517914D02*
X289642857Y-136375057D01*
X289642857Y-136375057D02*
X289071428Y-136375057D01*
X289071428Y-136375057D02*
X288785714Y-136517914D01*
X288785714Y-136517914D02*
X288642857Y-136803628D01*
X288642857Y-136803628D02*
X288642857Y-137089342D01*
X288642857Y-137089342D02*
X290071428Y-137375057D01*
X286928570Y-138375057D02*
X287214285Y-138232200D01*
X287214285Y-138232200D02*
X287357142Y-137946485D01*
X287357142Y-137946485D02*
X287357142Y-135375057D01*
X284499999Y-138375057D02*
X284499999Y-135375057D01*
X284499999Y-138232200D02*
X284785713Y-138375057D01*
X284785713Y-138375057D02*
X285357141Y-138375057D01*
X285357141Y-138375057D02*
X285642856Y-138232200D01*
X285642856Y-138232200D02*
X285785713Y-138089342D01*
X285785713Y-138089342D02*
X285928570Y-137803628D01*
X285928570Y-137803628D02*
X285928570Y-136946485D01*
X285928570Y-136946485D02*
X285785713Y-136660771D01*
X285785713Y-136660771D02*
X285642856Y-136517914D01*
X285642856Y-136517914D02*
X285357141Y-136375057D01*
X285357141Y-136375057D02*
X284785713Y-136375057D01*
X284785713Y-136375057D02*
X284499999Y-136517914D01*
X283357141Y-136375057D02*
X282642855Y-138375057D01*
X281928570Y-136375057D02*
X282642855Y-138375057D01*
X282642855Y-138375057D02*
X282928570Y-139089342D01*
X282928570Y-139089342D02*
X283071427Y-139232200D01*
X283071427Y-139232200D02*
X283357141Y-139375057D01*
X278642856Y-135232200D02*
X281214284Y-139089342D01*
X278071427Y-136375057D02*
X276928570Y-136375057D01*
X277642856Y-135375057D02*
X277642856Y-137946485D01*
X277642856Y-137946485D02*
X277499999Y-138232200D01*
X277499999Y-138232200D02*
X277214284Y-138375057D01*
X277214284Y-138375057D02*
X276928570Y-138375057D01*
X275928570Y-138375057D02*
X275928570Y-136375057D01*
X275928570Y-136946485D02*
X275785713Y-136660771D01*
X275785713Y-136660771D02*
X275642856Y-136517914D01*
X275642856Y-136517914D02*
X275357141Y-136375057D01*
X275357141Y-136375057D02*
X275071427Y-136375057D01*
X274071427Y-138375057D02*
X274071427Y-136375057D01*
X274071427Y-135375057D02*
X274214284Y-135517914D01*
X274214284Y-135517914D02*
X274071427Y-135660771D01*
X274071427Y-135660771D02*
X273928570Y-135517914D01*
X273928570Y-135517914D02*
X274071427Y-135375057D01*
X274071427Y-135375057D02*
X274071427Y-135660771D01*
X272642856Y-136375057D02*
X272642856Y-139375057D01*
X272642856Y-136517914D02*
X272357142Y-136375057D01*
X272357142Y-136375057D02*
X271785713Y-136375057D01*
X271785713Y-136375057D02*
X271499999Y-136517914D01*
X271499999Y-136517914D02*
X271357142Y-136660771D01*
X271357142Y-136660771D02*
X271214284Y-136946485D01*
X271214284Y-136946485D02*
X271214284Y-137803628D01*
X271214284Y-137803628D02*
X271357142Y-138089342D01*
X271357142Y-138089342D02*
X271499999Y-138232200D01*
X271499999Y-138232200D02*
X271785713Y-138375057D01*
X271785713Y-138375057D02*
X272357142Y-138375057D01*
X272357142Y-138375057D02*
X272642856Y-138232200D01*
X269499998Y-138375057D02*
X269785713Y-138232200D01*
X269785713Y-138232200D02*
X269928570Y-137946485D01*
X269928570Y-137946485D02*
X269928570Y-135375057D01*
X267214284Y-138232200D02*
X267499998Y-138375057D01*
X267499998Y-138375057D02*
X268071427Y-138375057D01*
X268071427Y-138375057D02*
X268357141Y-138232200D01*
X268357141Y-138232200D02*
X268499998Y-137946485D01*
X268499998Y-137946485D02*
X268499998Y-136803628D01*
X268499998Y-136803628D02*
X268357141Y-136517914D01*
X268357141Y-136517914D02*
X268071427Y-136375057D01*
X268071427Y-136375057D02*
X267499998Y-136375057D01*
X267499998Y-136375057D02*
X267214284Y-136517914D01*
X267214284Y-136517914D02*
X267071427Y-136803628D01*
X267071427Y-136803628D02*
X267071427Y-137089342D01*
X267071427Y-137089342D02*
X268499998Y-137375057D01*
X265785712Y-136375057D02*
X265785712Y-138946485D01*
X265785712Y-138946485D02*
X265928569Y-139232200D01*
X265928569Y-139232200D02*
X266214283Y-139375057D01*
X266214283Y-139375057D02*
X266357140Y-139375057D01*
X265785712Y-135375057D02*
X265928569Y-135517914D01*
X265928569Y-135517914D02*
X265785712Y-135660771D01*
X265785712Y-135660771D02*
X265642855Y-135517914D01*
X265642855Y-135517914D02*
X265785712Y-135375057D01*
X265785712Y-135375057D02*
X265785712Y-135660771D01*
X263071427Y-136375057D02*
X263071427Y-138375057D01*
X264357141Y-136375057D02*
X264357141Y-137946485D01*
X264357141Y-137946485D02*
X264214284Y-138232200D01*
X264214284Y-138232200D02*
X263928569Y-138375057D01*
X263928569Y-138375057D02*
X263499998Y-138375057D01*
X263499998Y-138375057D02*
X263214284Y-138232200D01*
X263214284Y-138232200D02*
X263071427Y-138089342D01*
X261642855Y-138375057D02*
X261642855Y-136375057D01*
X261642855Y-136660771D02*
X261499998Y-136517914D01*
X261499998Y-136517914D02*
X261214283Y-136375057D01*
X261214283Y-136375057D02*
X260785712Y-136375057D01*
X260785712Y-136375057D02*
X260499998Y-136517914D01*
X260499998Y-136517914D02*
X260357141Y-136803628D01*
X260357141Y-136803628D02*
X260357141Y-138375057D01*
X260357141Y-136803628D02*
X260214283Y-136517914D01*
X260214283Y-136517914D02*
X259928569Y-136375057D01*
X259928569Y-136375057D02*
X259499998Y-136375057D01*
X259499998Y-136375057D02*
X259214283Y-136517914D01*
X259214283Y-136517914D02*
X259071426Y-136803628D01*
X259071426Y-136803628D02*
X259071426Y-138375057D01*
X257642855Y-136375057D02*
X257642855Y-139375057D01*
X257642855Y-136517914D02*
X257357141Y-136375057D01*
X257357141Y-136375057D02*
X256785712Y-136375057D01*
X256785712Y-136375057D02*
X256499998Y-136517914D01*
X256499998Y-136517914D02*
X256357141Y-136660771D01*
X256357141Y-136660771D02*
X256214283Y-136946485D01*
X256214283Y-136946485D02*
X256214283Y-137803628D01*
X256214283Y-137803628D02*
X256357141Y-138089342D01*
X256357141Y-138089342D02*
X256499998Y-138232200D01*
X256499998Y-138232200D02*
X256785712Y-138375057D01*
X256785712Y-138375057D02*
X257357141Y-138375057D01*
X257357141Y-138375057D02*
X257642855Y-138232200D01*
X196380774Y-48359555D02*
X196714107Y-47883364D01*
X196952202Y-48359555D02*
X196952202Y-47359555D01*
X196952202Y-47359555D02*
X196571250Y-47359555D01*
X196571250Y-47359555D02*
X196476012Y-47407174D01*
X196476012Y-47407174D02*
X196428393Y-47454793D01*
X196428393Y-47454793D02*
X196380774Y-47550031D01*
X196380774Y-47550031D02*
X196380774Y-47692888D01*
X196380774Y-47692888D02*
X196428393Y-47788126D01*
X196428393Y-47788126D02*
X196476012Y-47835745D01*
X196476012Y-47835745D02*
X196571250Y-47883364D01*
X196571250Y-47883364D02*
X196952202Y-47883364D01*
X195952202Y-48359555D02*
X195952202Y-47359555D01*
X195952202Y-47359555D02*
X195571250Y-47359555D01*
X195571250Y-47359555D02*
X195476012Y-47407174D01*
X195476012Y-47407174D02*
X195428393Y-47454793D01*
X195428393Y-47454793D02*
X195380774Y-47550031D01*
X195380774Y-47550031D02*
X195380774Y-47692888D01*
X195380774Y-47692888D02*
X195428393Y-47788126D01*
X195428393Y-47788126D02*
X195476012Y-47835745D01*
X195476012Y-47835745D02*
X195571250Y-47883364D01*
X195571250Y-47883364D02*
X195952202Y-47883364D01*
X194999821Y-47454793D02*
X194952202Y-47407174D01*
X194952202Y-47407174D02*
X194856964Y-47359555D01*
X194856964Y-47359555D02*
X194618869Y-47359555D01*
X194618869Y-47359555D02*
X194523631Y-47407174D01*
X194523631Y-47407174D02*
X194476012Y-47454793D01*
X194476012Y-47454793D02*
X194428393Y-47550031D01*
X194428393Y-47550031D02*
X194428393Y-47645269D01*
X194428393Y-47645269D02*
X194476012Y-47788126D01*
X194476012Y-47788126D02*
X195047440Y-48359555D01*
X195047440Y-48359555D02*
X194428393Y-48359555D01*
X193809345Y-47359555D02*
X193714107Y-47359555D01*
X193714107Y-47359555D02*
X193618869Y-47407174D01*
X193618869Y-47407174D02*
X193571250Y-47454793D01*
X193571250Y-47454793D02*
X193523631Y-47550031D01*
X193523631Y-47550031D02*
X193476012Y-47740507D01*
X193476012Y-47740507D02*
X193476012Y-47978602D01*
X193476012Y-47978602D02*
X193523631Y-48169078D01*
X193523631Y-48169078D02*
X193571250Y-48264316D01*
X193571250Y-48264316D02*
X193618869Y-48311936D01*
X193618869Y-48311936D02*
X193714107Y-48359555D01*
X193714107Y-48359555D02*
X193809345Y-48359555D01*
X193809345Y-48359555D02*
X193904583Y-48311936D01*
X193904583Y-48311936D02*
X193952202Y-48264316D01*
X193952202Y-48264316D02*
X193999821Y-48169078D01*
X193999821Y-48169078D02*
X194047440Y-47978602D01*
X194047440Y-47978602D02*
X194047440Y-47740507D01*
X194047440Y-47740507D02*
X193999821Y-47550031D01*
X193999821Y-47550031D02*
X193952202Y-47454793D01*
X193952202Y-47454793D02*
X193904583Y-47407174D01*
X193904583Y-47407174D02*
X193809345Y-47359555D01*
X192618869Y-47692888D02*
X192618869Y-48359555D01*
X192856964Y-47311936D02*
X193095059Y-48026221D01*
X193095059Y-48026221D02*
X192476012Y-48026221D01*
X191904583Y-47359555D02*
X191809345Y-47359555D01*
X191809345Y-47359555D02*
X191714107Y-47407174D01*
X191714107Y-47407174D02*
X191666488Y-47454793D01*
X191666488Y-47454793D02*
X191618869Y-47550031D01*
X191618869Y-47550031D02*
X191571250Y-47740507D01*
X191571250Y-47740507D02*
X191571250Y-47978602D01*
X191571250Y-47978602D02*
X191618869Y-48169078D01*
X191618869Y-48169078D02*
X191666488Y-48264316D01*
X191666488Y-48264316D02*
X191714107Y-48311936D01*
X191714107Y-48311936D02*
X191809345Y-48359555D01*
X191809345Y-48359555D02*
X191904583Y-48359555D01*
X191904583Y-48359555D02*
X191999821Y-48311936D01*
X191999821Y-48311936D02*
X192047440Y-48264316D01*
X192047440Y-48264316D02*
X192095059Y-48169078D01*
X192095059Y-48169078D02*
X192142678Y-47978602D01*
X192142678Y-47978602D02*
X192142678Y-47740507D01*
X192142678Y-47740507D02*
X192095059Y-47550031D01*
X192095059Y-47550031D02*
X192047440Y-47454793D01*
X192047440Y-47454793D02*
X191999821Y-47407174D01*
X191999821Y-47407174D02*
X191904583Y-47359555D01*
X191142678Y-47978602D02*
X190380774Y-47978602D01*
X189999821Y-47359555D02*
X189333155Y-47359555D01*
X189333155Y-47359555D02*
X189999821Y-48359555D01*
X189999821Y-48359555D02*
X189333155Y-48359555D01*
X188571250Y-48311936D02*
X188666488Y-48359555D01*
X188666488Y-48359555D02*
X188856964Y-48359555D01*
X188856964Y-48359555D02*
X188952202Y-48311936D01*
X188952202Y-48311936D02*
X188999821Y-48216697D01*
X188999821Y-48216697D02*
X188999821Y-47835745D01*
X188999821Y-47835745D02*
X188952202Y-47740507D01*
X188952202Y-47740507D02*
X188856964Y-47692888D01*
X188856964Y-47692888D02*
X188666488Y-47692888D01*
X188666488Y-47692888D02*
X188571250Y-47740507D01*
X188571250Y-47740507D02*
X188523631Y-47835745D01*
X188523631Y-47835745D02*
X188523631Y-47930983D01*
X188523631Y-47930983D02*
X188999821Y-48026221D01*
X188095059Y-48359555D02*
X188095059Y-47692888D01*
X188095059Y-47883364D02*
X188047440Y-47788126D01*
X188047440Y-47788126D02*
X187999821Y-47740507D01*
X187999821Y-47740507D02*
X187904583Y-47692888D01*
X187904583Y-47692888D02*
X187809345Y-47692888D01*
X187333154Y-48359555D02*
X187428392Y-48311936D01*
X187428392Y-48311936D02*
X187476011Y-48264316D01*
X187476011Y-48264316D02*
X187523630Y-48169078D01*
X187523630Y-48169078D02*
X187523630Y-47883364D01*
X187523630Y-47883364D02*
X187476011Y-47788126D01*
X187476011Y-47788126D02*
X187428392Y-47740507D01*
X187428392Y-47740507D02*
X187333154Y-47692888D01*
X187333154Y-47692888D02*
X187190297Y-47692888D01*
X187190297Y-47692888D02*
X187095059Y-47740507D01*
X187095059Y-47740507D02*
X187047440Y-47788126D01*
X187047440Y-47788126D02*
X186999821Y-47883364D01*
X186999821Y-47883364D02*
X186999821Y-48169078D01*
X186999821Y-48169078D02*
X187047440Y-48264316D01*
X187047440Y-48264316D02*
X187095059Y-48311936D01*
X187095059Y-48311936D02*
X187190297Y-48359555D01*
X187190297Y-48359555D02*
X187333154Y-48359555D01*
X286108303Y-63224836D02*
X285997165Y-63326443D01*
X285997165Y-63326443D02*
X285779654Y-63423285D01*
X285779654Y-63423285D02*
X285673281Y-63418520D01*
X285673281Y-63418520D02*
X285610411Y-63394386D01*
X285610411Y-63394386D02*
X285528172Y-63326750D01*
X285528172Y-63326750D02*
X285489435Y-63239746D01*
X285489435Y-63239746D02*
X285494200Y-63133373D01*
X285494200Y-63133373D02*
X285518334Y-63070502D01*
X285518334Y-63070502D02*
X285585970Y-62988263D01*
X285585970Y-62988263D02*
X285740610Y-62867288D01*
X285740610Y-62867288D02*
X285808246Y-62785049D01*
X285808246Y-62785049D02*
X285832380Y-62722178D01*
X285832380Y-62722178D02*
X285837145Y-62615805D01*
X285837145Y-62615805D02*
X285798408Y-62528801D01*
X285798408Y-62528801D02*
X285716169Y-62461165D01*
X285716169Y-62461165D02*
X285653299Y-62437031D01*
X285653299Y-62437031D02*
X285546926Y-62432266D01*
X285546926Y-62432266D02*
X285329415Y-62529108D01*
X285329415Y-62529108D02*
X285218277Y-62630715D01*
X284894394Y-62722792D02*
X285083619Y-63733180D01*
X285083619Y-63733180D02*
X284619085Y-63158121D01*
X284619085Y-63158121D02*
X284735602Y-63888127D01*
X284735602Y-63888127D02*
X284111355Y-63071424D01*
X283691550Y-64352969D02*
X284213576Y-64120548D01*
X283952563Y-64236758D02*
X283545827Y-63323213D01*
X283545827Y-63323213D02*
X283690936Y-63414982D01*
X283690936Y-63414982D02*
X283816677Y-63463250D01*
X283816677Y-63463250D02*
X283923050Y-63468015D01*
X282937103Y-64063364D02*
X283004739Y-63981125D01*
X283004739Y-63981125D02*
X283028873Y-63918254D01*
X283028873Y-63918254D02*
X283033638Y-63811881D01*
X283033638Y-63811881D02*
X283014270Y-63768379D01*
X283014270Y-63768379D02*
X282932031Y-63700743D01*
X282932031Y-63700743D02*
X282869160Y-63676610D01*
X282869160Y-63676610D02*
X282762788Y-63671844D01*
X282762788Y-63671844D02*
X282588779Y-63749318D01*
X282588779Y-63749318D02*
X282521143Y-63831557D01*
X282521143Y-63831557D02*
X282497009Y-63894427D01*
X282497009Y-63894427D02*
X282492244Y-64000800D01*
X282492244Y-64000800D02*
X282511612Y-64044302D01*
X282511612Y-64044302D02*
X282593851Y-64111938D01*
X282593851Y-64111938D02*
X282656722Y-64136072D01*
X282656722Y-64136072D02*
X282763095Y-64140837D01*
X282763095Y-64140837D02*
X282937103Y-64063364D01*
X282937103Y-64063364D02*
X283043476Y-64068129D01*
X283043476Y-64068129D02*
X283106347Y-64092263D01*
X283106347Y-64092263D02*
X283188586Y-64159899D01*
X283188586Y-64159899D02*
X283266059Y-64333907D01*
X283266059Y-64333907D02*
X283261294Y-64440280D01*
X283261294Y-64440280D02*
X283237160Y-64503151D01*
X283237160Y-64503151D02*
X283169524Y-64585390D01*
X283169524Y-64585390D02*
X282995516Y-64662863D01*
X282995516Y-64662863D02*
X282889143Y-64658098D01*
X282889143Y-64658098D02*
X282826272Y-64633964D01*
X282826272Y-64633964D02*
X282744033Y-64566328D01*
X282744033Y-64566328D02*
X282666560Y-64392320D01*
X282666560Y-64392320D02*
X282671325Y-64285947D01*
X282671325Y-64285947D02*
X282695459Y-64223076D01*
X282695459Y-64223076D02*
X282763095Y-64140837D01*
X255824476Y-117964739D02*
X255693498Y-117890439D01*
X255693498Y-117890439D02*
X255534181Y-117713499D01*
X255534181Y-117713499D02*
X255505842Y-117610860D01*
X255505842Y-117610860D02*
X255509367Y-117543609D01*
X255509367Y-117543609D02*
X255548279Y-117444494D01*
X255548279Y-117444494D02*
X255619055Y-117380768D01*
X255619055Y-117380768D02*
X255721694Y-117352429D01*
X255721694Y-117352429D02*
X255788945Y-117355953D01*
X255788945Y-117355953D02*
X255888059Y-117394866D01*
X255888059Y-117394866D02*
X256050901Y-117504554D01*
X256050901Y-117504554D02*
X256150015Y-117543466D01*
X256150015Y-117543466D02*
X256217267Y-117546991D01*
X256217267Y-117546991D02*
X256319906Y-117518652D01*
X256319906Y-117518652D02*
X256390681Y-117454925D01*
X256390681Y-117454925D02*
X256429594Y-117355810D01*
X256429594Y-117355810D02*
X256433118Y-117288559D01*
X256433118Y-117288559D02*
X256404779Y-117185920D01*
X256404779Y-117185920D02*
X256245462Y-117008981D01*
X256245462Y-117008981D02*
X256114484Y-116934681D01*
X255926829Y-116655102D02*
X255024367Y-117147294D01*
X255024367Y-117147294D02*
X255427731Y-116527792D01*
X255427731Y-116527792D02*
X254769460Y-116864191D01*
X254769460Y-116864191D02*
X255353288Y-116018121D01*
X254004740Y-116014883D02*
X254387100Y-116439537D01*
X254195920Y-116227210D02*
X254939065Y-115558079D01*
X254939065Y-115558079D02*
X254896628Y-115724445D01*
X254896628Y-115724445D02*
X254889579Y-115858947D01*
X254889579Y-115858947D02*
X254917918Y-115961586D01*
X254333661Y-114885710D02*
X254269934Y-114814934D01*
X254269934Y-114814934D02*
X254170819Y-114776022D01*
X254170819Y-114776022D02*
X254103568Y-114772497D01*
X254103568Y-114772497D02*
X254000929Y-114800836D01*
X254000929Y-114800836D02*
X253827514Y-114892902D01*
X253827514Y-114892902D02*
X253650575Y-115052219D01*
X253650575Y-115052219D02*
X253540887Y-115215060D01*
X253540887Y-115215060D02*
X253501975Y-115314175D01*
X253501975Y-115314175D02*
X253498450Y-115381426D01*
X253498450Y-115381426D02*
X253526789Y-115484065D01*
X253526789Y-115484065D02*
X253590516Y-115554841D01*
X253590516Y-115554841D02*
X253689630Y-115593753D01*
X253689630Y-115593753D02*
X253756882Y-115597277D01*
X253756882Y-115597277D02*
X253859521Y-115568939D01*
X253859521Y-115568939D02*
X254032935Y-115476873D01*
X254032935Y-115476873D02*
X254209875Y-115317556D01*
X254209875Y-115317556D02*
X254319563Y-115154715D01*
X254319563Y-115154715D02*
X254358475Y-115055600D01*
X254358475Y-115055600D02*
X254362000Y-114988349D01*
X254362000Y-114988349D02*
X254333661Y-114885710D01*
X262306584Y-56601499D02*
X262195446Y-56703106D01*
X262195446Y-56703106D02*
X261977935Y-56799948D01*
X261977935Y-56799948D02*
X261871562Y-56795183D01*
X261871562Y-56795183D02*
X261808692Y-56771049D01*
X261808692Y-56771049D02*
X261726453Y-56703413D01*
X261726453Y-56703413D02*
X261687716Y-56616409D01*
X261687716Y-56616409D02*
X261692481Y-56510036D01*
X261692481Y-56510036D02*
X261716615Y-56447165D01*
X261716615Y-56447165D02*
X261784251Y-56364926D01*
X261784251Y-56364926D02*
X261938891Y-56243951D01*
X261938891Y-56243951D02*
X262006527Y-56161712D01*
X262006527Y-56161712D02*
X262030661Y-56098841D01*
X262030661Y-56098841D02*
X262035426Y-55992468D01*
X262035426Y-55992468D02*
X261996689Y-55905464D01*
X261996689Y-55905464D02*
X261914450Y-55837828D01*
X261914450Y-55837828D02*
X261851580Y-55813694D01*
X261851580Y-55813694D02*
X261745207Y-55808929D01*
X261745207Y-55808929D02*
X261527696Y-55905771D01*
X261527696Y-55905771D02*
X261416558Y-56007378D01*
X261092675Y-56099455D02*
X261281900Y-57109843D01*
X261281900Y-57109843D02*
X260817366Y-56534784D01*
X260817366Y-56534784D02*
X260933883Y-57264790D01*
X260933883Y-57264790D02*
X260309636Y-56448087D01*
X259889831Y-57729632D02*
X260411857Y-57497211D01*
X260150844Y-57613421D02*
X259744108Y-56699876D01*
X259744108Y-56699876D02*
X259889217Y-56791645D01*
X259889217Y-56791645D02*
X260014958Y-56839913D01*
X260014958Y-56839913D02*
X260121331Y-56844678D01*
X259173814Y-57058038D02*
X259110943Y-57033904D01*
X259110943Y-57033904D02*
X259004571Y-57029139D01*
X259004571Y-57029139D02*
X258787060Y-57125981D01*
X258787060Y-57125981D02*
X258719424Y-57208220D01*
X258719424Y-57208220D02*
X258695290Y-57271090D01*
X258695290Y-57271090D02*
X258690525Y-57377463D01*
X258690525Y-57377463D02*
X258729262Y-57464468D01*
X258729262Y-57464468D02*
X258830869Y-57575606D01*
X258830869Y-57575606D02*
X259585316Y-57865211D01*
X259585316Y-57865211D02*
X259019788Y-58117000D01*
X123587200Y-123060590D02*
X123526998Y-123198617D01*
X123526998Y-123198617D02*
X123367681Y-123375556D01*
X123367681Y-123375556D02*
X123268566Y-123414469D01*
X123268566Y-123414469D02*
X123201315Y-123417993D01*
X123201315Y-123417993D02*
X123098676Y-123389654D01*
X123098676Y-123389654D02*
X123027900Y-123325927D01*
X123027900Y-123325927D02*
X122988988Y-123226813D01*
X122988988Y-123226813D02*
X122985463Y-123159562D01*
X122985463Y-123159562D02*
X123013802Y-123056923D01*
X123013802Y-123056923D02*
X123105868Y-122883508D01*
X123105868Y-122883508D02*
X123134207Y-122780869D01*
X123134207Y-122780869D02*
X123130682Y-122713618D01*
X123130682Y-122713618D02*
X123091770Y-122614503D01*
X123091770Y-122614503D02*
X123020994Y-122550776D01*
X123020994Y-122550776D02*
X122918355Y-122522437D01*
X122918355Y-122522437D02*
X122851104Y-122525962D01*
X122851104Y-122525962D02*
X122751989Y-122564874D01*
X122751989Y-122564874D02*
X122592673Y-122741814D01*
X122592673Y-122741814D02*
X122532470Y-122879840D01*
X122274039Y-123095692D02*
X122857867Y-123941762D01*
X122857867Y-123941762D02*
X122199596Y-123605363D01*
X122199596Y-123605363D02*
X122602960Y-124224865D01*
X122602960Y-124224865D02*
X121700498Y-123732673D01*
X122156873Y-124720294D02*
X122029420Y-124861846D01*
X122029420Y-124861846D02*
X121930305Y-124900758D01*
X121930305Y-124900758D02*
X121863054Y-124904283D01*
X121863054Y-124904283D02*
X121693164Y-124879468D01*
X121693164Y-124879468D02*
X121519749Y-124787403D01*
X121519749Y-124787403D02*
X121236646Y-124532496D01*
X121236646Y-124532496D02*
X121197734Y-124433381D01*
X121197734Y-124433381D02*
X121194209Y-124366130D01*
X121194209Y-124366130D02*
X121222548Y-124263491D01*
X121222548Y-124263491D02*
X121350002Y-124121940D01*
X121350002Y-124121940D02*
X121449116Y-124083027D01*
X121449116Y-124083027D02*
X121516367Y-124079503D01*
X121516367Y-124079503D02*
X121619006Y-124107842D01*
X121619006Y-124107842D02*
X121795946Y-124267158D01*
X121795946Y-124267158D02*
X121834858Y-124366273D01*
X121834858Y-124366273D02*
X121838382Y-124433524D01*
X121838382Y-124433524D02*
X121810044Y-124536163D01*
X121810044Y-124536163D02*
X121682590Y-124677715D01*
X121682590Y-124677715D02*
X121583476Y-124716627D01*
X121583476Y-124716627D02*
X121516224Y-124720151D01*
X121516224Y-124720151D02*
X121413585Y-124691813D01*
X325309073Y-57598801D02*
X325197935Y-57700408D01*
X325197935Y-57700408D02*
X324980424Y-57797250D01*
X324980424Y-57797250D02*
X324874051Y-57792485D01*
X324874051Y-57792485D02*
X324811181Y-57768351D01*
X324811181Y-57768351D02*
X324728942Y-57700715D01*
X324728942Y-57700715D02*
X324690205Y-57613711D01*
X324690205Y-57613711D02*
X324694970Y-57507338D01*
X324694970Y-57507338D02*
X324719104Y-57444467D01*
X324719104Y-57444467D02*
X324786740Y-57362228D01*
X324786740Y-57362228D02*
X324941380Y-57241253D01*
X324941380Y-57241253D02*
X325009016Y-57159014D01*
X325009016Y-57159014D02*
X325033150Y-57096143D01*
X325033150Y-57096143D02*
X325037915Y-56989770D01*
X325037915Y-56989770D02*
X324999178Y-56902766D01*
X324999178Y-56902766D02*
X324916939Y-56835130D01*
X324916939Y-56835130D02*
X324854069Y-56810996D01*
X324854069Y-56810996D02*
X324747696Y-56806231D01*
X324747696Y-56806231D02*
X324530185Y-56903073D01*
X324530185Y-56903073D02*
X324419047Y-57004680D01*
X324095164Y-57096757D02*
X324284389Y-58107145D01*
X324284389Y-58107145D02*
X323819855Y-57532086D01*
X323819855Y-57532086D02*
X323936372Y-58262092D01*
X323936372Y-58262092D02*
X323312125Y-57445389D01*
X323046346Y-57667972D02*
X322983476Y-57643838D01*
X322983476Y-57643838D02*
X322877103Y-57639073D01*
X322877103Y-57639073D02*
X322659592Y-57735915D01*
X322659592Y-57735915D02*
X322591956Y-57818154D01*
X322591956Y-57818154D02*
X322567823Y-57881024D01*
X322567823Y-57881024D02*
X322563057Y-57987397D01*
X322563057Y-57987397D02*
X322601794Y-58074401D01*
X322601794Y-58074401D02*
X322703401Y-58185539D01*
X322703401Y-58185539D02*
X323457848Y-58475144D01*
X323457848Y-58475144D02*
X322892320Y-58726934D01*
X321920055Y-58065178D02*
X321833051Y-58103914D01*
X321833051Y-58103914D02*
X321765415Y-58186153D01*
X321765415Y-58186153D02*
X321741281Y-58249024D01*
X321741281Y-58249024D02*
X321736516Y-58355397D01*
X321736516Y-58355397D02*
X321770488Y-58548774D01*
X321770488Y-58548774D02*
X321867330Y-58766285D01*
X321867330Y-58766285D02*
X321988305Y-58920925D01*
X321988305Y-58920925D02*
X322070544Y-58988561D01*
X322070544Y-58988561D02*
X322133415Y-59012695D01*
X322133415Y-59012695D02*
X322239788Y-59017460D01*
X322239788Y-59017460D02*
X322326792Y-58978723D01*
X322326792Y-58978723D02*
X322394428Y-58896484D01*
X322394428Y-58896484D02*
X322418562Y-58833614D01*
X322418562Y-58833614D02*
X322423327Y-58727241D01*
X322423327Y-58727241D02*
X322389356Y-58533864D01*
X322389356Y-58533864D02*
X322292513Y-58316353D01*
X322292513Y-58316353D02*
X322171538Y-58161713D01*
X322171538Y-58161713D02*
X322089299Y-58094077D01*
X322089299Y-58094077D02*
X322026428Y-58069943D01*
X322026428Y-58069943D02*
X321920055Y-58065178D01*
X76926599Y-46618084D02*
X76776725Y-46603480D01*
X76776725Y-46603480D02*
X76559214Y-46506638D01*
X76559214Y-46506638D02*
X76491578Y-46424399D01*
X76491578Y-46424399D02*
X76467444Y-46361529D01*
X76467444Y-46361529D02*
X76462679Y-46255156D01*
X76462679Y-46255156D02*
X76501416Y-46168152D01*
X76501416Y-46168152D02*
X76583655Y-46100516D01*
X76583655Y-46100516D02*
X76646525Y-46076382D01*
X76646525Y-46076382D02*
X76752898Y-46071617D01*
X76752898Y-46071617D02*
X76946275Y-46105588D01*
X76946275Y-46105588D02*
X77052648Y-46100823D01*
X77052648Y-46100823D02*
X77115518Y-46076689D01*
X77115518Y-46076689D02*
X77197757Y-46009053D01*
X77197757Y-46009053D02*
X77236494Y-45922049D01*
X77236494Y-45922049D02*
X77231729Y-45815676D01*
X77231729Y-45815676D02*
X77207595Y-45752806D01*
X77207595Y-45752806D02*
X77139959Y-45670567D01*
X77139959Y-45670567D02*
X76922448Y-45573725D01*
X76922448Y-45573725D02*
X76772573Y-45559121D01*
X76487427Y-45380040D02*
X75863179Y-46196744D01*
X75863179Y-46196744D02*
X75979697Y-45466738D01*
X75979697Y-45466738D02*
X75515162Y-46041796D01*
X75515162Y-46041796D02*
X75704388Y-45031409D01*
X74964851Y-44702146D02*
X75138860Y-44779620D01*
X75138860Y-44779620D02*
X75206495Y-44861859D01*
X75206495Y-44861859D02*
X75230629Y-44924729D01*
X75230629Y-44924729D02*
X75259528Y-45093973D01*
X75259528Y-45093973D02*
X75225557Y-45287350D01*
X75225557Y-45287350D02*
X75070610Y-45635367D01*
X75070610Y-45635367D02*
X74988371Y-45703003D01*
X74988371Y-45703003D02*
X74925500Y-45727137D01*
X74925500Y-45727137D02*
X74819127Y-45731902D01*
X74819127Y-45731902D02*
X74645119Y-45654428D01*
X74645119Y-45654428D02*
X74577483Y-45572189D01*
X74577483Y-45572189D02*
X74553349Y-45509319D01*
X74553349Y-45509319D02*
X74548584Y-45402946D01*
X74548584Y-45402946D02*
X74645426Y-45185435D01*
X74645426Y-45185435D02*
X74727665Y-45117799D01*
X74727665Y-45117799D02*
X74790535Y-45093666D01*
X74790535Y-45093666D02*
X74896908Y-45088900D01*
X74896908Y-45088900D02*
X75070917Y-45166374D01*
X75070917Y-45166374D02*
X75138553Y-45248613D01*
X75138553Y-45248613D02*
X75162686Y-45311483D01*
X75162686Y-45311483D02*
X75167452Y-45417856D01*
X248355314Y-72102636D02*
X248244176Y-72204243D01*
X248244176Y-72204243D02*
X248026665Y-72301085D01*
X248026665Y-72301085D02*
X247920292Y-72296320D01*
X247920292Y-72296320D02*
X247857422Y-72272186D01*
X247857422Y-72272186D02*
X247775183Y-72204550D01*
X247775183Y-72204550D02*
X247736446Y-72117546D01*
X247736446Y-72117546D02*
X247741211Y-72011173D01*
X247741211Y-72011173D02*
X247765345Y-71948302D01*
X247765345Y-71948302D02*
X247832981Y-71866063D01*
X247832981Y-71866063D02*
X247987621Y-71745088D01*
X247987621Y-71745088D02*
X248055257Y-71662849D01*
X248055257Y-71662849D02*
X248079391Y-71599978D01*
X248079391Y-71599978D02*
X248084156Y-71493605D01*
X248084156Y-71493605D02*
X248045419Y-71406601D01*
X248045419Y-71406601D02*
X247963180Y-71338965D01*
X247963180Y-71338965D02*
X247900310Y-71314831D01*
X247900310Y-71314831D02*
X247793937Y-71310066D01*
X247793937Y-71310066D02*
X247576426Y-71406908D01*
X247576426Y-71406908D02*
X247465288Y-71508515D01*
X247141405Y-71600592D02*
X247330630Y-72610980D01*
X247330630Y-72610980D02*
X246866096Y-72035921D01*
X246866096Y-72035921D02*
X246982613Y-72765927D01*
X246982613Y-72765927D02*
X246358366Y-71949224D01*
X245938561Y-73230769D02*
X246460587Y-72998348D01*
X246199574Y-73114558D02*
X245792838Y-72201013D01*
X245792838Y-72201013D02*
X245937947Y-72292782D01*
X245937947Y-72292782D02*
X246063688Y-72341050D01*
X246063688Y-72341050D02*
X246170061Y-72345815D01*
X244748786Y-72665855D02*
X244922794Y-72588381D01*
X244922794Y-72588381D02*
X245029167Y-72593146D01*
X245029167Y-72593146D02*
X245092038Y-72617280D01*
X245092038Y-72617280D02*
X245237147Y-72709050D01*
X245237147Y-72709050D02*
X245358123Y-72863690D01*
X245358123Y-72863690D02*
X245513070Y-73211707D01*
X245513070Y-73211707D02*
X245508305Y-73318080D01*
X245508305Y-73318080D02*
X245484171Y-73380951D01*
X245484171Y-73380951D02*
X245416535Y-73463190D01*
X245416535Y-73463190D02*
X245242527Y-73540663D01*
X245242527Y-73540663D02*
X245136154Y-73535898D01*
X245136154Y-73535898D02*
X245073283Y-73511764D01*
X245073283Y-73511764D02*
X244991044Y-73444128D01*
X244991044Y-73444128D02*
X244894202Y-73226618D01*
X244894202Y-73226618D02*
X244898967Y-73120245D01*
X244898967Y-73120245D02*
X244923101Y-73057374D01*
X244923101Y-73057374D02*
X244990737Y-72975135D01*
X244990737Y-72975135D02*
X245164746Y-72897662D01*
X245164746Y-72897662D02*
X245271119Y-72902427D01*
X245271119Y-72902427D02*
X245333989Y-72926561D01*
X245333989Y-72926561D02*
X245416228Y-72994197D01*
X297112666Y-41104833D02*
X297001528Y-41206440D01*
X297001528Y-41206440D02*
X296784017Y-41303282D01*
X296784017Y-41303282D02*
X296677644Y-41298517D01*
X296677644Y-41298517D02*
X296614774Y-41274383D01*
X296614774Y-41274383D02*
X296532535Y-41206747D01*
X296532535Y-41206747D02*
X296493798Y-41119743D01*
X296493798Y-41119743D02*
X296498563Y-41013370D01*
X296498563Y-41013370D02*
X296522697Y-40950499D01*
X296522697Y-40950499D02*
X296590333Y-40868260D01*
X296590333Y-40868260D02*
X296744973Y-40747285D01*
X296744973Y-40747285D02*
X296812609Y-40665046D01*
X296812609Y-40665046D02*
X296836743Y-40602175D01*
X296836743Y-40602175D02*
X296841508Y-40495802D01*
X296841508Y-40495802D02*
X296802771Y-40408798D01*
X296802771Y-40408798D02*
X296720532Y-40341162D01*
X296720532Y-40341162D02*
X296657662Y-40317028D01*
X296657662Y-40317028D02*
X296551289Y-40312263D01*
X296551289Y-40312263D02*
X296333778Y-40409105D01*
X296333778Y-40409105D02*
X296222640Y-40510712D01*
X295898757Y-40602789D02*
X296087982Y-41613177D01*
X296087982Y-41613177D02*
X295623448Y-41038118D01*
X295623448Y-41038118D02*
X295739965Y-41768124D01*
X295739965Y-41768124D02*
X295115718Y-40951421D01*
X294695913Y-42232966D02*
X295217939Y-42000545D01*
X294956926Y-42116755D02*
X294550190Y-41203210D01*
X294550190Y-41203210D02*
X294695299Y-41294979D01*
X294695299Y-41294979D02*
X294821040Y-41343247D01*
X294821040Y-41343247D02*
X294927413Y-41348012D01*
X293641716Y-41972567D02*
X293912874Y-42581597D01*
X293704280Y-41527707D02*
X294212317Y-42083398D01*
X294212317Y-42083398D02*
X293646789Y-42335187D01*
X317967478Y-41109304D02*
X317856340Y-41210911D01*
X317856340Y-41210911D02*
X317638829Y-41307753D01*
X317638829Y-41307753D02*
X317532456Y-41302988D01*
X317532456Y-41302988D02*
X317469586Y-41278854D01*
X317469586Y-41278854D02*
X317387347Y-41211218D01*
X317387347Y-41211218D02*
X317348610Y-41124214D01*
X317348610Y-41124214D02*
X317353375Y-41017841D01*
X317353375Y-41017841D02*
X317377509Y-40954970D01*
X317377509Y-40954970D02*
X317445145Y-40872731D01*
X317445145Y-40872731D02*
X317599785Y-40751756D01*
X317599785Y-40751756D02*
X317667421Y-40669517D01*
X317667421Y-40669517D02*
X317691555Y-40606646D01*
X317691555Y-40606646D02*
X317696320Y-40500273D01*
X317696320Y-40500273D02*
X317657583Y-40413269D01*
X317657583Y-40413269D02*
X317575344Y-40345633D01*
X317575344Y-40345633D02*
X317512474Y-40321499D01*
X317512474Y-40321499D02*
X317406101Y-40316734D01*
X317406101Y-40316734D02*
X317188590Y-40413576D01*
X317188590Y-40413576D02*
X317077452Y-40515183D01*
X316753569Y-40607260D02*
X316942794Y-41617648D01*
X316942794Y-41617648D02*
X316478260Y-41042589D01*
X316478260Y-41042589D02*
X316594777Y-41772595D01*
X316594777Y-41772595D02*
X315970530Y-40955892D01*
X315550725Y-42237437D02*
X316072751Y-42005016D01*
X315811738Y-42121226D02*
X315405002Y-41207681D01*
X315405002Y-41207681D02*
X315550111Y-41299450D01*
X315550111Y-41299450D02*
X315675852Y-41347718D01*
X315675852Y-41347718D02*
X315782225Y-41352483D01*
X314317447Y-41691891D02*
X314752469Y-41498207D01*
X314752469Y-41498207D02*
X314989655Y-41913860D01*
X314989655Y-41913860D02*
X314926785Y-41889726D01*
X314926785Y-41889726D02*
X314820412Y-41884961D01*
X314820412Y-41884961D02*
X314602901Y-41981803D01*
X314602901Y-41981803D02*
X314535265Y-42064042D01*
X314535265Y-42064042D02*
X314511131Y-42126913D01*
X314511131Y-42126913D02*
X314506366Y-42233286D01*
X314506366Y-42233286D02*
X314603208Y-42450796D01*
X314603208Y-42450796D02*
X314685447Y-42518432D01*
X314685447Y-42518432D02*
X314748318Y-42542566D01*
X314748318Y-42542566D02*
X314854691Y-42547331D01*
X314854691Y-42547331D02*
X315072201Y-42450489D01*
X315072201Y-42450489D02*
X315139837Y-42368250D01*
X315139837Y-42368250D02*
X315163971Y-42305380D01*
X111732681Y-62114750D02*
X111582807Y-62100146D01*
X111582807Y-62100146D02*
X111365296Y-62003304D01*
X111365296Y-62003304D02*
X111297660Y-61921065D01*
X111297660Y-61921065D02*
X111273526Y-61858195D01*
X111273526Y-61858195D02*
X111268761Y-61751822D01*
X111268761Y-61751822D02*
X111307498Y-61664818D01*
X111307498Y-61664818D02*
X111389737Y-61597182D01*
X111389737Y-61597182D02*
X111452607Y-61573048D01*
X111452607Y-61573048D02*
X111558980Y-61568283D01*
X111558980Y-61568283D02*
X111752357Y-61602254D01*
X111752357Y-61602254D02*
X111858730Y-61597489D01*
X111858730Y-61597489D02*
X111921600Y-61573355D01*
X111921600Y-61573355D02*
X112003839Y-61505719D01*
X112003839Y-61505719D02*
X112042576Y-61418715D01*
X112042576Y-61418715D02*
X112037811Y-61312342D01*
X112037811Y-61312342D02*
X112013677Y-61249472D01*
X112013677Y-61249472D02*
X111946041Y-61167233D01*
X111946041Y-61167233D02*
X111728530Y-61070391D01*
X111728530Y-61070391D02*
X111578655Y-61055787D01*
X111293509Y-60876706D02*
X110669261Y-61693410D01*
X110669261Y-61693410D02*
X110785779Y-60963404D01*
X110785779Y-60963404D02*
X110321244Y-61538462D01*
X110321244Y-61538462D02*
X110510470Y-60528075D01*
X109857630Y-60706542D02*
X109964003Y-60701777D01*
X109964003Y-60701777D02*
X110026873Y-60677643D01*
X110026873Y-60677643D02*
X110109112Y-60610007D01*
X110109112Y-60610007D02*
X110128481Y-60566505D01*
X110128481Y-60566505D02*
X110123716Y-60460132D01*
X110123716Y-60460132D02*
X110099582Y-60397261D01*
X110099582Y-60397261D02*
X110031946Y-60315023D01*
X110031946Y-60315023D02*
X109857937Y-60237549D01*
X109857937Y-60237549D02*
X109751564Y-60242314D01*
X109751564Y-60242314D02*
X109688694Y-60266448D01*
X109688694Y-60266448D02*
X109606455Y-60334084D01*
X109606455Y-60334084D02*
X109587087Y-60377586D01*
X109587087Y-60377586D02*
X109591852Y-60483959D01*
X109591852Y-60483959D02*
X109615986Y-60546829D01*
X109615986Y-60546829D02*
X109683622Y-60629068D01*
X109683622Y-60629068D02*
X109857630Y-60706542D01*
X109857630Y-60706542D02*
X109925266Y-60788781D01*
X109925266Y-60788781D02*
X109949400Y-60851652D01*
X109949400Y-60851652D02*
X109954165Y-60958024D01*
X109954165Y-60958024D02*
X109876692Y-61132033D01*
X109876692Y-61132033D02*
X109794453Y-61199669D01*
X109794453Y-61199669D02*
X109731582Y-61223803D01*
X109731582Y-61223803D02*
X109625209Y-61228568D01*
X109625209Y-61228568D02*
X109451201Y-61151094D01*
X109451201Y-61151094D02*
X109383565Y-61068855D01*
X109383565Y-61068855D02*
X109359431Y-61005985D01*
X109359431Y-61005985D02*
X109354666Y-60899612D01*
X109354666Y-60899612D02*
X109432139Y-60725603D01*
X109432139Y-60725603D02*
X109514378Y-60657967D01*
X109514378Y-60657967D02*
X109577249Y-60633834D01*
X109577249Y-60633834D02*
X109683622Y-60629068D01*
X304454261Y-57594330D02*
X304343123Y-57695937D01*
X304343123Y-57695937D02*
X304125612Y-57792779D01*
X304125612Y-57792779D02*
X304019239Y-57788014D01*
X304019239Y-57788014D02*
X303956369Y-57763880D01*
X303956369Y-57763880D02*
X303874130Y-57696244D01*
X303874130Y-57696244D02*
X303835393Y-57609240D01*
X303835393Y-57609240D02*
X303840158Y-57502867D01*
X303840158Y-57502867D02*
X303864292Y-57439996D01*
X303864292Y-57439996D02*
X303931928Y-57357757D01*
X303931928Y-57357757D02*
X304086568Y-57236782D01*
X304086568Y-57236782D02*
X304154204Y-57154543D01*
X304154204Y-57154543D02*
X304178338Y-57091672D01*
X304178338Y-57091672D02*
X304183103Y-56985299D01*
X304183103Y-56985299D02*
X304144366Y-56898295D01*
X304144366Y-56898295D02*
X304062127Y-56830659D01*
X304062127Y-56830659D02*
X303999257Y-56806525D01*
X303999257Y-56806525D02*
X303892884Y-56801760D01*
X303892884Y-56801760D02*
X303675373Y-56898602D01*
X303675373Y-56898602D02*
X303564235Y-57000209D01*
X303240352Y-57092286D02*
X303429577Y-58102674D01*
X303429577Y-58102674D02*
X302965043Y-57527615D01*
X302965043Y-57527615D02*
X303081560Y-58257621D01*
X303081560Y-58257621D02*
X302457313Y-57440918D01*
X302037508Y-58722463D02*
X302559534Y-58490042D01*
X302298521Y-58606252D02*
X301891785Y-57692707D01*
X301891785Y-57692707D02*
X302036894Y-57784476D01*
X302036894Y-57784476D02*
X302162635Y-57832744D01*
X302162635Y-57832744D02*
X302269008Y-57837509D01*
X301602487Y-58916147D02*
X301428478Y-58993621D01*
X301428478Y-58993621D02*
X301322105Y-58988855D01*
X301322105Y-58988855D02*
X301259235Y-58964721D01*
X301259235Y-58964721D02*
X301114125Y-58872952D01*
X301114125Y-58872952D02*
X300993149Y-58718312D01*
X300993149Y-58718312D02*
X300838202Y-58370294D01*
X300838202Y-58370294D02*
X300842967Y-58263921D01*
X300842967Y-58263921D02*
X300867101Y-58201051D01*
X300867101Y-58201051D02*
X300934737Y-58118812D01*
X300934737Y-58118812D02*
X301108746Y-58041338D01*
X301108746Y-58041338D02*
X301215118Y-58046104D01*
X301215118Y-58046104D02*
X301277989Y-58070237D01*
X301277989Y-58070237D02*
X301360228Y-58137873D01*
X301360228Y-58137873D02*
X301457070Y-58355384D01*
X301457070Y-58355384D02*
X301452305Y-58461757D01*
X301452305Y-58461757D02*
X301428171Y-58524627D01*
X301428171Y-58524627D02*
X301360535Y-58606866D01*
X301360535Y-58606866D02*
X301186526Y-58684340D01*
X301186526Y-58684340D02*
X301080153Y-58679575D01*
X301080153Y-58679575D02*
X301017283Y-58655441D01*
X301017283Y-58655441D02*
X300935044Y-58587805D01*
X95180482Y-52082951D02*
X95030608Y-52068347D01*
X95030608Y-52068347D02*
X94813097Y-51971505D01*
X94813097Y-51971505D02*
X94745461Y-51889266D01*
X94745461Y-51889266D02*
X94721327Y-51826396D01*
X94721327Y-51826396D02*
X94716562Y-51720023D01*
X94716562Y-51720023D02*
X94755299Y-51633019D01*
X94755299Y-51633019D02*
X94837538Y-51565383D01*
X94837538Y-51565383D02*
X94900408Y-51541249D01*
X94900408Y-51541249D02*
X95006781Y-51536484D01*
X95006781Y-51536484D02*
X95200158Y-51570455D01*
X95200158Y-51570455D02*
X95306531Y-51565690D01*
X95306531Y-51565690D02*
X95369401Y-51541556D01*
X95369401Y-51541556D02*
X95451640Y-51473920D01*
X95451640Y-51473920D02*
X95490377Y-51386916D01*
X95490377Y-51386916D02*
X95485612Y-51280543D01*
X95485612Y-51280543D02*
X95461478Y-51217673D01*
X95461478Y-51217673D02*
X95393842Y-51135434D01*
X95393842Y-51135434D02*
X95176331Y-51038592D01*
X95176331Y-51038592D02*
X95026456Y-51023988D01*
X94741310Y-50844907D02*
X94117062Y-51661611D01*
X94117062Y-51661611D02*
X94233580Y-50931605D01*
X94233580Y-50931605D02*
X93769045Y-51506663D01*
X93769045Y-51506663D02*
X93958271Y-50496276D01*
X93697258Y-50380066D02*
X93088227Y-50108908D01*
X93088227Y-50108908D02*
X93073010Y-51196769D01*
X37809523Y-133254819D02*
X37809523Y-132254819D01*
X37809523Y-132254819D02*
X37476190Y-132969104D01*
X37476190Y-132969104D02*
X37142857Y-132254819D01*
X37142857Y-132254819D02*
X37142857Y-133254819D01*
X36761904Y-132254819D02*
X36142857Y-132254819D01*
X36142857Y-132254819D02*
X36476190Y-132635771D01*
X36476190Y-132635771D02*
X36333333Y-132635771D01*
X36333333Y-132635771D02*
X36238095Y-132683390D01*
X36238095Y-132683390D02*
X36190476Y-132731009D01*
X36190476Y-132731009D02*
X36142857Y-132826247D01*
X36142857Y-132826247D02*
X36142857Y-133064342D01*
X36142857Y-133064342D02*
X36190476Y-133159580D01*
X36190476Y-133159580D02*
X36238095Y-133207200D01*
X36238095Y-133207200D02*
X36333333Y-133254819D01*
X36333333Y-133254819D02*
X36619047Y-133254819D01*
X36619047Y-133254819D02*
X36714285Y-133207200D01*
X36714285Y-133207200D02*
X36761904Y-133159580D01*
X269648179Y-73090996D02*
X269537041Y-73192603D01*
X269537041Y-73192603D02*
X269319530Y-73289445D01*
X269319530Y-73289445D02*
X269213157Y-73284680D01*
X269213157Y-73284680D02*
X269150287Y-73260546D01*
X269150287Y-73260546D02*
X269068048Y-73192910D01*
X269068048Y-73192910D02*
X269029311Y-73105906D01*
X269029311Y-73105906D02*
X269034076Y-72999533D01*
X269034076Y-72999533D02*
X269058210Y-72936662D01*
X269058210Y-72936662D02*
X269125846Y-72854423D01*
X269125846Y-72854423D02*
X269280486Y-72733448D01*
X269280486Y-72733448D02*
X269348122Y-72651209D01*
X269348122Y-72651209D02*
X269372256Y-72588338D01*
X269372256Y-72588338D02*
X269377021Y-72481965D01*
X269377021Y-72481965D02*
X269338284Y-72394961D01*
X269338284Y-72394961D02*
X269256045Y-72327325D01*
X269256045Y-72327325D02*
X269193175Y-72303191D01*
X269193175Y-72303191D02*
X269086802Y-72298426D01*
X269086802Y-72298426D02*
X268869291Y-72395268D01*
X268869291Y-72395268D02*
X268758153Y-72496875D01*
X268434270Y-72588952D02*
X268623495Y-73599340D01*
X268623495Y-73599340D02*
X268158961Y-73024281D01*
X268158961Y-73024281D02*
X268275478Y-73754287D01*
X268275478Y-73754287D02*
X267651231Y-72937584D01*
X267231426Y-74219129D02*
X267753452Y-73986708D01*
X267492439Y-74102918D02*
X267085703Y-73189373D01*
X267085703Y-73189373D02*
X267230812Y-73281142D01*
X267230812Y-73281142D02*
X267356553Y-73329410D01*
X267356553Y-73329410D02*
X267462926Y-73334175D01*
X266520174Y-73441162D02*
X265911144Y-73712320D01*
X265911144Y-73712320D02*
X266709400Y-74451550D01*
X173414582Y-27350950D02*
X173271725Y-27398569D01*
X173271725Y-27398569D02*
X173033630Y-27398569D01*
X173033630Y-27398569D02*
X172938392Y-27350950D01*
X172938392Y-27350950D02*
X172890773Y-27303330D01*
X172890773Y-27303330D02*
X172843154Y-27208092D01*
X172843154Y-27208092D02*
X172843154Y-27112854D01*
X172843154Y-27112854D02*
X172890773Y-27017616D01*
X172890773Y-27017616D02*
X172938392Y-26969997D01*
X172938392Y-26969997D02*
X173033630Y-26922378D01*
X173033630Y-26922378D02*
X173224106Y-26874759D01*
X173224106Y-26874759D02*
X173319344Y-26827140D01*
X173319344Y-26827140D02*
X173366963Y-26779521D01*
X173366963Y-26779521D02*
X173414582Y-26684283D01*
X173414582Y-26684283D02*
X173414582Y-26589045D01*
X173414582Y-26589045D02*
X173366963Y-26493807D01*
X173366963Y-26493807D02*
X173319344Y-26446188D01*
X173319344Y-26446188D02*
X173224106Y-26398569D01*
X173224106Y-26398569D02*
X172986011Y-26398569D01*
X172986011Y-26398569D02*
X172843154Y-26446188D01*
X172509820Y-26398569D02*
X172271725Y-27398569D01*
X172271725Y-27398569D02*
X172081249Y-26684283D01*
X172081249Y-26684283D02*
X171890773Y-27398569D01*
X171890773Y-27398569D02*
X171652678Y-26398569D01*
X170795535Y-26398569D02*
X171271725Y-26398569D01*
X171271725Y-26398569D02*
X171319344Y-26874759D01*
X171319344Y-26874759D02*
X171271725Y-26827140D01*
X171271725Y-26827140D02*
X171176487Y-26779521D01*
X171176487Y-26779521D02*
X170938392Y-26779521D01*
X170938392Y-26779521D02*
X170843154Y-26827140D01*
X170843154Y-26827140D02*
X170795535Y-26874759D01*
X170795535Y-26874759D02*
X170747916Y-26969997D01*
X170747916Y-26969997D02*
X170747916Y-27208092D01*
X170747916Y-27208092D02*
X170795535Y-27303330D01*
X170795535Y-27303330D02*
X170843154Y-27350950D01*
X170843154Y-27350950D02*
X170938392Y-27398569D01*
X170938392Y-27398569D02*
X171176487Y-27398569D01*
X171176487Y-27398569D02*
X171271725Y-27350950D01*
X171271725Y-27350950D02*
X171319344Y-27303330D01*
X37809523Y-31954819D02*
X37809523Y-30954819D01*
X37809523Y-30954819D02*
X37476190Y-31669104D01*
X37476190Y-31669104D02*
X37142857Y-30954819D01*
X37142857Y-30954819D02*
X37142857Y-31954819D01*
X36761904Y-30954819D02*
X36142857Y-30954819D01*
X36142857Y-30954819D02*
X36476190Y-31335771D01*
X36476190Y-31335771D02*
X36333333Y-31335771D01*
X36333333Y-31335771D02*
X36238095Y-31383390D01*
X36238095Y-31383390D02*
X36190476Y-31431009D01*
X36190476Y-31431009D02*
X36142857Y-31526247D01*
X36142857Y-31526247D02*
X36142857Y-31764342D01*
X36142857Y-31764342D02*
X36190476Y-31859580D01*
X36190476Y-31859580D02*
X36238095Y-31907200D01*
X36238095Y-31907200D02*
X36333333Y-31954819D01*
X36333333Y-31954819D02*
X36619047Y-31954819D01*
X36619047Y-31954819D02*
X36714285Y-31907200D01*
X36714285Y-31907200D02*
X36761904Y-31859580D01*
X276989776Y-89580491D02*
X276878638Y-89682098D01*
X276878638Y-89682098D02*
X276661127Y-89778940D01*
X276661127Y-89778940D02*
X276554754Y-89774175D01*
X276554754Y-89774175D02*
X276491884Y-89750041D01*
X276491884Y-89750041D02*
X276409645Y-89682405D01*
X276409645Y-89682405D02*
X276370908Y-89595401D01*
X276370908Y-89595401D02*
X276375673Y-89489028D01*
X276375673Y-89489028D02*
X276399807Y-89426157D01*
X276399807Y-89426157D02*
X276467443Y-89343918D01*
X276467443Y-89343918D02*
X276622083Y-89222943D01*
X276622083Y-89222943D02*
X276689719Y-89140704D01*
X276689719Y-89140704D02*
X276713853Y-89077833D01*
X276713853Y-89077833D02*
X276718618Y-88971460D01*
X276718618Y-88971460D02*
X276679881Y-88884456D01*
X276679881Y-88884456D02*
X276597642Y-88816820D01*
X276597642Y-88816820D02*
X276534772Y-88792686D01*
X276534772Y-88792686D02*
X276428399Y-88787921D01*
X276428399Y-88787921D02*
X276210888Y-88884763D01*
X276210888Y-88884763D02*
X276099750Y-88986370D01*
X275775867Y-89078447D02*
X275965092Y-90088835D01*
X275965092Y-90088835D02*
X275500558Y-89513776D01*
X275500558Y-89513776D02*
X275617075Y-90243782D01*
X275617075Y-90243782D02*
X274992828Y-89427079D01*
X274573023Y-90708624D02*
X275095049Y-90476203D01*
X274834036Y-90592413D02*
X274427300Y-89678868D01*
X274427300Y-89678868D02*
X274572409Y-89770637D01*
X274572409Y-89770637D02*
X274698150Y-89818905D01*
X274698150Y-89818905D02*
X274804523Y-89823670D01*
X273702980Y-91095992D02*
X274225006Y-90863571D01*
X273963993Y-90979782D02*
X273557256Y-90066236D01*
X273557256Y-90066236D02*
X273702366Y-90158006D01*
X273702366Y-90158006D02*
X273828107Y-90206273D01*
X273828107Y-90206273D02*
X273934480Y-90211039D01*
X347809523Y-31954819D02*
X347809523Y-30954819D01*
X347809523Y-30954819D02*
X347476190Y-31669104D01*
X347476190Y-31669104D02*
X347142857Y-30954819D01*
X347142857Y-30954819D02*
X347142857Y-31954819D01*
X346761904Y-30954819D02*
X346142857Y-30954819D01*
X346142857Y-30954819D02*
X346476190Y-31335771D01*
X346476190Y-31335771D02*
X346333333Y-31335771D01*
X346333333Y-31335771D02*
X346238095Y-31383390D01*
X346238095Y-31383390D02*
X346190476Y-31431009D01*
X346190476Y-31431009D02*
X346142857Y-31526247D01*
X346142857Y-31526247D02*
X346142857Y-31764342D01*
X346142857Y-31764342D02*
X346190476Y-31859580D01*
X346190476Y-31859580D02*
X346238095Y-31907200D01*
X346238095Y-31907200D02*
X346333333Y-31954819D01*
X346333333Y-31954819D02*
X346619047Y-31954819D01*
X346619047Y-31954819D02*
X346714285Y-31907200D01*
X346714285Y-31907200D02*
X346761904Y-31859580D01*
X207809523Y-31954819D02*
X207809523Y-30954819D01*
X207809523Y-30954819D02*
X207476190Y-31669104D01*
X207476190Y-31669104D02*
X207142857Y-30954819D01*
X207142857Y-30954819D02*
X207142857Y-31954819D01*
X206761904Y-30954819D02*
X206142857Y-30954819D01*
X206142857Y-30954819D02*
X206476190Y-31335771D01*
X206476190Y-31335771D02*
X206333333Y-31335771D01*
X206333333Y-31335771D02*
X206238095Y-31383390D01*
X206238095Y-31383390D02*
X206190476Y-31431009D01*
X206190476Y-31431009D02*
X206142857Y-31526247D01*
X206142857Y-31526247D02*
X206142857Y-31764342D01*
X206142857Y-31764342D02*
X206190476Y-31859580D01*
X206190476Y-31859580D02*
X206238095Y-31907200D01*
X206238095Y-31907200D02*
X206333333Y-31954819D01*
X206333333Y-31954819D02*
X206619047Y-31954819D01*
X206619047Y-31954819D02*
X206714285Y-31907200D01*
X206714285Y-31907200D02*
X206761904Y-31859580D01*
X278766708Y-46735339D02*
X278655570Y-46836946D01*
X278655570Y-46836946D02*
X278438059Y-46933788D01*
X278438059Y-46933788D02*
X278331686Y-46929023D01*
X278331686Y-46929023D02*
X278268816Y-46904889D01*
X278268816Y-46904889D02*
X278186577Y-46837253D01*
X278186577Y-46837253D02*
X278147840Y-46750249D01*
X278147840Y-46750249D02*
X278152605Y-46643876D01*
X278152605Y-46643876D02*
X278176739Y-46581005D01*
X278176739Y-46581005D02*
X278244375Y-46498766D01*
X278244375Y-46498766D02*
X278399015Y-46377791D01*
X278399015Y-46377791D02*
X278466651Y-46295552D01*
X278466651Y-46295552D02*
X278490785Y-46232681D01*
X278490785Y-46232681D02*
X278495550Y-46126308D01*
X278495550Y-46126308D02*
X278456813Y-46039304D01*
X278456813Y-46039304D02*
X278374574Y-45971668D01*
X278374574Y-45971668D02*
X278311704Y-45947534D01*
X278311704Y-45947534D02*
X278205331Y-45942769D01*
X278205331Y-45942769D02*
X277987820Y-46039611D01*
X277987820Y-46039611D02*
X277876682Y-46141218D01*
X277552799Y-46233295D02*
X277742024Y-47243683D01*
X277742024Y-47243683D02*
X277277490Y-46668624D01*
X277277490Y-46668624D02*
X277394007Y-47398630D01*
X277394007Y-47398630D02*
X276769760Y-46581927D01*
X276349955Y-47863472D02*
X276871981Y-47631051D01*
X276610968Y-47747261D02*
X276204232Y-46833716D01*
X276204232Y-46833716D02*
X276349341Y-46925485D01*
X276349341Y-46925485D02*
X276475082Y-46973753D01*
X276475082Y-46973753D02*
X276581455Y-46978518D01*
X275638703Y-47085505D02*
X275073175Y-47337295D01*
X275073175Y-47337295D02*
X275532638Y-47549733D01*
X275532638Y-47549733D02*
X275402131Y-47607838D01*
X275402131Y-47607838D02*
X275334495Y-47690077D01*
X275334495Y-47690077D02*
X275310361Y-47752948D01*
X275310361Y-47752948D02*
X275305596Y-47859321D01*
X275305596Y-47859321D02*
X275402438Y-48076831D01*
X275402438Y-48076831D02*
X275484677Y-48144467D01*
X275484677Y-48144467D02*
X275547548Y-48168601D01*
X275547548Y-48168601D02*
X275653921Y-48173366D01*
X275653921Y-48173366D02*
X275914934Y-48057156D01*
X275914934Y-48057156D02*
X275982569Y-47974917D01*
X275982569Y-47974917D02*
X276006703Y-47912046D01*
X347809523Y-133254819D02*
X347809523Y-132254819D01*
X347809523Y-132254819D02*
X347476190Y-132969104D01*
X347476190Y-132969104D02*
X347142857Y-132254819D01*
X347142857Y-132254819D02*
X347142857Y-133254819D01*
X346761904Y-132254819D02*
X346142857Y-132254819D01*
X346142857Y-132254819D02*
X346476190Y-132635771D01*
X346476190Y-132635771D02*
X346333333Y-132635771D01*
X346333333Y-132635771D02*
X346238095Y-132683390D01*
X346238095Y-132683390D02*
X346190476Y-132731009D01*
X346190476Y-132731009D02*
X346142857Y-132826247D01*
X346142857Y-132826247D02*
X346142857Y-133064342D01*
X346142857Y-133064342D02*
X346190476Y-133159580D01*
X346190476Y-133159580D02*
X346238095Y-133207200D01*
X346238095Y-133207200D02*
X346333333Y-133254819D01*
X346333333Y-133254819D02*
X346619047Y-133254819D01*
X346619047Y-133254819D02*
X346714285Y-133207200D01*
X346714285Y-133207200D02*
X346761904Y-133159580D01*
X137695832Y-27350950D02*
X137552975Y-27398569D01*
X137552975Y-27398569D02*
X137314880Y-27398569D01*
X137314880Y-27398569D02*
X137219642Y-27350950D01*
X137219642Y-27350950D02*
X137172023Y-27303330D01*
X137172023Y-27303330D02*
X137124404Y-27208092D01*
X137124404Y-27208092D02*
X137124404Y-27112854D01*
X137124404Y-27112854D02*
X137172023Y-27017616D01*
X137172023Y-27017616D02*
X137219642Y-26969997D01*
X137219642Y-26969997D02*
X137314880Y-26922378D01*
X137314880Y-26922378D02*
X137505356Y-26874759D01*
X137505356Y-26874759D02*
X137600594Y-26827140D01*
X137600594Y-26827140D02*
X137648213Y-26779521D01*
X137648213Y-26779521D02*
X137695832Y-26684283D01*
X137695832Y-26684283D02*
X137695832Y-26589045D01*
X137695832Y-26589045D02*
X137648213Y-26493807D01*
X137648213Y-26493807D02*
X137600594Y-26446188D01*
X137600594Y-26446188D02*
X137505356Y-26398569D01*
X137505356Y-26398569D02*
X137267261Y-26398569D01*
X137267261Y-26398569D02*
X137124404Y-26446188D01*
X136791070Y-26398569D02*
X136552975Y-27398569D01*
X136552975Y-27398569D02*
X136362499Y-26684283D01*
X136362499Y-26684283D02*
X136172023Y-27398569D01*
X136172023Y-27398569D02*
X135933928Y-26398569D01*
X135600594Y-26493807D02*
X135552975Y-26446188D01*
X135552975Y-26446188D02*
X135457737Y-26398569D01*
X135457737Y-26398569D02*
X135219642Y-26398569D01*
X135219642Y-26398569D02*
X135124404Y-26446188D01*
X135124404Y-26446188D02*
X135076785Y-26493807D01*
X135076785Y-26493807D02*
X135029166Y-26589045D01*
X135029166Y-26589045D02*
X135029166Y-26684283D01*
X135029166Y-26684283D02*
X135076785Y-26827140D01*
X135076785Y-26827140D02*
X135648213Y-27398569D01*
X135648213Y-27398569D02*
X135029166Y-27398569D01*
X125789832Y-27350950D02*
X125646975Y-27398569D01*
X125646975Y-27398569D02*
X125408880Y-27398569D01*
X125408880Y-27398569D02*
X125313642Y-27350950D01*
X125313642Y-27350950D02*
X125266023Y-27303330D01*
X125266023Y-27303330D02*
X125218404Y-27208092D01*
X125218404Y-27208092D02*
X125218404Y-27112854D01*
X125218404Y-27112854D02*
X125266023Y-27017616D01*
X125266023Y-27017616D02*
X125313642Y-26969997D01*
X125313642Y-26969997D02*
X125408880Y-26922378D01*
X125408880Y-26922378D02*
X125599356Y-26874759D01*
X125599356Y-26874759D02*
X125694594Y-26827140D01*
X125694594Y-26827140D02*
X125742213Y-26779521D01*
X125742213Y-26779521D02*
X125789832Y-26684283D01*
X125789832Y-26684283D02*
X125789832Y-26589045D01*
X125789832Y-26589045D02*
X125742213Y-26493807D01*
X125742213Y-26493807D02*
X125694594Y-26446188D01*
X125694594Y-26446188D02*
X125599356Y-26398569D01*
X125599356Y-26398569D02*
X125361261Y-26398569D01*
X125361261Y-26398569D02*
X125218404Y-26446188D01*
X124885070Y-26398569D02*
X124646975Y-27398569D01*
X124646975Y-27398569D02*
X124456499Y-26684283D01*
X124456499Y-26684283D02*
X124266023Y-27398569D01*
X124266023Y-27398569D02*
X124027928Y-26398569D01*
X123123166Y-27398569D02*
X123694594Y-27398569D01*
X123408880Y-27398569D02*
X123408880Y-26398569D01*
X123408880Y-26398569D02*
X123504118Y-26541426D01*
X123504118Y-26541426D02*
X123599356Y-26636664D01*
X123599356Y-26636664D02*
X123694594Y-26684283D01*
X161508332Y-27350950D02*
X161365475Y-27398569D01*
X161365475Y-27398569D02*
X161127380Y-27398569D01*
X161127380Y-27398569D02*
X161032142Y-27350950D01*
X161032142Y-27350950D02*
X160984523Y-27303330D01*
X160984523Y-27303330D02*
X160936904Y-27208092D01*
X160936904Y-27208092D02*
X160936904Y-27112854D01*
X160936904Y-27112854D02*
X160984523Y-27017616D01*
X160984523Y-27017616D02*
X161032142Y-26969997D01*
X161032142Y-26969997D02*
X161127380Y-26922378D01*
X161127380Y-26922378D02*
X161317856Y-26874759D01*
X161317856Y-26874759D02*
X161413094Y-26827140D01*
X161413094Y-26827140D02*
X161460713Y-26779521D01*
X161460713Y-26779521D02*
X161508332Y-26684283D01*
X161508332Y-26684283D02*
X161508332Y-26589045D01*
X161508332Y-26589045D02*
X161460713Y-26493807D01*
X161460713Y-26493807D02*
X161413094Y-26446188D01*
X161413094Y-26446188D02*
X161317856Y-26398569D01*
X161317856Y-26398569D02*
X161079761Y-26398569D01*
X161079761Y-26398569D02*
X160936904Y-26446188D01*
X160603570Y-26398569D02*
X160365475Y-27398569D01*
X160365475Y-27398569D02*
X160174999Y-26684283D01*
X160174999Y-26684283D02*
X159984523Y-27398569D01*
X159984523Y-27398569D02*
X159746428Y-26398569D01*
X158936904Y-26731902D02*
X158936904Y-27398569D01*
X159174999Y-26350950D02*
X159413094Y-27065235D01*
X159413094Y-27065235D02*
X158794047Y-27065235D01*
X149602082Y-27350950D02*
X149459225Y-27398569D01*
X149459225Y-27398569D02*
X149221130Y-27398569D01*
X149221130Y-27398569D02*
X149125892Y-27350950D01*
X149125892Y-27350950D02*
X149078273Y-27303330D01*
X149078273Y-27303330D02*
X149030654Y-27208092D01*
X149030654Y-27208092D02*
X149030654Y-27112854D01*
X149030654Y-27112854D02*
X149078273Y-27017616D01*
X149078273Y-27017616D02*
X149125892Y-26969997D01*
X149125892Y-26969997D02*
X149221130Y-26922378D01*
X149221130Y-26922378D02*
X149411606Y-26874759D01*
X149411606Y-26874759D02*
X149506844Y-26827140D01*
X149506844Y-26827140D02*
X149554463Y-26779521D01*
X149554463Y-26779521D02*
X149602082Y-26684283D01*
X149602082Y-26684283D02*
X149602082Y-26589045D01*
X149602082Y-26589045D02*
X149554463Y-26493807D01*
X149554463Y-26493807D02*
X149506844Y-26446188D01*
X149506844Y-26446188D02*
X149411606Y-26398569D01*
X149411606Y-26398569D02*
X149173511Y-26398569D01*
X149173511Y-26398569D02*
X149030654Y-26446188D01*
X148697320Y-26398569D02*
X148459225Y-27398569D01*
X148459225Y-27398569D02*
X148268749Y-26684283D01*
X148268749Y-26684283D02*
X148078273Y-27398569D01*
X148078273Y-27398569D02*
X147840178Y-26398569D01*
X147554463Y-26398569D02*
X146935416Y-26398569D01*
X146935416Y-26398569D02*
X147268749Y-26779521D01*
X147268749Y-26779521D02*
X147125892Y-26779521D01*
X147125892Y-26779521D02*
X147030654Y-26827140D01*
X147030654Y-26827140D02*
X146983035Y-26874759D01*
X146983035Y-26874759D02*
X146935416Y-26969997D01*
X146935416Y-26969997D02*
X146935416Y-27208092D01*
X146935416Y-27208092D02*
X146983035Y-27303330D01*
X146983035Y-27303330D02*
X147030654Y-27350950D01*
X147030654Y-27350950D02*
X147125892Y-27398569D01*
X147125892Y-27398569D02*
X147411606Y-27398569D01*
X147411606Y-27398569D02*
X147506844Y-27350950D01*
X147506844Y-27350950D02*
X147554463Y-27303330D01*
X192809523Y-133254819D02*
X192809523Y-132254819D01*
X192809523Y-132254819D02*
X192476190Y-132969104D01*
X192476190Y-132969104D02*
X192142857Y-132254819D01*
X192142857Y-132254819D02*
X192142857Y-133254819D01*
X191761904Y-132254819D02*
X191142857Y-132254819D01*
X191142857Y-132254819D02*
X191476190Y-132635771D01*
X191476190Y-132635771D02*
X191333333Y-132635771D01*
X191333333Y-132635771D02*
X191238095Y-132683390D01*
X191238095Y-132683390D02*
X191190476Y-132731009D01*
X191190476Y-132731009D02*
X191142857Y-132826247D01*
X191142857Y-132826247D02*
X191142857Y-133064342D01*
X191142857Y-133064342D02*
X191190476Y-133159580D01*
X191190476Y-133159580D02*
X191238095Y-133207200D01*
X191238095Y-133207200D02*
X191333333Y-133254819D01*
X191333333Y-133254819D02*
X191619047Y-133254819D01*
X191619047Y-133254819D02*
X191714285Y-133207200D01*
X191714285Y-133207200D02*
X191761904Y-133159580D01*
%TO.C,SW18*%
X283886086Y-67599723D02*
X284089454Y-68056495D01*
X285553706Y-71345259D02*
X285797748Y-71893386D01*
X285797748Y-71893386D02*
X289908703Y-70063071D01*
X287997040Y-65769408D02*
X283886086Y-67599723D01*
X288281756Y-66408890D02*
X287997040Y-65769408D01*
X290568844Y-70316476D02*
X290975580Y-71230021D01*
X291635721Y-71483426D02*
X290975580Y-71230021D01*
X292546043Y-66152261D02*
X290262179Y-67169103D01*
X293206184Y-66405666D02*
X292546043Y-66152261D01*
X294376358Y-70263216D02*
X291635721Y-71483426D01*
X294629762Y-69603075D02*
X294376358Y-70263216D01*
X289908703Y-70063071D02*
G75*
G02*
X290568844Y-70316476I203368J-456773D01*
G01*
X290262179Y-67169103D02*
G75*
G02*
X288281756Y-66408890I-610104J1370320D01*
G01*
%TO.C,SW10*%
X247484226Y-120348112D02*
X250495316Y-123692263D01*
X247930115Y-119946633D02*
X247484226Y-120348112D01*
X249678156Y-125773669D02*
X249715164Y-125067532D01*
X250458309Y-124398401D02*
X249715164Y-125067532D01*
X250977009Y-117203198D02*
X250605437Y-117537763D01*
X251685548Y-128003104D02*
X249678156Y-125773669D01*
X252391687Y-128040111D02*
X251685548Y-128003104D01*
X253467895Y-121015741D02*
X253988097Y-120547351D01*
X253988097Y-120547351D02*
X250977009Y-117203198D01*
X254992693Y-125698154D02*
X255029700Y-124992016D01*
X255029700Y-124992016D02*
X253356874Y-123134155D01*
X250495316Y-123692263D02*
G75*
G02*
X250458309Y-124398401I-371574J-334565D01*
G01*
X253356874Y-123134155D02*
G75*
G02*
X253467895Y-121015741I1114718J1003696D01*
G01*
%TO.C,SW12*%
X260084367Y-60976386D02*
X260287735Y-61433158D01*
X261751987Y-64721922D02*
X261996029Y-65270049D01*
X261996029Y-65270049D02*
X266106984Y-63439734D01*
X264195321Y-59146071D02*
X260084367Y-60976386D01*
X264480037Y-59785553D02*
X264195321Y-59146071D01*
X266767125Y-63693139D02*
X267173861Y-64606684D01*
X267834002Y-64860089D02*
X267173861Y-64606684D01*
X268744324Y-59528924D02*
X266460460Y-60545766D01*
X269404465Y-59782329D02*
X268744324Y-59528924D01*
X270574639Y-63639879D02*
X267834002Y-64860089D01*
X270828043Y-62979738D02*
X270574639Y-63639879D01*
X266106984Y-63439734D02*
G75*
G02*
X266767125Y-63693139I203368J-456773D01*
G01*
X266460460Y-60545766D02*
G75*
G02*
X264480037Y-59785553I-610104J1370320D01*
G01*
%TO.C,SW9*%
X123655164Y-127607225D02*
X124026735Y-127941791D01*
X126666249Y-124263074D02*
X123655164Y-127607225D01*
X126702056Y-130350661D02*
X127147944Y-130752139D01*
X127147944Y-130752139D02*
X130159031Y-127407987D01*
X127186451Y-124731466D02*
X126666249Y-124263074D01*
X130865168Y-127370980D02*
X131608313Y-128040111D01*
X130977692Y-122762582D02*
X129304865Y-124620444D01*
X131683829Y-122725575D02*
X130977692Y-122762582D01*
X132314452Y-128003104D02*
X131608313Y-128040111D01*
X134284836Y-125067532D02*
X134321844Y-125773669D01*
X134321844Y-125773669D02*
X132314452Y-128003104D01*
X129304865Y-124620444D02*
G75*
G02*
X127186451Y-124731466I-1114718J1003705D01*
G01*
X130159031Y-127407987D02*
G75*
G02*
X130865168Y-127370980I371572J-334567D01*
G01*
%TO.C,SW20*%
X323086856Y-61973688D02*
X323290224Y-62430460D01*
X324754476Y-65719224D02*
X324998518Y-66267351D01*
X324998518Y-66267351D02*
X329109473Y-64437036D01*
X327197810Y-60143373D02*
X323086856Y-61973688D01*
X327482526Y-60782855D02*
X327197810Y-60143373D01*
X329769614Y-64690441D02*
X330176350Y-65603986D01*
X330836491Y-65857391D02*
X330176350Y-65603986D01*
X331746813Y-60526226D02*
X329462949Y-61543068D01*
X332406954Y-60779631D02*
X331746813Y-60526226D01*
X333577128Y-64637181D02*
X330836491Y-65857391D01*
X333830532Y-63977040D02*
X333577128Y-64637181D01*
X329109473Y-64437036D02*
G75*
G02*
X329769614Y-64690441I203368J-456773D01*
G01*
X329462949Y-61543068D02*
G75*
G02*
X327482526Y-60782855I-610104J1370320D01*
G01*
%TO.C,SW6*%
X70711832Y-52381372D02*
X74822786Y-54211687D01*
X70955874Y-51833245D02*
X70711832Y-52381372D01*
X72623494Y-48087709D02*
X72420126Y-48544481D01*
X74922858Y-56445515D02*
X74669454Y-55785374D01*
X75076191Y-54871828D02*
X74669454Y-55785374D01*
X76449733Y-50557505D02*
X76734448Y-49918024D01*
X76734448Y-49918024D02*
X72623494Y-48087709D01*
X77663495Y-57665725D02*
X74922858Y-56445515D01*
X78323636Y-57412320D02*
X77663495Y-57665725D01*
X79493810Y-53554770D02*
X77209946Y-52537929D01*
X79747214Y-54214911D02*
X79493810Y-53554770D01*
X74822786Y-54211687D02*
G75*
G02*
X75076191Y-54871828I-203369J-456773D01*
G01*
X77209946Y-52537929D02*
G75*
G02*
X76449733Y-50557505I610104J1370318D01*
G01*
%TO.C,SW16*%
X246133097Y-76477523D02*
X246336465Y-76934295D01*
X247800717Y-80223059D02*
X248044759Y-80771186D01*
X248044759Y-80771186D02*
X252155714Y-78940871D01*
X250244051Y-74647208D02*
X246133097Y-76477523D01*
X250528767Y-75286690D02*
X250244051Y-74647208D01*
X252815855Y-79194276D02*
X253222591Y-80107821D01*
X253882732Y-80361226D02*
X253222591Y-80107821D01*
X254793054Y-75030061D02*
X252509190Y-76046903D01*
X255453195Y-75283466D02*
X254793054Y-75030061D01*
X256623369Y-79141016D02*
X253882732Y-80361226D01*
X256876773Y-78480875D02*
X256623369Y-79141016D01*
X252155714Y-78940871D02*
G75*
G02*
X252815855Y-79194276I203368J-456773D01*
G01*
X252509190Y-76046903D02*
G75*
G02*
X250528767Y-75286690I-610104J1370320D01*
G01*
%TO.C,SW14*%
X301266542Y-45049100D02*
G75*
G02*
X299286119Y-44288887I-610104J1370320D01*
G01*
X300913066Y-47943068D02*
G75*
G02*
X301573207Y-48196473I203368J-456773D01*
G01*
X305634125Y-47483072D02*
X305380721Y-48143213D01*
X305380721Y-48143213D02*
X302640084Y-49363423D01*
X304210547Y-44285663D02*
X303550406Y-44032258D01*
X303550406Y-44032258D02*
X301266542Y-45049100D01*
X302640084Y-49363423D02*
X301979943Y-49110018D01*
X301573207Y-48196473D02*
X301979943Y-49110018D01*
X299286119Y-44288887D02*
X299001403Y-43649405D01*
X299001403Y-43649405D02*
X294890449Y-45479720D01*
X296802111Y-49773383D02*
X300913066Y-47943068D01*
X296558069Y-49225256D02*
X296802111Y-49773383D01*
X294890449Y-45479720D02*
X295093817Y-45936492D01*
%TO.C,SW15*%
X315745261Y-45484191D02*
X315948629Y-45940963D01*
X317412881Y-49229727D02*
X317656923Y-49777854D01*
X317656923Y-49777854D02*
X321767878Y-47947539D01*
X319856215Y-43653876D02*
X315745261Y-45484191D01*
X320140931Y-44293358D02*
X319856215Y-43653876D01*
X322428019Y-48200944D02*
X322834755Y-49114489D01*
X323494896Y-49367894D02*
X322834755Y-49114489D01*
X324405218Y-44036729D02*
X322121354Y-45053571D01*
X325065359Y-44290134D02*
X324405218Y-44036729D01*
X326235533Y-48147684D02*
X323494896Y-49367894D01*
X326488937Y-47487543D02*
X326235533Y-48147684D01*
X321767878Y-47947539D02*
G75*
G02*
X322428019Y-48200944I203368J-456773D01*
G01*
X322121354Y-45053571D02*
G75*
G02*
X320140931Y-44293358I-610104J1370320D01*
G01*
%TO.C,SW8*%
X105517914Y-67878038D02*
X109628868Y-69708353D01*
X105761956Y-67329911D02*
X105517914Y-67878038D01*
X107429576Y-63584375D02*
X107226208Y-64041147D01*
X109728940Y-71942181D02*
X109475536Y-71282040D01*
X109882273Y-70368494D02*
X109475536Y-71282040D01*
X111255815Y-66054171D02*
X111540530Y-65414690D01*
X111540530Y-65414690D02*
X107429576Y-63584375D01*
X112469577Y-73162391D02*
X109728940Y-71942181D01*
X113129718Y-72908986D02*
X112469577Y-73162391D01*
X114299892Y-69051436D02*
X112016028Y-68034595D01*
X114553296Y-69711577D02*
X114299892Y-69051436D01*
X109628868Y-69708353D02*
G75*
G02*
X109882273Y-70368494I-203369J-456773D01*
G01*
X112016028Y-68034595D02*
G75*
G02*
X111255815Y-66054171I610104J1370318D01*
G01*
%TO.C,SW19*%
X302232044Y-61969217D02*
X302435412Y-62425989D01*
X303899664Y-65714753D02*
X304143706Y-66262880D01*
X304143706Y-66262880D02*
X308254661Y-64432565D01*
X306342998Y-60138902D02*
X302232044Y-61969217D01*
X306627714Y-60778384D02*
X306342998Y-60138902D01*
X308914802Y-64685970D02*
X309321538Y-65599515D01*
X309981679Y-65852920D02*
X309321538Y-65599515D01*
X310892001Y-60521755D02*
X308608137Y-61538597D01*
X311552142Y-60775160D02*
X310892001Y-60521755D01*
X312722316Y-64632710D02*
X309981679Y-65852920D01*
X312975720Y-63972569D02*
X312722316Y-64632710D01*
X308254661Y-64432565D02*
G75*
G02*
X308914802Y-64685970I203368J-456773D01*
G01*
X308608137Y-61538597D02*
G75*
G02*
X306627714Y-60778384I-610104J1370320D01*
G01*
%TO.C,SW7*%
X89083415Y-57954325D02*
X93194369Y-59784640D01*
X89327457Y-57406198D02*
X89083415Y-57954325D01*
X90995077Y-53660662D02*
X90791709Y-54117434D01*
X93294441Y-62018468D02*
X93041037Y-61358327D01*
X93447774Y-60444781D02*
X93041037Y-61358327D01*
X94821316Y-56130458D02*
X95106031Y-55490977D01*
X95106031Y-55490977D02*
X90995077Y-53660662D01*
X96035078Y-63238678D02*
X93294441Y-62018468D01*
X96695219Y-62985273D02*
X96035078Y-63238678D01*
X97865393Y-59127723D02*
X95581529Y-58110882D01*
X98118797Y-59787864D02*
X97865393Y-59127723D01*
X93194369Y-59784640D02*
G75*
G02*
X93447774Y-60444781I-203369J-456773D01*
G01*
X95581529Y-58110882D02*
G75*
G02*
X94821316Y-56130458I610104J1370318D01*
G01*
%TO.C,SW17*%
X267425962Y-77465883D02*
X267629330Y-77922655D01*
X269093582Y-81211419D02*
X269337624Y-81759546D01*
X269337624Y-81759546D02*
X273448579Y-79929231D01*
X271536916Y-75635568D02*
X267425962Y-77465883D01*
X271821632Y-76275050D02*
X271536916Y-75635568D01*
X274108720Y-80182636D02*
X274515456Y-81096181D01*
X275175597Y-81349586D02*
X274515456Y-81096181D01*
X276085919Y-76018421D02*
X273802055Y-77035263D01*
X276746060Y-76271826D02*
X276085919Y-76018421D01*
X277916234Y-80129376D02*
X275175597Y-81349586D01*
X278169638Y-79469235D02*
X277916234Y-80129376D01*
X273448579Y-79929231D02*
G75*
G02*
X274108720Y-80182636I203368J-456773D01*
G01*
X273802055Y-77035263D02*
G75*
G02*
X271821632Y-76275050I-610104J1370320D01*
G01*
%TO.C,SW11*%
X274767559Y-93955378D02*
X274970927Y-94412150D01*
X276435179Y-97700914D02*
X276679221Y-98249041D01*
X276679221Y-98249041D02*
X280790176Y-96418726D01*
X278878513Y-92125063D02*
X274767559Y-93955378D01*
X279163229Y-92764545D02*
X278878513Y-92125063D01*
X281450317Y-96672131D02*
X281857053Y-97585676D01*
X282517194Y-97839081D02*
X281857053Y-97585676D01*
X283427516Y-92507916D02*
X281143652Y-93524758D01*
X284087657Y-92761321D02*
X283427516Y-92507916D01*
X285257831Y-96618871D02*
X282517194Y-97839081D01*
X285511235Y-95958730D02*
X285257831Y-96618871D01*
X280790176Y-96418726D02*
G75*
G02*
X281450317Y-96672131I203368J-456773D01*
G01*
X281143652Y-93524758D02*
G75*
G02*
X279163229Y-92764545I-610104J1370320D01*
G01*
%TO.C,SW13*%
X282920584Y-50679606D02*
G75*
G02*
X280940161Y-49919393I-610104J1370320D01*
G01*
X282567108Y-53573574D02*
G75*
G02*
X283227249Y-53826979I203368J-456773D01*
G01*
X287288167Y-53113578D02*
X287034763Y-53773719D01*
X287034763Y-53773719D02*
X284294126Y-54993929D01*
X285864589Y-49916169D02*
X285204448Y-49662764D01*
X285204448Y-49662764D02*
X282920584Y-50679606D01*
X284294126Y-54993929D02*
X283633985Y-54740524D01*
X283227249Y-53826979D02*
X283633985Y-54740524D01*
X280940161Y-49919393D02*
X280655445Y-49279911D01*
X280655445Y-49279911D02*
X276544491Y-51110226D01*
X278456153Y-55403889D02*
X282567108Y-53573574D01*
X278212111Y-54855762D02*
X278456153Y-55403889D01*
X276544491Y-51110226D02*
X276747859Y-51566998D01*
%TD*%
M02*
