%TF.GenerationSoftware,KiCad,Pcbnew,7.0.5*%
%TF.CreationDate,2023-07-01T10:29:15-05:00*%
%TF.ProjectId,triplejump,74726970-6c65-46a7-956d-702e6b696361,rev?*%
%TF.SameCoordinates,Original*%
%TF.FileFunction,Soldermask,Bot*%
%TF.FilePolarity,Negative*%
%FSLAX46Y46*%
G04 Gerber Fmt 4.6, Leading zero omitted, Abs format (unit mm)*
G04 Created by KiCad (PCBNEW 7.0.5) date 2023-07-01 10:29:15*
%MOMM*%
%LPD*%
G01*
G04 APERTURE LIST*
G04 Aperture macros list*
%AMRotRect*
0 Rectangle, with rotation*
0 The origin of the aperture is its center*
0 $1 length*
0 $2 width*
0 $3 Rotation angle, in degrees counterclockwise*
0 Add horizontal line*
21,1,$1,$2,0,0,$3*%
G04 Aperture macros list end*
%ADD10C,3.200000*%
%ADD11C,1.701800*%
%ADD12C,3.000000*%
%ADD13C,3.429000*%
%ADD14C,0.990600*%
%ADD15RotRect,2.600000X2.600000X24.000000*%
%ADD16RotRect,2.600000X2.600000X324.000000*%
%ADD17RotRect,2.600000X2.600000X36.000000*%
%ADD18O,2.500000X1.500000*%
%ADD19O,1.500000X2.500000*%
%ADD20RotRect,2.600000X2.600000X336.000000*%
%ADD21C,2.000000*%
G04 APERTURE END LIST*
D10*
%TO.C,M3*%
X192000000Y-78000000D03*
%TD*%
%TO.C,M3*%
X357000000Y-129000000D03*
%TD*%
%TO.C,M3*%
X357000000Y-27000000D03*
%TD*%
%TO.C,M3*%
X27000000Y-129000000D03*
%TD*%
%TO.C,M3*%
X27000000Y-27000000D03*
%TD*%
D11*
%TO.C,SW18*%
X304849668Y-66076072D03*
D12*
X306831703Y-69298499D03*
D13*
X309874168Y-63839020D03*
D12*
X312294251Y-69274615D03*
D14*
X312934581Y-57878964D03*
D11*
X314898668Y-61601968D03*
D15*
X315286112Y-67942553D03*
X303839842Y-70630561D03*
%TD*%
D11*
%TO.C,SW10*%
X270318655Y-115939263D03*
D12*
X268518968Y-119266969D03*
D13*
X274768248Y-119172082D03*
D12*
X271270926Y-123985733D03*
D14*
X281460015Y-118842450D03*
D11*
X279217841Y-122404901D03*
D16*
X273920456Y-125910730D03*
X265869438Y-117341973D03*
%TD*%
D11*
%TO.C,SW12*%
X280641211Y-58539191D03*
D12*
X282623246Y-61761618D03*
D13*
X285665711Y-56302139D03*
D12*
X288085794Y-61737734D03*
D14*
X288726124Y-50342083D03*
D11*
X290690211Y-54065087D03*
D15*
X291077655Y-60405672D03*
X279631385Y-63093680D03*
%TD*%
D11*
%TO.C,SW9*%
X104782159Y-122404901D03*
D12*
X107390862Y-125144822D03*
D13*
X109231752Y-119172082D03*
D12*
X112729074Y-123985733D03*
D14*
X110986123Y-112705972D03*
D11*
X113681345Y-115939263D03*
D17*
X115378605Y-122060736D03*
X104741331Y-127069819D03*
%TD*%
D11*
%TO.C,SW20*%
X342484501Y-56932887D03*
D12*
X344466536Y-60155314D03*
D13*
X347509001Y-54695835D03*
D12*
X349929084Y-60131430D03*
D14*
X350569414Y-48735779D03*
D11*
X352533501Y-52458783D03*
D15*
X352920945Y-58799368D03*
X341474675Y-61487376D03*
%TD*%
D18*
%TO.C,U1*%
X200120000Y-24340000D03*
X200120000Y-26880000D03*
X200120000Y-29420000D03*
X200120000Y-31960000D03*
X200120000Y-34500000D03*
X200120000Y-37040000D03*
X200120000Y-39580000D03*
X200120000Y-42120000D03*
X200120000Y-44660000D03*
D19*
X197080000Y-45160000D03*
X194540000Y-45160000D03*
X192000000Y-45160000D03*
X189460000Y-45160000D03*
X186920000Y-45160000D03*
D18*
X183880000Y-44660000D03*
X183880000Y-42120000D03*
X183880000Y-39580000D03*
X183880000Y-37040000D03*
X183880000Y-34500000D03*
X183880000Y-31960000D03*
X183880000Y-29420000D03*
X183880000Y-26880000D03*
X183880000Y-24340000D03*
%TD*%
D11*
%TO.C,SW5*%
X54603917Y-47327495D03*
D12*
X53535427Y-50956659D03*
D13*
X59628417Y-49564547D03*
D12*
X57208334Y-55000142D03*
D14*
X66105418Y-47850821D03*
D11*
X64652917Y-51801599D03*
D20*
X60200195Y-56332205D03*
X50543566Y-49624597D03*
%TD*%
D11*
%TO.C,SW16*%
X271929420Y-85808392D03*
D12*
X273911455Y-89030819D03*
D13*
X276953920Y-83571340D03*
D12*
X279374003Y-89006935D03*
D14*
X280014333Y-77611284D03*
D11*
X281978420Y-81334288D03*
D15*
X282365864Y-87674873D03*
X270919594Y-90362881D03*
%TD*%
D11*
%TO.C,SW14*%
X315447293Y-43042525D03*
D12*
X317429328Y-46264952D03*
D13*
X320471793Y-40805473D03*
D12*
X322891876Y-46241068D03*
D14*
X323532206Y-34845417D03*
D11*
X325496293Y-38568421D03*
D15*
X325883737Y-44909006D03*
X314437467Y-47597014D03*
%TD*%
D11*
%TO.C,SW15*%
X334736168Y-39529846D03*
D12*
X336718203Y-42752273D03*
D13*
X339760668Y-37292794D03*
D12*
X342180751Y-42728389D03*
D14*
X342821081Y-31332738D03*
D11*
X344785168Y-35055742D03*
D15*
X345172612Y-41396327D03*
X333726342Y-44084335D03*
%TD*%
D11*
%TO.C,SW7*%
X89409999Y-62824161D03*
D12*
X88341509Y-66453325D03*
D13*
X94434499Y-65061213D03*
D12*
X92014416Y-70496808D03*
D14*
X100911500Y-63347487D03*
D11*
X99458999Y-67298265D03*
D20*
X95006277Y-71828871D03*
X85349648Y-65121263D03*
%TD*%
D11*
%TO.C,SW19*%
X323195626Y-60445566D03*
D12*
X325177661Y-63667993D03*
D13*
X328220126Y-58208514D03*
D12*
X330640209Y-63644109D03*
D14*
X331280539Y-52248458D03*
D11*
X333244626Y-55971462D03*
D15*
X333632070Y-62312047D03*
X322185800Y-65000055D03*
%TD*%
D11*
%TO.C,SW6*%
X72975500Y-52900448D03*
D12*
X71907010Y-56529612D03*
D13*
X78000000Y-55137500D03*
D12*
X75579917Y-60573095D03*
D14*
X84477001Y-53423774D03*
D11*
X83024500Y-57374552D03*
D20*
X78571778Y-61905158D03*
X68915149Y-55197550D03*
%TD*%
D11*
%TO.C,SW17*%
X288389544Y-75942232D03*
D12*
X290371579Y-79164659D03*
D13*
X293414044Y-73705180D03*
D12*
X295834127Y-79140775D03*
D14*
X296474457Y-67745124D03*
D11*
X298438544Y-71468128D03*
D15*
X298825988Y-77808713D03*
X287379718Y-80496721D03*
%TD*%
D21*
%TO.C,SW4*%
X168831250Y-28943750D03*
X175331250Y-28943750D03*
X168831250Y-33443750D03*
X175331250Y-33443750D03*
%TD*%
D11*
%TO.C,SW11*%
X264181087Y-68405351D03*
D12*
X266163122Y-71627778D03*
D13*
X269205587Y-66168299D03*
D12*
X271625670Y-71603894D03*
D14*
X272266000Y-60208243D03*
D11*
X274230087Y-63931247D03*
D15*
X274617531Y-70271832D03*
X263171261Y-72959840D03*
%TD*%
D11*
%TO.C,SW13*%
X297101335Y-48673031D03*
D12*
X299083370Y-51895458D03*
D13*
X302125835Y-46435979D03*
D12*
X304545918Y-51871574D03*
D14*
X305186248Y-40475923D03*
D11*
X307150335Y-44198927D03*
D15*
X307537779Y-50539512D03*
X296091509Y-53227520D03*
%TD*%
D11*
%TO.C,SW8*%
X81026378Y-35635285D03*
D12*
X79957888Y-39264449D03*
D13*
X86050878Y-37872337D03*
D12*
X83630795Y-43307932D03*
D14*
X92527879Y-36158611D03*
D11*
X91075378Y-40109389D03*
D20*
X86622656Y-44639995D03*
X76966027Y-37932387D03*
%TD*%
D21*
%TO.C,SW1*%
X133112500Y-28943750D03*
X139612500Y-28943750D03*
X133112500Y-33443750D03*
X139612500Y-33443750D03*
%TD*%
%TO.C,SW3*%
X156925000Y-28943750D03*
X163425000Y-28943750D03*
X156925000Y-33443750D03*
X163425000Y-33443750D03*
%TD*%
%TO.C,SW2*%
X145018750Y-28943750D03*
X151518750Y-28943750D03*
X145018750Y-33443750D03*
X151518750Y-33443750D03*
%TD*%
M02*
