M48
; DRILL file {KiCad 7.0.5} date Mon Jul 31 21:39:58 2023
; FORMAT={-:-/ absolute / metric / decimal}
; #@! TF.CreationDate,2023-07-31T21:39:58-05:00
; #@! TF.GenerationSoftware,Kicad,Pcbnew,7.0.5
; #@! TF.FileFunction,Plated,1,2,PTH
FMAT,2
METRIC
; #@! TA.AperFunction,Plated,PTH,ComponentDrill
T1C1.000
; #@! TA.AperFunction,Plated,PTH,ComponentDrill
T2C1.100
%
G90
G05
T1
X184.38Y-24.34
X184.38Y-26.88
X184.38Y-29.42
X184.38Y-31.96
X184.38Y-34.5
X184.38Y-37.04
X184.38Y-39.58
X184.38Y-42.12
X184.38Y-44.66
X186.92Y-44.66
X189.46Y-44.66
X192.0Y-44.66
X194.54Y-44.66
X197.08Y-44.66
X199.62Y-24.34
X199.62Y-26.88
X199.62Y-29.42
X199.62Y-31.96
X199.62Y-34.5
X199.62Y-37.04
X199.62Y-39.58
X199.62Y-42.12
X199.62Y-44.66
T2
X133.112Y-28.944
X133.112Y-33.444
X139.612Y-28.944
X139.612Y-33.444
X145.019Y-28.944
X145.019Y-33.444
X151.519Y-28.944
X151.519Y-33.444
X156.925Y-28.944
X156.925Y-33.444
X163.425Y-28.944
X163.425Y-33.444
X168.831Y-28.944
X168.831Y-33.444
X175.331Y-28.944
X175.331Y-33.444
T0
M30
