<?xml version="1.0" standalone="no"?>
 <!DOCTYPE svg PUBLIC "-//W3C//DTD SVG 1.1//EN" 
 "http://www.w3.org/Graphics/SVG/1.1/DTD/svg11.dtd"> 
<svg
  xmlns:svg="http://www.w3.org/2000/svg"
  xmlns="http://www.w3.org/2000/svg"
  xmlns:xlink="http://www.w3.org/1999/xlink"
  version="1.1"
  width="419.9890mm" height="297.0022mm" viewBox="0.0000 0.0000 419.9890 297.0022">
<title>SVG Image created as triplejump-brd.svg date 2024/10/29 07:25:22 </title>
  <desc>Image generated by PCBNEW </desc>
<g style="fill:#000000; fill-opacity:1.0000;stroke:#000000; stroke-opacity:1.0000;
stroke-linecap:round; stroke-linejoin:round;"
 transform="translate(0 0) scale(1 1)">
</g>
<g style="fill:none; 
stroke:#000000; stroke-width:0.1500; stroke-opacity:1; 
stroke-linecap:round; stroke-linejoin:round;">
<path d="M299.9890 253.0022
L407.9890 253.0022
L407.9890 285.0022
L299.9890 285.0022
L299.9890 253.0022
" />
</g>
<g style="fill:none; 
stroke:#000000; stroke-width:0.1500; stroke-opacity:1; 
stroke-linecap:round; stroke-linejoin:round;">
<path d="M10.0000 10.0000
L409.9890 10.0000
L409.9890 287.0022
L10.0000 287.0022
L10.0000 10.0000
" />
</g>
<g style="fill:none; 
stroke:#000000; stroke-width:0.1500; stroke-opacity:1; 
stroke-linecap:round; stroke-linejoin:round;">
<path d="M12.0000 12.0000
L407.9890 12.0000
L407.9890 285.0022
L12.0000 285.0022
L12.0000 12.0000
" />
</g>
<g style="fill:none; 
stroke:#000000; stroke-width:0.1500; stroke-opacity:1; 
stroke-linecap:round; stroke-linejoin:round;">
<path d="M60.0000 12.0000
L60.0000 10.0000
" />
</g>
<g style="fill:none; 
stroke:#000000; stroke-width:0.1500; stroke-opacity:1; 
stroke-linecap:round; stroke-linejoin:round;">
<path d="M110.0000 12.0000
L110.0000 10.0000
" />
</g>
<g style="fill:none; 
stroke:#000000; stroke-width:0.1500; stroke-opacity:1; 
stroke-linecap:round; stroke-linejoin:round;">
<path d="M160.0000 12.0000
L160.0000 10.0000
" />
</g>
<g style="fill:none; 
stroke:#000000; stroke-width:0.1500; stroke-opacity:1; 
stroke-linecap:round; stroke-linejoin:round;">
<path d="M210.0000 12.0000
L210.0000 10.0000
" />
</g>
<g style="fill:none; 
stroke:#000000; stroke-width:0.1500; stroke-opacity:1; 
stroke-linecap:round; stroke-linejoin:round;">
<path d="M260.0000 12.0000
L260.0000 10.0000
" />
</g>
<g style="fill:none; 
stroke:#000000; stroke-width:0.1500; stroke-opacity:1; 
stroke-linecap:round; stroke-linejoin:round;">
<path d="M310.0000 12.0000
L310.0000 10.0000
" />
</g>
<g style="fill:none; 
stroke:#000000; stroke-width:0.1500; stroke-opacity:1; 
stroke-linecap:round; stroke-linejoin:round;">
<path d="M360.0000 12.0000
L360.0000 10.0000
" />
</g>
<g style="fill:none; 
stroke:#000000; stroke-width:0.1500; stroke-opacity:1; 
stroke-linecap:round; stroke-linejoin:round;">
<text x="35.0000" y="11.6500"
textLength="1.4281" font-size="1.7333" lengthAdjust="spacingAndGlyphs"
text-anchor="start" opacity="0" stroke-opacity="0">1</text>
<g class="stroked-text"><desc>1</desc>
<path d="M36.0892 11.5936
L35.3463 11.5936
" />
<path d="M35.7177 11.5936
L35.7177 10.2936
" />
<path d="M35.7177 10.2936
L35.5939 10.4793
" />
<path d="M35.5939 10.4793
L35.4701 10.6031
" />
<path d="M35.4701 10.6031
L35.3463 10.6650
" />
</g></g>
<g style="fill:none; 
stroke:#000000; stroke-width:0.1500; stroke-opacity:1; 
stroke-linecap:round; stroke-linejoin:round;">
<text x="85.0000" y="11.6500"
textLength="1.4281" font-size="1.7333" lengthAdjust="spacingAndGlyphs"
text-anchor="start" opacity="0" stroke-opacity="0">2</text>
<g class="stroked-text"><desc>2</desc>
<path d="M85.3463 10.4174
L85.4082 10.3555
" />
<path d="M85.4082 10.3555
L85.5320 10.2936
" />
<path d="M85.5320 10.2936
L85.8415 10.2936
" />
<path d="M85.8415 10.2936
L85.9654 10.3555
" />
<path d="M85.9654 10.3555
L86.0273 10.4174
" />
<path d="M86.0273 10.4174
L86.0892 10.5412
" />
<path d="M86.0892 10.5412
L86.0892 10.6650
" />
<path d="M86.0892 10.6650
L86.0273 10.8507
" />
<path d="M86.0273 10.8507
L85.2844 11.5936
" />
<path d="M85.2844 11.5936
L86.0892 11.5936
" />
</g></g>
<g style="fill:none; 
stroke:#000000; stroke-width:0.1500; stroke-opacity:1; 
stroke-linecap:round; stroke-linejoin:round;">
<text x="135.0000" y="11.6500"
textLength="1.4281" font-size="1.7333" lengthAdjust="spacingAndGlyphs"
text-anchor="start" opacity="0" stroke-opacity="0">3</text>
<g class="stroked-text"><desc>3</desc>
<path d="M135.2844 10.2936
L136.0892 10.2936
" />
<path d="M136.0892 10.2936
L135.6558 10.7888
" />
<path d="M135.6558 10.7888
L135.8415 10.7888
" />
<path d="M135.8415 10.7888
L135.9654 10.8507
" />
<path d="M135.9654 10.8507
L136.0273 10.9127
" />
<path d="M136.0273 10.9127
L136.0892 11.0365
" />
<path d="M136.0892 11.0365
L136.0892 11.3460
" />
<path d="M136.0892 11.3460
L136.0273 11.4698
" />
<path d="M136.0273 11.4698
L135.9654 11.5317
" />
<path d="M135.9654 11.5317
L135.8415 11.5936
" />
<path d="M135.8415 11.5936
L135.4701 11.5936
" />
<path d="M135.4701 11.5936
L135.3463 11.5317
" />
<path d="M135.3463 11.5317
L135.2844 11.4698
" />
</g></g>
<g style="fill:none; 
stroke:#000000; stroke-width:0.1500; stroke-opacity:1; 
stroke-linecap:round; stroke-linejoin:round;">
<text x="185.0000" y="11.6500"
textLength="1.4281" font-size="1.7333" lengthAdjust="spacingAndGlyphs"
text-anchor="start" opacity="0" stroke-opacity="0">4</text>
<g class="stroked-text"><desc>4</desc>
<path d="M185.9654 10.7269
L185.9654 11.5936
" />
<path d="M185.6558 10.2317
L185.3463 11.1603
" />
<path d="M185.3463 11.1603
L186.1511 11.1603
" />
</g></g>
<g style="fill:none; 
stroke:#000000; stroke-width:0.1500; stroke-opacity:1; 
stroke-linecap:round; stroke-linejoin:round;">
<text x="235.0000" y="11.6500"
textLength="1.4281" font-size="1.7333" lengthAdjust="spacingAndGlyphs"
text-anchor="start" opacity="0" stroke-opacity="0">5</text>
<g class="stroked-text"><desc>5</desc>
<path d="M236.0273 10.2936
L235.4082 10.2936
" />
<path d="M235.4082 10.2936
L235.3463 10.9127
" />
<path d="M235.3463 10.9127
L235.4082 10.8507
" />
<path d="M235.4082 10.8507
L235.5320 10.7888
" />
<path d="M235.5320 10.7888
L235.8415 10.7888
" />
<path d="M235.8415 10.7888
L235.9654 10.8507
" />
<path d="M235.9654 10.8507
L236.0273 10.9127
" />
<path d="M236.0273 10.9127
L236.0892 11.0365
" />
<path d="M236.0892 11.0365
L236.0892 11.3460
" />
<path d="M236.0892 11.3460
L236.0273 11.4698
" />
<path d="M236.0273 11.4698
L235.9654 11.5317
" />
<path d="M235.9654 11.5317
L235.8415 11.5936
" />
<path d="M235.8415 11.5936
L235.5320 11.5936
" />
<path d="M235.5320 11.5936
L235.4082 11.5317
" />
<path d="M235.4082 11.5317
L235.3463 11.4698
" />
</g></g>
<g style="fill:none; 
stroke:#000000; stroke-width:0.1500; stroke-opacity:1; 
stroke-linecap:round; stroke-linejoin:round;">
<text x="285.0000" y="11.6500"
textLength="1.4281" font-size="1.7333" lengthAdjust="spacingAndGlyphs"
text-anchor="start" opacity="0" stroke-opacity="0">6</text>
<g class="stroked-text"><desc>6</desc>
<path d="M285.9654 10.2936
L285.7177 10.2936
" />
<path d="M285.7177 10.2936
L285.5939 10.3555
" />
<path d="M285.5939 10.3555
L285.5320 10.4174
" />
<path d="M285.5320 10.4174
L285.4082 10.6031
" />
<path d="M285.4082 10.6031
L285.3463 10.8507
" />
<path d="M285.3463 10.8507
L285.3463 11.3460
" />
<path d="M285.3463 11.3460
L285.4082 11.4698
" />
<path d="M285.4082 11.4698
L285.4701 11.5317
" />
<path d="M285.4701 11.5317
L285.5939 11.5936
" />
<path d="M285.5939 11.5936
L285.8415 11.5936
" />
<path d="M285.8415 11.5936
L285.9654 11.5317
" />
<path d="M285.9654 11.5317
L286.0273 11.4698
" />
<path d="M286.0273 11.4698
L286.0892 11.3460
" />
<path d="M286.0892 11.3460
L286.0892 11.0365
" />
<path d="M286.0892 11.0365
L286.0273 10.9127
" />
<path d="M286.0273 10.9127
L285.9654 10.8507
" />
<path d="M285.9654 10.8507
L285.8415 10.7888
" />
<path d="M285.8415 10.7888
L285.5939 10.7888
" />
<path d="M285.5939 10.7888
L285.4701 10.8507
" />
<path d="M285.4701 10.8507
L285.4082 10.9127
" />
<path d="M285.4082 10.9127
L285.3463 11.0365
" />
</g></g>
<g style="fill:none; 
stroke:#000000; stroke-width:0.1500; stroke-opacity:1; 
stroke-linecap:round; stroke-linejoin:round;">
<text x="335.0000" y="11.6500"
textLength="1.4281" font-size="1.7333" lengthAdjust="spacingAndGlyphs"
text-anchor="start" opacity="0" stroke-opacity="0">7</text>
<g class="stroked-text"><desc>7</desc>
<path d="M335.2844 10.2936
L336.1511 10.2936
" />
<path d="M336.1511 10.2936
L335.5939 11.5936
" />
</g></g>
<g style="fill:none; 
stroke:#000000; stroke-width:0.1500; stroke-opacity:1; 
stroke-linecap:round; stroke-linejoin:round;">
<text x="385.0000" y="11.6500"
textLength="1.4281" font-size="1.7333" lengthAdjust="spacingAndGlyphs"
text-anchor="start" opacity="0" stroke-opacity="0">8</text>
<g class="stroked-text"><desc>8</desc>
<path d="M385.5939 10.8507
L385.4701 10.7888
" />
<path d="M385.4701 10.7888
L385.4082 10.7269
" />
<path d="M385.4082 10.7269
L385.3463 10.6031
" />
<path d="M385.3463 10.6031
L385.3463 10.5412
" />
<path d="M385.3463 10.5412
L385.4082 10.4174
" />
<path d="M385.4082 10.4174
L385.4701 10.3555
" />
<path d="M385.4701 10.3555
L385.5939 10.2936
" />
<path d="M385.5939 10.2936
L385.8415 10.2936
" />
<path d="M385.8415 10.2936
L385.9654 10.3555
" />
<path d="M385.9654 10.3555
L386.0273 10.4174
" />
<path d="M386.0273 10.4174
L386.0892 10.5412
" />
<path d="M386.0892 10.5412
L386.0892 10.6031
" />
<path d="M386.0892 10.6031
L386.0273 10.7269
" />
<path d="M386.0273 10.7269
L385.9654 10.7888
" />
<path d="M385.9654 10.7888
L385.8415 10.8507
" />
<path d="M385.8415 10.8507
L385.5939 10.8507
" />
<path d="M385.5939 10.8507
L385.4701 10.9127
" />
<path d="M385.4701 10.9127
L385.4082 10.9746
" />
<path d="M385.4082 10.9746
L385.3463 11.0984
" />
<path d="M385.3463 11.0984
L385.3463 11.3460
" />
<path d="M385.3463 11.3460
L385.4082 11.4698
" />
<path d="M385.4082 11.4698
L385.4701 11.5317
" />
<path d="M385.4701 11.5317
L385.5939 11.5936
" />
<path d="M385.5939 11.5936
L385.8415 11.5936
" />
<path d="M385.8415 11.5936
L385.9654 11.5317
" />
<path d="M385.9654 11.5317
L386.0273 11.4698
" />
<path d="M386.0273 11.4698
L386.0892 11.3460
" />
<path d="M386.0892 11.3460
L386.0892 11.0984
" />
<path d="M386.0892 11.0984
L386.0273 10.9746
" />
<path d="M386.0273 10.9746
L385.9654 10.9127
" />
<path d="M385.9654 10.9127
L385.8415 10.8507
" />
</g></g>
<g style="fill:none; 
stroke:#000000; stroke-width:0.1500; stroke-opacity:1; 
stroke-linecap:round; stroke-linejoin:round;">
<path d="M60.0000 285.0022
L60.0000 287.0022
" />
</g>
<g style="fill:none; 
stroke:#000000; stroke-width:0.1500; stroke-opacity:1; 
stroke-linecap:round; stroke-linejoin:round;">
<path d="M110.0000 285.0022
L110.0000 287.0022
" />
</g>
<g style="fill:none; 
stroke:#000000; stroke-width:0.1500; stroke-opacity:1; 
stroke-linecap:round; stroke-linejoin:round;">
<path d="M160.0000 285.0022
L160.0000 287.0022
" />
</g>
<g style="fill:none; 
stroke:#000000; stroke-width:0.1500; stroke-opacity:1; 
stroke-linecap:round; stroke-linejoin:round;">
<path d="M210.0000 285.0022
L210.0000 287.0022
" />
</g>
<g style="fill:none; 
stroke:#000000; stroke-width:0.1500; stroke-opacity:1; 
stroke-linecap:round; stroke-linejoin:round;">
<path d="M260.0000 285.0022
L260.0000 287.0022
" />
</g>
<g style="fill:none; 
stroke:#000000; stroke-width:0.1500; stroke-opacity:1; 
stroke-linecap:round; stroke-linejoin:round;">
<path d="M310.0000 285.0022
L310.0000 287.0022
" />
</g>
<g style="fill:none; 
stroke:#000000; stroke-width:0.1500; stroke-opacity:1; 
stroke-linecap:round; stroke-linejoin:round;">
<path d="M360.0000 285.0022
L360.0000 287.0022
" />
</g>
<g style="fill:none; 
stroke:#000000; stroke-width:0.1500; stroke-opacity:1; 
stroke-linecap:round; stroke-linejoin:round;">
<text x="35.0000" y="286.6522"
textLength="1.4281" font-size="1.7333" lengthAdjust="spacingAndGlyphs"
text-anchor="start" opacity="0" stroke-opacity="0">1</text>
<g class="stroked-text"><desc>1</desc>
<path d="M36.0892 286.5958
L35.3463 286.5958
" />
<path d="M35.7177 286.5958
L35.7177 285.2958
" />
<path d="M35.7177 285.2958
L35.5939 285.4815
" />
<path d="M35.5939 285.4815
L35.4701 285.6053
" />
<path d="M35.4701 285.6053
L35.3463 285.6672
" />
</g></g>
<g style="fill:none; 
stroke:#000000; stroke-width:0.1500; stroke-opacity:1; 
stroke-linecap:round; stroke-linejoin:round;">
<text x="85.0000" y="286.6522"
textLength="1.4281" font-size="1.7333" lengthAdjust="spacingAndGlyphs"
text-anchor="start" opacity="0" stroke-opacity="0">2</text>
<g class="stroked-text"><desc>2</desc>
<path d="M85.3463 285.4196
L85.4082 285.3577
" />
<path d="M85.4082 285.3577
L85.5320 285.2958
" />
<path d="M85.5320 285.2958
L85.8415 285.2958
" />
<path d="M85.8415 285.2958
L85.9654 285.3577
" />
<path d="M85.9654 285.3577
L86.0273 285.4196
" />
<path d="M86.0273 285.4196
L86.0892 285.5434
" />
<path d="M86.0892 285.5434
L86.0892 285.6672
" />
<path d="M86.0892 285.6672
L86.0273 285.8529
" />
<path d="M86.0273 285.8529
L85.2844 286.5958
" />
<path d="M85.2844 286.5958
L86.0892 286.5958
" />
</g></g>
<g style="fill:none; 
stroke:#000000; stroke-width:0.1500; stroke-opacity:1; 
stroke-linecap:round; stroke-linejoin:round;">
<text x="135.0000" y="286.6522"
textLength="1.4281" font-size="1.7333" lengthAdjust="spacingAndGlyphs"
text-anchor="start" opacity="0" stroke-opacity="0">3</text>
<g class="stroked-text"><desc>3</desc>
<path d="M135.2844 285.2958
L136.0892 285.2958
" />
<path d="M136.0892 285.2958
L135.6558 285.7910
" />
<path d="M135.6558 285.7910
L135.8415 285.7910
" />
<path d="M135.8415 285.7910
L135.9654 285.8529
" />
<path d="M135.9654 285.8529
L136.0273 285.9149
" />
<path d="M136.0273 285.9149
L136.0892 286.0387
" />
<path d="M136.0892 286.0387
L136.0892 286.3482
" />
<path d="M136.0892 286.3482
L136.0273 286.4720
" />
<path d="M136.0273 286.4720
L135.9654 286.5339
" />
<path d="M135.9654 286.5339
L135.8415 286.5958
" />
<path d="M135.8415 286.5958
L135.4701 286.5958
" />
<path d="M135.4701 286.5958
L135.3463 286.5339
" />
<path d="M135.3463 286.5339
L135.2844 286.4720
" />
</g></g>
<g style="fill:none; 
stroke:#000000; stroke-width:0.1500; stroke-opacity:1; 
stroke-linecap:round; stroke-linejoin:round;">
<text x="185.0000" y="286.6522"
textLength="1.4281" font-size="1.7333" lengthAdjust="spacingAndGlyphs"
text-anchor="start" opacity="0" stroke-opacity="0">4</text>
<g class="stroked-text"><desc>4</desc>
<path d="M185.9654 285.7291
L185.9654 286.5958
" />
<path d="M185.6558 285.2339
L185.3463 286.1625
" />
<path d="M185.3463 286.1625
L186.1511 286.1625
" />
</g></g>
<g style="fill:none; 
stroke:#000000; stroke-width:0.1500; stroke-opacity:1; 
stroke-linecap:round; stroke-linejoin:round;">
<text x="235.0000" y="286.6522"
textLength="1.4281" font-size="1.7333" lengthAdjust="spacingAndGlyphs"
text-anchor="start" opacity="0" stroke-opacity="0">5</text>
<g class="stroked-text"><desc>5</desc>
<path d="M236.0273 285.2958
L235.4082 285.2958
" />
<path d="M235.4082 285.2958
L235.3463 285.9149
" />
<path d="M235.3463 285.9149
L235.4082 285.8529
" />
<path d="M235.4082 285.8529
L235.5320 285.7910
" />
<path d="M235.5320 285.7910
L235.8415 285.7910
" />
<path d="M235.8415 285.7910
L235.9654 285.8529
" />
<path d="M235.9654 285.8529
L236.0273 285.9149
" />
<path d="M236.0273 285.9149
L236.0892 286.0387
" />
<path d="M236.0892 286.0387
L236.0892 286.3482
" />
<path d="M236.0892 286.3482
L236.0273 286.4720
" />
<path d="M236.0273 286.4720
L235.9654 286.5339
" />
<path d="M235.9654 286.5339
L235.8415 286.5958
" />
<path d="M235.8415 286.5958
L235.5320 286.5958
" />
<path d="M235.5320 286.5958
L235.4082 286.5339
" />
<path d="M235.4082 286.5339
L235.3463 286.4720
" />
</g></g>
<g style="fill:none; 
stroke:#000000; stroke-width:0.1500; stroke-opacity:1; 
stroke-linecap:round; stroke-linejoin:round;">
<text x="285.0000" y="286.6522"
textLength="1.4281" font-size="1.7333" lengthAdjust="spacingAndGlyphs"
text-anchor="start" opacity="0" stroke-opacity="0">6</text>
<g class="stroked-text"><desc>6</desc>
<path d="M285.9654 285.2958
L285.7177 285.2958
" />
<path d="M285.7177 285.2958
L285.5939 285.3577
" />
<path d="M285.5939 285.3577
L285.5320 285.4196
" />
<path d="M285.5320 285.4196
L285.4082 285.6053
" />
<path d="M285.4082 285.6053
L285.3463 285.8529
" />
<path d="M285.3463 285.8529
L285.3463 286.3482
" />
<path d="M285.3463 286.3482
L285.4082 286.4720
" />
<path d="M285.4082 286.4720
L285.4701 286.5339
" />
<path d="M285.4701 286.5339
L285.5939 286.5958
" />
<path d="M285.5939 286.5958
L285.8415 286.5958
" />
<path d="M285.8415 286.5958
L285.9654 286.5339
" />
<path d="M285.9654 286.5339
L286.0273 286.4720
" />
<path d="M286.0273 286.4720
L286.0892 286.3482
" />
<path d="M286.0892 286.3482
L286.0892 286.0387
" />
<path d="M286.0892 286.0387
L286.0273 285.9149
" />
<path d="M286.0273 285.9149
L285.9654 285.8529
" />
<path d="M285.9654 285.8529
L285.8415 285.7910
" />
<path d="M285.8415 285.7910
L285.5939 285.7910
" />
<path d="M285.5939 285.7910
L285.4701 285.8529
" />
<path d="M285.4701 285.8529
L285.4082 285.9149
" />
<path d="M285.4082 285.9149
L285.3463 286.0387
" />
</g></g>
<g style="fill:none; 
stroke:#000000; stroke-width:0.1500; stroke-opacity:1; 
stroke-linecap:round; stroke-linejoin:round;">
<text x="335.0000" y="286.6522"
textLength="1.4281" font-size="1.7333" lengthAdjust="spacingAndGlyphs"
text-anchor="start" opacity="0" stroke-opacity="0">7</text>
<g class="stroked-text"><desc>7</desc>
<path d="M335.2844 285.2958
L336.1511 285.2958
" />
<path d="M336.1511 285.2958
L335.5939 286.5958
" />
</g></g>
<g style="fill:none; 
stroke:#000000; stroke-width:0.1500; stroke-opacity:1; 
stroke-linecap:round; stroke-linejoin:round;">
<text x="385.0000" y="286.6522"
textLength="1.4281" font-size="1.7333" lengthAdjust="spacingAndGlyphs"
text-anchor="start" opacity="0" stroke-opacity="0">8</text>
<g class="stroked-text"><desc>8</desc>
<path d="M385.5939 285.8529
L385.4701 285.7910
" />
<path d="M385.4701 285.7910
L385.4082 285.7291
" />
<path d="M385.4082 285.7291
L385.3463 285.6053
" />
<path d="M385.3463 285.6053
L385.3463 285.5434
" />
<path d="M385.3463 285.5434
L385.4082 285.4196
" />
<path d="M385.4082 285.4196
L385.4701 285.3577
" />
<path d="M385.4701 285.3577
L385.5939 285.2958
" />
<path d="M385.5939 285.2958
L385.8415 285.2958
" />
<path d="M385.8415 285.2958
L385.9654 285.3577
" />
<path d="M385.9654 285.3577
L386.0273 285.4196
" />
<path d="M386.0273 285.4196
L386.0892 285.5434
" />
<path d="M386.0892 285.5434
L386.0892 285.6053
" />
<path d="M386.0892 285.6053
L386.0273 285.7291
" />
<path d="M386.0273 285.7291
L385.9654 285.7910
" />
<path d="M385.9654 285.7910
L385.8415 285.8529
" />
<path d="M385.8415 285.8529
L385.5939 285.8529
" />
<path d="M385.5939 285.8529
L385.4701 285.9149
" />
<path d="M385.4701 285.9149
L385.4082 285.9768
" />
<path d="M385.4082 285.9768
L385.3463 286.1006
" />
<path d="M385.3463 286.1006
L385.3463 286.3482
" />
<path d="M385.3463 286.3482
L385.4082 286.4720
" />
<path d="M385.4082 286.4720
L385.4701 286.5339
" />
<path d="M385.4701 286.5339
L385.5939 286.5958
" />
<path d="M385.5939 286.5958
L385.8415 286.5958
" />
<path d="M385.8415 286.5958
L385.9654 286.5339
" />
<path d="M385.9654 286.5339
L386.0273 286.4720
" />
<path d="M386.0273 286.4720
L386.0892 286.3482
" />
<path d="M386.0892 286.3482
L386.0892 286.1006
" />
<path d="M386.0892 286.1006
L386.0273 285.9768
" />
<path d="M386.0273 285.9768
L385.9654 285.9149
" />
<path d="M385.9654 285.9149
L385.8415 285.8529
" />
</g></g>
<g style="fill:none; 
stroke:#000000; stroke-width:0.1500; stroke-opacity:1; 
stroke-linecap:round; stroke-linejoin:round;">
<path d="M10.0000 60.0000
L12.0000 60.0000
" />
</g>
<g style="fill:none; 
stroke:#000000; stroke-width:0.1500; stroke-opacity:1; 
stroke-linecap:round; stroke-linejoin:round;">
<path d="M10.0000 110.0000
L12.0000 110.0000
" />
</g>
<g style="fill:none; 
stroke:#000000; stroke-width:0.1500; stroke-opacity:1; 
stroke-linecap:round; stroke-linejoin:round;">
<path d="M10.0000 160.0000
L12.0000 160.0000
" />
</g>
<g style="fill:none; 
stroke:#000000; stroke-width:0.1500; stroke-opacity:1; 
stroke-linecap:round; stroke-linejoin:round;">
<path d="M10.0000 210.0000
L12.0000 210.0000
" />
</g>
<g style="fill:none; 
stroke:#000000; stroke-width:0.1500; stroke-opacity:1; 
stroke-linecap:round; stroke-linejoin:round;">
<path d="M10.0000 260.0000
L12.0000 260.0000
" />
</g>
<g style="fill:none; 
stroke:#000000; stroke-width:0.1500; stroke-opacity:1; 
stroke-linecap:round; stroke-linejoin:round;">
<text x="11.0000" y="35.6500"
textLength="1.3043" font-size="1.7333" lengthAdjust="spacingAndGlyphs"
text-anchor="middle" opacity="0" stroke-opacity="0">A</text>
<g class="stroked-text"><desc>A</desc>
<path d="M10.6905 35.2222
L11.3095 35.2222
" />
<path d="M10.5667 35.5936
L11.0000 34.2936
" />
<path d="M11.0000 34.2936
L11.4333 35.5936
" />
</g></g>
<g style="fill:none; 
stroke:#000000; stroke-width:0.1500; stroke-opacity:1; 
stroke-linecap:round; stroke-linejoin:round;">
<text x="11.0000" y="85.6500"
textLength="1.4900" font-size="1.7333" lengthAdjust="spacingAndGlyphs"
text-anchor="middle" opacity="0" stroke-opacity="0">B</text>
<g class="stroked-text"><desc>B</desc>
<path d="M11.0929 84.9127
L11.2786 84.9746
" />
<path d="M11.2786 84.9746
L11.3405 85.0365
" />
<path d="M11.3405 85.0365
L11.4024 85.1603
" />
<path d="M11.4024 85.1603
L11.4024 85.3460
" />
<path d="M11.4024 85.3460
L11.3405 85.4698
" />
<path d="M11.3405 85.4698
L11.2786 85.5317
" />
<path d="M11.2786 85.5317
L11.1548 85.5936
" />
<path d="M11.1548 85.5936
L10.6595 85.5936
" />
<path d="M10.6595 85.5936
L10.6595 84.2936
" />
<path d="M10.6595 84.2936
L11.0929 84.2936
" />
<path d="M11.0929 84.2936
L11.2167 84.3555
" />
<path d="M11.2167 84.3555
L11.2786 84.4174
" />
<path d="M11.2786 84.4174
L11.3405 84.5412
" />
<path d="M11.3405 84.5412
L11.3405 84.6650
" />
<path d="M11.3405 84.6650
L11.2786 84.7888
" />
<path d="M11.2786 84.7888
L11.2167 84.8507
" />
<path d="M11.2167 84.8507
L11.0929 84.9127
" />
<path d="M11.0929 84.9127
L10.6595 84.9127
" />
</g></g>
<g style="fill:none; 
stroke:#000000; stroke-width:0.1500; stroke-opacity:1; 
stroke-linecap:round; stroke-linejoin:round;">
<text x="11.0000" y="135.6500"
textLength="1.4900" font-size="1.7333" lengthAdjust="spacingAndGlyphs"
text-anchor="middle" opacity="0" stroke-opacity="0">C</text>
<g class="stroked-text"><desc>C</desc>
<path d="M11.4024 135.4698
L11.3405 135.5317
" />
<path d="M11.3405 135.5317
L11.1548 135.5936
" />
<path d="M11.1548 135.5936
L11.0310 135.5936
" />
<path d="M11.0310 135.5936
L10.8452 135.5317
" />
<path d="M10.8452 135.5317
L10.7214 135.4079
" />
<path d="M10.7214 135.4079
L10.6595 135.2841
" />
<path d="M10.6595 135.2841
L10.5976 135.0365
" />
<path d="M10.5976 135.0365
L10.5976 134.8507
" />
<path d="M10.5976 134.8507
L10.6595 134.6031
" />
<path d="M10.6595 134.6031
L10.7214 134.4793
" />
<path d="M10.7214 134.4793
L10.8452 134.3555
" />
<path d="M10.8452 134.3555
L11.0310 134.2936
" />
<path d="M11.0310 134.2936
L11.1548 134.2936
" />
<path d="M11.1548 134.2936
L11.3405 134.3555
" />
<path d="M11.3405 134.3555
L11.4024 134.4174
" />
</g></g>
<g style="fill:none; 
stroke:#000000; stroke-width:0.1500; stroke-opacity:1; 
stroke-linecap:round; stroke-linejoin:round;">
<text x="11.0000" y="185.6500"
textLength="1.4900" font-size="1.7333" lengthAdjust="spacingAndGlyphs"
text-anchor="middle" opacity="0" stroke-opacity="0">D</text>
<g class="stroked-text"><desc>D</desc>
<path d="M10.6595 185.5936
L10.6595 184.2936
" />
<path d="M10.6595 184.2936
L10.9690 184.2936
" />
<path d="M10.9690 184.2936
L11.1548 184.3555
" />
<path d="M11.1548 184.3555
L11.2786 184.4793
" />
<path d="M11.2786 184.4793
L11.3405 184.6031
" />
<path d="M11.3405 184.6031
L11.4024 184.8507
" />
<path d="M11.4024 184.8507
L11.4024 185.0365
" />
<path d="M11.4024 185.0365
L11.3405 185.2841
" />
<path d="M11.3405 185.2841
L11.2786 185.4079
" />
<path d="M11.2786 185.4079
L11.1548 185.5317
" />
<path d="M11.1548 185.5317
L10.9690 185.5936
" />
<path d="M10.9690 185.5936
L10.6595 185.5936
" />
</g></g>
<g style="fill:none; 
stroke:#000000; stroke-width:0.1500; stroke-opacity:1; 
stroke-linecap:round; stroke-linejoin:round;">
<text x="11.0000" y="235.6500"
textLength="1.3662" font-size="1.7333" lengthAdjust="spacingAndGlyphs"
text-anchor="middle" opacity="0" stroke-opacity="0">E</text>
<g class="stroked-text"><desc>E</desc>
<path d="M10.7214 234.9127
L11.1548 234.9127
" />
<path d="M11.3405 235.5936
L10.7214 235.5936
" />
<path d="M10.7214 235.5936
L10.7214 234.2936
" />
<path d="M10.7214 234.2936
L11.3405 234.2936
" />
</g></g>
<g style="fill:none; 
stroke:#000000; stroke-width:0.1500; stroke-opacity:1; 
stroke-linecap:round; stroke-linejoin:round;">
<text x="11.0000" y="285.6500"
textLength="1.3043" font-size="1.7333" lengthAdjust="spacingAndGlyphs"
text-anchor="middle" opacity="0" stroke-opacity="0">F</text>
<g class="stroked-text"><desc>F</desc>
<path d="M11.1857 284.9127
L10.7524 284.9127
" />
<path d="M10.7524 285.5936
L10.7524 284.2936
" />
<path d="M10.7524 284.2936
L11.3714 284.2936
" />
</g></g>
<g style="fill:none; 
stroke:#000000; stroke-width:0.1500; stroke-opacity:1; 
stroke-linecap:round; stroke-linejoin:round;">
<path d="M409.9890 60.0000
L407.9890 60.0000
" />
</g>
<g style="fill:none; 
stroke:#000000; stroke-width:0.1500; stroke-opacity:1; 
stroke-linecap:round; stroke-linejoin:round;">
<path d="M409.9890 110.0000
L407.9890 110.0000
" />
</g>
<g style="fill:none; 
stroke:#000000; stroke-width:0.1500; stroke-opacity:1; 
stroke-linecap:round; stroke-linejoin:round;">
<path d="M409.9890 160.0000
L407.9890 160.0000
" />
</g>
<g style="fill:none; 
stroke:#000000; stroke-width:0.1500; stroke-opacity:1; 
stroke-linecap:round; stroke-linejoin:round;">
<path d="M409.9890 210.0000
L407.9890 210.0000
" />
</g>
<g style="fill:none; 
stroke:#000000; stroke-width:0.1500; stroke-opacity:1; 
stroke-linecap:round; stroke-linejoin:round;">
<path d="M409.9890 260.0000
L407.9890 260.0000
" />
</g>
<g style="fill:none; 
stroke:#000000; stroke-width:0.1500; stroke-opacity:1; 
stroke-linecap:round; stroke-linejoin:round;">
<text x="408.9890" y="35.6500"
textLength="1.3043" font-size="1.7333" lengthAdjust="spacingAndGlyphs"
text-anchor="middle" opacity="0" stroke-opacity="0">A</text>
<g class="stroked-text"><desc>A</desc>
<path d="M408.6795 35.2222
L409.2985 35.2222
" />
<path d="M408.5557 35.5936
L408.9890 34.2936
" />
<path d="M408.9890 34.2936
L409.4223 35.5936
" />
</g></g>
<g style="fill:none; 
stroke:#000000; stroke-width:0.1500; stroke-opacity:1; 
stroke-linecap:round; stroke-linejoin:round;">
<text x="408.9890" y="85.6500"
textLength="1.4900" font-size="1.7333" lengthAdjust="spacingAndGlyphs"
text-anchor="middle" opacity="0" stroke-opacity="0">B</text>
<g class="stroked-text"><desc>B</desc>
<path d="M409.0819 84.9127
L409.2676 84.9746
" />
<path d="M409.2676 84.9746
L409.3295 85.0365
" />
<path d="M409.3295 85.0365
L409.3914 85.1603
" />
<path d="M409.3914 85.1603
L409.3914 85.3460
" />
<path d="M409.3914 85.3460
L409.3295 85.4698
" />
<path d="M409.3295 85.4698
L409.2676 85.5317
" />
<path d="M409.2676 85.5317
L409.1438 85.5936
" />
<path d="M409.1438 85.5936
L408.6485 85.5936
" />
<path d="M408.6485 85.5936
L408.6485 84.2936
" />
<path d="M408.6485 84.2936
L409.0819 84.2936
" />
<path d="M409.0819 84.2936
L409.2057 84.3555
" />
<path d="M409.2057 84.3555
L409.2676 84.4174
" />
<path d="M409.2676 84.4174
L409.3295 84.5412
" />
<path d="M409.3295 84.5412
L409.3295 84.6650
" />
<path d="M409.3295 84.6650
L409.2676 84.7888
" />
<path d="M409.2676 84.7888
L409.2057 84.8507
" />
<path d="M409.2057 84.8507
L409.0819 84.9127
" />
<path d="M409.0819 84.9127
L408.6485 84.9127
" />
</g></g>
<g style="fill:none; 
stroke:#000000; stroke-width:0.1500; stroke-opacity:1; 
stroke-linecap:round; stroke-linejoin:round;">
<text x="408.9890" y="135.6500"
textLength="1.4900" font-size="1.7333" lengthAdjust="spacingAndGlyphs"
text-anchor="middle" opacity="0" stroke-opacity="0">C</text>
<g class="stroked-text"><desc>C</desc>
<path d="M409.3914 135.4698
L409.3295 135.5317
" />
<path d="M409.3295 135.5317
L409.1438 135.5936
" />
<path d="M409.1438 135.5936
L409.0200 135.5936
" />
<path d="M409.0200 135.5936
L408.8342 135.5317
" />
<path d="M408.8342 135.5317
L408.7104 135.4079
" />
<path d="M408.7104 135.4079
L408.6485 135.2841
" />
<path d="M408.6485 135.2841
L408.5866 135.0365
" />
<path d="M408.5866 135.0365
L408.5866 134.8507
" />
<path d="M408.5866 134.8507
L408.6485 134.6031
" />
<path d="M408.6485 134.6031
L408.7104 134.4793
" />
<path d="M408.7104 134.4793
L408.8342 134.3555
" />
<path d="M408.8342 134.3555
L409.0200 134.2936
" />
<path d="M409.0200 134.2936
L409.1438 134.2936
" />
<path d="M409.1438 134.2936
L409.3295 134.3555
" />
<path d="M409.3295 134.3555
L409.3914 134.4174
" />
</g></g>
<g style="fill:none; 
stroke:#000000; stroke-width:0.1500; stroke-opacity:1; 
stroke-linecap:round; stroke-linejoin:round;">
<text x="408.9890" y="185.6500"
textLength="1.4900" font-size="1.7333" lengthAdjust="spacingAndGlyphs"
text-anchor="middle" opacity="0" stroke-opacity="0">D</text>
<g class="stroked-text"><desc>D</desc>
<path d="M408.6485 185.5936
L408.6485 184.2936
" />
<path d="M408.6485 184.2936
L408.9580 184.2936
" />
<path d="M408.9580 184.2936
L409.1438 184.3555
" />
<path d="M409.1438 184.3555
L409.2676 184.4793
" />
<path d="M409.2676 184.4793
L409.3295 184.6031
" />
<path d="M409.3295 184.6031
L409.3914 184.8507
" />
<path d="M409.3914 184.8507
L409.3914 185.0365
" />
<path d="M409.3914 185.0365
L409.3295 185.2841
" />
<path d="M409.3295 185.2841
L409.2676 185.4079
" />
<path d="M409.2676 185.4079
L409.1438 185.5317
" />
<path d="M409.1438 185.5317
L408.9580 185.5936
" />
<path d="M408.9580 185.5936
L408.6485 185.5936
" />
</g></g>
<g style="fill:none; 
stroke:#000000; stroke-width:0.1500; stroke-opacity:1; 
stroke-linecap:round; stroke-linejoin:round;">
<text x="408.9890" y="235.6500"
textLength="1.3662" font-size="1.7333" lengthAdjust="spacingAndGlyphs"
text-anchor="middle" opacity="0" stroke-opacity="0">E</text>
<g class="stroked-text"><desc>E</desc>
<path d="M408.7104 234.9127
L409.1438 234.9127
" />
<path d="M409.3295 235.5936
L408.7104 235.5936
" />
<path d="M408.7104 235.5936
L408.7104 234.2936
" />
<path d="M408.7104 234.2936
L409.3295 234.2936
" />
</g></g>
<g style="fill:none; 
stroke:#000000; stroke-width:0.1500; stroke-opacity:1; 
stroke-linecap:round; stroke-linejoin:round;">
<text x="408.9890" y="285.6500"
textLength="1.3043" font-size="1.7333" lengthAdjust="spacingAndGlyphs"
text-anchor="middle" opacity="0" stroke-opacity="0">F</text>
<g class="stroked-text"><desc>F</desc>
<path d="M409.1747 284.9127
L408.7414 284.9127
" />
<path d="M408.7414 285.5936
L408.7414 284.2936
" />
<path d="M408.7414 284.2936
L409.3604 284.2936
" />
</g></g>
<g style="fill:none; 
stroke:#000000; stroke-width:0.1500; stroke-opacity:1; 
stroke-linecap:round; stroke-linejoin:round;">
<text x="322.9890" y="280.8522"
textLength="7.0071" font-size="2.0000" lengthAdjust="spacingAndGlyphs"
text-anchor="start" opacity="0" stroke-opacity="0">Date: </text>
<g class="stroked-text"><desc>Date: </desc>
<path d="M323.4448 280.7883
L323.4448 279.2883
" />
<path d="M323.4448 279.2883
L323.8020 279.2883
" />
<path d="M323.8020 279.2883
L324.0163 279.3598
" />
<path d="M324.0163 279.3598
L324.1591 279.5026
" />
<path d="M324.1591 279.5026
L324.2305 279.6455
" />
<path d="M324.2305 279.6455
L324.3020 279.9312
" />
<path d="M324.3020 279.9312
L324.3020 280.1455
" />
<path d="M324.3020 280.1455
L324.2305 280.4312
" />
<path d="M324.2305 280.4312
L324.1591 280.5740
" />
<path d="M324.1591 280.5740
L324.0163 280.7169
" />
<path d="M324.0163 280.7169
L323.8020 280.7883
" />
<path d="M323.8020 280.7883
L323.4448 280.7883
" />
<path d="M325.5877 280.7883
L325.5877 280.0026
" />
<path d="M325.5877 280.0026
L325.5163 279.8598
" />
<path d="M325.5163 279.8598
L325.3734 279.7883
" />
<path d="M325.3734 279.7883
L325.0877 279.7883
" />
<path d="M325.0877 279.7883
L324.9448 279.8598
" />
<path d="M325.5877 280.7169
L325.4448 280.7883
" />
<path d="M325.4448 280.7883
L325.0877 280.7883
" />
<path d="M325.0877 280.7883
L324.9448 280.7169
" />
<path d="M324.9448 280.7169
L324.8734 280.5740
" />
<path d="M324.8734 280.5740
L324.8734 280.4312
" />
<path d="M324.8734 280.4312
L324.9448 280.2883
" />
<path d="M324.9448 280.2883
L325.0877 280.2169
" />
<path d="M325.0877 280.2169
L325.4448 280.2169
" />
<path d="M325.4448 280.2169
L325.5877 280.1455
" />
<path d="M326.0877 279.7883
L326.6591 279.7883
" />
<path d="M326.3020 279.2883
L326.3020 280.5740
" />
<path d="M326.3020 280.5740
L326.3734 280.7169
" />
<path d="M326.3734 280.7169
L326.5163 280.7883
" />
<path d="M326.5163 280.7883
L326.6591 280.7883
" />
<path d="M327.7305 280.7169
L327.5877 280.7883
" />
<path d="M327.5877 280.7883
L327.3020 280.7883
" />
<path d="M327.3020 280.7883
L327.1591 280.7169
" />
<path d="M327.1591 280.7169
L327.0877 280.5740
" />
<path d="M327.0877 280.5740
L327.0877 280.0026
" />
<path d="M327.0877 280.0026
L327.1591 279.8598
" />
<path d="M327.1591 279.8598
L327.3020 279.7883
" />
<path d="M327.3020 279.7883
L327.5877 279.7883
" />
<path d="M327.5877 279.7883
L327.7305 279.8598
" />
<path d="M327.7305 279.8598
L327.8020 280.0026
" />
<path d="M327.8020 280.0026
L327.8020 280.1455
" />
<path d="M327.8020 280.1455
L327.0877 280.2883
" />
<path d="M328.4448 280.6455
L328.5163 280.7169
" />
<path d="M328.5163 280.7169
L328.4448 280.7883
" />
<path d="M328.4448 280.7883
L328.3734 280.7169
" />
<path d="M328.3734 280.7169
L328.4448 280.6455
" />
<path d="M328.4448 280.6455
L328.4448 280.7883
" />
<path d="M328.4448 279.8598
L328.5163 279.9312
" />
<path d="M328.5163 279.9312
L328.4448 280.0026
" />
<path d="M328.4448 280.0026
L328.3734 279.9312
" />
<path d="M328.3734 279.9312
L328.4448 279.8598
" />
<path d="M328.4448 279.8598
L328.4448 280.0026
" />
</g></g>
<g style="fill:none; 
stroke:#000000; stroke-width:0.1500; stroke-opacity:1; 
stroke-linecap:round; stroke-linejoin:round;">
<path d="M299.9890 281.5022
L407.9890 281.5022
" />
</g>
<g style="fill:none; 
stroke:#000000; stroke-width:0.1500; stroke-opacity:1; 
stroke-linecap:round; stroke-linejoin:round;">
<text x="300.9890" y="283.6522"
textLength="20.8643" font-size="2.0000" lengthAdjust="spacingAndGlyphs"
text-anchor="start" opacity="0" stroke-opacity="0">KiCad E.D.A. 8.0.5</text>
<g class="stroked-text"><desc>KiCad E.D.A. 8.0.5</desc>
<path d="M301.4448 283.5883
L301.4448 282.0883
" />
<path d="M302.3020 283.5883
L301.6591 282.7312
" />
<path d="M302.3020 282.0883
L301.4448 282.9455
" />
<path d="M302.9448 283.5883
L302.9448 282.5883
" />
<path d="M302.9448 282.0883
L302.8734 282.1598
" />
<path d="M302.8734 282.1598
L302.9448 282.2312
" />
<path d="M302.9448 282.2312
L303.0163 282.1598
" />
<path d="M303.0163 282.1598
L302.9448 282.0883
" />
<path d="M302.9448 282.0883
L302.9448 282.2312
" />
<path d="M304.5163 283.4455
L304.4448 283.5169
" />
<path d="M304.4448 283.5169
L304.2305 283.5883
" />
<path d="M304.2305 283.5883
L304.0877 283.5883
" />
<path d="M304.0877 283.5883
L303.8734 283.5169
" />
<path d="M303.8734 283.5169
L303.7305 283.3740
" />
<path d="M303.7305 283.3740
L303.6591 283.2312
" />
<path d="M303.6591 283.2312
L303.5877 282.9455
" />
<path d="M303.5877 282.9455
L303.5877 282.7312
" />
<path d="M303.5877 282.7312
L303.6591 282.4455
" />
<path d="M303.6591 282.4455
L303.7305 282.3026
" />
<path d="M303.7305 282.3026
L303.8734 282.1598
" />
<path d="M303.8734 282.1598
L304.0877 282.0883
" />
<path d="M304.0877 282.0883
L304.2305 282.0883
" />
<path d="M304.2305 282.0883
L304.4448 282.1598
" />
<path d="M304.4448 282.1598
L304.5163 282.2312
" />
<path d="M305.8020 283.5883
L305.8020 282.8026
" />
<path d="M305.8020 282.8026
L305.7305 282.6598
" />
<path d="M305.7305 282.6598
L305.5877 282.5883
" />
<path d="M305.5877 282.5883
L305.3020 282.5883
" />
<path d="M305.3020 282.5883
L305.1591 282.6598
" />
<path d="M305.8020 283.5169
L305.6591 283.5883
" />
<path d="M305.6591 283.5883
L305.3020 283.5883
" />
<path d="M305.3020 283.5883
L305.1591 283.5169
" />
<path d="M305.1591 283.5169
L305.0877 283.3740
" />
<path d="M305.0877 283.3740
L305.0877 283.2312
" />
<path d="M305.0877 283.2312
L305.1591 283.0883
" />
<path d="M305.1591 283.0883
L305.3020 283.0169
" />
<path d="M305.3020 283.0169
L305.6591 283.0169
" />
<path d="M305.6591 283.0169
L305.8020 282.9455
" />
<path d="M307.1591 283.5883
L307.1591 282.0883
" />
<path d="M307.1591 283.5169
L307.0163 283.5883
" />
<path d="M307.0163 283.5883
L306.7305 283.5883
" />
<path d="M306.7305 283.5883
L306.5877 283.5169
" />
<path d="M306.5877 283.5169
L306.5163 283.4455
" />
<path d="M306.5163 283.4455
L306.4448 283.3026
" />
<path d="M306.4448 283.3026
L306.4448 282.8740
" />
<path d="M306.4448 282.8740
L306.5163 282.7312
" />
<path d="M306.5163 282.7312
L306.5877 282.6598
" />
<path d="M306.5877 282.6598
L306.7305 282.5883
" />
<path d="M306.7305 282.5883
L307.0163 282.5883
" />
<path d="M307.0163 282.5883
L307.1591 282.6598
" />
<path d="M309.0163 282.8026
L309.5163 282.8026
" />
<path d="M309.7305 283.5883
L309.0163 283.5883
" />
<path d="M309.0163 283.5883
L309.0163 282.0883
" />
<path d="M309.0163 282.0883
L309.7305 282.0883
" />
<path d="M310.3734 283.4455
L310.4448 283.5169
" />
<path d="M310.4448 283.5169
L310.3734 283.5883
" />
<path d="M310.3734 283.5883
L310.3020 283.5169
" />
<path d="M310.3020 283.5169
L310.3734 283.4455
" />
<path d="M310.3734 283.4455
L310.3734 283.5883
" />
<path d="M311.0877 283.5883
L311.0877 282.0883
" />
<path d="M311.0877 282.0883
L311.4448 282.0883
" />
<path d="M311.4448 282.0883
L311.6591 282.1598
" />
<path d="M311.6591 282.1598
L311.8020 282.3026
" />
<path d="M311.8020 282.3026
L311.8734 282.4455
" />
<path d="M311.8734 282.4455
L311.9448 282.7312
" />
<path d="M311.9448 282.7312
L311.9448 282.9455
" />
<path d="M311.9448 282.9455
L311.8734 283.2312
" />
<path d="M311.8734 283.2312
L311.8020 283.3740
" />
<path d="M311.8020 283.3740
L311.6591 283.5169
" />
<path d="M311.6591 283.5169
L311.4448 283.5883
" />
<path d="M311.4448 283.5883
L311.0877 283.5883
" />
<path d="M312.5877 283.4455
L312.6591 283.5169
" />
<path d="M312.6591 283.5169
L312.5877 283.5883
" />
<path d="M312.5877 283.5883
L312.5163 283.5169
" />
<path d="M312.5163 283.5169
L312.5877 283.4455
" />
<path d="M312.5877 283.4455
L312.5877 283.5883
" />
<path d="M313.2305 283.1598
L313.9448 283.1598
" />
<path d="M313.0877 283.5883
L313.5877 282.0883
" />
<path d="M313.5877 282.0883
L314.0877 283.5883
" />
<path d="M314.5877 283.4455
L314.6591 283.5169
" />
<path d="M314.6591 283.5169
L314.5877 283.5883
" />
<path d="M314.5877 283.5883
L314.5163 283.5169
" />
<path d="M314.5163 283.5169
L314.5877 283.4455
" />
<path d="M314.5877 283.4455
L314.5877 283.5883
" />
<path d="M316.6591 282.7312
L316.5163 282.6598
" />
<path d="M316.5163 282.6598
L316.4448 282.5883
" />
<path d="M316.4448 282.5883
L316.3734 282.4455
" />
<path d="M316.3734 282.4455
L316.3734 282.3740
" />
<path d="M316.3734 282.3740
L316.4448 282.2312
" />
<path d="M316.4448 282.2312
L316.5163 282.1598
" />
<path d="M316.5163 282.1598
L316.6591 282.0883
" />
<path d="M316.6591 282.0883
L316.9448 282.0883
" />
<path d="M316.9448 282.0883
L317.0877 282.1598
" />
<path d="M317.0877 282.1598
L317.1591 282.2312
" />
<path d="M317.1591 282.2312
L317.2305 282.3740
" />
<path d="M317.2305 282.3740
L317.2305 282.4455
" />
<path d="M317.2305 282.4455
L317.1591 282.5883
" />
<path d="M317.1591 282.5883
L317.0877 282.6598
" />
<path d="M317.0877 282.6598
L316.9448 282.7312
" />
<path d="M316.9448 282.7312
L316.6591 282.7312
" />
<path d="M316.6591 282.7312
L316.5163 282.8026
" />
<path d="M316.5163 282.8026
L316.4448 282.8740
" />
<path d="M316.4448 282.8740
L316.3734 283.0169
" />
<path d="M316.3734 283.0169
L316.3734 283.3026
" />
<path d="M316.3734 283.3026
L316.4448 283.4455
" />
<path d="M316.4448 283.4455
L316.5163 283.5169
" />
<path d="M316.5163 283.5169
L316.6591 283.5883
" />
<path d="M316.6591 283.5883
L316.9448 283.5883
" />
<path d="M316.9448 283.5883
L317.0877 283.5169
" />
<path d="M317.0877 283.5169
L317.1591 283.4455
" />
<path d="M317.1591 283.4455
L317.2305 283.3026
" />
<path d="M317.2305 283.3026
L317.2305 283.0169
" />
<path d="M317.2305 283.0169
L317.1591 282.8740
" />
<path d="M317.1591 282.8740
L317.0877 282.8026
" />
<path d="M317.0877 282.8026
L316.9448 282.7312
" />
<path d="M317.8734 283.4455
L317.9448 283.5169
" />
<path d="M317.9448 283.5169
L317.8734 283.5883
" />
<path d="M317.8734 283.5883
L317.8020 283.5169
" />
<path d="M317.8020 283.5169
L317.8734 283.4455
" />
<path d="M317.8734 283.4455
L317.8734 283.5883
" />
<path d="M318.8734 282.0883
L319.0163 282.0883
" />
<path d="M319.0163 282.0883
L319.1591 282.1598
" />
<path d="M319.1591 282.1598
L319.2305 282.2312
" />
<path d="M319.2305 282.2312
L319.3020 282.3740
" />
<path d="M319.3020 282.3740
L319.3734 282.6598
" />
<path d="M319.3734 282.6598
L319.3734 283.0169
" />
<path d="M319.3734 283.0169
L319.3020 283.3026
" />
<path d="M319.3020 283.3026
L319.2305 283.4455
" />
<path d="M319.2305 283.4455
L319.1591 283.5169
" />
<path d="M319.1591 283.5169
L319.0163 283.5883
" />
<path d="M319.0163 283.5883
L318.8734 283.5883
" />
<path d="M318.8734 283.5883
L318.7305 283.5169
" />
<path d="M318.7305 283.5169
L318.6591 283.4455
" />
<path d="M318.6591 283.4455
L318.5877 283.3026
" />
<path d="M318.5877 283.3026
L318.5163 283.0169
" />
<path d="M318.5163 283.0169
L318.5163 282.6598
" />
<path d="M318.5163 282.6598
L318.5877 282.3740
" />
<path d="M318.5877 282.3740
L318.6591 282.2312
" />
<path d="M318.6591 282.2312
L318.7305 282.1598
" />
<path d="M318.7305 282.1598
L318.8734 282.0883
" />
<path d="M320.0163 283.4455
L320.0877 283.5169
" />
<path d="M320.0877 283.5169
L320.0163 283.5883
" />
<path d="M320.0163 283.5883
L319.9448 283.5169
" />
<path d="M319.9448 283.5169
L320.0163 283.4455
" />
<path d="M320.0163 283.4455
L320.0163 283.5883
" />
<path d="M321.4448 282.0883
L320.7305 282.0883
" />
<path d="M320.7305 282.0883
L320.6591 282.8026
" />
<path d="M320.6591 282.8026
L320.7305 282.7312
" />
<path d="M320.7305 282.7312
L320.8734 282.6598
" />
<path d="M320.8734 282.6598
L321.2305 282.6598
" />
<path d="M321.2305 282.6598
L321.3734 282.7312
" />
<path d="M321.3734 282.7312
L321.4448 282.8026
" />
<path d="M321.4448 282.8026
L321.5163 282.9455
" />
<path d="M321.5163 282.9455
L321.5163 283.3026
" />
<path d="M321.5163 283.3026
L321.4448 283.4455
" />
<path d="M321.4448 283.4455
L321.3734 283.5169
" />
<path d="M321.3734 283.5169
L321.2305 283.5883
" />
<path d="M321.2305 283.5883
L320.8734 283.5883
" />
<path d="M320.8734 283.5883
L320.7305 283.5169
" />
<path d="M320.7305 283.5169
L320.6591 283.4455
" />
</g></g>
<g style="fill:none; 
stroke:#000000; stroke-width:0.1500; stroke-opacity:1; 
stroke-linecap:round; stroke-linejoin:round;">
<path d="M299.9890 278.5022
L407.9890 278.5022
" />
</g>
<g style="fill:none; 
stroke:#000000; stroke-width:0.3000; stroke-opacity:1; 
stroke-linecap:round; stroke-linejoin:round;">
<text x="385.9890" y="280.8522"
textLength="6.3857" font-size="2.0000" lengthAdjust="spacingAndGlyphs"
text-anchor="start" opacity="0" stroke-opacity="0">Rev: </text>
<g class="stroked-text"><desc>Rev: </desc>
<path d="M387.4007 280.7805
L386.9007 280.0662
" />
<path d="M386.5435 280.7805
L386.5435 279.2805
" />
<path d="M386.5435 279.2805
L387.1149 279.2805
" />
<path d="M387.1149 279.2805
L387.2578 279.3520
" />
<path d="M387.2578 279.3520
L387.3292 279.4234
" />
<path d="M387.3292 279.4234
L387.4007 279.5662
" />
<path d="M387.4007 279.5662
L387.4007 279.7805
" />
<path d="M387.4007 279.7805
L387.3292 279.9234
" />
<path d="M387.3292 279.9234
L387.2578 279.9948
" />
<path d="M387.2578 279.9948
L387.1149 280.0662
" />
<path d="M387.1149 280.0662
L386.5435 280.0662
" />
<path d="M388.6149 280.7091
L388.4721 280.7805
" />
<path d="M388.4721 280.7805
L388.1864 280.7805
" />
<path d="M388.1864 280.7805
L388.0435 280.7091
" />
<path d="M388.0435 280.7091
L387.9721 280.5662
" />
<path d="M387.9721 280.5662
L387.9721 279.9948
" />
<path d="M387.9721 279.9948
L388.0435 279.8520
" />
<path d="M388.0435 279.8520
L388.1864 279.7805
" />
<path d="M388.1864 279.7805
L388.4721 279.7805
" />
<path d="M388.4721 279.7805
L388.6149 279.8520
" />
<path d="M388.6149 279.8520
L388.6864 279.9948
" />
<path d="M388.6864 279.9948
L388.6864 280.1377
" />
<path d="M388.6864 280.1377
L387.9721 280.2805
" />
<path d="M389.1864 279.7805
L389.5435 280.7805
" />
<path d="M389.5435 280.7805
L389.9007 279.7805
" />
<path d="M390.4721 280.6377
L390.5435 280.7091
" />
<path d="M390.5435 280.7091
L390.4721 280.7805
" />
<path d="M390.4721 280.7805
L390.4007 280.7091
" />
<path d="M390.4007 280.7091
L390.4721 280.6377
" />
<path d="M390.4721 280.6377
L390.4721 280.7805
" />
<path d="M390.4721 279.8520
L390.5435 279.9234
" />
<path d="M390.5435 279.9234
L390.4721 279.9948
" />
<path d="M390.4721 279.9948
L390.4007 279.9234
" />
<path d="M390.4007 279.9234
L390.4721 279.8520
" />
<path d="M390.4721 279.8520
L390.4721 279.9948
" />
</g></g>
<g style="fill:none; 
stroke:#000000; stroke-width:0.1500; stroke-opacity:1; 
stroke-linecap:round; stroke-linejoin:round;">
<text x="300.9890" y="280.8522"
textLength="9.3643" font-size="2.0000" lengthAdjust="spacingAndGlyphs"
text-anchor="start" opacity="0" stroke-opacity="0">Size: A3</text>
<g class="stroked-text"><desc>Size: A3</desc>
<path d="M301.3734 280.7169
L301.5877 280.7883
" />
<path d="M301.5877 280.7883
L301.9448 280.7883
" />
<path d="M301.9448 280.7883
L302.0877 280.7169
" />
<path d="M302.0877 280.7169
L302.1591 280.6455
" />
<path d="M302.1591 280.6455
L302.2305 280.5026
" />
<path d="M302.2305 280.5026
L302.2305 280.3598
" />
<path d="M302.2305 280.3598
L302.1591 280.2169
" />
<path d="M302.1591 280.2169
L302.0877 280.1455
" />
<path d="M302.0877 280.1455
L301.9448 280.0740
" />
<path d="M301.9448 280.0740
L301.6591 280.0026
" />
<path d="M301.6591 280.0026
L301.5163 279.9312
" />
<path d="M301.5163 279.9312
L301.4448 279.8598
" />
<path d="M301.4448 279.8598
L301.3734 279.7169
" />
<path d="M301.3734 279.7169
L301.3734 279.5740
" />
<path d="M301.3734 279.5740
L301.4448 279.4312
" />
<path d="M301.4448 279.4312
L301.5163 279.3598
" />
<path d="M301.5163 279.3598
L301.6591 279.2883
" />
<path d="M301.6591 279.2883
L302.0163 279.2883
" />
<path d="M302.0163 279.2883
L302.2305 279.3598
" />
<path d="M302.8734 280.7883
L302.8734 279.7883
" />
<path d="M302.8734 279.2883
L302.8020 279.3598
" />
<path d="M302.8020 279.3598
L302.8734 279.4312
" />
<path d="M302.8734 279.4312
L302.9448 279.3598
" />
<path d="M302.9448 279.3598
L302.8734 279.2883
" />
<path d="M302.8734 279.2883
L302.8734 279.4312
" />
<path d="M303.4448 279.7883
L304.2305 279.7883
" />
<path d="M304.2305 279.7883
L303.4448 280.7883
" />
<path d="M303.4448 280.7883
L304.2305 280.7883
" />
<path d="M305.3734 280.7169
L305.2305 280.7883
" />
<path d="M305.2305 280.7883
L304.9448 280.7883
" />
<path d="M304.9448 280.7883
L304.8020 280.7169
" />
<path d="M304.8020 280.7169
L304.7305 280.5740
" />
<path d="M304.7305 280.5740
L304.7305 280.0026
" />
<path d="M304.7305 280.0026
L304.8020 279.8598
" />
<path d="M304.8020 279.8598
L304.9448 279.7883
" />
<path d="M304.9448 279.7883
L305.2305 279.7883
" />
<path d="M305.2305 279.7883
L305.3734 279.8598
" />
<path d="M305.3734 279.8598
L305.4448 280.0026
" />
<path d="M305.4448 280.0026
L305.4448 280.1455
" />
<path d="M305.4448 280.1455
L304.7305 280.2883
" />
<path d="M306.0877 280.6455
L306.1591 280.7169
" />
<path d="M306.1591 280.7169
L306.0877 280.7883
" />
<path d="M306.0877 280.7883
L306.0163 280.7169
" />
<path d="M306.0163 280.7169
L306.0877 280.6455
" />
<path d="M306.0877 280.6455
L306.0877 280.7883
" />
<path d="M306.0877 279.8598
L306.1591 279.9312
" />
<path d="M306.1591 279.9312
L306.0877 280.0026
" />
<path d="M306.0877 280.0026
L306.0163 279.9312
" />
<path d="M306.0163 279.9312
L306.0877 279.8598
" />
<path d="M306.0877 279.8598
L306.0877 280.0026
" />
<path d="M307.8734 280.3598
L308.5877 280.3598
" />
<path d="M307.7305 280.7883
L308.2305 279.2883
" />
<path d="M308.2305 279.2883
L308.7305 280.7883
" />
<path d="M309.0877 279.2883
L310.0163 279.2883
" />
<path d="M310.0163 279.2883
L309.5163 279.8598
" />
<path d="M309.5163 279.8598
L309.7305 279.8598
" />
<path d="M309.7305 279.8598
L309.8734 279.9312
" />
<path d="M309.8734 279.9312
L309.9448 280.0026
" />
<path d="M309.9448 280.0026
L310.0163 280.1455
" />
<path d="M310.0163 280.1455
L310.0163 280.5026
" />
<path d="M310.0163 280.5026
L309.9448 280.6455
" />
<path d="M309.9448 280.6455
L309.8734 280.7169
" />
<path d="M309.8734 280.7169
L309.7305 280.7883
" />
<path d="M309.7305 280.7883
L309.3020 280.7883
" />
<path d="M309.3020 280.7883
L309.1591 280.7169
" />
<path d="M309.1591 280.7169
L309.0877 280.6455
" />
</g></g>
<g style="fill:none; 
stroke:#000000; stroke-width:0.1500; stroke-opacity:1; 
stroke-linecap:round; stroke-linejoin:round;">
<text x="385.9890" y="283.6522"
textLength="8.5071" font-size="2.0000" lengthAdjust="spacingAndGlyphs"
text-anchor="start" opacity="0" stroke-opacity="0">Id: 1/1</text>
<g class="stroked-text"><desc>Id: 1/1</desc>
<path d="M386.4448 283.5883
L386.4448 282.0883
" />
<path d="M387.8020 283.5883
L387.8020 282.0883
" />
<path d="M387.8020 283.5169
L387.6591 283.5883
" />
<path d="M387.6591 283.5883
L387.3734 283.5883
" />
<path d="M387.3734 283.5883
L387.2305 283.5169
" />
<path d="M387.2305 283.5169
L387.1591 283.4455
" />
<path d="M387.1591 283.4455
L387.0877 283.3026
" />
<path d="M387.0877 283.3026
L387.0877 282.8740
" />
<path d="M387.0877 282.8740
L387.1591 282.7312
" />
<path d="M387.1591 282.7312
L387.2305 282.6598
" />
<path d="M387.2305 282.6598
L387.3734 282.5883
" />
<path d="M387.3734 282.5883
L387.6591 282.5883
" />
<path d="M387.6591 282.5883
L387.8020 282.6598
" />
<path d="M388.5163 283.4455
L388.5877 283.5169
" />
<path d="M388.5877 283.5169
L388.5163 283.5883
" />
<path d="M388.5163 283.5883
L388.4448 283.5169
" />
<path d="M388.4448 283.5169
L388.5163 283.4455
" />
<path d="M388.5163 283.4455
L388.5163 283.5883
" />
<path d="M388.5163 282.6598
L388.5877 282.7312
" />
<path d="M388.5877 282.7312
L388.5163 282.8026
" />
<path d="M388.5163 282.8026
L388.4448 282.7312
" />
<path d="M388.4448 282.7312
L388.5163 282.6598
" />
<path d="M388.5163 282.6598
L388.5163 282.8026
" />
<path d="M391.1591 283.5883
L390.3020 283.5883
" />
<path d="M390.7305 283.5883
L390.7305 282.0883
" />
<path d="M390.7305 282.0883
L390.5877 282.3026
" />
<path d="M390.5877 282.3026
L390.4448 282.4455
" />
<path d="M390.4448 282.4455
L390.3020 282.5169
" />
<path d="M392.8734 282.0169
L391.5877 283.9455
" />
<path d="M394.1591 283.5883
L393.3020 283.5883
" />
<path d="M393.7305 283.5883
L393.7305 282.0883
" />
<path d="M393.7305 282.0883
L393.5877 282.3026
" />
<path d="M393.5877 282.3026
L393.4448 282.4455
" />
<path d="M393.4448 282.4455
L393.3020 282.5169
" />
</g></g>
<g style="fill:none; 
stroke:#000000; stroke-width:0.1500; stroke-opacity:1; 
stroke-linecap:round; stroke-linejoin:round;">
<path d="M299.9890 274.5022
L407.9890 274.5022
" />
</g>
<g style="fill:none; 
stroke:#000000; stroke-width:0.4000; stroke-opacity:1; 
stroke-linecap:round; stroke-linejoin:round;">
<text x="300.9890" y="277.3022"
textLength="9.6571" font-size="2.6667" lengthAdjust="spacingAndGlyphs"
text-anchor="start" opacity="0" stroke-opacity="0">Title: </text>
<g class="stroked-text"><desc>Title: </desc>
<path d="M301.6807 275.2066
L302.8236 275.2066
" />
<path d="M302.0022 277.2066
L302.2522 275.2066
" />
<path d="M303.2403 277.2066
L303.4069 275.8733
" />
<path d="M303.4903 275.2066
L303.3831 275.3019
" />
<path d="M303.3831 275.3019
L303.4664 275.3971
" />
<path d="M303.4664 275.3971
L303.5736 275.3019
" />
<path d="M303.5736 275.3019
L303.4903 275.2066
" />
<path d="M303.4903 275.2066
L303.4664 275.3971
" />
<path d="M304.0736 275.8733
L304.8355 275.8733
" />
<path d="M304.4426 275.2066
L304.2283 276.9209
" />
<path d="M304.2283 276.9209
L304.2998 277.1114
" />
<path d="M304.2998 277.1114
L304.4783 277.2066
" />
<path d="M304.4783 277.2066
L304.6688 277.2066
" />
<path d="M305.6212 277.2066
L305.4426 277.1114
" />
<path d="M305.4426 277.1114
L305.3712 276.9209
" />
<path d="M305.3712 276.9209
L305.5855 275.2066
" />
<path d="M307.1569 277.1114
L306.9545 277.2066
" />
<path d="M306.9545 277.2066
L306.5736 277.2066
" />
<path d="M306.5736 277.2066
L306.3950 277.1114
" />
<path d="M306.3950 277.1114
L306.3236 276.9209
" />
<path d="M306.3236 276.9209
L306.4188 276.1590
" />
<path d="M306.4188 276.1590
L306.5379 275.9685
" />
<path d="M306.5379 275.9685
L306.7403 275.8733
" />
<path d="M306.7403 275.8733
L307.1212 275.8733
" />
<path d="M307.1212 275.8733
L307.2998 275.9685
" />
<path d="M307.2998 275.9685
L307.3712 276.1590
" />
<path d="M307.3712 276.1590
L307.3474 276.3495
" />
<path d="M307.3474 276.3495
L306.3712 276.5400
" />
<path d="M308.1212 277.0162
L308.2045 277.1114
" />
<path d="M308.2045 277.1114
L308.0974 277.2066
" />
<path d="M308.0974 277.2066
L308.0141 277.1114
" />
<path d="M308.0141 277.1114
L308.1212 277.0162
" />
<path d="M308.1212 277.0162
L308.0974 277.2066
" />
<path d="M308.2522 275.9685
L308.3355 276.0638
" />
<path d="M308.3355 276.0638
L308.2283 276.1590
" />
<path d="M308.2283 276.1590
L308.1450 276.0638
" />
<path d="M308.1450 276.0638
L308.2522 275.9685
" />
<path d="M308.2522 275.9685
L308.2283 276.1590
" />
</g></g>
<g style="fill:none; 
stroke:#000000; stroke-width:0.1500; stroke-opacity:1; 
stroke-linecap:round; stroke-linejoin:round;">
<text x="300.9890" y="273.4522"
textLength="29.2214" font-size="2.0000" lengthAdjust="spacingAndGlyphs"
text-anchor="start" opacity="0" stroke-opacity="0">File: triplejump.kicad_pcb</text>
<g class="stroked-text"><desc>File: triplejump.kicad_pcb</desc>
<path d="M301.9448 272.6026
L301.4448 272.6026
" />
<path d="M301.4448 273.3883
L301.4448 271.8883
" />
<path d="M301.4448 271.8883
L302.1591 271.8883
" />
<path d="M302.7305 273.3883
L302.7305 272.3883
" />
<path d="M302.7305 271.8883
L302.6591 271.9598
" />
<path d="M302.6591 271.9598
L302.7305 272.0312
" />
<path d="M302.7305 272.0312
L302.8020 271.9598
" />
<path d="M302.8020 271.9598
L302.7305 271.8883
" />
<path d="M302.7305 271.8883
L302.7305 272.0312
" />
<path d="M303.6591 273.3883
L303.5163 273.3169
" />
<path d="M303.5163 273.3169
L303.4448 273.1740
" />
<path d="M303.4448 273.1740
L303.4448 271.8883
" />
<path d="M304.8020 273.3169
L304.6591 273.3883
" />
<path d="M304.6591 273.3883
L304.3734 273.3883
" />
<path d="M304.3734 273.3883
L304.2305 273.3169
" />
<path d="M304.2305 273.3169
L304.1591 273.1740
" />
<path d="M304.1591 273.1740
L304.1591 272.6026
" />
<path d="M304.1591 272.6026
L304.2305 272.4598
" />
<path d="M304.2305 272.4598
L304.3734 272.3883
" />
<path d="M304.3734 272.3883
L304.6591 272.3883
" />
<path d="M304.6591 272.3883
L304.8020 272.4598
" />
<path d="M304.8020 272.4598
L304.8734 272.6026
" />
<path d="M304.8734 272.6026
L304.8734 272.7455
" />
<path d="M304.8734 272.7455
L304.1591 272.8883
" />
<path d="M305.5163 273.2455
L305.5877 273.3169
" />
<path d="M305.5877 273.3169
L305.5163 273.3883
" />
<path d="M305.5163 273.3883
L305.4448 273.3169
" />
<path d="M305.4448 273.3169
L305.5163 273.2455
" />
<path d="M305.5163 273.2455
L305.5163 273.3883
" />
<path d="M305.5163 272.4598
L305.5877 272.5312
" />
<path d="M305.5877 272.5312
L305.5163 272.6026
" />
<path d="M305.5163 272.6026
L305.4448 272.5312
" />
<path d="M305.4448 272.5312
L305.5163 272.4598
" />
<path d="M305.5163 272.4598
L305.5163 272.6026
" />
<path d="M307.1591 272.3883
L307.7305 272.3883
" />
<path d="M307.3734 271.8883
L307.3734 273.1740
" />
<path d="M307.3734 273.1740
L307.4448 273.3169
" />
<path d="M307.4448 273.3169
L307.5877 273.3883
" />
<path d="M307.5877 273.3883
L307.7305 273.3883
" />
<path d="M308.2305 273.3883
L308.2305 272.3883
" />
<path d="M308.2305 272.6740
L308.3020 272.5312
" />
<path d="M308.3020 272.5312
L308.3734 272.4598
" />
<path d="M308.3734 272.4598
L308.5163 272.3883
" />
<path d="M308.5163 272.3883
L308.6591 272.3883
" />
<path d="M309.1591 273.3883
L309.1591 272.3883
" />
<path d="M309.1591 271.8883
L309.0877 271.9598
" />
<path d="M309.0877 271.9598
L309.1591 272.0312
" />
<path d="M309.1591 272.0312
L309.2305 271.9598
" />
<path d="M309.2305 271.9598
L309.1591 271.8883
" />
<path d="M309.1591 271.8883
L309.1591 272.0312
" />
<path d="M309.8734 272.3883
L309.8734 273.8883
" />
<path d="M309.8734 272.4598
L310.0163 272.3883
" />
<path d="M310.0163 272.3883
L310.3020 272.3883
" />
<path d="M310.3020 272.3883
L310.4448 272.4598
" />
<path d="M310.4448 272.4598
L310.5163 272.5312
" />
<path d="M310.5163 272.5312
L310.5877 272.6740
" />
<path d="M310.5877 272.6740
L310.5877 273.1026
" />
<path d="M310.5877 273.1026
L310.5163 273.2455
" />
<path d="M310.5163 273.2455
L310.4448 273.3169
" />
<path d="M310.4448 273.3169
L310.3020 273.3883
" />
<path d="M310.3020 273.3883
L310.0163 273.3883
" />
<path d="M310.0163 273.3883
L309.8734 273.3169
" />
<path d="M311.4448 273.3883
L311.3020 273.3169
" />
<path d="M311.3020 273.3169
L311.2305 273.1740
" />
<path d="M311.2305 273.1740
L311.2305 271.8883
" />
<path d="M312.5877 273.3169
L312.4448 273.3883
" />
<path d="M312.4448 273.3883
L312.1591 273.3883
" />
<path d="M312.1591 273.3883
L312.0163 273.3169
" />
<path d="M312.0163 273.3169
L311.9448 273.1740
" />
<path d="M311.9448 273.1740
L311.9448 272.6026
" />
<path d="M311.9448 272.6026
L312.0163 272.4598
" />
<path d="M312.0163 272.4598
L312.1591 272.3883
" />
<path d="M312.1591 272.3883
L312.4448 272.3883
" />
<path d="M312.4448 272.3883
L312.5877 272.4598
" />
<path d="M312.5877 272.4598
L312.6591 272.6026
" />
<path d="M312.6591 272.6026
L312.6591 272.7455
" />
<path d="M312.6591 272.7455
L311.9448 272.8883
" />
<path d="M313.3020 272.3883
L313.3020 273.6740
" />
<path d="M313.3020 273.6740
L313.2305 273.8169
" />
<path d="M313.2305 273.8169
L313.0877 273.8883
" />
<path d="M313.0877 273.8883
L313.0163 273.8883
" />
<path d="M313.3020 271.8883
L313.2305 271.9598
" />
<path d="M313.2305 271.9598
L313.3020 272.0312
" />
<path d="M313.3020 272.0312
L313.3734 271.9598
" />
<path d="M313.3734 271.9598
L313.3020 271.8883
" />
<path d="M313.3020 271.8883
L313.3020 272.0312
" />
<path d="M314.6591 272.3883
L314.6591 273.3883
" />
<path d="M314.0163 272.3883
L314.0163 273.1740
" />
<path d="M314.0163 273.1740
L314.0877 273.3169
" />
<path d="M314.0877 273.3169
L314.2305 273.3883
" />
<path d="M314.2305 273.3883
L314.4448 273.3883
" />
<path d="M314.4448 273.3883
L314.5877 273.3169
" />
<path d="M314.5877 273.3169
L314.6591 273.2455
" />
<path d="M315.3734 273.3883
L315.3734 272.3883
" />
<path d="M315.3734 272.5312
L315.4448 272.4598
" />
<path d="M315.4448 272.4598
L315.5877 272.3883
" />
<path d="M315.5877 272.3883
L315.8020 272.3883
" />
<path d="M315.8020 272.3883
L315.9448 272.4598
" />
<path d="M315.9448 272.4598
L316.0163 272.6026
" />
<path d="M316.0163 272.6026
L316.0163 273.3883
" />
<path d="M316.0163 272.6026
L316.0877 272.4598
" />
<path d="M316.0877 272.4598
L316.2305 272.3883
" />
<path d="M316.2305 272.3883
L316.4448 272.3883
" />
<path d="M316.4448 272.3883
L316.5877 272.4598
" />
<path d="M316.5877 272.4598
L316.6591 272.6026
" />
<path d="M316.6591 272.6026
L316.6591 273.3883
" />
<path d="M317.3734 272.3883
L317.3734 273.8883
" />
<path d="M317.3734 272.4598
L317.5163 272.3883
" />
<path d="M317.5163 272.3883
L317.8020 272.3883
" />
<path d="M317.8020 272.3883
L317.9448 272.4598
" />
<path d="M317.9448 272.4598
L318.0163 272.5312
" />
<path d="M318.0163 272.5312
L318.0877 272.6740
" />
<path d="M318.0877 272.6740
L318.0877 273.1026
" />
<path d="M318.0877 273.1026
L318.0163 273.2455
" />
<path d="M318.0163 273.2455
L317.9448 273.3169
" />
<path d="M317.9448 273.3169
L317.8020 273.3883
" />
<path d="M317.8020 273.3883
L317.5163 273.3883
" />
<path d="M317.5163 273.3883
L317.3734 273.3169
" />
<path d="M318.7305 273.2455
L318.8020 273.3169
" />
<path d="M318.8020 273.3169
L318.7305 273.3883
" />
<path d="M318.7305 273.3883
L318.6591 273.3169
" />
<path d="M318.6591 273.3169
L318.7305 273.2455
" />
<path d="M318.7305 273.2455
L318.7305 273.3883
" />
<path d="M319.4448 273.3883
L319.4448 271.8883
" />
<path d="M319.5877 272.8169
L320.0163 273.3883
" />
<path d="M320.0163 272.3883
L319.4448 272.9598
" />
<path d="M320.6591 273.3883
L320.6591 272.3883
" />
<path d="M320.6591 271.8883
L320.5877 271.9598
" />
<path d="M320.5877 271.9598
L320.6591 272.0312
" />
<path d="M320.6591 272.0312
L320.7305 271.9598
" />
<path d="M320.7305 271.9598
L320.6591 271.8883
" />
<path d="M320.6591 271.8883
L320.6591 272.0312
" />
<path d="M322.0163 273.3169
L321.8734 273.3883
" />
<path d="M321.8734 273.3883
L321.5877 273.3883
" />
<path d="M321.5877 273.3883
L321.4448 273.3169
" />
<path d="M321.4448 273.3169
L321.3734 273.2455
" />
<path d="M321.3734 273.2455
L321.3020 273.1026
" />
<path d="M321.3020 273.1026
L321.3020 272.6740
" />
<path d="M321.3020 272.6740
L321.3734 272.5312
" />
<path d="M321.3734 272.5312
L321.4448 272.4598
" />
<path d="M321.4448 272.4598
L321.5877 272.3883
" />
<path d="M321.5877 272.3883
L321.8734 272.3883
" />
<path d="M321.8734 272.3883
L322.0163 272.4598
" />
<path d="M323.3020 273.3883
L323.3020 272.6026
" />
<path d="M323.3020 272.6026
L323.2305 272.4598
" />
<path d="M323.2305 272.4598
L323.0877 272.3883
" />
<path d="M323.0877 272.3883
L322.8020 272.3883
" />
<path d="M322.8020 272.3883
L322.6591 272.4598
" />
<path d="M323.3020 273.3169
L323.1591 273.3883
" />
<path d="M323.1591 273.3883
L322.8020 273.3883
" />
<path d="M322.8020 273.3883
L322.6591 273.3169
" />
<path d="M322.6591 273.3169
L322.5877 273.1740
" />
<path d="M322.5877 273.1740
L322.5877 273.0312
" />
<path d="M322.5877 273.0312
L322.6591 272.8883
" />
<path d="M322.6591 272.8883
L322.8020 272.8169
" />
<path d="M322.8020 272.8169
L323.1591 272.8169
" />
<path d="M323.1591 272.8169
L323.3020 272.7455
" />
<path d="M324.6591 273.3883
L324.6591 271.8883
" />
<path d="M324.6591 273.3169
L324.5163 273.3883
" />
<path d="M324.5163 273.3883
L324.2305 273.3883
" />
<path d="M324.2305 273.3883
L324.0877 273.3169
" />
<path d="M324.0877 273.3169
L324.0163 273.2455
" />
<path d="M324.0163 273.2455
L323.9448 273.1026
" />
<path d="M323.9448 273.1026
L323.9448 272.6740
" />
<path d="M323.9448 272.6740
L324.0163 272.5312
" />
<path d="M324.0163 272.5312
L324.0877 272.4598
" />
<path d="M324.0877 272.4598
L324.2305 272.3883
" />
<path d="M324.2305 272.3883
L324.5163 272.3883
" />
<path d="M324.5163 272.3883
L324.6591 272.4598
" />
<path d="M325.0163 273.5312
L326.1591 273.5312
" />
<path d="M326.5163 272.3883
L326.5163 273.8883
" />
<path d="M326.5163 272.4598
L326.6591 272.3883
" />
<path d="M326.6591 272.3883
L326.9448 272.3883
" />
<path d="M326.9448 272.3883
L327.0877 272.4598
" />
<path d="M327.0877 272.4598
L327.1591 272.5312
" />
<path d="M327.1591 272.5312
L327.2305 272.6740
" />
<path d="M327.2305 272.6740
L327.2305 273.1026
" />
<path d="M327.2305 273.1026
L327.1591 273.2455
" />
<path d="M327.1591 273.2455
L327.0877 273.3169
" />
<path d="M327.0877 273.3169
L326.9448 273.3883
" />
<path d="M326.9448 273.3883
L326.6591 273.3883
" />
<path d="M326.6591 273.3883
L326.5163 273.3169
" />
<path d="M328.5163 273.3169
L328.3734 273.3883
" />
<path d="M328.3734 273.3883
L328.0877 273.3883
" />
<path d="M328.0877 273.3883
L327.9448 273.3169
" />
<path d="M327.9448 273.3169
L327.8734 273.2455
" />
<path d="M327.8734 273.2455
L327.8020 273.1026
" />
<path d="M327.8020 273.1026
L327.8020 272.6740
" />
<path d="M327.8020 272.6740
L327.8734 272.5312
" />
<path d="M327.8734 272.5312
L327.9448 272.4598
" />
<path d="M327.9448 272.4598
L328.0877 272.3883
" />
<path d="M328.0877 272.3883
L328.3734 272.3883
" />
<path d="M328.3734 272.3883
L328.5163 272.4598
" />
<path d="M329.1591 273.3883
L329.1591 271.8883
" />
<path d="M329.1591 272.4598
L329.3020 272.3883
" />
<path d="M329.3020 272.3883
L329.5877 272.3883
" />
<path d="M329.5877 272.3883
L329.7305 272.4598
" />
<path d="M329.7305 272.4598
L329.8020 272.5312
" />
<path d="M329.8020 272.5312
L329.8734 272.6740
" />
<path d="M329.8734 272.6740
L329.8734 273.1026
" />
<path d="M329.8734 273.1026
L329.8020 273.2455
" />
<path d="M329.8020 273.2455
L329.7305 273.3169
" />
<path d="M329.7305 273.3169
L329.5877 273.3883
" />
<path d="M329.5877 273.3883
L329.3020 273.3883
" />
<path d="M329.3020 273.3883
L329.1591 273.3169
" />
</g></g>
<g style="fill:none; 
stroke:#000000; stroke-width:0.1500; stroke-opacity:1; 
stroke-linecap:round; stroke-linejoin:round;">
<path d="M299.9890 268.5022
L407.9890 268.5022
" />
</g>
<g style="fill:none; 
stroke:#000000; stroke-width:0.1500; stroke-opacity:1; 
stroke-linecap:round; stroke-linejoin:round;">
<text x="300.9890" y="270.7522"
textLength="8.2214" font-size="2.0000" lengthAdjust="spacingAndGlyphs"
text-anchor="start" opacity="0" stroke-opacity="0">Sheet: </text>
<g class="stroked-text"><desc>Sheet: </desc>
<path d="M301.3734 270.6169
L301.5877 270.6883
" />
<path d="M301.5877 270.6883
L301.9448 270.6883
" />
<path d="M301.9448 270.6883
L302.0877 270.6169
" />
<path d="M302.0877 270.6169
L302.1591 270.5455
" />
<path d="M302.1591 270.5455
L302.2305 270.4026
" />
<path d="M302.2305 270.4026
L302.2305 270.2598
" />
<path d="M302.2305 270.2598
L302.1591 270.1169
" />
<path d="M302.1591 270.1169
L302.0877 270.0455
" />
<path d="M302.0877 270.0455
L301.9448 269.9740
" />
<path d="M301.9448 269.9740
L301.6591 269.9026
" />
<path d="M301.6591 269.9026
L301.5163 269.8312
" />
<path d="M301.5163 269.8312
L301.4448 269.7598
" />
<path d="M301.4448 269.7598
L301.3734 269.6169
" />
<path d="M301.3734 269.6169
L301.3734 269.4740
" />
<path d="M301.3734 269.4740
L301.4448 269.3312
" />
<path d="M301.4448 269.3312
L301.5163 269.2598
" />
<path d="M301.5163 269.2598
L301.6591 269.1883
" />
<path d="M301.6591 269.1883
L302.0163 269.1883
" />
<path d="M302.0163 269.1883
L302.2305 269.2598
" />
<path d="M302.8734 270.6883
L302.8734 269.1883
" />
<path d="M303.5163 270.6883
L303.5163 269.9026
" />
<path d="M303.5163 269.9026
L303.4448 269.7598
" />
<path d="M303.4448 269.7598
L303.3020 269.6883
" />
<path d="M303.3020 269.6883
L303.0877 269.6883
" />
<path d="M303.0877 269.6883
L302.9448 269.7598
" />
<path d="M302.9448 269.7598
L302.8734 269.8312
" />
<path d="M304.8020 270.6169
L304.6591 270.6883
" />
<path d="M304.6591 270.6883
L304.3734 270.6883
" />
<path d="M304.3734 270.6883
L304.2305 270.6169
" />
<path d="M304.2305 270.6169
L304.1591 270.4740
" />
<path d="M304.1591 270.4740
L304.1591 269.9026
" />
<path d="M304.1591 269.9026
L304.2305 269.7598
" />
<path d="M304.2305 269.7598
L304.3734 269.6883
" />
<path d="M304.3734 269.6883
L304.6591 269.6883
" />
<path d="M304.6591 269.6883
L304.8020 269.7598
" />
<path d="M304.8020 269.7598
L304.8734 269.9026
" />
<path d="M304.8734 269.9026
L304.8734 270.0455
" />
<path d="M304.8734 270.0455
L304.1591 270.1883
" />
<path d="M306.0877 270.6169
L305.9448 270.6883
" />
<path d="M305.9448 270.6883
L305.6591 270.6883
" />
<path d="M305.6591 270.6883
L305.5163 270.6169
" />
<path d="M305.5163 270.6169
L305.4448 270.4740
" />
<path d="M305.4448 270.4740
L305.4448 269.9026
" />
<path d="M305.4448 269.9026
L305.5163 269.7598
" />
<path d="M305.5163 269.7598
L305.6591 269.6883
" />
<path d="M305.6591 269.6883
L305.9448 269.6883
" />
<path d="M305.9448 269.6883
L306.0877 269.7598
" />
<path d="M306.0877 269.7598
L306.1591 269.9026
" />
<path d="M306.1591 269.9026
L306.1591 270.0455
" />
<path d="M306.1591 270.0455
L305.4448 270.1883
" />
<path d="M306.5877 269.6883
L307.1591 269.6883
" />
<path d="M306.8020 269.1883
L306.8020 270.4740
" />
<path d="M306.8020 270.4740
L306.8734 270.6169
" />
<path d="M306.8734 270.6169
L307.0163 270.6883
" />
<path d="M307.0163 270.6883
L307.1591 270.6883
" />
<path d="M307.6591 270.5455
L307.7305 270.6169
" />
<path d="M307.7305 270.6169
L307.6591 270.6883
" />
<path d="M307.6591 270.6883
L307.5877 270.6169
" />
<path d="M307.5877 270.6169
L307.6591 270.5455
" />
<path d="M307.6591 270.5455
L307.6591 270.6883
" />
<path d="M307.6591 269.7598
L307.7305 269.8312
" />
<path d="M307.7305 269.8312
L307.6591 269.9026
" />
<path d="M307.6591 269.9026
L307.5877 269.8312
" />
<path d="M307.5877 269.8312
L307.6591 269.7598
" />
<path d="M307.6591 269.7598
L307.6591 269.9026
" />
</g></g>
<g style="fill:none; 
stroke:#000000; stroke-width:0.3000; stroke-opacity:1; 
stroke-linecap:round; stroke-linejoin:round;">
<text x="300.9890" y="267.7522"
textLength="0.9000" font-size="2.0000" lengthAdjust="spacingAndGlyphs"
text-anchor="start" opacity="0" stroke-opacity="0"></text>
<g class="stroked-text"><desc></desc>
</g></g>
<g style="fill:none; 
stroke:#000000; stroke-width:0.1500; stroke-opacity:1; 
stroke-linecap:round; stroke-linejoin:round;">
<text x="300.9890" y="264.7522"
textLength="0.4500" font-size="2.0000" lengthAdjust="spacingAndGlyphs"
text-anchor="start" opacity="0" stroke-opacity="0"></text>
<g class="stroked-text"><desc></desc>
</g></g>
<g style="fill:none; 
stroke:#000000; stroke-width:0.1500; stroke-opacity:1; 
stroke-linecap:round; stroke-linejoin:round;">
<text x="300.9890" y="261.7522"
textLength="0.4500" font-size="2.0000" lengthAdjust="spacingAndGlyphs"
text-anchor="start" opacity="0" stroke-opacity="0"></text>
<g class="stroked-text"><desc></desc>
</g></g>
<g style="fill:none; 
stroke:#000000; stroke-width:0.1500; stroke-opacity:1; 
stroke-linecap:round; stroke-linejoin:round;">
<text x="300.9890" y="258.7522"
textLength="0.4500" font-size="2.0000" lengthAdjust="spacingAndGlyphs"
text-anchor="start" opacity="0" stroke-opacity="0"></text>
<g class="stroked-text"><desc></desc>
</g></g>
<g style="fill:none; 
stroke:#000000; stroke-width:0.1500; stroke-opacity:1; 
stroke-linecap:round; stroke-linejoin:round;">
<text x="300.9890" y="255.7522"
textLength="0.4500" font-size="2.0000" lengthAdjust="spacingAndGlyphs"
text-anchor="start" opacity="0" stroke-opacity="0"></text>
<g class="stroked-text"><desc></desc>
</g></g>
<g style="fill:none; 
stroke:#000000; stroke-width:0.1500; stroke-opacity:1; 
stroke-linecap:round; stroke-linejoin:round;">
<path d="M319.9890 278.5022
L319.9890 281.5022
" />
</g>
<g style="fill:none; 
stroke:#000000; stroke-width:0.1500; stroke-opacity:1; 
stroke-linecap:round; stroke-linejoin:round;">
<path d="M383.9890 278.5022
L383.9890 285.0022
" />
</g>
<g style="fill:none; 
stroke:#F2EDA1; stroke-width:0.1500; stroke-opacity:1; 
stroke-linecap:round; stroke-linejoin:round;">
<path d="M280.8356 60.7481
L280.4288 59.8346
" />
<path d="M281.3424 59.4278
L280.4288 59.8346
" />
<path d="M286.1231 72.6242
L285.7164 71.7107
" />
<path d="M286.1231 72.6242
L287.0367 72.2175
" />
<path d="M293.2185 54.1403
L292.3049 54.5470
" />
<path d="M293.2185 54.1403
L293.6252 55.0538
" />
<path d="M297.9992 67.3366
L298.9128 66.9299
" />
<path d="M298.5060 66.0164
L298.9128 66.9299
" />
<path d="M298.9128 66.9299
L297.9992 67.3366
" />
<path d="M246.8897 120.8834
L247.5588 121.6266
" />
<path d="M246.8897 120.8834
L247.6329 120.2143
" />
<path d="M255.5884 130.5443
L256.2575 131.2874
" />
<path d="M256.2575 131.2874
L255.5884 130.5443
" />
<path d="M256.5506 112.1847
L257.2937 111.5156
" />
<path d="M257.0007 130.6183
L256.2575 131.2874
" />
<path d="M257.9629 112.2587
L257.2937 111.5156
" />
<path d="M266.6616 121.9196
L265.9184 122.5887
" />
<path d="M266.6616 121.9196
L265.9924 121.1765
" />
<path d="M257.0338 54.1248
L256.6271 53.2112
" />
<path d="M257.5407 52.8045
L256.6271 53.2112
" />
<path d="M262.3214 66.0009
L261.9147 65.0873
" />
<path d="M262.3214 66.0009
L263.2350 65.5941
" />
<path d="M269.4167 47.5169
L268.5032 47.9237
" />
<path d="M269.4167 47.5169
L269.8235 48.4305
" />
<path d="M274.1975 60.7133
L275.1111 60.3066
" />
<path d="M274.7043 59.3930
L275.1111 60.3066
" />
<path d="M275.1111 60.3066
L274.1975 60.7133
" />
<path d="M118.0076 121.1765
L117.3384 121.9196
" />
<path d="M118.0816 122.5887
L117.3384 121.9196
" />
<path d="M126.7063 111.5156
L126.0371 112.2587
" />
<path d="M126.7063 111.5156
L127.4494 112.1847
" />
<path d="M127.7425 131.2874
L126.9993 130.6183
" />
<path d="M127.7425 131.2874
L128.4116 130.5443
" />
<path d="M136.3671 120.2143
L137.1103 120.8834
" />
<path d="M136.4412 121.6266
L137.1103 120.8834
" />
<path d="M137.1103 120.8834
L136.4412 121.6266
" />
<path d="M320.0363 55.1221
L319.6296 54.2086
" />
<path d="M320.5431 53.8018
L319.6296 54.2086
" />
<path d="M325.3239 66.9982
L324.9172 66.0846
" />
<path d="M325.3239 66.9982
L326.2375 66.5915
" />
<path d="M332.4192 48.5142
L331.5057 48.9210
" />
<path d="M332.4192 48.5142
L332.8260 49.4278
" />
<path d="M337.2000 61.7106
L338.1135 61.3039
" />
<path d="M337.7068 60.3903
L338.1135 61.3039
" />
<path d="M338.1135 61.3039
L337.2000 61.7106
" />
<path d="M70.3864 53.1122
L70.7932 52.1987
" />
<path d="M70.3864 53.1122
L71.3000 53.5189
" />
<path d="M75.6740 41.2361
L76.0808 40.3226
" />
<path d="M76.9943 40.7293
L76.0808 40.3226
" />
<path d="M82.2625 58.3998
L83.1761 58.8065
" />
<path d="M83.1761 58.8065
L82.2625 58.3998
" />
<path d="M83.5828 57.8930
L83.1761 58.8065
" />
<path d="M88.8704 46.0169
L87.9568 45.6101
" />
<path d="M88.8704 46.0169
L88.4637 46.9304
" />
<path d="M243.0826 69.6259
L242.6758 68.7124
" />
<path d="M243.5894 68.3056
L242.6758 68.7124
" />
<path d="M248.3701 81.5020
L247.9634 80.5885
" />
<path d="M248.3701 81.5020
L249.2837 81.0953
" />
<path d="M255.4655 63.0181
L254.5519 63.4248
" />
<path d="M255.4655 63.0181
L255.8722 63.9316
" />
<path d="M260.2462 76.2144
L261.1598 75.8077
" />
<path d="M260.7530 74.8942
L261.1598 75.8077
" />
<path d="M261.1598 75.8077
L260.2462 76.2144
" />
<path d="M291.8399 38.6281
L291.4332 37.7146
" />
<path d="M292.3467 37.3078
L291.4332 37.7146
" />
<path d="M297.1275 50.5042
L296.7208 49.5907
" />
<path d="M297.1275 50.5042
L298.0410 50.0975
" />
<path d="M304.2228 32.0203
L303.3093 32.4270
" />
<path d="M304.2228 32.0203
L304.6296 32.9338
" />
<path d="M309.0036 45.2166
L309.9171 44.8099
" />
<path d="M309.5104 43.8964
L309.9171 44.8099
" />
<path d="M309.9171 44.8099
L309.0036 45.2166
" />
<path d="M312.6947 38.6326
L312.2880 37.7191
" />
<path d="M313.2015 37.3123
L312.2880 37.7191
" />
<path d="M317.9823 50.5087
L317.5756 49.5951
" />
<path d="M317.9823 50.5087
L318.8959 50.1020
" />
<path d="M325.0776 32.0247
L324.1641 32.4315
" />
<path d="M325.0776 32.0247
L325.4844 32.9383
" />
<path d="M329.8584 45.2211
L330.7719 44.8144
" />
<path d="M330.3652 43.9008
L330.7719 44.8144
" />
<path d="M330.7719 44.8144
L329.8584 45.2211
" />
<path d="M105.1925 68.6089
L105.5993 67.6953
" />
<path d="M105.1925 68.6089
L106.1061 69.0156
" />
<path d="M110.4801 56.7328
L110.8868 55.8192
" />
<path d="M111.8004 56.2260
L110.8868 55.8192
" />
<path d="M117.0686 73.8965
L117.9822 74.3032
" />
<path d="M117.9822 74.3032
L117.0686 73.8965
" />
<path d="M118.3889 73.3896
L117.9822 74.3032
" />
<path d="M123.6765 61.5136
L122.7629 61.1068
" />
<path d="M123.6765 61.5136
L123.2697 62.4271
" />
<path d="M299.1815 55.1176
L298.7748 54.2041
" />
<path d="M299.6883 53.7973
L298.7748 54.2041
" />
<path d="M304.4691 66.9937
L304.0624 66.0802
" />
<path d="M304.4691 66.9937
L305.3826 66.5870
" />
<path d="M311.5644 48.5098
L310.6509 48.9165
" />
<path d="M311.5644 48.5098
L311.9712 49.4233
" />
<path d="M316.3452 61.7061
L317.2587 61.2994
" />
<path d="M316.8520 60.3859
L317.2587 61.2994
" />
<path d="M317.2587 61.2994
L316.3452 61.7061
" />
<path d="M88.7580 58.6852
L89.1648 57.7716
" />
<path d="M88.7580 58.6852
L89.6716 59.0919
" />
<path d="M94.0456 46.8091
L94.4523 45.8955
" />
<path d="M95.3659 46.3023
L94.4523 45.8955
" />
<path d="M100.6341 63.9727
L101.5477 64.3795
" />
<path d="M101.5477 64.3795
L100.6341 63.9727
" />
<path d="M101.9544 63.4659
L101.5477 64.3795
" />
<path d="M107.2420 51.5898
L106.3284 51.1831
" />
<path d="M107.2420 51.5898
L106.8352 52.5034
" />
<path d="M264.3754 70.6143
L263.9687 69.7007
" />
<path d="M264.8822 69.2940
L263.9687 69.7007
" />
<path d="M269.6630 82.4904
L269.2563 81.5768
" />
<path d="M269.6630 82.4904
L270.5766 82.0836
" />
<path d="M276.7583 64.0064
L275.8448 64.4132
" />
<path d="M276.7583 64.0064
L277.1651 64.9200
" />
<path d="M281.5391 77.2028
L282.4527 76.7961
" />
<path d="M282.0459 75.8825
L282.4527 76.7961
" />
<path d="M282.4527 76.7961
L281.5391 77.2028
" />
</g>
<g style="fill:none; 
stroke:#F2EDA1; stroke-width:0.1200; stroke-opacity:1; 
stroke-linecap:round; stroke-linejoin:round;">
<path d="M168.5812 30.4437
L168.5812 31.9437
" />
<path d="M169.8312 34.4438
L174.3312 34.4438
" />
<path d="M174.3312 27.9437
L169.8312 27.9437
" />
<path d="M175.5812 31.9437
L175.5812 30.4437
" />
</g>
<g style="fill:none; 
stroke:#F2EDA1; stroke-width:0.1500; stroke-opacity:1; 
stroke-linecap:round; stroke-linejoin:round;">
<path d="M271.7170 87.1038
L271.3103 86.1902
" />
<path d="M272.2238 85.7835
L271.3103 86.1902
" />
<path d="M277.0046 98.9799
L276.5979 98.0663
" />
<path d="M277.0046 98.9799
L277.9182 98.5731
" />
<path d="M284.0999 80.4959
L283.1864 80.9027
" />
<path d="M284.0999 80.4959
L284.5067 81.4095
" />
<path d="M288.8807 93.6923
L289.7942 93.2856
" />
<path d="M289.3875 92.3720
L289.7942 93.2856
" />
<path d="M289.7942 93.2856
L288.8807 93.6923
" />
<path d="M273.4940 44.2586
L273.0872 43.3451
" />
<path d="M274.0008 42.9384
L273.0872 43.3451
" />
<path d="M278.7815 56.1347
L278.3748 55.2212
" />
<path d="M278.7815 56.1347
L279.6951 55.7280
" />
<path d="M285.8769 37.6508
L284.9633 38.0575
" />
<path d="M285.8769 37.6508
L286.2836 38.5643
" />
<path d="M290.6576 50.8471
L291.5712 50.4404
" />
<path d="M291.1644 49.5269
L291.5712 50.4404
" />
<path d="M291.5712 50.4404
L290.6576 50.8471
" />
</g>
<g style="fill:none; 
stroke:#F2EDA1; stroke-width:0.1200; stroke-opacity:1; 
stroke-linecap:round; stroke-linejoin:round;">
<path d="M132.8625 30.4437
L132.8625 31.9437
" />
<path d="M134.1125 34.4438
L138.6125 34.4438
" />
<path d="M138.6125 27.9437
L134.1125 27.9437
" />
<path d="M139.8625 31.9437
L139.8625 30.4437
" />
<path d="M120.9565 30.4437
L120.9565 31.9437
" />
<path d="M122.2065 34.4438
L126.7065 34.4438
" />
<path d="M126.7065 27.9437
L122.2065 27.9437
" />
<path d="M127.9565 31.9437
L127.9565 30.4437
" />
<path d="M156.6750 30.4437
L156.6750 31.9437
" />
<path d="M157.9250 34.4438
L162.4250 34.4438
" />
<path d="M162.4250 27.9437
L157.9250 27.9437
" />
<path d="M163.6750 31.9437
L163.6750 30.4437
" />
<path d="M144.7687 30.4437
L144.7687 31.9437
" />
<path d="M146.0187 34.4438
L150.5187 34.4438
" />
<path d="M150.5187 27.9437
L146.0187 27.9437
" />
<path d="M151.7687 31.9437
L151.7687 30.4437
" />
</g>
<g style="fill:none; 
stroke:#FF26E2; stroke-width:0.0500; stroke-opacity:1; 
stroke-linecap:round; stroke-linejoin:round;">
<circle cx="37.0000" cy="137.0000" r="3.4500" /> 
<path d="M167.3312 27.4437
L167.5812 27.4437
" />
<path d="M167.3312 27.6937
L167.3312 27.4437
" />
<path d="M167.3312 34.6938
L167.3312 27.6937
" />
<path d="M167.3312 34.6938
L167.3312 34.9438
" />
<path d="M167.3312 34.9438
L167.5812 34.9438
" />
<path d="M167.5812 27.4437
L176.5812 27.4437
" />
<path d="M176.5812 27.4437
L176.8312 27.4437
" />
<path d="M176.5812 34.9438
L167.5812 34.9438
" />
<path d="M176.5812 34.9438
L176.8312 34.9438
" />
<path d="M176.8312 27.4437
L176.8312 27.6937
" />
<path d="M176.8312 27.6937
L176.8312 34.6938
" />
<path d="M176.8312 34.9438
L176.8312 34.6938
" />
<circle cx="37.0000" cy="27.0000" r="3.4500" /> 
<circle cx="347.0000" cy="27.0000" r="3.4500" /> 
<circle cx="207.0000" cy="27.0000" r="3.4500" /> 
<circle cx="347.0000" cy="137.0000" r="3.4500" /> 
<path d="M131.6125 27.4437
L131.8625 27.4437
" />
<path d="M131.6125 27.6937
L131.6125 27.4437
" />
<path d="M131.6125 34.6938
L131.6125 27.6937
" />
<path d="M131.6125 34.6938
L131.6125 34.9438
" />
<path d="M131.6125 34.9438
L131.8625 34.9438
" />
<path d="M131.8625 27.4437
L140.8625 27.4437
" />
<path d="M140.8625 27.4437
L141.1125 27.4437
" />
<path d="M140.8625 34.9438
L131.8625 34.9438
" />
<path d="M140.8625 34.9438
L141.1125 34.9438
" />
<path d="M141.1125 27.4437
L141.1125 27.6937
" />
<path d="M141.1125 27.6937
L141.1125 34.6938
" />
<path d="M141.1125 34.9438
L141.1125 34.6938
" />
<path d="M119.7065 27.4437
L119.9565 27.4437
" />
<path d="M119.7065 27.6937
L119.7065 27.4437
" />
<path d="M119.7065 34.6938
L119.7065 27.6937
" />
<path d="M119.7065 34.6938
L119.7065 34.9438
" />
<path d="M119.7065 34.9438
L119.9565 34.9438
" />
<path d="M119.9565 27.4437
L128.9565 27.4437
" />
<path d="M128.9565 27.4437
L129.2065 27.4437
" />
<path d="M128.9565 34.9438
L119.9565 34.9438
" />
<path d="M128.9565 34.9438
L129.2065 34.9438
" />
<path d="M129.2065 27.4437
L129.2065 27.6937
" />
<path d="M129.2065 27.6937
L129.2065 34.6938
" />
<path d="M129.2065 34.9438
L129.2065 34.6938
" />
<path d="M155.4250 27.4437
L155.6750 27.4437
" />
<path d="M155.4250 27.6937
L155.4250 27.4437
" />
<path d="M155.4250 34.6938
L155.4250 27.6937
" />
<path d="M155.4250 34.6938
L155.4250 34.9438
" />
<path d="M155.4250 34.9438
L155.6750 34.9438
" />
<path d="M155.6750 27.4437
L164.6750 27.4437
" />
<path d="M164.6750 27.4437
L164.9250 27.4437
" />
<path d="M164.6750 34.9438
L155.6750 34.9438
" />
<path d="M164.6750 34.9438
L164.9250 34.9438
" />
<path d="M164.9250 27.4437
L164.9250 27.6937
" />
<path d="M164.9250 27.6937
L164.9250 34.6938
" />
<path d="M164.9250 34.9438
L164.9250 34.6938
" />
<path d="M143.5187 27.4437
L143.7687 27.4437
" />
<path d="M143.5187 27.6937
L143.5187 27.4437
" />
<path d="M143.5187 34.6938
L143.5187 27.6937
" />
<path d="M143.5187 34.6938
L143.5187 34.9438
" />
<path d="M143.5187 34.9438
L143.7687 34.9438
" />
<path d="M143.7687 27.4437
L152.7687 27.4437
" />
<path d="M152.7687 27.4437
L153.0187 27.4437
" />
<path d="M152.7687 34.9438
L143.7687 34.9438
" />
<path d="M152.7687 34.9438
L153.0187 34.9438
" />
<path d="M153.0187 27.4437
L153.0187 27.6937
" />
<path d="M153.0187 27.6937
L153.0187 34.6938
" />
<path d="M153.0187 34.9438
L153.0187 34.6938
" />
<circle cx="192.0000" cy="137.0000" r="3.4500" /> 
</g>
<g style="fill:none; 
stroke:#D0D2CD; stroke-width:0.1000; stroke-opacity:1; 
stroke-linecap:round; stroke-linejoin:round;">
<path d="M347.0000 22.0000
L199.0000 22.0000
" />
<path d="M32.0000 137.0000 A5.0000 5.0000 0.0 0 0 37.0000 142.0000" />
<path d="M199.0000 22.0000
L198.5000 22.0000
" />
<path d="M347.0000 142.0000 A5.0000 5.0000 0.0 0 0 352.0000 137.0000" />
<path d="M185.0000 22.0000
L37.0000 22.0000
" />
<path d="M352.0000 137.0000
L352.0000 27.0000
" />
<path d="M37.0000 22.0000 A5.0000 5.0000 0.0 0 0 32.0000 27.0000" />
<path d="M186.0000 22.7500
L186.0000 22.5000
" />
<path d="M352.0000 27.0000 A5.0000 5.0000 0.0 0 0 347.0000 22.0000" />
<path d="M37.0000 142.0000
L347.0000 142.0000
" />
<path d="M32.0000 27.0000
L32.0000 137.0000
" />
<path d="M198.5000 22.0000 A0.5000 0.5000 0.0 0 0 198.0000 22.5000" />
<path d="M186.0000 22.5000 A0.5000 0.5000 0.0 0 0 185.5000 22.0000" />
<path d="M198.0000 22.7500
L198.0000 22.5000
" />
<path d="M185.5000 22.0000
L185.0000 22.0000
" />
</g>
<g style="fill:none; 
stroke:#D0D2CD; stroke-width:0.1200; stroke-opacity:1; 
stroke-linecap:round; stroke-linejoin:round;">
<path d="M186.0000 22.7500
L186.0000 43.7500
" />
<path d="M186.0000 43.7500
L198.0000 43.7500
" />
<path d="M198.0000 43.7500
L198.0000 22.7500
" />
</g> 
</svg>
